G75*
%MOIN*%
%OFA0B0*%
%FSLAX25Y25*%
%IPPOS*%
%LPD*%
%AMOC8*
5,1,8,0,0,1.08239X$1,22.5*
%
%ADD10C,0.03937*%
%ADD11R,0.06496X0.06496*%
%ADD12C,0.06496*%
%ADD13C,0.04800*%
%ADD14OC8,0.05600*%
D10*
X0073619Y0386047D03*
X0447635Y0388015D03*
D11*
X0172217Y0048621D03*
X0192335Y0017125D03*
X0162335Y0013188D03*
X0119540Y0048621D03*
X0115485Y0013188D03*
X0094028Y0013188D03*
X0388579Y0038527D03*
X0407020Y0013188D03*
D12*
X0074028Y0013188D03*
X0084028Y0013188D03*
X0125485Y0013188D03*
X0135485Y0013188D03*
X0145485Y0013188D03*
X0172335Y0013188D03*
X0202335Y0017125D03*
X0182217Y0048621D03*
X0149540Y0048621D03*
X0139540Y0048621D03*
X0129540Y0048621D03*
X0388579Y0048527D03*
X0387020Y0013188D03*
X0397020Y0013188D03*
D13*
X0237453Y0019759D03*
X0237453Y0038759D03*
D14*
X0242005Y0098645D03*
X0232005Y0098645D03*
X0279249Y0100614D03*
X0289249Y0100614D03*
X0352083Y0100614D03*
X0362083Y0100614D03*
X0395390Y0100614D03*
X0405390Y0100614D03*
X0366020Y0059669D03*
X0356020Y0059669D03*
X0326650Y0029747D03*
X0316650Y0029747D03*
X0169170Y0098645D03*
X0159170Y0098645D03*
X0123894Y0098645D03*
X0113894Y0098645D03*
X0089028Y0058188D03*
X0079028Y0058188D03*
X0079028Y0038188D03*
X0089028Y0038188D03*
X0233973Y0175417D03*
X0243973Y0175417D03*
X0279249Y0179354D03*
X0289249Y0179354D03*
X0348146Y0179354D03*
X0358146Y0179354D03*
X0397359Y0179354D03*
X0407359Y0179354D03*
X0407359Y0258094D03*
X0397359Y0258094D03*
X0360115Y0256125D03*
X0350115Y0256125D03*
X0287280Y0256125D03*
X0277280Y0256125D03*
X0243973Y0256125D03*
X0233973Y0256125D03*
X0171138Y0256125D03*
X0161138Y0256125D03*
X0123894Y0256125D03*
X0113894Y0256125D03*
X0113894Y0179354D03*
X0123894Y0179354D03*
X0161138Y0179354D03*
X0171138Y0179354D03*
X0173107Y0334865D03*
X0163107Y0334865D03*
X0123894Y0336834D03*
X0113894Y0336834D03*
X0232005Y0336834D03*
X0242005Y0336834D03*
X0279249Y0338802D03*
X0289249Y0338802D03*
X0348146Y0336834D03*
X0358146Y0336834D03*
X0399327Y0336834D03*
X0409327Y0336834D03*
M02*
