G75*
%MOIN*%
%OFA0B0*%
%FSLAX25Y25*%
%IPPOS*%
%LPD*%
%AMOC8*
5,1,8,0,0,1.08239X$1,22.5*
%
%ADD10R,0.05906X0.03937*%
%ADD11R,0.03937X0.12205*%
%ADD12R,0.05906X0.02165*%
%ADD13R,0.02165X0.05906*%
%ADD14R,0.04331X0.03937*%
%ADD15R,0.03937X0.04331*%
%ADD16R,0.08000X0.02600*%
D10*
X0108989Y0112991D03*
X0108989Y0125590D03*
X0128280Y0125590D03*
X0128280Y0112991D03*
X0156233Y0112991D03*
X0156233Y0125590D03*
X0175524Y0125590D03*
X0175524Y0112991D03*
X0228044Y0112991D03*
X0228044Y0125590D03*
X0247335Y0125590D03*
X0247335Y0112991D03*
X0275170Y0112991D03*
X0275170Y0125590D03*
X0294461Y0125590D03*
X0294461Y0112991D03*
X0344855Y0112991D03*
X0344855Y0125590D03*
X0364146Y0125590D03*
X0364146Y0112991D03*
X0393044Y0112991D03*
X0393044Y0125590D03*
X0412335Y0125590D03*
X0412335Y0112991D03*
X0412335Y0191928D03*
X0412335Y0204527D03*
X0393044Y0204527D03*
X0393044Y0191928D03*
X0364146Y0191928D03*
X0364146Y0204527D03*
X0344855Y0204527D03*
X0344855Y0191928D03*
X0294461Y0191928D03*
X0294461Y0204527D03*
X0275170Y0204527D03*
X0275170Y0191928D03*
X0247335Y0191928D03*
X0247335Y0204527D03*
X0228044Y0204527D03*
X0228044Y0191928D03*
X0175524Y0191928D03*
X0175524Y0204527D03*
X0156233Y0204527D03*
X0156233Y0191928D03*
X0128280Y0192322D03*
X0128280Y0204921D03*
X0108989Y0204921D03*
X0108989Y0192322D03*
X0108989Y0270708D03*
X0108989Y0283306D03*
X0128280Y0283306D03*
X0128280Y0270708D03*
X0156233Y0270708D03*
X0156233Y0283306D03*
X0175524Y0283306D03*
X0175524Y0270708D03*
X0228044Y0270708D03*
X0228044Y0283306D03*
X0247335Y0283306D03*
X0247335Y0270708D03*
X0275170Y0270708D03*
X0275170Y0283306D03*
X0294461Y0283306D03*
X0294461Y0270708D03*
X0344855Y0270708D03*
X0344855Y0283306D03*
X0364146Y0283306D03*
X0364146Y0270708D03*
X0393044Y0270708D03*
X0393044Y0283306D03*
X0412335Y0283306D03*
X0412335Y0270708D03*
X0412335Y0350393D03*
X0412335Y0362991D03*
X0393044Y0362991D03*
X0393044Y0350393D03*
X0364146Y0350393D03*
X0364146Y0362991D03*
X0344855Y0362991D03*
X0344855Y0350393D03*
X0294461Y0350393D03*
X0294461Y0362991D03*
X0275170Y0362991D03*
X0275170Y0350393D03*
X0247335Y0350393D03*
X0247335Y0362991D03*
X0228044Y0362991D03*
X0228044Y0350393D03*
X0175642Y0350393D03*
X0175642Y0362991D03*
X0156351Y0362991D03*
X0156351Y0350393D03*
X0128280Y0350787D03*
X0128280Y0363385D03*
X0108989Y0363385D03*
X0108989Y0350787D03*
D11*
X0429107Y0035826D03*
X0439107Y0035826D03*
X0449107Y0035826D03*
X0449107Y0014566D03*
X0439107Y0014566D03*
X0429107Y0014566D03*
D12*
X0298753Y0018110D03*
X0298753Y0021259D03*
X0298753Y0024409D03*
X0298753Y0027558D03*
X0298753Y0030708D03*
X0298753Y0033858D03*
X0298753Y0037007D03*
X0298753Y0040157D03*
X0264894Y0040157D03*
X0264894Y0037007D03*
X0264894Y0033858D03*
X0264894Y0030708D03*
X0264894Y0027558D03*
X0264894Y0024409D03*
X0264894Y0021259D03*
X0264894Y0018110D03*
D13*
X0270800Y0012204D03*
X0273949Y0012204D03*
X0277099Y0012204D03*
X0280249Y0012204D03*
X0283398Y0012204D03*
X0286548Y0012204D03*
X0289698Y0012204D03*
X0292847Y0012204D03*
X0292847Y0046062D03*
X0289698Y0046062D03*
X0286548Y0046062D03*
X0283398Y0046062D03*
X0280249Y0046062D03*
X0277099Y0046062D03*
X0273949Y0046062D03*
X0270800Y0046062D03*
D14*
X0125485Y0026968D03*
X0125485Y0033661D03*
X0145485Y0033661D03*
X0145485Y0026968D03*
X0168398Y0026968D03*
X0168398Y0033661D03*
X0183280Y0062401D03*
X0183280Y0069094D03*
X0150603Y0069094D03*
X0150603Y0062401D03*
X0130603Y0062401D03*
X0130603Y0069094D03*
X0218241Y0040354D03*
X0224934Y0040354D03*
X0224863Y0017173D03*
X0218170Y0017173D03*
X0405509Y0039984D03*
X0405509Y0046677D03*
D15*
X0337989Y0053488D03*
X0331296Y0053488D03*
X0320272Y0052858D03*
X0313579Y0052858D03*
X0313579Y0041991D03*
X0320272Y0041991D03*
X0293871Y0059881D03*
X0287178Y0059881D03*
X0277375Y0059881D03*
X0270682Y0059881D03*
X0310593Y0014645D03*
X0317286Y0014645D03*
D16*
X0340574Y0014373D03*
X0340574Y0009373D03*
X0340574Y0019373D03*
X0340574Y0024373D03*
X0340574Y0029373D03*
X0340574Y0034373D03*
X0340574Y0039373D03*
X0340574Y0044373D03*
X0364774Y0044373D03*
X0364774Y0039373D03*
X0364774Y0034373D03*
X0364774Y0029373D03*
X0364774Y0024373D03*
X0364774Y0019373D03*
X0364774Y0014373D03*
X0364774Y0009373D03*
M02*
