G75*
%MOIN*%
%OFA0B0*%
%FSLAX25Y25*%
%IPPOS*%
%LPD*%
%AMOC8*
5,1,8,0,0,1.08239X$1,22.5*
%
%ADD10R,0.06496X0.06496*%
%ADD11C,0.06496*%
%ADD12C,0.04800*%
%ADD13OC8,0.05600*%
%ADD14C,0.00600*%
%ADD15C,0.02362*%
%ADD16C,0.01000*%
%ADD17C,0.00591*%
%ADD18C,0.02000*%
D10*
X0094028Y0013188D03*
X0115485Y0013188D03*
X0119540Y0048621D03*
X0162335Y0013188D03*
X0192335Y0017125D03*
X0172217Y0048621D03*
X0388579Y0038527D03*
X0407020Y0013188D03*
D11*
X0397020Y0013188D03*
X0387020Y0013188D03*
X0388579Y0048527D03*
X0202335Y0017125D03*
X0172335Y0013188D03*
X0145485Y0013188D03*
X0135485Y0013188D03*
X0125485Y0013188D03*
X0084028Y0013188D03*
X0074028Y0013188D03*
X0129540Y0048621D03*
X0139540Y0048621D03*
X0149540Y0048621D03*
X0182217Y0048621D03*
D12*
X0237453Y0038759D03*
X0237453Y0019759D03*
D13*
X0316650Y0029747D03*
X0326650Y0029747D03*
X0356020Y0057306D03*
X0366020Y0057306D03*
X0362083Y0100614D03*
X0352083Y0100614D03*
X0395390Y0100614D03*
X0405390Y0100614D03*
X0407359Y0179354D03*
X0397359Y0179354D03*
X0358146Y0179354D03*
X0348146Y0179354D03*
X0289249Y0179354D03*
X0279249Y0179354D03*
X0243973Y0175417D03*
X0233973Y0175417D03*
X0171138Y0179354D03*
X0161138Y0179354D03*
X0123894Y0179354D03*
X0113894Y0179354D03*
X0113894Y0256125D03*
X0123894Y0256125D03*
X0161138Y0256125D03*
X0171138Y0256125D03*
X0233973Y0256125D03*
X0243973Y0256125D03*
X0277280Y0256125D03*
X0287280Y0256125D03*
X0350115Y0256125D03*
X0360115Y0256125D03*
X0397359Y0258094D03*
X0407359Y0258094D03*
X0409327Y0336834D03*
X0399327Y0336834D03*
X0358146Y0336834D03*
X0348146Y0336834D03*
X0289249Y0338802D03*
X0279249Y0338802D03*
X0242005Y0336834D03*
X0232005Y0336834D03*
X0173107Y0334865D03*
X0163107Y0334865D03*
X0123894Y0336834D03*
X0113894Y0336834D03*
X0279249Y0100614D03*
X0289249Y0100614D03*
X0242005Y0098645D03*
X0232005Y0098645D03*
X0169170Y0098645D03*
X0159170Y0098645D03*
X0123894Y0098645D03*
X0113894Y0098645D03*
X0089028Y0058188D03*
X0079028Y0058188D03*
X0079028Y0038188D03*
X0089028Y0038188D03*
D14*
X0070839Y0002188D02*
X0063776Y0002188D01*
X0063776Y0395889D01*
X0457477Y0395889D01*
X0457477Y0002188D01*
X0409485Y0002188D01*
X0409996Y0003421D01*
X0409996Y0007240D01*
X0410805Y0007240D01*
X0411798Y0007651D01*
X0412557Y0008411D01*
X0412968Y0009403D01*
X0412968Y0015138D01*
X0420338Y0015138D01*
X0420633Y0014843D01*
X0422059Y0014252D01*
X0423603Y0014252D01*
X0425030Y0014843D01*
X0426122Y0015935D01*
X0426712Y0017361D01*
X0426712Y0018905D01*
X0426122Y0020332D01*
X0425030Y0021423D01*
X0423603Y0022014D01*
X0422059Y0022014D01*
X0420633Y0021423D01*
X0420338Y0021128D01*
X0309577Y0021128D01*
X0309282Y0021423D01*
X0307855Y0022014D01*
X0306311Y0022014D01*
X0304885Y0021423D01*
X0303793Y0020332D01*
X0303202Y0018905D01*
X0303202Y0017361D01*
X0303793Y0015935D01*
X0304885Y0014843D01*
X0306311Y0014252D01*
X0307855Y0014252D01*
X0309282Y0014843D01*
X0309577Y0015138D01*
X0381390Y0015138D01*
X0381072Y0014371D01*
X0381072Y0012986D01*
X0379380Y0011294D01*
X0298843Y0011294D01*
X0299350Y0011801D01*
X0299941Y0013227D01*
X0299941Y0014771D01*
X0299350Y0016198D01*
X0298258Y0017290D01*
X0296832Y0017880D01*
X0296421Y0017880D01*
X0294035Y0020266D01*
X0294035Y0020677D01*
X0293444Y0022103D01*
X0292353Y0023195D01*
X0290926Y0023786D01*
X0289382Y0023786D01*
X0288775Y0023534D01*
X0289057Y0024216D01*
X0289057Y0025760D01*
X0288466Y0027187D01*
X0288176Y0027477D01*
X0288176Y0029803D01*
X0288958Y0029803D01*
X0290348Y0030379D01*
X0291004Y0030107D01*
X0292548Y0030107D01*
X0293975Y0030698D01*
X0294265Y0030988D01*
X0311150Y0030988D01*
X0311150Y0027469D01*
X0314372Y0024247D01*
X0318928Y0024247D01*
X0321650Y0026969D01*
X0324372Y0024247D01*
X0328928Y0024247D01*
X0332150Y0027469D01*
X0332150Y0030988D01*
X0430334Y0030988D01*
X0430955Y0030367D01*
X0430565Y0029977D01*
X0429974Y0028551D01*
X0429974Y0027007D01*
X0430565Y0025580D01*
X0430655Y0025490D01*
X0430655Y0008414D01*
X0430565Y0008324D01*
X0429974Y0006897D01*
X0429974Y0005353D01*
X0430565Y0003927D01*
X0431657Y0002835D01*
X0433083Y0002244D01*
X0434627Y0002244D01*
X0436053Y0002835D01*
X0437145Y0003927D01*
X0437736Y0005353D01*
X0437736Y0006897D01*
X0437145Y0008324D01*
X0437055Y0008414D01*
X0437055Y0024267D01*
X0439890Y0021432D01*
X0439695Y0020960D01*
X0439695Y0019416D01*
X0440286Y0017990D01*
X0441378Y0016898D01*
X0442804Y0016307D01*
X0444348Y0016307D01*
X0445775Y0016898D01*
X0446866Y0017990D01*
X0447457Y0019416D01*
X0447457Y0020960D01*
X0446866Y0022387D01*
X0446511Y0022742D01*
X0446120Y0023688D01*
X0434120Y0035688D01*
X0433276Y0036532D01*
X0432173Y0036988D01*
X0394527Y0036988D01*
X0394527Y0042312D01*
X0394116Y0043304D01*
X0393357Y0044064D01*
X0392771Y0044307D01*
X0393622Y0045158D01*
X0394527Y0047344D01*
X0394527Y0049710D01*
X0393622Y0051896D01*
X0391949Y0053569D01*
X0389763Y0054475D01*
X0387396Y0054475D01*
X0385210Y0053569D01*
X0383537Y0051896D01*
X0382631Y0049710D01*
X0382631Y0047344D01*
X0383537Y0045158D01*
X0384388Y0044307D01*
X0383802Y0044064D01*
X0383042Y0043304D01*
X0382631Y0042312D01*
X0382631Y0036988D01*
X0294265Y0036988D01*
X0293975Y0037279D01*
X0292548Y0037869D01*
X0291004Y0037869D01*
X0289614Y0037294D01*
X0288958Y0037565D01*
X0288176Y0037565D01*
X0288176Y0041746D01*
X0295876Y0049445D01*
X0296720Y0050289D01*
X0297176Y0051392D01*
X0297176Y0055585D01*
X0296720Y0056688D01*
X0292520Y0060888D01*
X0291676Y0061732D01*
X0290573Y0062188D01*
X0211465Y0062188D01*
X0211175Y0062479D01*
X0209748Y0063069D01*
X0208204Y0063069D01*
X0206778Y0062479D01*
X0205686Y0061387D01*
X0205521Y0060988D01*
X0181215Y0060988D01*
X0181240Y0061013D01*
X0181831Y0062440D01*
X0181831Y0063984D01*
X0181240Y0065410D01*
X0180148Y0066502D01*
X0178721Y0067093D01*
X0177177Y0067093D01*
X0175751Y0066502D01*
X0174659Y0065410D01*
X0174402Y0064790D01*
X0173782Y0064534D01*
X0172691Y0063442D01*
X0172100Y0062015D01*
X0172100Y0060988D01*
X0138179Y0060988D01*
X0137077Y0060532D01*
X0136233Y0059688D01*
X0136233Y0059688D01*
X0131000Y0054455D01*
X0130723Y0054569D01*
X0128357Y0054569D01*
X0126171Y0053664D01*
X0125320Y0052813D01*
X0125077Y0053399D01*
X0124317Y0054158D01*
X0123325Y0054569D01*
X0123240Y0054569D01*
X0123240Y0081165D01*
X0407032Y0081165D01*
X0408392Y0081729D01*
X0409433Y0082770D01*
X0409996Y0084129D01*
X0409996Y0097441D01*
X0410890Y0098335D01*
X0410890Y0102892D01*
X0407669Y0106113D01*
X0403112Y0106113D01*
X0400390Y0103392D01*
X0397669Y0106113D01*
X0393112Y0106113D01*
X0389890Y0102892D01*
X0389890Y0098335D01*
X0393112Y0095114D01*
X0397669Y0095114D01*
X0400390Y0097835D01*
X0402596Y0095630D01*
X0402596Y0088565D01*
X0366689Y0088565D01*
X0366689Y0097441D01*
X0367583Y0098335D01*
X0367583Y0102892D01*
X0364361Y0106113D01*
X0359805Y0106113D01*
X0357083Y0103392D01*
X0354361Y0106113D01*
X0349805Y0106113D01*
X0346583Y0102892D01*
X0346583Y0098335D01*
X0349805Y0095114D01*
X0354361Y0095114D01*
X0357083Y0097835D01*
X0359289Y0095630D01*
X0359289Y0088565D01*
X0293854Y0088565D01*
X0293854Y0097441D01*
X0294749Y0098335D01*
X0294749Y0102892D01*
X0291527Y0106113D01*
X0286971Y0106113D01*
X0284249Y0103392D01*
X0281527Y0106113D01*
X0276971Y0106113D01*
X0273749Y0102892D01*
X0273749Y0098335D01*
X0276971Y0095114D01*
X0281527Y0095114D01*
X0284249Y0097835D01*
X0286454Y0095630D01*
X0286454Y0088565D01*
X0246610Y0088565D01*
X0246610Y0095472D01*
X0247505Y0096367D01*
X0247505Y0100923D01*
X0244283Y0104145D01*
X0239726Y0104145D01*
X0237005Y0101423D01*
X0234283Y0104145D01*
X0229726Y0104145D01*
X0226505Y0100923D01*
X0226505Y0096367D01*
X0229726Y0093145D01*
X0234283Y0093145D01*
X0237005Y0095867D01*
X0239210Y0093661D01*
X0239210Y0088565D01*
X0172870Y0088565D01*
X0172870Y0094567D01*
X0174670Y0096367D01*
X0174670Y0100923D01*
X0171448Y0104145D01*
X0166892Y0104145D01*
X0164170Y0101423D01*
X0161448Y0104145D01*
X0156892Y0104145D01*
X0153670Y0100923D01*
X0153670Y0096367D01*
X0156892Y0093145D01*
X0161448Y0093145D01*
X0164170Y0095867D01*
X0165470Y0094567D01*
X0165470Y0088565D01*
X0127594Y0088565D01*
X0127594Y0094567D01*
X0129394Y0096367D01*
X0129394Y0100923D01*
X0126173Y0104145D01*
X0121616Y0104145D01*
X0118894Y0101423D01*
X0116173Y0104145D01*
X0111616Y0104145D01*
X0108394Y0100923D01*
X0108394Y0096367D01*
X0111616Y0093145D01*
X0116173Y0093145D01*
X0118894Y0095867D01*
X0120194Y0094567D01*
X0120194Y0092465D01*
X0119666Y0092684D01*
X0118122Y0092684D01*
X0116696Y0092093D01*
X0115604Y0091001D01*
X0115121Y0089834D01*
X0097077Y0089834D01*
X0096594Y0091001D01*
X0095502Y0092093D01*
X0094076Y0092684D01*
X0092532Y0092684D01*
X0091105Y0092093D01*
X0090014Y0091001D01*
X0089423Y0089574D01*
X0089423Y0088565D01*
X0076820Y0088565D01*
X0075460Y0088002D01*
X0074419Y0086961D01*
X0073856Y0085601D01*
X0073856Y0060794D01*
X0073528Y0060466D01*
X0073528Y0055910D01*
X0076750Y0052688D01*
X0081306Y0052688D01*
X0084028Y0055410D01*
X0086750Y0052688D01*
X0091306Y0052688D01*
X0094528Y0055910D01*
X0094528Y0059713D01*
X0119163Y0035078D01*
X0120266Y0034621D01*
X0178074Y0034621D01*
X0178005Y0034456D01*
X0178005Y0032912D01*
X0178596Y0031486D01*
X0178886Y0031196D01*
X0178886Y0011434D01*
X0179343Y0010331D01*
X0180187Y0009488D01*
X0181818Y0007857D01*
X0175007Y0007857D01*
X0175705Y0008146D01*
X0177378Y0009819D01*
X0178283Y0012005D01*
X0178283Y0014371D01*
X0177378Y0016558D01*
X0175705Y0018231D01*
X0173518Y0019136D01*
X0171152Y0019136D01*
X0168966Y0018231D01*
X0168115Y0017380D01*
X0167872Y0017966D01*
X0167113Y0018725D01*
X0166120Y0019136D01*
X0158550Y0019136D01*
X0157558Y0018725D01*
X0156798Y0017966D01*
X0156387Y0016973D01*
X0156387Y0009403D01*
X0156798Y0008411D01*
X0157352Y0007857D01*
X0148156Y0007857D01*
X0148854Y0008146D01*
X0150527Y0009819D01*
X0151433Y0012005D01*
X0151433Y0014371D01*
X0150527Y0016558D01*
X0148854Y0018231D01*
X0146668Y0019136D01*
X0144302Y0019136D01*
X0142116Y0018231D01*
X0140485Y0016600D01*
X0138854Y0018231D01*
X0136668Y0019136D01*
X0134302Y0019136D01*
X0132116Y0018231D01*
X0130485Y0016600D01*
X0128854Y0018231D01*
X0126668Y0019136D01*
X0124302Y0019136D01*
X0122116Y0018231D01*
X0121265Y0017380D01*
X0121022Y0017966D01*
X0120262Y0018725D01*
X0119270Y0019136D01*
X0111700Y0019136D01*
X0110707Y0018725D01*
X0109948Y0017966D01*
X0109537Y0016973D01*
X0109537Y0009403D01*
X0109948Y0008411D01*
X0110502Y0007857D01*
X0099011Y0007857D01*
X0099565Y0008411D01*
X0099976Y0009403D01*
X0099976Y0016973D01*
X0099565Y0017966D01*
X0098806Y0018725D01*
X0097813Y0019136D01*
X0090243Y0019136D01*
X0089251Y0018725D01*
X0088491Y0017966D01*
X0088249Y0017380D01*
X0087397Y0018231D01*
X0085211Y0019136D01*
X0082845Y0019136D01*
X0080659Y0018231D01*
X0079028Y0016600D01*
X0077397Y0018231D01*
X0075211Y0019136D01*
X0072845Y0019136D01*
X0070659Y0018231D01*
X0068986Y0016558D01*
X0068080Y0014371D01*
X0068080Y0012005D01*
X0068986Y0009819D01*
X0070328Y0008477D01*
X0070328Y0003421D01*
X0070839Y0002188D01*
X0063776Y0002188D01*
X0063776Y0002787D02*
X0070591Y0002787D01*
X0070343Y0003385D02*
X0063776Y0003385D01*
X0063776Y0003984D02*
X0070328Y0003984D01*
X0070328Y0004582D02*
X0063776Y0004582D01*
X0063776Y0005181D02*
X0070328Y0005181D01*
X0070328Y0005779D02*
X0063776Y0005779D01*
X0063776Y0006378D02*
X0070328Y0006378D01*
X0070328Y0006976D02*
X0063776Y0006976D01*
X0063776Y0007575D02*
X0070328Y0007575D01*
X0070328Y0008173D02*
X0063776Y0008173D01*
X0063776Y0008772D02*
X0070033Y0008772D01*
X0069434Y0009370D02*
X0063776Y0009370D01*
X0063776Y0009969D02*
X0068924Y0009969D01*
X0068676Y0010567D02*
X0063776Y0010567D01*
X0063776Y0011166D02*
X0068428Y0011166D01*
X0068180Y0011764D02*
X0063776Y0011764D01*
X0063776Y0012363D02*
X0068080Y0012363D01*
X0068080Y0012962D02*
X0063776Y0012962D01*
X0063776Y0013560D02*
X0068080Y0013560D01*
X0068080Y0014159D02*
X0063776Y0014159D01*
X0063776Y0014757D02*
X0068240Y0014757D01*
X0068488Y0015356D02*
X0063776Y0015356D01*
X0063776Y0015954D02*
X0068736Y0015954D01*
X0068984Y0016553D02*
X0063776Y0016553D01*
X0063776Y0017151D02*
X0069579Y0017151D01*
X0070178Y0017750D02*
X0063776Y0017750D01*
X0063776Y0018348D02*
X0070942Y0018348D01*
X0072387Y0018947D02*
X0063776Y0018947D01*
X0063776Y0019545D02*
X0178886Y0019545D01*
X0178886Y0018947D02*
X0173976Y0018947D01*
X0175421Y0018348D02*
X0178886Y0018348D01*
X0178886Y0017750D02*
X0176186Y0017750D01*
X0176784Y0017151D02*
X0178886Y0017151D01*
X0178886Y0016553D02*
X0177380Y0016553D01*
X0177628Y0015954D02*
X0178886Y0015954D01*
X0178886Y0015356D02*
X0177876Y0015356D01*
X0178124Y0014757D02*
X0178886Y0014757D01*
X0178886Y0014159D02*
X0178283Y0014159D01*
X0178283Y0013560D02*
X0178886Y0013560D01*
X0178886Y0012962D02*
X0178283Y0012962D01*
X0178283Y0012363D02*
X0178886Y0012363D01*
X0178886Y0011764D02*
X0178184Y0011764D01*
X0177936Y0011166D02*
X0178998Y0011166D01*
X0179245Y0010567D02*
X0177688Y0010567D01*
X0177440Y0009969D02*
X0179706Y0009969D01*
X0180304Y0009370D02*
X0176929Y0009370D01*
X0176331Y0008772D02*
X0180903Y0008772D01*
X0181501Y0008173D02*
X0175732Y0008173D01*
X0181886Y0012031D02*
X0181886Y0033684D01*
X0181886Y0035653D01*
X0185699Y0034621D02*
X0188518Y0034621D01*
X0200384Y0022755D01*
X0198966Y0022168D01*
X0198115Y0021317D01*
X0197872Y0021903D01*
X0197113Y0022662D01*
X0196120Y0023073D01*
X0188550Y0023073D01*
X0187558Y0022662D01*
X0186798Y0021903D01*
X0186387Y0020910D01*
X0186387Y0013340D01*
X0186798Y0012348D01*
X0187171Y0011975D01*
X0187020Y0011975D01*
X0186430Y0011730D01*
X0184886Y0013273D01*
X0184886Y0031196D01*
X0185177Y0031486D01*
X0185768Y0032912D01*
X0185768Y0034456D01*
X0185699Y0034621D01*
X0185746Y0034508D02*
X0188631Y0034508D01*
X0189230Y0033909D02*
X0185768Y0033909D01*
X0185768Y0033311D02*
X0189828Y0033311D01*
X0190427Y0032712D02*
X0185685Y0032712D01*
X0185437Y0032114D02*
X0191025Y0032114D01*
X0191624Y0031515D02*
X0185189Y0031515D01*
X0184886Y0030917D02*
X0192222Y0030917D01*
X0192821Y0030318D02*
X0184886Y0030318D01*
X0184886Y0029720D02*
X0193419Y0029720D01*
X0194018Y0029121D02*
X0184886Y0029121D01*
X0184886Y0028523D02*
X0194616Y0028523D01*
X0195215Y0027924D02*
X0184886Y0027924D01*
X0184886Y0027326D02*
X0195813Y0027326D01*
X0196412Y0026727D02*
X0184886Y0026727D01*
X0184886Y0026129D02*
X0197010Y0026129D01*
X0197609Y0025530D02*
X0184886Y0025530D01*
X0184886Y0024932D02*
X0198207Y0024932D01*
X0198806Y0024333D02*
X0184886Y0024333D01*
X0184886Y0023735D02*
X0199405Y0023735D01*
X0200003Y0023136D02*
X0184886Y0023136D01*
X0184886Y0022538D02*
X0187433Y0022538D01*
X0186835Y0021939D02*
X0184886Y0021939D01*
X0184886Y0021341D02*
X0186565Y0021341D01*
X0186387Y0020742D02*
X0184886Y0020742D01*
X0184886Y0020144D02*
X0186387Y0020144D01*
X0186387Y0019545D02*
X0184886Y0019545D01*
X0184886Y0018947D02*
X0186387Y0018947D01*
X0186387Y0018348D02*
X0184886Y0018348D01*
X0184886Y0017750D02*
X0186387Y0017750D01*
X0186387Y0017151D02*
X0184886Y0017151D01*
X0184886Y0016553D02*
X0186387Y0016553D01*
X0186387Y0015954D02*
X0184886Y0015954D01*
X0184886Y0015356D02*
X0186387Y0015356D01*
X0186387Y0014757D02*
X0184886Y0014757D01*
X0184886Y0014159D02*
X0186387Y0014159D01*
X0186387Y0013560D02*
X0184886Y0013560D01*
X0185198Y0012962D02*
X0186544Y0012962D01*
X0186792Y0012363D02*
X0185797Y0012363D01*
X0186395Y0011764D02*
X0186512Y0011764D01*
X0185823Y0008094D02*
X0181886Y0012031D01*
X0185823Y0008094D02*
X0187792Y0008094D01*
X0196035Y0008173D02*
X0214966Y0008173D01*
X0215282Y0007857D02*
X0196035Y0007857D01*
X0196035Y0011177D01*
X0196120Y0011177D01*
X0197113Y0011588D01*
X0197872Y0012348D01*
X0198115Y0012934D01*
X0198966Y0012083D01*
X0201152Y0011177D01*
X0203518Y0011177D01*
X0205705Y0012083D01*
X0207378Y0013756D01*
X0207965Y0015174D01*
X0215282Y0007857D01*
X0214367Y0008772D02*
X0196035Y0008772D01*
X0196035Y0009370D02*
X0213769Y0009370D01*
X0213170Y0009969D02*
X0196035Y0009969D01*
X0196035Y0010567D02*
X0212572Y0010567D01*
X0211973Y0011166D02*
X0196035Y0011166D01*
X0197289Y0011764D02*
X0199735Y0011764D01*
X0198686Y0012363D02*
X0197879Y0012363D01*
X0204936Y0011764D02*
X0211375Y0011764D01*
X0210776Y0012363D02*
X0205985Y0012363D01*
X0206583Y0012962D02*
X0210178Y0012962D01*
X0209579Y0013560D02*
X0207182Y0013560D01*
X0207545Y0014159D02*
X0208981Y0014159D01*
X0208382Y0014757D02*
X0207792Y0014757D01*
X0213812Y0020742D02*
X0232353Y0020742D01*
X0232353Y0020774D02*
X0232353Y0018745D01*
X0233130Y0016870D01*
X0234564Y0015436D01*
X0236439Y0014659D01*
X0238468Y0014659D01*
X0240342Y0015436D01*
X0241777Y0016870D01*
X0242553Y0018745D01*
X0242553Y0020774D01*
X0241777Y0022648D01*
X0240342Y0024083D01*
X0238468Y0024859D01*
X0236439Y0024859D01*
X0234564Y0024083D01*
X0233130Y0022648D01*
X0232353Y0020774D01*
X0232588Y0021341D02*
X0213268Y0021341D01*
X0212724Y0021939D02*
X0232836Y0021939D01*
X0233084Y0022538D02*
X0212180Y0022538D01*
X0211636Y0023136D02*
X0233618Y0023136D01*
X0234216Y0023735D02*
X0211092Y0023735D01*
X0210548Y0024333D02*
X0235169Y0024333D01*
X0239738Y0024333D02*
X0268738Y0024333D01*
X0268738Y0023735D02*
X0240690Y0023735D01*
X0241289Y0023136D02*
X0268738Y0023136D01*
X0268738Y0022538D02*
X0241823Y0022538D01*
X0242071Y0021939D02*
X0268738Y0021939D01*
X0268738Y0021341D02*
X0242319Y0021341D01*
X0242553Y0020742D02*
X0268738Y0020742D01*
X0268738Y0020144D02*
X0242553Y0020144D01*
X0242553Y0019545D02*
X0268738Y0019545D01*
X0268738Y0018947D02*
X0242553Y0018947D01*
X0242389Y0018348D02*
X0268738Y0018348D01*
X0268738Y0017750D02*
X0267620Y0017750D01*
X0267304Y0017880D02*
X0268731Y0017290D01*
X0268738Y0017283D01*
X0268738Y0030507D01*
X0268557Y0030944D01*
X0268557Y0032488D01*
X0269147Y0033914D01*
X0270239Y0035006D01*
X0271666Y0035597D01*
X0273175Y0035597D01*
X0273175Y0035899D01*
X0272208Y0036300D01*
X0271726Y0036781D01*
X0271548Y0036707D01*
X0270004Y0036707D01*
X0268578Y0037298D01*
X0267486Y0038390D01*
X0266895Y0039816D01*
X0266895Y0041360D01*
X0267486Y0042787D01*
X0268578Y0043879D01*
X0270004Y0044469D01*
X0271548Y0044469D01*
X0271595Y0044450D01*
X0279483Y0052338D01*
X0264215Y0052338D01*
X0265208Y0051345D01*
X0265336Y0051345D01*
X0266762Y0050754D01*
X0267854Y0049662D01*
X0268445Y0048236D01*
X0268445Y0046692D01*
X0267854Y0045265D01*
X0266762Y0044174D01*
X0265336Y0043583D01*
X0263792Y0043583D01*
X0262365Y0044174D01*
X0261273Y0045265D01*
X0260683Y0046692D01*
X0260683Y0046820D01*
X0257733Y0049769D01*
X0196881Y0049769D01*
X0196988Y0049662D01*
X0197579Y0048236D01*
X0197579Y0046692D01*
X0196988Y0045265D01*
X0195896Y0044174D01*
X0194470Y0043583D01*
X0192925Y0043583D01*
X0191499Y0044174D01*
X0191209Y0044464D01*
X0186471Y0044464D01*
X0185586Y0043579D01*
X0183400Y0042673D01*
X0181034Y0042673D01*
X0178848Y0043579D01*
X0177997Y0044430D01*
X0177754Y0043844D01*
X0176995Y0043084D01*
X0176002Y0042673D01*
X0171502Y0042673D01*
X0169450Y0040621D01*
X0190357Y0040621D01*
X0191460Y0040165D01*
X0192304Y0039321D01*
X0198980Y0032645D01*
X0199373Y0033038D01*
X0200800Y0033628D01*
X0202344Y0033628D01*
X0203770Y0033038D01*
X0204862Y0031946D01*
X0205453Y0030519D01*
X0205453Y0029938D01*
X0222584Y0011094D01*
X0254885Y0011094D01*
X0255368Y0012261D01*
X0256460Y0013353D01*
X0257886Y0013943D01*
X0259430Y0013943D01*
X0260857Y0013353D01*
X0261250Y0012959D01*
X0262651Y0014361D01*
X0262651Y0014771D01*
X0263242Y0016198D01*
X0264334Y0017290D01*
X0265760Y0017880D01*
X0267304Y0017880D01*
X0265444Y0017750D02*
X0242141Y0017750D01*
X0241893Y0017151D02*
X0264195Y0017151D01*
X0263597Y0016553D02*
X0241459Y0016553D01*
X0240861Y0015954D02*
X0263141Y0015954D01*
X0262893Y0015356D02*
X0240149Y0015356D01*
X0238704Y0014757D02*
X0262651Y0014757D01*
X0262449Y0014159D02*
X0219798Y0014159D01*
X0219253Y0014757D02*
X0236203Y0014757D01*
X0234758Y0015356D02*
X0218709Y0015356D01*
X0218165Y0015954D02*
X0234046Y0015954D01*
X0233448Y0016553D02*
X0217621Y0016553D01*
X0217077Y0017151D02*
X0233013Y0017151D01*
X0232766Y0017750D02*
X0216533Y0017750D01*
X0215989Y0018348D02*
X0232518Y0018348D01*
X0232353Y0018947D02*
X0215445Y0018947D01*
X0214901Y0019545D02*
X0232353Y0019545D01*
X0232353Y0020144D02*
X0214357Y0020144D01*
X0210004Y0024932D02*
X0268738Y0024932D01*
X0268738Y0025530D02*
X0209460Y0025530D01*
X0208916Y0026129D02*
X0268738Y0026129D01*
X0268738Y0026727D02*
X0208371Y0026727D01*
X0207827Y0027326D02*
X0268738Y0027326D01*
X0268738Y0027924D02*
X0207283Y0027924D01*
X0206739Y0028523D02*
X0268738Y0028523D01*
X0268738Y0029121D02*
X0206195Y0029121D01*
X0205651Y0029720D02*
X0268738Y0029720D01*
X0268738Y0030318D02*
X0205453Y0030318D01*
X0205288Y0030917D02*
X0268568Y0030917D01*
X0268557Y0031515D02*
X0205040Y0031515D01*
X0204694Y0032114D02*
X0207848Y0032114D01*
X0207247Y0032363D02*
X0208674Y0031772D01*
X0210218Y0031772D01*
X0211644Y0032363D01*
X0212736Y0033454D01*
X0213327Y0034881D01*
X0213327Y0036425D01*
X0212736Y0037851D01*
X0211644Y0038943D01*
X0211304Y0039084D01*
X0209216Y0044304D01*
X0209390Y0044723D01*
X0209390Y0046267D01*
X0208799Y0047694D01*
X0207707Y0048786D01*
X0206281Y0049376D01*
X0204737Y0049376D01*
X0203310Y0048786D01*
X0202218Y0047694D01*
X0201627Y0046267D01*
X0201627Y0044723D01*
X0202218Y0043297D01*
X0203310Y0042205D01*
X0203650Y0042064D01*
X0205738Y0036844D01*
X0205564Y0036425D01*
X0205564Y0034881D01*
X0206155Y0033454D01*
X0207247Y0032363D01*
X0206897Y0032712D02*
X0204095Y0032712D01*
X0203110Y0033311D02*
X0206299Y0033311D01*
X0205967Y0033909D02*
X0197715Y0033909D01*
X0198314Y0033311D02*
X0200033Y0033311D01*
X0199048Y0032712D02*
X0198912Y0032712D01*
X0197117Y0034508D02*
X0205719Y0034508D01*
X0205564Y0035106D02*
X0196518Y0035106D01*
X0195920Y0035705D02*
X0205564Y0035705D01*
X0205564Y0036303D02*
X0195321Y0036303D01*
X0194723Y0036902D02*
X0205715Y0036902D01*
X0205475Y0037500D02*
X0194124Y0037500D01*
X0193526Y0038099D02*
X0205236Y0038099D01*
X0204997Y0038698D02*
X0192927Y0038698D01*
X0192328Y0039296D02*
X0204757Y0039296D01*
X0204518Y0039895D02*
X0191730Y0039895D01*
X0190667Y0040493D02*
X0204278Y0040493D01*
X0204039Y0041092D02*
X0169920Y0041092D01*
X0170518Y0041690D02*
X0203800Y0041690D01*
X0203227Y0042289D02*
X0171117Y0042289D01*
X0176518Y0042887D02*
X0180518Y0042887D01*
X0179073Y0043486D02*
X0177396Y0043486D01*
X0177854Y0044084D02*
X0178343Y0044084D01*
X0183916Y0042887D02*
X0202628Y0042887D01*
X0202140Y0043486D02*
X0185361Y0043486D01*
X0186092Y0044084D02*
X0191715Y0044084D01*
X0193698Y0047464D02*
X0183855Y0047464D01*
X0182217Y0048621D01*
X0181417Y0061441D02*
X0205740Y0061441D01*
X0206339Y0062039D02*
X0181665Y0062039D01*
X0181831Y0062638D02*
X0207163Y0062638D01*
X0210790Y0062638D02*
X0352976Y0062638D01*
X0352976Y0062040D02*
X0350520Y0059585D01*
X0350520Y0055028D01*
X0353742Y0051806D01*
X0358298Y0051806D01*
X0361020Y0054528D01*
X0363742Y0051806D01*
X0368298Y0051806D01*
X0371520Y0055028D01*
X0371520Y0059585D01*
X0368298Y0062806D01*
X0363742Y0062806D01*
X0361020Y0060085D01*
X0358976Y0062129D01*
X0358976Y0067500D01*
X0359266Y0067790D01*
X0359857Y0069216D01*
X0359857Y0070760D01*
X0359266Y0072187D01*
X0358175Y0073279D01*
X0356748Y0073869D01*
X0355204Y0073869D01*
X0353778Y0073279D01*
X0352686Y0072187D01*
X0352095Y0070760D01*
X0352095Y0069216D01*
X0352686Y0067790D01*
X0352976Y0067500D01*
X0352976Y0062040D01*
X0352975Y0062039D02*
X0290932Y0062039D01*
X0291966Y0061441D02*
X0352377Y0061441D01*
X0351778Y0060842D02*
X0292565Y0060842D01*
X0293163Y0060244D02*
X0351180Y0060244D01*
X0350581Y0059645D02*
X0293762Y0059645D01*
X0294360Y0059047D02*
X0350520Y0059047D01*
X0350520Y0058448D02*
X0294959Y0058448D01*
X0295557Y0057850D02*
X0350520Y0057850D01*
X0350520Y0057251D02*
X0296156Y0057251D01*
X0296734Y0056653D02*
X0350520Y0056653D01*
X0350520Y0056054D02*
X0296982Y0056054D01*
X0297176Y0055456D02*
X0350520Y0055456D01*
X0350691Y0054857D02*
X0297176Y0054857D01*
X0297176Y0054259D02*
X0351290Y0054259D01*
X0351888Y0053660D02*
X0297176Y0053660D01*
X0297176Y0053062D02*
X0352487Y0053062D01*
X0353085Y0052463D02*
X0297176Y0052463D01*
X0297176Y0051865D02*
X0353684Y0051865D01*
X0358357Y0051865D02*
X0363684Y0051865D01*
X0363085Y0052463D02*
X0358955Y0052463D01*
X0359554Y0053062D02*
X0362487Y0053062D01*
X0361888Y0053660D02*
X0360152Y0053660D01*
X0360751Y0054259D02*
X0361290Y0054259D01*
X0356020Y0057306D02*
X0355976Y0057388D01*
X0355976Y0069988D01*
X0353312Y0072813D02*
X0123240Y0072813D01*
X0123240Y0073411D02*
X0354098Y0073411D01*
X0352713Y0072214D02*
X0123240Y0072214D01*
X0123240Y0071616D02*
X0352449Y0071616D01*
X0352202Y0071017D02*
X0123240Y0071017D01*
X0123240Y0070419D02*
X0352095Y0070419D01*
X0352095Y0069820D02*
X0123240Y0069820D01*
X0123240Y0069222D02*
X0352095Y0069222D01*
X0352341Y0068623D02*
X0123240Y0068623D01*
X0123240Y0068025D02*
X0352589Y0068025D01*
X0352976Y0067426D02*
X0123240Y0067426D01*
X0123240Y0066828D02*
X0176537Y0066828D01*
X0175478Y0066229D02*
X0123240Y0066229D01*
X0123240Y0065631D02*
X0174879Y0065631D01*
X0174503Y0065032D02*
X0123240Y0065032D01*
X0123240Y0064433D02*
X0173682Y0064433D01*
X0173084Y0063835D02*
X0123240Y0063835D01*
X0123240Y0063236D02*
X0172606Y0063236D01*
X0172358Y0062638D02*
X0123240Y0062638D01*
X0123240Y0062039D02*
X0172110Y0062039D01*
X0172100Y0061441D02*
X0123240Y0061441D01*
X0123240Y0060842D02*
X0137827Y0060842D01*
X0136789Y0060244D02*
X0123240Y0060244D01*
X0123240Y0059645D02*
X0136191Y0059645D01*
X0135592Y0059047D02*
X0123240Y0059047D01*
X0123240Y0058448D02*
X0134994Y0058448D01*
X0134395Y0057850D02*
X0123240Y0057850D01*
X0123240Y0057251D02*
X0133797Y0057251D01*
X0133198Y0056653D02*
X0123240Y0056653D01*
X0123240Y0056054D02*
X0132600Y0056054D01*
X0132001Y0055456D02*
X0123240Y0055456D01*
X0123240Y0054857D02*
X0131403Y0054857D01*
X0127607Y0054259D02*
X0124075Y0054259D01*
X0124816Y0053660D02*
X0126167Y0053660D01*
X0125569Y0053062D02*
X0125217Y0053062D01*
X0129776Y0048988D02*
X0129540Y0048621D01*
X0129776Y0048988D02*
X0138776Y0057988D01*
X0206576Y0057988D01*
X0207776Y0056788D01*
X0290576Y0056788D01*
X0292976Y0054388D01*
X0292976Y0052588D01*
X0291176Y0050788D01*
X0282176Y0050788D01*
X0271976Y0040588D01*
X0270776Y0040588D01*
X0266895Y0040493D02*
X0242255Y0040493D01*
X0242008Y0041092D02*
X0266895Y0041092D01*
X0267032Y0041690D02*
X0241735Y0041690D01*
X0241777Y0041648D02*
X0240342Y0043083D01*
X0238468Y0043859D01*
X0236439Y0043859D01*
X0234564Y0043083D01*
X0233130Y0041648D01*
X0232353Y0039774D01*
X0232353Y0037745D01*
X0233130Y0035870D01*
X0234564Y0034436D01*
X0236439Y0033659D01*
X0238468Y0033659D01*
X0240342Y0034436D01*
X0241777Y0035870D01*
X0242553Y0037745D01*
X0242553Y0039774D01*
X0241777Y0041648D01*
X0241136Y0042289D02*
X0267280Y0042289D01*
X0267586Y0042887D02*
X0240538Y0042887D01*
X0239370Y0043486D02*
X0268185Y0043486D01*
X0269074Y0044084D02*
X0266546Y0044084D01*
X0267271Y0044683D02*
X0271828Y0044683D01*
X0272426Y0045281D02*
X0267860Y0045281D01*
X0268108Y0045880D02*
X0273025Y0045880D01*
X0273623Y0046478D02*
X0268356Y0046478D01*
X0268445Y0047077D02*
X0274222Y0047077D01*
X0274820Y0047675D02*
X0268445Y0047675D01*
X0268429Y0048274D02*
X0275419Y0048274D01*
X0276017Y0048872D02*
X0268181Y0048872D01*
X0267933Y0049471D02*
X0276616Y0049471D01*
X0277215Y0050069D02*
X0267447Y0050069D01*
X0266849Y0050668D02*
X0277813Y0050668D01*
X0278412Y0051266D02*
X0265526Y0051266D01*
X0264688Y0051865D02*
X0279010Y0051865D01*
X0283306Y0047675D02*
X0285620Y0047675D01*
X0285734Y0047788D02*
X0282633Y0044688D01*
X0282176Y0043585D01*
X0282176Y0043018D01*
X0281084Y0043471D01*
X0279540Y0043471D01*
X0278792Y0043161D01*
X0283419Y0047788D01*
X0285734Y0047788D01*
X0285022Y0047077D02*
X0282707Y0047077D01*
X0282109Y0046478D02*
X0284423Y0046478D01*
X0283825Y0045880D02*
X0281510Y0045880D01*
X0280912Y0045281D02*
X0283226Y0045281D01*
X0282631Y0044683D02*
X0280313Y0044683D01*
X0279715Y0044084D02*
X0282383Y0044084D01*
X0282176Y0043486D02*
X0279116Y0043486D01*
X0285176Y0042988D02*
X0294176Y0051988D01*
X0294176Y0054988D01*
X0289976Y0059188D01*
X0208976Y0059188D01*
X0205509Y0055338D02*
X0288186Y0055338D01*
X0290154Y0053369D01*
X0294704Y0048274D02*
X0382631Y0048274D01*
X0382631Y0048872D02*
X0295303Y0048872D01*
X0295901Y0049471D02*
X0382631Y0049471D01*
X0382780Y0050069D02*
X0296500Y0050069D01*
X0296876Y0050668D02*
X0383028Y0050668D01*
X0383276Y0051266D02*
X0297124Y0051266D01*
X0294106Y0047675D02*
X0382631Y0047675D01*
X0382742Y0047077D02*
X0293507Y0047077D01*
X0292909Y0046478D02*
X0382990Y0046478D01*
X0383238Y0045880D02*
X0292310Y0045880D01*
X0291712Y0045281D02*
X0383486Y0045281D01*
X0384012Y0044683D02*
X0291113Y0044683D01*
X0290515Y0044084D02*
X0383851Y0044084D01*
X0383224Y0043486D02*
X0289916Y0043486D01*
X0289318Y0042887D02*
X0382870Y0042887D01*
X0382631Y0042289D02*
X0288719Y0042289D01*
X0288176Y0041690D02*
X0382631Y0041690D01*
X0382631Y0041092D02*
X0288176Y0041092D01*
X0288176Y0040493D02*
X0382631Y0040493D01*
X0382631Y0039895D02*
X0288176Y0039895D01*
X0288176Y0039296D02*
X0382631Y0039296D01*
X0382631Y0038698D02*
X0288176Y0038698D01*
X0288176Y0038099D02*
X0382631Y0038099D01*
X0382631Y0037500D02*
X0293439Y0037500D01*
X0290114Y0037500D02*
X0289115Y0037500D01*
X0291776Y0033988D02*
X0431576Y0033988D01*
X0443576Y0021988D01*
X0443576Y0020188D01*
X0439695Y0020144D02*
X0437055Y0020144D01*
X0437055Y0020742D02*
X0439695Y0020742D01*
X0439853Y0021341D02*
X0437055Y0021341D01*
X0437055Y0021939D02*
X0439383Y0021939D01*
X0438784Y0022538D02*
X0437055Y0022538D01*
X0437055Y0023136D02*
X0438186Y0023136D01*
X0437587Y0023735D02*
X0437055Y0023735D01*
X0437055Y0019545D02*
X0439695Y0019545D01*
X0439890Y0018947D02*
X0437055Y0018947D01*
X0437055Y0018348D02*
X0440138Y0018348D01*
X0440526Y0017750D02*
X0437055Y0017750D01*
X0437055Y0017151D02*
X0441125Y0017151D01*
X0442212Y0016553D02*
X0437055Y0016553D01*
X0437055Y0015954D02*
X0457477Y0015954D01*
X0457477Y0015356D02*
X0437055Y0015356D01*
X0437055Y0014757D02*
X0457477Y0014757D01*
X0457477Y0014159D02*
X0437055Y0014159D01*
X0437055Y0013560D02*
X0457477Y0013560D01*
X0457477Y0012962D02*
X0437055Y0012962D01*
X0437055Y0012363D02*
X0457477Y0012363D01*
X0457477Y0011764D02*
X0437055Y0011764D01*
X0437055Y0011166D02*
X0457477Y0011166D01*
X0457477Y0010567D02*
X0437055Y0010567D01*
X0437055Y0009969D02*
X0457477Y0009969D01*
X0457477Y0009370D02*
X0437055Y0009370D01*
X0437055Y0008772D02*
X0457477Y0008772D01*
X0457477Y0008173D02*
X0437208Y0008173D01*
X0437455Y0007575D02*
X0457477Y0007575D01*
X0457477Y0006976D02*
X0437703Y0006976D01*
X0437736Y0006378D02*
X0457477Y0006378D01*
X0457477Y0005779D02*
X0437736Y0005779D01*
X0437665Y0005181D02*
X0457477Y0005181D01*
X0457477Y0004582D02*
X0437417Y0004582D01*
X0437169Y0003984D02*
X0457477Y0003984D01*
X0457477Y0003385D02*
X0436604Y0003385D01*
X0435937Y0002787D02*
X0457477Y0002787D01*
X0457477Y0002188D02*
X0409485Y0002188D01*
X0409733Y0002787D02*
X0431773Y0002787D01*
X0431106Y0003385D02*
X0409981Y0003385D01*
X0409996Y0003984D02*
X0430541Y0003984D01*
X0430293Y0004582D02*
X0409996Y0004582D01*
X0409996Y0005181D02*
X0430045Y0005181D01*
X0429974Y0005779D02*
X0409996Y0005779D01*
X0409996Y0006378D02*
X0429974Y0006378D01*
X0430007Y0006976D02*
X0409996Y0006976D01*
X0411613Y0007575D02*
X0430255Y0007575D01*
X0430502Y0008173D02*
X0412320Y0008173D01*
X0412707Y0008772D02*
X0430655Y0008772D01*
X0430655Y0009370D02*
X0412955Y0009370D01*
X0412968Y0009969D02*
X0430655Y0009969D01*
X0430655Y0010567D02*
X0412968Y0010567D01*
X0412968Y0011166D02*
X0430655Y0011166D01*
X0430655Y0011764D02*
X0412968Y0011764D01*
X0412968Y0012363D02*
X0430655Y0012363D01*
X0430655Y0012962D02*
X0412968Y0012962D01*
X0412968Y0013560D02*
X0430655Y0013560D01*
X0430655Y0014159D02*
X0412968Y0014159D01*
X0412968Y0014757D02*
X0420840Y0014757D01*
X0424822Y0014757D02*
X0430655Y0014757D01*
X0430655Y0015356D02*
X0425542Y0015356D01*
X0426130Y0015954D02*
X0430655Y0015954D01*
X0430655Y0016553D02*
X0426378Y0016553D01*
X0426625Y0017151D02*
X0430655Y0017151D01*
X0430655Y0017750D02*
X0426712Y0017750D01*
X0426712Y0018348D02*
X0430655Y0018348D01*
X0430655Y0018947D02*
X0426695Y0018947D01*
X0426447Y0019545D02*
X0430655Y0019545D01*
X0430655Y0020144D02*
X0426199Y0020144D01*
X0425711Y0020742D02*
X0430655Y0020742D01*
X0430655Y0021341D02*
X0425113Y0021341D01*
X0423785Y0021939D02*
X0430655Y0021939D01*
X0430655Y0022538D02*
X0293010Y0022538D01*
X0293512Y0021939D02*
X0306130Y0021939D01*
X0304802Y0021341D02*
X0293760Y0021341D01*
X0294008Y0020742D02*
X0304204Y0020742D01*
X0303715Y0020144D02*
X0294158Y0020144D01*
X0294757Y0019545D02*
X0303467Y0019545D01*
X0303219Y0018947D02*
X0295355Y0018947D01*
X0295954Y0018348D02*
X0303202Y0018348D01*
X0303202Y0017750D02*
X0297148Y0017750D01*
X0298397Y0017151D02*
X0303289Y0017151D01*
X0303537Y0016553D02*
X0298995Y0016553D01*
X0299451Y0015954D02*
X0303785Y0015954D01*
X0304372Y0015356D02*
X0299699Y0015356D01*
X0299941Y0014757D02*
X0305092Y0014757D01*
X0309074Y0014757D02*
X0381232Y0014757D01*
X0381072Y0014159D02*
X0299941Y0014159D01*
X0299941Y0013560D02*
X0381072Y0013560D01*
X0381048Y0012962D02*
X0299831Y0012962D01*
X0299583Y0012363D02*
X0380449Y0012363D01*
X0379851Y0011764D02*
X0299314Y0011764D01*
X0296060Y0013999D02*
X0290154Y0019905D01*
X0286556Y0021359D02*
X0286273Y0020677D01*
X0286273Y0019133D01*
X0286864Y0017706D01*
X0287956Y0016615D01*
X0289382Y0016024D01*
X0289793Y0016024D01*
X0292179Y0013638D01*
X0292179Y0013227D01*
X0292769Y0011801D01*
X0293277Y0011294D01*
X0283606Y0011294D01*
X0283512Y0011388D01*
X0283512Y0021477D01*
X0284404Y0021107D01*
X0285948Y0021107D01*
X0286556Y0021359D01*
X0286548Y0021341D02*
X0286512Y0021341D01*
X0286300Y0020742D02*
X0283512Y0020742D01*
X0283512Y0020144D02*
X0286273Y0020144D01*
X0286273Y0019545D02*
X0283512Y0019545D01*
X0283512Y0018947D02*
X0286350Y0018947D01*
X0286598Y0018348D02*
X0283512Y0018348D01*
X0283512Y0017750D02*
X0286846Y0017750D01*
X0287419Y0017151D02*
X0283512Y0017151D01*
X0283512Y0016553D02*
X0288105Y0016553D01*
X0289862Y0015954D02*
X0283512Y0015954D01*
X0283512Y0015356D02*
X0290461Y0015356D01*
X0291059Y0014757D02*
X0283512Y0014757D01*
X0283512Y0014159D02*
X0291658Y0014159D01*
X0292179Y0013560D02*
X0283512Y0013560D01*
X0283512Y0012962D02*
X0292289Y0012962D01*
X0292537Y0012363D02*
X0283512Y0012363D01*
X0283512Y0011764D02*
X0292806Y0011764D01*
X0292412Y0023136D02*
X0430655Y0023136D01*
X0430655Y0023735D02*
X0291050Y0023735D01*
X0289259Y0023735D02*
X0288858Y0023735D01*
X0289057Y0024333D02*
X0314286Y0024333D01*
X0313688Y0024932D02*
X0289057Y0024932D01*
X0289057Y0025530D02*
X0313089Y0025530D01*
X0312491Y0026129D02*
X0288905Y0026129D01*
X0288657Y0026727D02*
X0311892Y0026727D01*
X0311294Y0027326D02*
X0288327Y0027326D01*
X0288176Y0027924D02*
X0311150Y0027924D01*
X0311150Y0028523D02*
X0288176Y0028523D01*
X0288176Y0029121D02*
X0311150Y0029121D01*
X0311150Y0029720D02*
X0288176Y0029720D01*
X0290201Y0030318D02*
X0290495Y0030318D01*
X0293058Y0030318D02*
X0311150Y0030318D01*
X0311150Y0030917D02*
X0294193Y0030917D01*
X0285176Y0024988D02*
X0285176Y0042988D01*
X0273175Y0035705D02*
X0241612Y0035705D01*
X0241956Y0036303D02*
X0272204Y0036303D01*
X0270481Y0035106D02*
X0241013Y0035106D01*
X0240415Y0034508D02*
X0269741Y0034508D01*
X0269145Y0033909D02*
X0239072Y0033909D01*
X0235835Y0033909D02*
X0212924Y0033909D01*
X0213172Y0034508D02*
X0234492Y0034508D01*
X0233894Y0035106D02*
X0213327Y0035106D01*
X0213327Y0035705D02*
X0233295Y0035705D01*
X0232950Y0036303D02*
X0213327Y0036303D01*
X0213129Y0036902D02*
X0232702Y0036902D01*
X0232455Y0037500D02*
X0212881Y0037500D01*
X0212488Y0038099D02*
X0232353Y0038099D01*
X0232353Y0038698D02*
X0211890Y0038698D01*
X0211219Y0039296D02*
X0232353Y0039296D01*
X0232403Y0039895D02*
X0210980Y0039895D01*
X0210741Y0040493D02*
X0232651Y0040493D01*
X0232899Y0041092D02*
X0210501Y0041092D01*
X0210262Y0041690D02*
X0233172Y0041690D01*
X0233770Y0042289D02*
X0210022Y0042289D01*
X0209783Y0042887D02*
X0234369Y0042887D01*
X0235537Y0043486D02*
X0209544Y0043486D01*
X0209304Y0044084D02*
X0262581Y0044084D01*
X0261856Y0044683D02*
X0209373Y0044683D01*
X0209390Y0045281D02*
X0261267Y0045281D01*
X0261019Y0045880D02*
X0209390Y0045880D01*
X0209302Y0046478D02*
X0260771Y0046478D01*
X0260425Y0047077D02*
X0209054Y0047077D01*
X0208807Y0047675D02*
X0259827Y0047675D01*
X0259228Y0048274D02*
X0208219Y0048274D01*
X0207498Y0048872D02*
X0258630Y0048872D01*
X0258031Y0049471D02*
X0197067Y0049471D01*
X0197315Y0048872D02*
X0203519Y0048872D01*
X0202798Y0048274D02*
X0197563Y0048274D01*
X0197579Y0047675D02*
X0202211Y0047675D01*
X0201963Y0047077D02*
X0197579Y0047077D01*
X0197490Y0046478D02*
X0201715Y0046478D01*
X0201627Y0045880D02*
X0197242Y0045880D01*
X0196994Y0045281D02*
X0201627Y0045281D01*
X0201644Y0044683D02*
X0196405Y0044683D01*
X0195680Y0044084D02*
X0201892Y0044084D01*
X0205509Y0045495D02*
X0209446Y0035653D01*
X0211043Y0032114D02*
X0268557Y0032114D01*
X0268650Y0032712D02*
X0211994Y0032712D01*
X0212592Y0033311D02*
X0268897Y0033311D01*
X0269534Y0036902D02*
X0242204Y0036902D01*
X0242452Y0037500D02*
X0268375Y0037500D01*
X0267777Y0038099D02*
X0242553Y0038099D01*
X0242553Y0038698D02*
X0267359Y0038698D01*
X0267111Y0039296D02*
X0242553Y0039296D01*
X0242503Y0039895D02*
X0266895Y0039895D01*
X0283512Y0021341D02*
X0283841Y0021341D01*
X0268738Y0010716D02*
X0268738Y0007857D01*
X0264632Y0007857D01*
X0266894Y0010118D01*
X0267304Y0010118D01*
X0268731Y0010709D01*
X0268738Y0010716D01*
X0268738Y0010567D02*
X0268389Y0010567D01*
X0268738Y0009969D02*
X0266744Y0009969D01*
X0266146Y0009370D02*
X0268738Y0009370D01*
X0268738Y0008772D02*
X0265547Y0008772D01*
X0264949Y0008173D02*
X0268738Y0008173D01*
X0266532Y0013999D02*
X0258658Y0006125D01*
X0221257Y0006125D01*
X0189760Y0037621D01*
X0120863Y0037621D01*
X0085430Y0073054D01*
X0088168Y0075805D02*
X0115840Y0075805D01*
X0115840Y0075207D02*
X0088739Y0075207D01*
X0088720Y0075253D02*
X0087628Y0076345D01*
X0086202Y0076936D01*
X0084658Y0076936D01*
X0083231Y0076345D01*
X0082140Y0075253D01*
X0081549Y0073826D01*
X0081549Y0072282D01*
X0082140Y0070856D01*
X0083231Y0069764D01*
X0084658Y0069173D01*
X0085068Y0069173D01*
X0090553Y0063688D01*
X0086750Y0063688D01*
X0084028Y0060966D01*
X0081306Y0063688D01*
X0081256Y0063688D01*
X0081256Y0081165D01*
X0115840Y0081165D01*
X0115840Y0054569D01*
X0115755Y0054569D01*
X0114763Y0054158D01*
X0114003Y0053399D01*
X0113592Y0052406D01*
X0113592Y0049135D01*
X0089311Y0073416D01*
X0089311Y0073826D01*
X0088720Y0075253D01*
X0088987Y0074608D02*
X0115840Y0074608D01*
X0115840Y0074010D02*
X0089235Y0074010D01*
X0089316Y0073411D02*
X0115840Y0073411D01*
X0115840Y0072813D02*
X0089914Y0072813D01*
X0090513Y0072214D02*
X0115840Y0072214D01*
X0115840Y0071616D02*
X0091111Y0071616D01*
X0091710Y0071017D02*
X0115840Y0071017D01*
X0115840Y0070419D02*
X0092308Y0070419D01*
X0092907Y0069820D02*
X0115840Y0069820D01*
X0115840Y0069222D02*
X0093505Y0069222D01*
X0094104Y0068623D02*
X0115840Y0068623D01*
X0115840Y0068025D02*
X0094702Y0068025D01*
X0095301Y0067426D02*
X0115840Y0067426D01*
X0115840Y0066828D02*
X0095899Y0066828D01*
X0096498Y0066229D02*
X0115840Y0066229D01*
X0115840Y0065631D02*
X0097096Y0065631D01*
X0097695Y0065032D02*
X0115840Y0065032D01*
X0115840Y0064433D02*
X0098293Y0064433D01*
X0098892Y0063835D02*
X0115840Y0063835D01*
X0115840Y0063236D02*
X0099490Y0063236D01*
X0100089Y0062638D02*
X0115840Y0062638D01*
X0115840Y0062039D02*
X0100687Y0062039D01*
X0101286Y0061441D02*
X0115840Y0061441D01*
X0115840Y0060842D02*
X0101884Y0060842D01*
X0102483Y0060244D02*
X0115840Y0060244D01*
X0115840Y0059645D02*
X0103081Y0059645D01*
X0103680Y0059047D02*
X0115840Y0059047D01*
X0115840Y0058448D02*
X0104278Y0058448D01*
X0104877Y0057850D02*
X0115840Y0057850D01*
X0115840Y0057251D02*
X0105476Y0057251D01*
X0106074Y0056653D02*
X0115840Y0056653D01*
X0115840Y0056054D02*
X0106673Y0056054D01*
X0107271Y0055456D02*
X0115840Y0055456D01*
X0115840Y0054857D02*
X0107870Y0054857D01*
X0108468Y0054259D02*
X0115005Y0054259D01*
X0114264Y0053660D02*
X0109067Y0053660D01*
X0109665Y0053062D02*
X0113863Y0053062D01*
X0113616Y0052463D02*
X0110264Y0052463D01*
X0110862Y0051865D02*
X0113592Y0051865D01*
X0113592Y0051266D02*
X0111461Y0051266D01*
X0112059Y0050668D02*
X0113592Y0050668D01*
X0113592Y0050069D02*
X0112658Y0050069D01*
X0113256Y0049471D02*
X0113592Y0049471D01*
X0108960Y0045281D02*
X0063776Y0045281D01*
X0063776Y0044683D02*
X0109559Y0044683D01*
X0110157Y0044084D02*
X0063776Y0044084D01*
X0063776Y0043486D02*
X0076547Y0043486D01*
X0076750Y0043688D02*
X0073528Y0040466D01*
X0073528Y0035910D01*
X0076750Y0032688D01*
X0081306Y0032688D01*
X0084028Y0035410D01*
X0086750Y0032688D01*
X0091306Y0032688D01*
X0094528Y0035910D01*
X0094528Y0040466D01*
X0091306Y0043688D01*
X0086750Y0043688D01*
X0084028Y0040966D01*
X0081306Y0043688D01*
X0076750Y0043688D01*
X0075949Y0042887D02*
X0063776Y0042887D01*
X0063776Y0042289D02*
X0075350Y0042289D01*
X0074752Y0041690D02*
X0063776Y0041690D01*
X0063776Y0041092D02*
X0074153Y0041092D01*
X0073555Y0040493D02*
X0063776Y0040493D01*
X0063776Y0039895D02*
X0073528Y0039895D01*
X0073528Y0039296D02*
X0063776Y0039296D01*
X0063776Y0038698D02*
X0073528Y0038698D01*
X0073528Y0038099D02*
X0063776Y0038099D01*
X0063776Y0037500D02*
X0073528Y0037500D01*
X0073528Y0036902D02*
X0063776Y0036902D01*
X0063776Y0036303D02*
X0073528Y0036303D01*
X0073733Y0035705D02*
X0063776Y0035705D01*
X0063776Y0035106D02*
X0074332Y0035106D01*
X0074930Y0034508D02*
X0063776Y0034508D01*
X0063776Y0033909D02*
X0075529Y0033909D01*
X0076127Y0033311D02*
X0063776Y0033311D01*
X0063776Y0032712D02*
X0076726Y0032712D01*
X0081330Y0032712D02*
X0086726Y0032712D01*
X0086127Y0033311D02*
X0081929Y0033311D01*
X0082527Y0033909D02*
X0085529Y0033909D01*
X0084930Y0034508D02*
X0083126Y0034508D01*
X0083724Y0035106D02*
X0084332Y0035106D01*
X0091330Y0032712D02*
X0178088Y0032712D01*
X0178005Y0033311D02*
X0091929Y0033311D01*
X0092527Y0033909D02*
X0178005Y0033909D01*
X0178027Y0034508D02*
X0093126Y0034508D01*
X0093724Y0035106D02*
X0119135Y0035106D01*
X0118537Y0035705D02*
X0094323Y0035705D01*
X0094528Y0036303D02*
X0117938Y0036303D01*
X0117340Y0036902D02*
X0094528Y0036902D01*
X0094528Y0037500D02*
X0116741Y0037500D01*
X0116143Y0038099D02*
X0094528Y0038099D01*
X0094528Y0038698D02*
X0115544Y0038698D01*
X0114946Y0039296D02*
X0094528Y0039296D01*
X0094528Y0039895D02*
X0114347Y0039895D01*
X0113749Y0040493D02*
X0094502Y0040493D01*
X0093903Y0041092D02*
X0113150Y0041092D01*
X0112552Y0041690D02*
X0093305Y0041690D01*
X0092706Y0042289D02*
X0111953Y0042289D01*
X0111355Y0042887D02*
X0092108Y0042887D01*
X0091509Y0043486D02*
X0110756Y0043486D01*
X0108362Y0045880D02*
X0063776Y0045880D01*
X0063776Y0046478D02*
X0107763Y0046478D01*
X0107165Y0047077D02*
X0063776Y0047077D01*
X0063776Y0047675D02*
X0106566Y0047675D01*
X0105968Y0048274D02*
X0063776Y0048274D01*
X0063776Y0048872D02*
X0105369Y0048872D01*
X0104771Y0049471D02*
X0063776Y0049471D01*
X0063776Y0050069D02*
X0104172Y0050069D01*
X0103574Y0050668D02*
X0063776Y0050668D01*
X0063776Y0051266D02*
X0102975Y0051266D01*
X0102377Y0051865D02*
X0063776Y0051865D01*
X0063776Y0052463D02*
X0101778Y0052463D01*
X0101180Y0053062D02*
X0091680Y0053062D01*
X0092278Y0053660D02*
X0100581Y0053660D01*
X0099983Y0054259D02*
X0092877Y0054259D01*
X0093475Y0054857D02*
X0099384Y0054857D01*
X0098786Y0055456D02*
X0094074Y0055456D01*
X0094528Y0056054D02*
X0098187Y0056054D01*
X0097589Y0056653D02*
X0094528Y0056653D01*
X0094528Y0057251D02*
X0096990Y0057251D01*
X0096392Y0057850D02*
X0094528Y0057850D01*
X0094528Y0058448D02*
X0095793Y0058448D01*
X0095195Y0059047D02*
X0094528Y0059047D01*
X0094528Y0059645D02*
X0094596Y0059645D01*
X0090407Y0063835D02*
X0081256Y0063835D01*
X0081256Y0064433D02*
X0089808Y0064433D01*
X0089210Y0065032D02*
X0081256Y0065032D01*
X0081256Y0065631D02*
X0088611Y0065631D01*
X0088013Y0066229D02*
X0081256Y0066229D01*
X0081256Y0066828D02*
X0087414Y0066828D01*
X0086816Y0067426D02*
X0081256Y0067426D01*
X0081256Y0068025D02*
X0086217Y0068025D01*
X0085619Y0068623D02*
X0081256Y0068623D01*
X0081256Y0069222D02*
X0084541Y0069222D01*
X0083175Y0069820D02*
X0081256Y0069820D01*
X0081256Y0070419D02*
X0082577Y0070419D01*
X0082073Y0071017D02*
X0081256Y0071017D01*
X0081256Y0071616D02*
X0081825Y0071616D01*
X0081577Y0072214D02*
X0081256Y0072214D01*
X0081256Y0072813D02*
X0081549Y0072813D01*
X0081549Y0073411D02*
X0081256Y0073411D01*
X0081256Y0074010D02*
X0081625Y0074010D01*
X0081872Y0074608D02*
X0081256Y0074608D01*
X0081256Y0075207D02*
X0082120Y0075207D01*
X0082692Y0075805D02*
X0081256Y0075805D01*
X0081256Y0076404D02*
X0083374Y0076404D01*
X0081256Y0077002D02*
X0115840Y0077002D01*
X0115840Y0076404D02*
X0087486Y0076404D01*
X0081256Y0077601D02*
X0115840Y0077601D01*
X0115840Y0078199D02*
X0081256Y0078199D01*
X0081256Y0078798D02*
X0115840Y0078798D01*
X0115840Y0079396D02*
X0081256Y0079396D01*
X0081256Y0079995D02*
X0115840Y0079995D01*
X0115840Y0080593D02*
X0081256Y0080593D01*
X0073856Y0080593D02*
X0063776Y0080593D01*
X0063776Y0079995D02*
X0073856Y0079995D01*
X0073856Y0079396D02*
X0063776Y0079396D01*
X0063776Y0078798D02*
X0073856Y0078798D01*
X0073856Y0078199D02*
X0063776Y0078199D01*
X0063776Y0077601D02*
X0073856Y0077601D01*
X0073856Y0077002D02*
X0063776Y0077002D01*
X0063776Y0076404D02*
X0073856Y0076404D01*
X0073856Y0075805D02*
X0063776Y0075805D01*
X0063776Y0075207D02*
X0073856Y0075207D01*
X0073856Y0074608D02*
X0063776Y0074608D01*
X0063776Y0074010D02*
X0073856Y0074010D01*
X0073856Y0073411D02*
X0063776Y0073411D01*
X0063776Y0072813D02*
X0073856Y0072813D01*
X0073856Y0072214D02*
X0063776Y0072214D01*
X0063776Y0071616D02*
X0073856Y0071616D01*
X0073856Y0071017D02*
X0063776Y0071017D01*
X0063776Y0070419D02*
X0073856Y0070419D01*
X0073856Y0069820D02*
X0063776Y0069820D01*
X0063776Y0069222D02*
X0073856Y0069222D01*
X0073856Y0068623D02*
X0063776Y0068623D01*
X0063776Y0068025D02*
X0073856Y0068025D01*
X0073856Y0067426D02*
X0063776Y0067426D01*
X0063776Y0066828D02*
X0073856Y0066828D01*
X0073856Y0066229D02*
X0063776Y0066229D01*
X0063776Y0065631D02*
X0073856Y0065631D01*
X0073856Y0065032D02*
X0063776Y0065032D01*
X0063776Y0064433D02*
X0073856Y0064433D01*
X0073856Y0063835D02*
X0063776Y0063835D01*
X0063776Y0063236D02*
X0073856Y0063236D01*
X0073856Y0062638D02*
X0063776Y0062638D01*
X0063776Y0062039D02*
X0073856Y0062039D01*
X0073856Y0061441D02*
X0063776Y0061441D01*
X0063776Y0060842D02*
X0073856Y0060842D01*
X0073528Y0060244D02*
X0063776Y0060244D01*
X0063776Y0059645D02*
X0073528Y0059645D01*
X0073528Y0059047D02*
X0063776Y0059047D01*
X0063776Y0058448D02*
X0073528Y0058448D01*
X0073528Y0057850D02*
X0063776Y0057850D01*
X0063776Y0057251D02*
X0073528Y0057251D01*
X0073528Y0056653D02*
X0063776Y0056653D01*
X0063776Y0056054D02*
X0073528Y0056054D01*
X0073983Y0055456D02*
X0063776Y0055456D01*
X0063776Y0054857D02*
X0074581Y0054857D01*
X0075180Y0054259D02*
X0063776Y0054259D01*
X0063776Y0053660D02*
X0075778Y0053660D01*
X0076377Y0053062D02*
X0063776Y0053062D01*
X0081680Y0053062D02*
X0086377Y0053062D01*
X0085778Y0053660D02*
X0082278Y0053660D01*
X0082877Y0054259D02*
X0085180Y0054259D01*
X0084581Y0054857D02*
X0083475Y0054857D01*
X0083554Y0061441D02*
X0084503Y0061441D01*
X0085101Y0062039D02*
X0082955Y0062039D01*
X0082357Y0062638D02*
X0085700Y0062638D01*
X0086298Y0063236D02*
X0081758Y0063236D01*
X0073856Y0081192D02*
X0063776Y0081192D01*
X0063776Y0081790D02*
X0073856Y0081790D01*
X0073856Y0082389D02*
X0063776Y0082389D01*
X0063776Y0082987D02*
X0073856Y0082987D01*
X0073856Y0083586D02*
X0063776Y0083586D01*
X0063776Y0084184D02*
X0073856Y0084184D01*
X0073856Y0084783D02*
X0063776Y0084783D01*
X0063776Y0085381D02*
X0073856Y0085381D01*
X0074013Y0085980D02*
X0063776Y0085980D01*
X0063776Y0086578D02*
X0074260Y0086578D01*
X0074635Y0087177D02*
X0063776Y0087177D01*
X0063776Y0087775D02*
X0075233Y0087775D01*
X0076357Y0088374D02*
X0063776Y0088374D01*
X0063776Y0088972D02*
X0089423Y0088972D01*
X0089423Y0089571D02*
X0063776Y0089571D01*
X0063776Y0090169D02*
X0089669Y0090169D01*
X0089917Y0090768D02*
X0063776Y0090768D01*
X0063776Y0091366D02*
X0090379Y0091366D01*
X0090978Y0091965D02*
X0063776Y0091965D01*
X0063776Y0092564D02*
X0092242Y0092564D01*
X0094366Y0092564D02*
X0117833Y0092564D01*
X0116568Y0091965D02*
X0095630Y0091965D01*
X0096228Y0091366D02*
X0115970Y0091366D01*
X0115508Y0090768D02*
X0096691Y0090768D01*
X0096938Y0090169D02*
X0115260Y0090169D01*
X0116190Y0093162D02*
X0120194Y0093162D01*
X0120194Y0092564D02*
X0119956Y0092564D01*
X0120194Y0093761D02*
X0116788Y0093761D01*
X0117387Y0094359D02*
X0120194Y0094359D01*
X0119804Y0094958D02*
X0117985Y0094958D01*
X0118584Y0095556D02*
X0119205Y0095556D01*
X0119012Y0101541D02*
X0118776Y0101541D01*
X0118178Y0102140D02*
X0119611Y0102140D01*
X0120209Y0102738D02*
X0117579Y0102738D01*
X0116981Y0103337D02*
X0120808Y0103337D01*
X0121406Y0103935D02*
X0116382Y0103935D01*
X0111406Y0103935D02*
X0063776Y0103935D01*
X0063776Y0103337D02*
X0110808Y0103337D01*
X0110209Y0102738D02*
X0063776Y0102738D01*
X0063776Y0102140D02*
X0109611Y0102140D01*
X0109012Y0101541D02*
X0063776Y0101541D01*
X0063776Y0100943D02*
X0108414Y0100943D01*
X0108394Y0100344D02*
X0063776Y0100344D01*
X0063776Y0099746D02*
X0108394Y0099746D01*
X0108394Y0099147D02*
X0063776Y0099147D01*
X0063776Y0098549D02*
X0108394Y0098549D01*
X0108394Y0097950D02*
X0063776Y0097950D01*
X0063776Y0097352D02*
X0108394Y0097352D01*
X0108394Y0096753D02*
X0063776Y0096753D01*
X0063776Y0096155D02*
X0108607Y0096155D01*
X0109205Y0095556D02*
X0063776Y0095556D01*
X0063776Y0094958D02*
X0109804Y0094958D01*
X0110402Y0094359D02*
X0063776Y0094359D01*
X0063776Y0093761D02*
X0111001Y0093761D01*
X0111599Y0093162D02*
X0063776Y0093162D01*
X0063776Y0104534D02*
X0275391Y0104534D01*
X0275989Y0105132D02*
X0063776Y0105132D01*
X0063776Y0105731D02*
X0276588Y0105731D01*
X0274792Y0103935D02*
X0244493Y0103935D01*
X0245091Y0103337D02*
X0274194Y0103337D01*
X0273749Y0102738D02*
X0245690Y0102738D01*
X0246288Y0102140D02*
X0273749Y0102140D01*
X0273749Y0101541D02*
X0246887Y0101541D01*
X0247485Y0100943D02*
X0273749Y0100943D01*
X0273749Y0100344D02*
X0247505Y0100344D01*
X0247505Y0099746D02*
X0273749Y0099746D01*
X0273749Y0099147D02*
X0247505Y0099147D01*
X0247505Y0098549D02*
X0273749Y0098549D01*
X0274134Y0097950D02*
X0247505Y0097950D01*
X0247505Y0097352D02*
X0274732Y0097352D01*
X0275331Y0096753D02*
X0247505Y0096753D01*
X0247292Y0096155D02*
X0275929Y0096155D01*
X0276528Y0095556D02*
X0246694Y0095556D01*
X0246610Y0094958D02*
X0286454Y0094958D01*
X0286454Y0095556D02*
X0281969Y0095556D01*
X0282568Y0096155D02*
X0285929Y0096155D01*
X0285331Y0096753D02*
X0283166Y0096753D01*
X0283765Y0097352D02*
X0284732Y0097352D01*
X0286454Y0094359D02*
X0246610Y0094359D01*
X0246610Y0093761D02*
X0286454Y0093761D01*
X0286454Y0093162D02*
X0246610Y0093162D01*
X0246610Y0092564D02*
X0286454Y0092564D01*
X0286454Y0091965D02*
X0246610Y0091965D01*
X0246610Y0091366D02*
X0286454Y0091366D01*
X0286454Y0090768D02*
X0246610Y0090768D01*
X0246610Y0090169D02*
X0286454Y0090169D01*
X0286454Y0089571D02*
X0246610Y0089571D01*
X0246610Y0088972D02*
X0286454Y0088972D01*
X0293854Y0088972D02*
X0359289Y0088972D01*
X0359289Y0089571D02*
X0293854Y0089571D01*
X0293854Y0090169D02*
X0359289Y0090169D01*
X0359289Y0090768D02*
X0293854Y0090768D01*
X0293854Y0091366D02*
X0359289Y0091366D01*
X0359289Y0091965D02*
X0293854Y0091965D01*
X0293854Y0092564D02*
X0359289Y0092564D01*
X0359289Y0093162D02*
X0293854Y0093162D01*
X0293854Y0093761D02*
X0359289Y0093761D01*
X0359289Y0094359D02*
X0293854Y0094359D01*
X0293854Y0094958D02*
X0359289Y0094958D01*
X0359289Y0095556D02*
X0354804Y0095556D01*
X0355403Y0096155D02*
X0358764Y0096155D01*
X0358166Y0096753D02*
X0356001Y0096753D01*
X0356600Y0097352D02*
X0357567Y0097352D01*
X0357627Y0103935D02*
X0356540Y0103935D01*
X0355941Y0104534D02*
X0358225Y0104534D01*
X0358824Y0105132D02*
X0355343Y0105132D01*
X0354744Y0105731D02*
X0359422Y0105731D01*
X0364744Y0105731D02*
X0392730Y0105731D01*
X0392131Y0105132D02*
X0365343Y0105132D01*
X0365941Y0104534D02*
X0391532Y0104534D01*
X0390934Y0103935D02*
X0366540Y0103935D01*
X0367138Y0103337D02*
X0390335Y0103337D01*
X0389890Y0102738D02*
X0367583Y0102738D01*
X0367583Y0102140D02*
X0389890Y0102140D01*
X0389890Y0101541D02*
X0367583Y0101541D01*
X0367583Y0100943D02*
X0389890Y0100943D01*
X0389890Y0100344D02*
X0367583Y0100344D01*
X0367583Y0099746D02*
X0389890Y0099746D01*
X0389890Y0099147D02*
X0367583Y0099147D01*
X0367583Y0098549D02*
X0389890Y0098549D01*
X0390276Y0097950D02*
X0367198Y0097950D01*
X0366689Y0097352D02*
X0390874Y0097352D01*
X0391473Y0096753D02*
X0366689Y0096753D01*
X0366689Y0096155D02*
X0392071Y0096155D01*
X0392670Y0095556D02*
X0366689Y0095556D01*
X0366689Y0094958D02*
X0402596Y0094958D01*
X0402596Y0095556D02*
X0398111Y0095556D01*
X0398710Y0096155D02*
X0402071Y0096155D01*
X0401473Y0096753D02*
X0399308Y0096753D01*
X0399907Y0097352D02*
X0400874Y0097352D01*
X0402596Y0094359D02*
X0366689Y0094359D01*
X0366689Y0093761D02*
X0402596Y0093761D01*
X0402596Y0093162D02*
X0366689Y0093162D01*
X0366689Y0092564D02*
X0402596Y0092564D01*
X0402596Y0091965D02*
X0366689Y0091965D01*
X0366689Y0091366D02*
X0402596Y0091366D01*
X0402596Y0090768D02*
X0366689Y0090768D01*
X0366689Y0090169D02*
X0402596Y0090169D01*
X0402596Y0089571D02*
X0366689Y0089571D01*
X0366689Y0088972D02*
X0402596Y0088972D01*
X0409996Y0088972D02*
X0457477Y0088972D01*
X0457477Y0088374D02*
X0409996Y0088374D01*
X0409996Y0087775D02*
X0457477Y0087775D01*
X0457477Y0087177D02*
X0409996Y0087177D01*
X0409996Y0086578D02*
X0457477Y0086578D01*
X0457477Y0085980D02*
X0409996Y0085980D01*
X0409996Y0085381D02*
X0457477Y0085381D01*
X0457477Y0084783D02*
X0409996Y0084783D01*
X0409996Y0084184D02*
X0457477Y0084184D01*
X0457477Y0083586D02*
X0409771Y0083586D01*
X0409523Y0082987D02*
X0457477Y0082987D01*
X0457477Y0082389D02*
X0409052Y0082389D01*
X0408453Y0081790D02*
X0457477Y0081790D01*
X0457477Y0081192D02*
X0407095Y0081192D01*
X0409996Y0089571D02*
X0457477Y0089571D01*
X0457477Y0090169D02*
X0409996Y0090169D01*
X0409996Y0090768D02*
X0457477Y0090768D01*
X0457477Y0091366D02*
X0409996Y0091366D01*
X0409996Y0091965D02*
X0457477Y0091965D01*
X0457477Y0092564D02*
X0409996Y0092564D01*
X0409996Y0093162D02*
X0457477Y0093162D01*
X0457477Y0093761D02*
X0409996Y0093761D01*
X0409996Y0094359D02*
X0457477Y0094359D01*
X0457477Y0094958D02*
X0409996Y0094958D01*
X0409996Y0095556D02*
X0457477Y0095556D01*
X0457477Y0096155D02*
X0409996Y0096155D01*
X0409996Y0096753D02*
X0457477Y0096753D01*
X0457477Y0097352D02*
X0409996Y0097352D01*
X0410505Y0097950D02*
X0457477Y0097950D01*
X0457477Y0098549D02*
X0410890Y0098549D01*
X0410890Y0099147D02*
X0457477Y0099147D01*
X0457477Y0099746D02*
X0410890Y0099746D01*
X0410890Y0100344D02*
X0457477Y0100344D01*
X0457477Y0100943D02*
X0410890Y0100943D01*
X0410890Y0101541D02*
X0457477Y0101541D01*
X0457477Y0102140D02*
X0410890Y0102140D01*
X0410890Y0102738D02*
X0457477Y0102738D01*
X0457477Y0103337D02*
X0410445Y0103337D01*
X0409847Y0103935D02*
X0457477Y0103935D01*
X0457477Y0104534D02*
X0409248Y0104534D01*
X0408650Y0105132D02*
X0457477Y0105132D01*
X0457477Y0105731D02*
X0408051Y0105731D01*
X0402730Y0105731D02*
X0398051Y0105731D01*
X0398650Y0105132D02*
X0402131Y0105132D01*
X0401532Y0104534D02*
X0399248Y0104534D01*
X0399847Y0103935D02*
X0400934Y0103935D01*
X0405524Y0128228D02*
X0407068Y0128228D01*
X0408494Y0128819D01*
X0409586Y0129911D01*
X0410177Y0131338D01*
X0410177Y0132882D01*
X0409586Y0134308D01*
X0408494Y0135400D01*
X0407068Y0135991D01*
X0406657Y0135991D01*
X0398366Y0144282D01*
X0398366Y0144693D01*
X0397775Y0146119D01*
X0396683Y0147211D01*
X0395257Y0147802D01*
X0393713Y0147802D01*
X0392286Y0147211D01*
X0391195Y0146119D01*
X0390604Y0144693D01*
X0390604Y0143149D01*
X0391195Y0141722D01*
X0392286Y0140630D01*
X0393713Y0140039D01*
X0394123Y0140039D01*
X0402415Y0131748D01*
X0402415Y0131338D01*
X0403006Y0129911D01*
X0404097Y0128819D01*
X0405524Y0128228D01*
X0404931Y0128474D02*
X0289551Y0128474D01*
X0288958Y0128228D02*
X0290384Y0128819D01*
X0291476Y0129911D01*
X0292067Y0131338D01*
X0292067Y0132882D01*
X0291476Y0134308D01*
X0290384Y0135400D01*
X0288958Y0135991D01*
X0288547Y0135991D01*
X0280256Y0144282D01*
X0280256Y0144693D01*
X0279665Y0146119D01*
X0278573Y0147211D01*
X0277147Y0147802D01*
X0275603Y0147802D01*
X0274176Y0147211D01*
X0273084Y0146119D01*
X0272494Y0144693D01*
X0272494Y0143149D01*
X0273084Y0141722D01*
X0274176Y0140630D01*
X0275603Y0140039D01*
X0276013Y0140039D01*
X0284305Y0131748D01*
X0284305Y0131338D01*
X0284895Y0129911D01*
X0285987Y0128819D01*
X0287414Y0128228D01*
X0288958Y0128228D01*
X0290638Y0129073D02*
X0403844Y0129073D01*
X0403246Y0129671D02*
X0291236Y0129671D01*
X0291624Y0130270D02*
X0402857Y0130270D01*
X0402609Y0130868D02*
X0291872Y0130868D01*
X0292067Y0131467D02*
X0402415Y0131467D01*
X0402098Y0132065D02*
X0292067Y0132065D01*
X0292067Y0132664D02*
X0401499Y0132664D01*
X0400901Y0133262D02*
X0291909Y0133262D01*
X0291661Y0133861D02*
X0356414Y0133861D01*
X0356705Y0133740D02*
X0358249Y0133740D01*
X0359675Y0134331D01*
X0360767Y0135423D01*
X0361358Y0136849D01*
X0361358Y0138393D01*
X0360767Y0139820D01*
X0359675Y0140912D01*
X0358249Y0141502D01*
X0358148Y0141502D01*
X0349547Y0151823D01*
X0349547Y0152567D01*
X0348956Y0153993D01*
X0347864Y0155085D01*
X0346438Y0155676D01*
X0344894Y0155676D01*
X0343468Y0155085D01*
X0342376Y0153993D01*
X0341785Y0152567D01*
X0341785Y0151023D01*
X0342376Y0149596D01*
X0343468Y0148504D01*
X0344894Y0147914D01*
X0344995Y0147914D01*
X0353596Y0137593D01*
X0353596Y0136849D01*
X0354187Y0135423D01*
X0355279Y0134331D01*
X0356705Y0133740D01*
X0355150Y0134459D02*
X0291325Y0134459D01*
X0290726Y0135058D02*
X0354552Y0135058D01*
X0354090Y0135656D02*
X0289765Y0135656D01*
X0288283Y0136255D02*
X0353842Y0136255D01*
X0353596Y0136853D02*
X0287685Y0136853D01*
X0287086Y0137452D02*
X0353596Y0137452D01*
X0353214Y0138050D02*
X0286488Y0138050D01*
X0285889Y0138649D02*
X0352716Y0138649D01*
X0352217Y0139247D02*
X0285290Y0139247D01*
X0284692Y0139846D02*
X0351718Y0139846D01*
X0351219Y0140444D02*
X0284093Y0140444D01*
X0283495Y0141043D02*
X0350721Y0141043D01*
X0350222Y0141641D02*
X0282896Y0141641D01*
X0282298Y0142240D02*
X0349723Y0142240D01*
X0349224Y0142838D02*
X0281699Y0142838D01*
X0281101Y0143437D02*
X0348726Y0143437D01*
X0348227Y0144035D02*
X0280502Y0144035D01*
X0280256Y0144634D02*
X0347728Y0144634D01*
X0347229Y0145233D02*
X0280032Y0145233D01*
X0279784Y0145831D02*
X0346731Y0145831D01*
X0346232Y0146430D02*
X0279354Y0146430D01*
X0278756Y0147028D02*
X0345733Y0147028D01*
X0345234Y0147627D02*
X0277569Y0147627D01*
X0275180Y0147627D02*
X0159027Y0147627D01*
X0158975Y0147679D02*
X0157548Y0148269D01*
X0156004Y0148269D01*
X0154578Y0147679D01*
X0153486Y0146587D01*
X0152895Y0145160D01*
X0152895Y0143616D01*
X0153486Y0142190D01*
X0154578Y0141098D01*
X0156004Y0140507D01*
X0156415Y0140507D01*
X0167295Y0129627D01*
X0167295Y0129216D01*
X0167886Y0127790D01*
X0168978Y0126698D01*
X0170404Y0126107D01*
X0171948Y0126107D01*
X0173375Y0126698D01*
X0174466Y0127790D01*
X0175057Y0129216D01*
X0175057Y0130760D01*
X0174466Y0132187D01*
X0173375Y0133279D01*
X0171948Y0133869D01*
X0171538Y0133869D01*
X0160657Y0144750D01*
X0160657Y0145160D01*
X0160066Y0146587D01*
X0158975Y0147679D01*
X0159625Y0147028D02*
X0273993Y0147028D01*
X0273395Y0146430D02*
X0160132Y0146430D01*
X0160380Y0145831D02*
X0230322Y0145831D01*
X0230327Y0145833D02*
X0228901Y0145242D01*
X0227809Y0144151D01*
X0227218Y0142724D01*
X0227218Y0141180D01*
X0227809Y0139754D01*
X0228901Y0138662D01*
X0230327Y0138071D01*
X0230738Y0138071D01*
X0237060Y0131748D01*
X0237060Y0131338D01*
X0237651Y0129911D01*
X0238743Y0128819D01*
X0240170Y0128228D01*
X0241714Y0128228D01*
X0243140Y0128819D01*
X0244232Y0129911D01*
X0244823Y0131338D01*
X0244823Y0132882D01*
X0244232Y0134308D01*
X0243140Y0135400D01*
X0241714Y0135991D01*
X0241303Y0135991D01*
X0234980Y0142314D01*
X0234980Y0142724D01*
X0234389Y0144151D01*
X0233298Y0145242D01*
X0231871Y0145833D01*
X0230327Y0145833D01*
X0231876Y0145831D02*
X0272965Y0145831D01*
X0272717Y0145233D02*
X0233307Y0145233D01*
X0233906Y0144634D02*
X0272494Y0144634D01*
X0272494Y0144035D02*
X0234437Y0144035D01*
X0234685Y0143437D02*
X0272494Y0143437D01*
X0272622Y0142838D02*
X0234933Y0142838D01*
X0235054Y0142240D02*
X0272870Y0142240D01*
X0273165Y0141641D02*
X0235652Y0141641D01*
X0236251Y0141043D02*
X0273764Y0141043D01*
X0274625Y0140444D02*
X0236849Y0140444D01*
X0237448Y0139846D02*
X0276207Y0139846D01*
X0276805Y0139247D02*
X0238046Y0139247D01*
X0238645Y0138649D02*
X0277404Y0138649D01*
X0278002Y0138050D02*
X0239243Y0138050D01*
X0239842Y0137452D02*
X0278601Y0137452D01*
X0279199Y0136853D02*
X0240440Y0136853D01*
X0241039Y0136255D02*
X0279798Y0136255D01*
X0280396Y0135656D02*
X0242521Y0135656D01*
X0243482Y0135058D02*
X0280995Y0135058D01*
X0281593Y0134459D02*
X0244081Y0134459D01*
X0244417Y0133861D02*
X0282192Y0133861D01*
X0282790Y0133262D02*
X0244665Y0133262D01*
X0244823Y0132664D02*
X0283389Y0132664D01*
X0283987Y0132065D02*
X0244823Y0132065D01*
X0244823Y0131467D02*
X0284305Y0131467D01*
X0284499Y0130868D02*
X0244628Y0130868D01*
X0244380Y0130270D02*
X0284747Y0130270D01*
X0285135Y0129671D02*
X0243992Y0129671D01*
X0243393Y0129073D02*
X0285734Y0129073D01*
X0286820Y0128474D02*
X0242307Y0128474D01*
X0239576Y0128474D02*
X0174750Y0128474D01*
X0174502Y0127876D02*
X0457477Y0127876D01*
X0457477Y0128474D02*
X0407661Y0128474D01*
X0408748Y0129073D02*
X0457477Y0129073D01*
X0457477Y0129671D02*
X0409346Y0129671D01*
X0409735Y0130270D02*
X0457477Y0130270D01*
X0457477Y0130868D02*
X0409983Y0130868D01*
X0410177Y0131467D02*
X0457477Y0131467D01*
X0457477Y0132065D02*
X0410177Y0132065D01*
X0410177Y0132664D02*
X0457477Y0132664D01*
X0457477Y0133262D02*
X0410019Y0133262D01*
X0409771Y0133861D02*
X0457477Y0133861D01*
X0457477Y0134459D02*
X0409435Y0134459D01*
X0408836Y0135058D02*
X0457477Y0135058D01*
X0457477Y0135656D02*
X0407875Y0135656D01*
X0406393Y0136255D02*
X0457477Y0136255D01*
X0457477Y0136853D02*
X0405795Y0136853D01*
X0405196Y0137452D02*
X0457477Y0137452D01*
X0457477Y0138050D02*
X0404598Y0138050D01*
X0403999Y0138649D02*
X0457477Y0138649D01*
X0457477Y0139247D02*
X0403401Y0139247D01*
X0402802Y0139846D02*
X0457477Y0139846D01*
X0457477Y0140444D02*
X0402204Y0140444D01*
X0401605Y0141043D02*
X0457477Y0141043D01*
X0457477Y0141641D02*
X0401007Y0141641D01*
X0400408Y0142240D02*
X0457477Y0142240D01*
X0457477Y0142838D02*
X0399810Y0142838D01*
X0399211Y0143437D02*
X0457477Y0143437D01*
X0457477Y0144035D02*
X0398613Y0144035D01*
X0398366Y0144634D02*
X0457477Y0144634D01*
X0457477Y0145233D02*
X0398142Y0145233D01*
X0397894Y0145831D02*
X0457477Y0145831D01*
X0457477Y0146430D02*
X0397465Y0146430D01*
X0396866Y0147028D02*
X0457477Y0147028D01*
X0457477Y0147627D02*
X0395680Y0147627D01*
X0393290Y0147627D02*
X0353045Y0147627D01*
X0352546Y0148225D02*
X0457477Y0148225D01*
X0457477Y0148824D02*
X0352047Y0148824D01*
X0351548Y0149422D02*
X0457477Y0149422D01*
X0457477Y0150021D02*
X0351049Y0150021D01*
X0350551Y0150619D02*
X0457477Y0150619D01*
X0457477Y0151218D02*
X0350052Y0151218D01*
X0349553Y0151816D02*
X0457477Y0151816D01*
X0457477Y0152415D02*
X0349547Y0152415D01*
X0349362Y0153013D02*
X0457477Y0153013D01*
X0457477Y0153612D02*
X0349114Y0153612D01*
X0348739Y0154210D02*
X0457477Y0154210D01*
X0457477Y0154809D02*
X0348141Y0154809D01*
X0347086Y0155407D02*
X0457477Y0155407D01*
X0457477Y0156006D02*
X0063776Y0156006D01*
X0063776Y0156604D02*
X0457477Y0156604D01*
X0457477Y0157203D02*
X0063776Y0157203D01*
X0063776Y0157801D02*
X0457477Y0157801D01*
X0457477Y0158400D02*
X0063776Y0158400D01*
X0063776Y0158998D02*
X0457477Y0158998D01*
X0457477Y0159597D02*
X0063776Y0159597D01*
X0063776Y0160195D02*
X0457477Y0160195D01*
X0457477Y0160794D02*
X0063776Y0160794D01*
X0063776Y0161392D02*
X0457477Y0161392D01*
X0457477Y0161991D02*
X0063776Y0161991D01*
X0063776Y0162589D02*
X0457477Y0162589D01*
X0457477Y0163188D02*
X0063776Y0163188D01*
X0063776Y0163786D02*
X0457477Y0163786D01*
X0457477Y0164385D02*
X0063776Y0164385D01*
X0063776Y0164983D02*
X0457477Y0164983D01*
X0457477Y0165582D02*
X0063776Y0165582D01*
X0063776Y0166180D02*
X0457477Y0166180D01*
X0457477Y0166779D02*
X0063776Y0166779D01*
X0063776Y0167377D02*
X0457477Y0167377D01*
X0457477Y0167976D02*
X0063776Y0167976D01*
X0063776Y0168574D02*
X0457477Y0168574D01*
X0457477Y0169173D02*
X0063776Y0169173D01*
X0063776Y0169771D02*
X0457477Y0169771D01*
X0457477Y0170370D02*
X0246705Y0170370D01*
X0246251Y0169917D02*
X0249473Y0173138D01*
X0249473Y0177695D01*
X0246251Y0180917D01*
X0241695Y0180917D01*
X0238973Y0178195D01*
X0236251Y0180917D01*
X0231695Y0180917D01*
X0228473Y0177695D01*
X0228473Y0173138D01*
X0231695Y0169917D01*
X0236251Y0169917D01*
X0238973Y0172638D01*
X0241695Y0169917D01*
X0246251Y0169917D01*
X0247303Y0170969D02*
X0457477Y0170969D01*
X0457477Y0171567D02*
X0247902Y0171567D01*
X0248500Y0172166D02*
X0457477Y0172166D01*
X0457477Y0172764D02*
X0249099Y0172764D01*
X0249473Y0173363D02*
X0457477Y0173363D01*
X0457477Y0173961D02*
X0409744Y0173961D01*
X0409637Y0173854D02*
X0412859Y0177075D01*
X0412859Y0181632D01*
X0409637Y0184854D01*
X0405081Y0184854D01*
X0402359Y0182132D01*
X0399637Y0184854D01*
X0395081Y0184854D01*
X0391859Y0181632D01*
X0391859Y0177075D01*
X0395081Y0173854D01*
X0399637Y0173854D01*
X0402359Y0176576D01*
X0405081Y0173854D01*
X0409637Y0173854D01*
X0410343Y0174560D02*
X0457477Y0174560D01*
X0457477Y0175158D02*
X0410941Y0175158D01*
X0411540Y0175757D02*
X0457477Y0175757D01*
X0457477Y0176355D02*
X0412139Y0176355D01*
X0412737Y0176954D02*
X0457477Y0176954D01*
X0457477Y0177552D02*
X0412859Y0177552D01*
X0412859Y0178151D02*
X0457477Y0178151D01*
X0457477Y0178749D02*
X0412859Y0178749D01*
X0412859Y0179348D02*
X0457477Y0179348D01*
X0457477Y0179946D02*
X0412859Y0179946D01*
X0412859Y0180545D02*
X0457477Y0180545D01*
X0457477Y0181143D02*
X0412859Y0181143D01*
X0412749Y0181742D02*
X0457477Y0181742D01*
X0457477Y0182340D02*
X0412151Y0182340D01*
X0411552Y0182939D02*
X0457477Y0182939D01*
X0457477Y0183537D02*
X0410953Y0183537D01*
X0410355Y0184136D02*
X0457477Y0184136D01*
X0457477Y0184734D02*
X0409756Y0184734D01*
X0404961Y0184734D02*
X0399756Y0184734D01*
X0400355Y0184136D02*
X0404363Y0184136D01*
X0403764Y0183537D02*
X0400953Y0183537D01*
X0401552Y0182939D02*
X0403166Y0182939D01*
X0402567Y0182340D02*
X0402151Y0182340D01*
X0402139Y0176355D02*
X0402579Y0176355D01*
X0403178Y0175757D02*
X0401540Y0175757D01*
X0400941Y0175158D02*
X0403776Y0175158D01*
X0404375Y0174560D02*
X0400343Y0174560D01*
X0399744Y0173961D02*
X0404973Y0173961D01*
X0394973Y0173961D02*
X0360532Y0173961D01*
X0360424Y0173854D02*
X0363646Y0177075D01*
X0363646Y0181632D01*
X0360424Y0184854D01*
X0355868Y0184854D01*
X0353146Y0182132D01*
X0350424Y0184854D01*
X0345868Y0184854D01*
X0342646Y0181632D01*
X0342646Y0177075D01*
X0345868Y0173854D01*
X0350424Y0173854D01*
X0353146Y0176576D01*
X0355868Y0173854D01*
X0360424Y0173854D01*
X0361130Y0174560D02*
X0394375Y0174560D01*
X0393776Y0175158D02*
X0361729Y0175158D01*
X0362327Y0175757D02*
X0393178Y0175757D01*
X0392579Y0176355D02*
X0362926Y0176355D01*
X0363524Y0176954D02*
X0391981Y0176954D01*
X0391859Y0177552D02*
X0363646Y0177552D01*
X0363646Y0178151D02*
X0391859Y0178151D01*
X0391859Y0178749D02*
X0363646Y0178749D01*
X0363646Y0179348D02*
X0391859Y0179348D01*
X0391859Y0179946D02*
X0363646Y0179946D01*
X0363646Y0180545D02*
X0391859Y0180545D01*
X0391859Y0181143D02*
X0363646Y0181143D01*
X0363536Y0181742D02*
X0391969Y0181742D01*
X0392567Y0182340D02*
X0362938Y0182340D01*
X0362339Y0182939D02*
X0393166Y0182939D01*
X0393764Y0183537D02*
X0361741Y0183537D01*
X0361142Y0184136D02*
X0394363Y0184136D01*
X0394961Y0184734D02*
X0360544Y0184734D01*
X0355749Y0184734D02*
X0350544Y0184734D01*
X0351142Y0184136D02*
X0355150Y0184136D01*
X0354552Y0183537D02*
X0351741Y0183537D01*
X0352339Y0182939D02*
X0353953Y0182939D01*
X0353355Y0182340D02*
X0352938Y0182340D01*
X0352926Y0176355D02*
X0353367Y0176355D01*
X0353965Y0175757D02*
X0352327Y0175757D01*
X0351729Y0175158D02*
X0354564Y0175158D01*
X0355162Y0174560D02*
X0351130Y0174560D01*
X0350532Y0173961D02*
X0355761Y0173961D01*
X0345761Y0173961D02*
X0291634Y0173961D01*
X0291527Y0173854D02*
X0294749Y0177075D01*
X0294749Y0181632D01*
X0291527Y0184854D01*
X0286971Y0184854D01*
X0284249Y0182132D01*
X0281527Y0184854D01*
X0276971Y0184854D01*
X0273749Y0181632D01*
X0273749Y0177075D01*
X0276971Y0173854D01*
X0281527Y0173854D01*
X0284249Y0176576D01*
X0286971Y0173854D01*
X0291527Y0173854D01*
X0292233Y0174560D02*
X0345162Y0174560D01*
X0344564Y0175158D02*
X0292831Y0175158D01*
X0293430Y0175757D02*
X0343965Y0175757D01*
X0343367Y0176355D02*
X0294028Y0176355D01*
X0294627Y0176954D02*
X0342768Y0176954D01*
X0342646Y0177552D02*
X0294749Y0177552D01*
X0294749Y0178151D02*
X0342646Y0178151D01*
X0342646Y0178749D02*
X0294749Y0178749D01*
X0294749Y0179348D02*
X0342646Y0179348D01*
X0342646Y0179946D02*
X0294749Y0179946D01*
X0294749Y0180545D02*
X0342646Y0180545D01*
X0342646Y0181143D02*
X0294749Y0181143D01*
X0294639Y0181742D02*
X0342756Y0181742D01*
X0343355Y0182340D02*
X0294040Y0182340D01*
X0293442Y0182939D02*
X0343953Y0182939D01*
X0344552Y0183537D02*
X0292843Y0183537D01*
X0292245Y0184136D02*
X0345150Y0184136D01*
X0345749Y0184734D02*
X0291646Y0184734D01*
X0286851Y0184734D02*
X0281646Y0184734D01*
X0282245Y0184136D02*
X0286253Y0184136D01*
X0285654Y0183537D02*
X0282843Y0183537D01*
X0283442Y0182939D02*
X0285056Y0182939D01*
X0284457Y0182340D02*
X0284040Y0182340D01*
X0284028Y0176355D02*
X0284469Y0176355D01*
X0285068Y0175757D02*
X0283430Y0175757D01*
X0282831Y0175158D02*
X0285666Y0175158D01*
X0286265Y0174560D02*
X0282233Y0174560D01*
X0281634Y0173961D02*
X0286863Y0173961D01*
X0276863Y0173961D02*
X0249473Y0173961D01*
X0249473Y0174560D02*
X0276265Y0174560D01*
X0275666Y0175158D02*
X0249473Y0175158D01*
X0249473Y0175757D02*
X0275068Y0175757D01*
X0274469Y0176355D02*
X0249473Y0176355D01*
X0249473Y0176954D02*
X0273871Y0176954D01*
X0273749Y0177552D02*
X0249473Y0177552D01*
X0249017Y0178151D02*
X0273749Y0178151D01*
X0273749Y0178749D02*
X0248419Y0178749D01*
X0247820Y0179348D02*
X0273749Y0179348D01*
X0273749Y0179946D02*
X0247222Y0179946D01*
X0246623Y0180545D02*
X0273749Y0180545D01*
X0273749Y0181143D02*
X0176638Y0181143D01*
X0176638Y0181632D02*
X0173417Y0184854D01*
X0168860Y0184854D01*
X0166138Y0182132D01*
X0163417Y0184854D01*
X0158860Y0184854D01*
X0155638Y0181632D01*
X0155638Y0177075D01*
X0158860Y0173854D01*
X0163417Y0173854D01*
X0166138Y0176576D01*
X0168860Y0173854D01*
X0173417Y0173854D01*
X0176638Y0177075D01*
X0176638Y0181632D01*
X0176529Y0181742D02*
X0273859Y0181742D01*
X0274457Y0182340D02*
X0175930Y0182340D01*
X0175332Y0182939D02*
X0275056Y0182939D01*
X0275654Y0183537D02*
X0174733Y0183537D01*
X0174135Y0184136D02*
X0276253Y0184136D01*
X0276851Y0184734D02*
X0173536Y0184734D01*
X0168741Y0184734D02*
X0163536Y0184734D01*
X0164135Y0184136D02*
X0168142Y0184136D01*
X0167544Y0183537D02*
X0164733Y0183537D01*
X0165332Y0182939D02*
X0166945Y0182939D01*
X0166347Y0182340D02*
X0165930Y0182340D01*
X0165918Y0176355D02*
X0166359Y0176355D01*
X0166957Y0175757D02*
X0165320Y0175757D01*
X0164721Y0175158D02*
X0167556Y0175158D01*
X0168154Y0174560D02*
X0164123Y0174560D01*
X0163524Y0173961D02*
X0168753Y0173961D01*
X0173524Y0173961D02*
X0228473Y0173961D01*
X0228473Y0173363D02*
X0063776Y0173363D01*
X0063776Y0173961D02*
X0111509Y0173961D01*
X0111616Y0173854D02*
X0116173Y0173854D01*
X0118894Y0176576D01*
X0121616Y0173854D01*
X0126173Y0173854D01*
X0129394Y0177075D01*
X0129394Y0181632D01*
X0126173Y0184854D01*
X0121616Y0184854D01*
X0118894Y0182132D01*
X0116173Y0184854D01*
X0111616Y0184854D01*
X0108394Y0181632D01*
X0108394Y0177075D01*
X0111616Y0173854D01*
X0110910Y0174560D02*
X0063776Y0174560D01*
X0063776Y0175158D02*
X0110312Y0175158D01*
X0109713Y0175757D02*
X0063776Y0175757D01*
X0063776Y0176355D02*
X0109115Y0176355D01*
X0108516Y0176954D02*
X0063776Y0176954D01*
X0063776Y0177552D02*
X0108394Y0177552D01*
X0108394Y0178151D02*
X0063776Y0178151D01*
X0063776Y0178749D02*
X0108394Y0178749D01*
X0108394Y0179348D02*
X0063776Y0179348D01*
X0063776Y0179946D02*
X0108394Y0179946D01*
X0108394Y0180545D02*
X0063776Y0180545D01*
X0063776Y0181143D02*
X0108394Y0181143D01*
X0108504Y0181742D02*
X0063776Y0181742D01*
X0063776Y0182340D02*
X0109103Y0182340D01*
X0109701Y0182939D02*
X0063776Y0182939D01*
X0063776Y0183537D02*
X0110300Y0183537D01*
X0110898Y0184136D02*
X0063776Y0184136D01*
X0063776Y0184734D02*
X0111497Y0184734D01*
X0116292Y0184734D02*
X0121497Y0184734D01*
X0120898Y0184136D02*
X0116890Y0184136D01*
X0117489Y0183537D02*
X0120300Y0183537D01*
X0119701Y0182939D02*
X0118087Y0182939D01*
X0118686Y0182340D02*
X0119103Y0182340D01*
X0119115Y0176355D02*
X0118674Y0176355D01*
X0118075Y0175757D02*
X0119713Y0175757D01*
X0120312Y0175158D02*
X0117477Y0175158D01*
X0116878Y0174560D02*
X0120910Y0174560D01*
X0121509Y0173961D02*
X0116280Y0173961D01*
X0126280Y0173961D02*
X0158753Y0173961D01*
X0158154Y0174560D02*
X0126878Y0174560D01*
X0127477Y0175158D02*
X0157556Y0175158D01*
X0156957Y0175757D02*
X0128075Y0175757D01*
X0128674Y0176355D02*
X0156359Y0176355D01*
X0155760Y0176954D02*
X0129272Y0176954D01*
X0129394Y0177552D02*
X0155638Y0177552D01*
X0155638Y0178151D02*
X0129394Y0178151D01*
X0129394Y0178749D02*
X0155638Y0178749D01*
X0155638Y0179348D02*
X0129394Y0179348D01*
X0129394Y0179946D02*
X0155638Y0179946D01*
X0155638Y0180545D02*
X0129394Y0180545D01*
X0129394Y0181143D02*
X0155638Y0181143D01*
X0155748Y0181742D02*
X0129284Y0181742D01*
X0128686Y0182340D02*
X0156347Y0182340D01*
X0156945Y0182939D02*
X0128087Y0182939D01*
X0127489Y0183537D02*
X0157544Y0183537D01*
X0158142Y0184136D02*
X0126890Y0184136D01*
X0126292Y0184734D02*
X0158741Y0184734D01*
X0174123Y0174560D02*
X0228473Y0174560D01*
X0228473Y0175158D02*
X0174721Y0175158D01*
X0175320Y0175757D02*
X0228473Y0175757D01*
X0228473Y0176355D02*
X0175918Y0176355D01*
X0176517Y0176954D02*
X0228473Y0176954D01*
X0228473Y0177552D02*
X0176638Y0177552D01*
X0176638Y0178151D02*
X0228929Y0178151D01*
X0229527Y0178749D02*
X0176638Y0178749D01*
X0176638Y0179348D02*
X0230126Y0179348D01*
X0230724Y0179946D02*
X0176638Y0179946D01*
X0176638Y0180545D02*
X0231323Y0180545D01*
X0236623Y0180545D02*
X0241323Y0180545D01*
X0240724Y0179946D02*
X0237222Y0179946D01*
X0237820Y0179348D02*
X0240126Y0179348D01*
X0239527Y0178749D02*
X0238419Y0178749D01*
X0238500Y0172166D02*
X0239446Y0172166D01*
X0240045Y0171567D02*
X0237902Y0171567D01*
X0237303Y0170969D02*
X0240643Y0170969D01*
X0241242Y0170370D02*
X0236705Y0170370D01*
X0231242Y0170370D02*
X0063776Y0170370D01*
X0063776Y0170969D02*
X0230643Y0170969D01*
X0230045Y0171567D02*
X0063776Y0171567D01*
X0063776Y0172166D02*
X0229446Y0172166D01*
X0228848Y0172764D02*
X0063776Y0172764D01*
X0063776Y0185333D02*
X0457477Y0185333D01*
X0457477Y0185931D02*
X0063776Y0185931D01*
X0063776Y0186530D02*
X0457477Y0186530D01*
X0457477Y0187128D02*
X0063776Y0187128D01*
X0063776Y0187727D02*
X0457477Y0187727D01*
X0457477Y0188325D02*
X0063776Y0188325D01*
X0063776Y0188924D02*
X0457477Y0188924D01*
X0457477Y0189522D02*
X0063776Y0189522D01*
X0063776Y0190121D02*
X0457477Y0190121D01*
X0457477Y0190719D02*
X0063776Y0190719D01*
X0063776Y0191318D02*
X0457477Y0191318D01*
X0457477Y0191916D02*
X0063776Y0191916D01*
X0063776Y0192515D02*
X0457477Y0192515D01*
X0457477Y0193113D02*
X0063776Y0193113D01*
X0063776Y0193712D02*
X0457477Y0193712D01*
X0457477Y0194310D02*
X0063776Y0194310D01*
X0063776Y0194909D02*
X0457477Y0194909D01*
X0457477Y0195507D02*
X0063776Y0195507D01*
X0063776Y0196106D02*
X0457477Y0196106D01*
X0457477Y0196704D02*
X0063776Y0196704D01*
X0063776Y0197303D02*
X0457477Y0197303D01*
X0457477Y0197902D02*
X0063776Y0197902D01*
X0063776Y0198500D02*
X0457477Y0198500D01*
X0457477Y0199099D02*
X0063776Y0199099D01*
X0063776Y0199697D02*
X0457477Y0199697D01*
X0457477Y0200296D02*
X0063776Y0200296D01*
X0063776Y0200894D02*
X0457477Y0200894D01*
X0457477Y0201493D02*
X0063776Y0201493D01*
X0063776Y0202091D02*
X0457477Y0202091D01*
X0457477Y0202690D02*
X0063776Y0202690D01*
X0063776Y0203288D02*
X0457477Y0203288D01*
X0457477Y0203887D02*
X0063776Y0203887D01*
X0063776Y0204485D02*
X0457477Y0204485D01*
X0457477Y0205084D02*
X0360025Y0205084D01*
X0359824Y0205000D02*
X0361250Y0205591D01*
X0362342Y0206683D01*
X0362933Y0208109D01*
X0362933Y0209653D01*
X0362342Y0211080D01*
X0361250Y0212171D01*
X0359824Y0212762D01*
X0359413Y0212762D01*
X0351122Y0221054D01*
X0351122Y0221464D01*
X0350531Y0222891D01*
X0349439Y0223982D01*
X0348013Y0224573D01*
X0346469Y0224573D01*
X0345042Y0223982D01*
X0343951Y0222891D01*
X0343360Y0221464D01*
X0343360Y0219920D01*
X0343951Y0218494D01*
X0345042Y0217402D01*
X0346469Y0216811D01*
X0346879Y0216811D01*
X0355171Y0208520D01*
X0355171Y0208109D01*
X0355762Y0206683D01*
X0356853Y0205591D01*
X0358280Y0205000D01*
X0359824Y0205000D01*
X0361341Y0205682D02*
X0457477Y0205682D01*
X0457477Y0206281D02*
X0361940Y0206281D01*
X0362423Y0206879D02*
X0457477Y0206879D01*
X0457477Y0207478D02*
X0408297Y0207478D01*
X0408494Y0207559D02*
X0407068Y0206969D01*
X0405524Y0206969D01*
X0404097Y0207559D01*
X0403006Y0208651D01*
X0402415Y0210078D01*
X0402415Y0210488D01*
X0394123Y0218780D01*
X0393713Y0218780D01*
X0392286Y0219371D01*
X0391195Y0220462D01*
X0390604Y0221889D01*
X0390604Y0223433D01*
X0391195Y0224859D01*
X0392286Y0225951D01*
X0393713Y0226542D01*
X0395257Y0226542D01*
X0396683Y0225951D01*
X0397775Y0224859D01*
X0398366Y0223433D01*
X0398366Y0223022D01*
X0406657Y0214731D01*
X0407068Y0214731D01*
X0408494Y0214140D01*
X0409586Y0213048D01*
X0410177Y0211622D01*
X0410177Y0210078D01*
X0409586Y0208651D01*
X0408494Y0207559D01*
X0409011Y0208076D02*
X0457477Y0208076D01*
X0457477Y0208675D02*
X0409596Y0208675D01*
X0409844Y0209273D02*
X0457477Y0209273D01*
X0457477Y0209872D02*
X0410092Y0209872D01*
X0410177Y0210470D02*
X0457477Y0210470D01*
X0457477Y0211069D02*
X0410177Y0211069D01*
X0410158Y0211667D02*
X0457477Y0211667D01*
X0457477Y0212266D02*
X0409910Y0212266D01*
X0409662Y0212864D02*
X0457477Y0212864D01*
X0457477Y0213463D02*
X0409172Y0213463D01*
X0408573Y0214061D02*
X0457477Y0214061D01*
X0457477Y0214660D02*
X0407239Y0214660D01*
X0406130Y0215258D02*
X0457477Y0215258D01*
X0457477Y0215857D02*
X0405531Y0215857D01*
X0404933Y0216455D02*
X0457477Y0216455D01*
X0457477Y0217054D02*
X0404334Y0217054D01*
X0403736Y0217652D02*
X0457477Y0217652D01*
X0457477Y0218251D02*
X0403137Y0218251D01*
X0402539Y0218849D02*
X0457477Y0218849D01*
X0457477Y0219448D02*
X0401940Y0219448D01*
X0401342Y0220046D02*
X0457477Y0220046D01*
X0457477Y0220645D02*
X0400743Y0220645D01*
X0400145Y0221243D02*
X0457477Y0221243D01*
X0457477Y0221842D02*
X0399546Y0221842D01*
X0398948Y0222440D02*
X0457477Y0222440D01*
X0457477Y0223039D02*
X0398366Y0223039D01*
X0398281Y0223637D02*
X0457477Y0223637D01*
X0457477Y0224236D02*
X0398033Y0224236D01*
X0397785Y0224835D02*
X0457477Y0224835D01*
X0457477Y0225433D02*
X0397201Y0225433D01*
X0396489Y0226032D02*
X0457477Y0226032D01*
X0457477Y0226630D02*
X0063776Y0226630D01*
X0063776Y0226032D02*
X0392481Y0226032D01*
X0391768Y0225433D02*
X0063776Y0225433D01*
X0063776Y0224835D02*
X0391184Y0224835D01*
X0390937Y0224236D02*
X0348827Y0224236D01*
X0349784Y0223637D02*
X0390689Y0223637D01*
X0390604Y0223039D02*
X0350383Y0223039D01*
X0350718Y0222440D02*
X0390604Y0222440D01*
X0390623Y0221842D02*
X0350965Y0221842D01*
X0351122Y0221243D02*
X0390871Y0221243D01*
X0391119Y0220645D02*
X0351531Y0220645D01*
X0352129Y0220046D02*
X0391611Y0220046D01*
X0392209Y0219448D02*
X0352728Y0219448D01*
X0353326Y0218849D02*
X0393544Y0218849D01*
X0394652Y0218251D02*
X0353925Y0218251D01*
X0354523Y0217652D02*
X0395251Y0217652D01*
X0395849Y0217054D02*
X0355122Y0217054D01*
X0355720Y0216455D02*
X0396448Y0216455D01*
X0397046Y0215857D02*
X0356319Y0215857D01*
X0356917Y0215258D02*
X0397645Y0215258D01*
X0398243Y0214660D02*
X0357516Y0214660D01*
X0358114Y0214061D02*
X0398842Y0214061D01*
X0399440Y0213463D02*
X0358713Y0213463D01*
X0359311Y0212864D02*
X0400039Y0212864D01*
X0400637Y0212266D02*
X0361023Y0212266D01*
X0361754Y0211667D02*
X0401236Y0211667D01*
X0401834Y0211069D02*
X0362347Y0211069D01*
X0362595Y0210470D02*
X0402415Y0210470D01*
X0402500Y0209872D02*
X0362842Y0209872D01*
X0362933Y0209273D02*
X0402748Y0209273D01*
X0402996Y0208675D02*
X0362933Y0208675D01*
X0362919Y0208076D02*
X0403581Y0208076D01*
X0404295Y0207478D02*
X0362671Y0207478D01*
X0359052Y0208881D02*
X0347241Y0220692D01*
X0343360Y0220645D02*
X0235389Y0220645D01*
X0234980Y0221054D02*
X0234980Y0221464D01*
X0234389Y0222891D01*
X0233298Y0223982D01*
X0231871Y0224573D01*
X0230327Y0224573D01*
X0228901Y0223982D01*
X0227809Y0222891D01*
X0227218Y0221464D01*
X0227218Y0219920D01*
X0227809Y0218494D01*
X0228901Y0217402D01*
X0230327Y0216811D01*
X0230738Y0216811D01*
X0237060Y0210488D01*
X0237060Y0210078D01*
X0237651Y0208651D01*
X0238743Y0207559D01*
X0240170Y0206969D01*
X0241714Y0206969D01*
X0243140Y0207559D01*
X0244232Y0208651D01*
X0244823Y0210078D01*
X0244823Y0211622D01*
X0244232Y0213048D01*
X0243140Y0214140D01*
X0241714Y0214731D01*
X0241303Y0214731D01*
X0234980Y0221054D01*
X0234980Y0221243D02*
X0343360Y0221243D01*
X0343516Y0221842D02*
X0234824Y0221842D01*
X0234576Y0222440D02*
X0343764Y0222440D01*
X0344099Y0223039D02*
X0234241Y0223039D01*
X0233643Y0223637D02*
X0344697Y0223637D01*
X0345654Y0224236D02*
X0232685Y0224236D01*
X0229513Y0224236D02*
X0063776Y0224236D01*
X0063776Y0223637D02*
X0228556Y0223637D01*
X0227957Y0223039D02*
X0063776Y0223039D01*
X0063776Y0222440D02*
X0227622Y0222440D01*
X0227374Y0221842D02*
X0063776Y0221842D01*
X0063776Y0221243D02*
X0227218Y0221243D01*
X0227218Y0220645D02*
X0063776Y0220645D01*
X0063776Y0220046D02*
X0104887Y0220046D01*
X0104885Y0220045D02*
X0103793Y0218954D01*
X0103202Y0217527D01*
X0103202Y0215983D01*
X0103793Y0214557D01*
X0104885Y0213465D01*
X0106311Y0212874D01*
X0107855Y0212874D01*
X0109282Y0213465D01*
X0109572Y0213755D01*
X0124280Y0213755D01*
X0124570Y0213465D01*
X0125996Y0212874D01*
X0127540Y0212874D01*
X0128967Y0213465D01*
X0130059Y0214557D01*
X0130649Y0215983D01*
X0130649Y0217527D01*
X0130059Y0218954D01*
X0128967Y0220045D01*
X0127540Y0220636D01*
X0125996Y0220636D01*
X0124570Y0220045D01*
X0124280Y0219755D01*
X0109572Y0219755D01*
X0109282Y0220045D01*
X0107855Y0220636D01*
X0106311Y0220636D01*
X0104885Y0220045D01*
X0104287Y0219448D02*
X0063776Y0219448D01*
X0063776Y0218849D02*
X0103750Y0218849D01*
X0103502Y0218251D02*
X0063776Y0218251D01*
X0063776Y0217652D02*
X0103254Y0217652D01*
X0103202Y0217054D02*
X0063776Y0217054D01*
X0063776Y0216455D02*
X0103202Y0216455D01*
X0103255Y0215857D02*
X0063776Y0215857D01*
X0063776Y0215258D02*
X0103502Y0215258D01*
X0103750Y0214660D02*
X0063776Y0214660D01*
X0063776Y0214061D02*
X0104289Y0214061D01*
X0104890Y0213463D02*
X0063776Y0213463D01*
X0063776Y0212864D02*
X0150923Y0212864D01*
X0151037Y0212588D02*
X0152129Y0211496D01*
X0153555Y0210906D01*
X0155099Y0210906D01*
X0156526Y0211496D01*
X0156816Y0211787D01*
X0175461Y0211787D01*
X0175751Y0211496D01*
X0177177Y0210906D01*
X0178721Y0210906D01*
X0180148Y0211496D01*
X0181240Y0212588D01*
X0181831Y0214015D01*
X0181831Y0215559D01*
X0181240Y0216985D01*
X0180148Y0218077D01*
X0178721Y0218668D01*
X0177177Y0218668D01*
X0175751Y0218077D01*
X0175461Y0217787D01*
X0156816Y0217787D01*
X0156526Y0218077D01*
X0155099Y0218668D01*
X0153555Y0218668D01*
X0152129Y0218077D01*
X0151037Y0216985D01*
X0150446Y0215559D01*
X0150446Y0214015D01*
X0151037Y0212588D01*
X0151360Y0212266D02*
X0063776Y0212266D01*
X0063776Y0211667D02*
X0151958Y0211667D01*
X0153162Y0211069D02*
X0063776Y0211069D01*
X0063776Y0210470D02*
X0237060Y0210470D01*
X0237146Y0209872D02*
X0063776Y0209872D01*
X0063776Y0209273D02*
X0237394Y0209273D01*
X0237642Y0208675D02*
X0063776Y0208675D01*
X0063776Y0208076D02*
X0238226Y0208076D01*
X0238941Y0207478D02*
X0063776Y0207478D01*
X0063776Y0206879D02*
X0355680Y0206879D01*
X0355432Y0207478D02*
X0242943Y0207478D01*
X0243657Y0208076D02*
X0355184Y0208076D01*
X0355016Y0208675D02*
X0244242Y0208675D01*
X0244489Y0209273D02*
X0354417Y0209273D01*
X0353819Y0209872D02*
X0244737Y0209872D01*
X0244823Y0210470D02*
X0353220Y0210470D01*
X0352622Y0211069D02*
X0244823Y0211069D01*
X0244804Y0211667D02*
X0352023Y0211667D01*
X0351425Y0212266D02*
X0244556Y0212266D01*
X0244308Y0212864D02*
X0350826Y0212864D01*
X0350228Y0213463D02*
X0243817Y0213463D01*
X0243219Y0214061D02*
X0349629Y0214061D01*
X0349031Y0214660D02*
X0241885Y0214660D01*
X0240776Y0215258D02*
X0348432Y0215258D01*
X0347834Y0215857D02*
X0240177Y0215857D01*
X0239579Y0216455D02*
X0347235Y0216455D01*
X0345883Y0217054D02*
X0238980Y0217054D01*
X0238382Y0217652D02*
X0344792Y0217652D01*
X0344193Y0218251D02*
X0237783Y0218251D01*
X0237185Y0218849D02*
X0343803Y0218849D01*
X0343555Y0219448D02*
X0236586Y0219448D01*
X0235988Y0220046D02*
X0343360Y0220046D01*
X0356164Y0206281D02*
X0063776Y0206281D01*
X0063776Y0205682D02*
X0356762Y0205682D01*
X0358078Y0205084D02*
X0063776Y0205084D01*
X0063776Y0227229D02*
X0457477Y0227229D01*
X0457477Y0227827D02*
X0063776Y0227827D01*
X0063776Y0228426D02*
X0457477Y0228426D01*
X0457477Y0229024D02*
X0063776Y0229024D01*
X0063776Y0229623D02*
X0457477Y0229623D01*
X0457477Y0230221D02*
X0063776Y0230221D01*
X0063776Y0230820D02*
X0457477Y0230820D01*
X0457477Y0231418D02*
X0063776Y0231418D01*
X0063776Y0232017D02*
X0457477Y0232017D01*
X0457477Y0232615D02*
X0288469Y0232615D01*
X0288809Y0232756D02*
X0289901Y0233848D01*
X0290492Y0235275D01*
X0290492Y0236819D01*
X0289901Y0238245D01*
X0288809Y0239337D01*
X0287383Y0239928D01*
X0286972Y0239928D01*
X0276275Y0250625D01*
X0279558Y0250625D01*
X0282280Y0253347D01*
X0285002Y0250625D01*
X0289558Y0250625D01*
X0292780Y0253847D01*
X0292780Y0258403D01*
X0289558Y0261625D01*
X0285002Y0261625D01*
X0282280Y0258903D01*
X0279558Y0261625D01*
X0275002Y0261625D01*
X0271780Y0258403D01*
X0271780Y0254888D01*
X0270878Y0254888D01*
X0269452Y0254297D01*
X0268360Y0253206D01*
X0267769Y0251779D01*
X0267769Y0250235D01*
X0268360Y0248809D01*
X0269452Y0247717D01*
X0270878Y0247126D01*
X0271289Y0247126D01*
X0282730Y0235685D01*
X0282730Y0235275D01*
X0283321Y0233848D01*
X0284412Y0232756D01*
X0285839Y0232165D01*
X0287383Y0232165D01*
X0288809Y0232756D01*
X0289267Y0233214D02*
X0457477Y0233214D01*
X0457477Y0233812D02*
X0289865Y0233812D01*
X0290134Y0234411D02*
X0457477Y0234411D01*
X0457477Y0235009D02*
X0290382Y0235009D01*
X0290492Y0235608D02*
X0457477Y0235608D01*
X0457477Y0236206D02*
X0290492Y0236206D01*
X0290492Y0236805D02*
X0457477Y0236805D01*
X0457477Y0237403D02*
X0290250Y0237403D01*
X0290002Y0238002D02*
X0457477Y0238002D01*
X0457477Y0238600D02*
X0289546Y0238600D01*
X0288947Y0239199D02*
X0457477Y0239199D01*
X0457477Y0239797D02*
X0287698Y0239797D01*
X0286504Y0240396D02*
X0457477Y0240396D01*
X0457477Y0240994D02*
X0285906Y0240994D01*
X0285307Y0241593D02*
X0457477Y0241593D01*
X0457477Y0242191D02*
X0284709Y0242191D01*
X0284110Y0242790D02*
X0457477Y0242790D01*
X0457477Y0243388D02*
X0283512Y0243388D01*
X0282913Y0243987D02*
X0457477Y0243987D01*
X0457477Y0244585D02*
X0282315Y0244585D01*
X0281716Y0245184D02*
X0457477Y0245184D01*
X0457477Y0245782D02*
X0281118Y0245782D01*
X0280519Y0246381D02*
X0457477Y0246381D01*
X0457477Y0246979D02*
X0279921Y0246979D01*
X0279322Y0247578D02*
X0457477Y0247578D01*
X0457477Y0248176D02*
X0278724Y0248176D01*
X0278125Y0248775D02*
X0457477Y0248775D01*
X0457477Y0249373D02*
X0277527Y0249373D01*
X0276928Y0249972D02*
X0457477Y0249972D01*
X0457477Y0250571D02*
X0276330Y0250571D01*
X0280102Y0251169D02*
X0284458Y0251169D01*
X0283860Y0251768D02*
X0280701Y0251768D01*
X0281299Y0252366D02*
X0283261Y0252366D01*
X0282663Y0252965D02*
X0281898Y0252965D01*
X0282234Y0258950D02*
X0282326Y0258950D01*
X0282925Y0259548D02*
X0281635Y0259548D01*
X0281037Y0260147D02*
X0283523Y0260147D01*
X0284122Y0260745D02*
X0280438Y0260745D01*
X0279840Y0261344D02*
X0284720Y0261344D01*
X0289840Y0261344D02*
X0347555Y0261344D01*
X0347837Y0261625D02*
X0344615Y0258403D01*
X0344615Y0253847D01*
X0347837Y0250625D01*
X0352393Y0250625D01*
X0355115Y0253347D01*
X0357837Y0250625D01*
X0362393Y0250625D01*
X0365615Y0253847D01*
X0365615Y0258403D01*
X0362393Y0261625D01*
X0357837Y0261625D01*
X0355115Y0258903D01*
X0352393Y0261625D01*
X0347837Y0261625D01*
X0346957Y0260745D02*
X0290438Y0260745D01*
X0291037Y0260147D02*
X0346358Y0260147D01*
X0345760Y0259548D02*
X0291635Y0259548D01*
X0292234Y0258950D02*
X0345161Y0258950D01*
X0344615Y0258351D02*
X0292780Y0258351D01*
X0292780Y0257753D02*
X0344615Y0257753D01*
X0344615Y0257154D02*
X0292780Y0257154D01*
X0292780Y0256556D02*
X0344615Y0256556D01*
X0344615Y0255957D02*
X0292780Y0255957D01*
X0292780Y0255359D02*
X0344615Y0255359D01*
X0344615Y0254760D02*
X0292780Y0254760D01*
X0292780Y0254162D02*
X0344615Y0254162D01*
X0344899Y0253563D02*
X0292496Y0253563D01*
X0291898Y0252965D02*
X0345497Y0252965D01*
X0346096Y0252366D02*
X0291299Y0252366D01*
X0290701Y0251768D02*
X0346694Y0251768D01*
X0347293Y0251169D02*
X0290102Y0251169D01*
X0278618Y0239797D02*
X0063776Y0239797D01*
X0063776Y0239199D02*
X0279216Y0239199D01*
X0279815Y0238600D02*
X0063776Y0238600D01*
X0063776Y0238002D02*
X0280413Y0238002D01*
X0281012Y0237403D02*
X0063776Y0237403D01*
X0063776Y0236805D02*
X0281610Y0236805D01*
X0282209Y0236206D02*
X0063776Y0236206D01*
X0063776Y0235608D02*
X0282730Y0235608D01*
X0282840Y0235009D02*
X0063776Y0235009D01*
X0063776Y0234411D02*
X0283088Y0234411D01*
X0283357Y0233812D02*
X0063776Y0233812D01*
X0063776Y0233214D02*
X0283955Y0233214D01*
X0284753Y0232615D02*
X0063776Y0232615D01*
X0063776Y0240396D02*
X0278019Y0240396D01*
X0277420Y0240994D02*
X0063776Y0240994D01*
X0063776Y0241593D02*
X0276822Y0241593D01*
X0276223Y0242191D02*
X0063776Y0242191D01*
X0063776Y0242790D02*
X0275625Y0242790D01*
X0275026Y0243388D02*
X0063776Y0243388D01*
X0063776Y0243987D02*
X0274428Y0243987D01*
X0273829Y0244585D02*
X0063776Y0244585D01*
X0063776Y0245184D02*
X0273231Y0245184D01*
X0272632Y0245782D02*
X0063776Y0245782D01*
X0063776Y0246381D02*
X0272034Y0246381D01*
X0271435Y0246979D02*
X0063776Y0246979D01*
X0063776Y0247578D02*
X0269787Y0247578D01*
X0268992Y0248176D02*
X0063776Y0248176D01*
X0063776Y0248775D02*
X0268394Y0248775D01*
X0268126Y0249373D02*
X0063776Y0249373D01*
X0063776Y0249972D02*
X0267878Y0249972D01*
X0267769Y0250571D02*
X0063776Y0250571D01*
X0063776Y0251169D02*
X0111072Y0251169D01*
X0111616Y0250625D02*
X0116173Y0250625D01*
X0118894Y0253347D01*
X0121616Y0250625D01*
X0126173Y0250625D01*
X0129394Y0253847D01*
X0129394Y0258403D01*
X0126173Y0261625D01*
X0121616Y0261625D01*
X0118894Y0258903D01*
X0116173Y0261625D01*
X0111616Y0261625D01*
X0108394Y0258403D01*
X0108394Y0253847D01*
X0111616Y0250625D01*
X0110474Y0251768D02*
X0063776Y0251768D01*
X0063776Y0252366D02*
X0109875Y0252366D01*
X0109277Y0252965D02*
X0063776Y0252965D01*
X0063776Y0253563D02*
X0108678Y0253563D01*
X0108394Y0254162D02*
X0063776Y0254162D01*
X0063776Y0254760D02*
X0108394Y0254760D01*
X0108394Y0255359D02*
X0063776Y0255359D01*
X0063776Y0255957D02*
X0108394Y0255957D01*
X0108394Y0256556D02*
X0063776Y0256556D01*
X0063776Y0257154D02*
X0108394Y0257154D01*
X0108394Y0257753D02*
X0063776Y0257753D01*
X0063776Y0258351D02*
X0108394Y0258351D01*
X0108941Y0258950D02*
X0063776Y0258950D01*
X0063776Y0259548D02*
X0109539Y0259548D01*
X0110138Y0260147D02*
X0063776Y0260147D01*
X0063776Y0260745D02*
X0110736Y0260745D01*
X0111335Y0261344D02*
X0063776Y0261344D01*
X0063776Y0261942D02*
X0393429Y0261942D01*
X0392831Y0261344D02*
X0362675Y0261344D01*
X0363273Y0260745D02*
X0392232Y0260745D01*
X0391859Y0260372D02*
X0391859Y0255816D01*
X0395081Y0252594D01*
X0399637Y0252594D01*
X0402359Y0255316D01*
X0405081Y0252594D01*
X0409637Y0252594D01*
X0412859Y0255816D01*
X0412859Y0260372D01*
X0409637Y0263594D01*
X0405081Y0263594D01*
X0402359Y0260872D01*
X0399637Y0263594D01*
X0395081Y0263594D01*
X0391859Y0260372D01*
X0391859Y0260147D02*
X0363872Y0260147D01*
X0364470Y0259548D02*
X0391859Y0259548D01*
X0391859Y0258950D02*
X0365069Y0258950D01*
X0365615Y0258351D02*
X0391859Y0258351D01*
X0391859Y0257753D02*
X0365615Y0257753D01*
X0365615Y0257154D02*
X0391859Y0257154D01*
X0391859Y0256556D02*
X0365615Y0256556D01*
X0365615Y0255957D02*
X0391859Y0255957D01*
X0392316Y0255359D02*
X0365615Y0255359D01*
X0365615Y0254760D02*
X0392914Y0254760D01*
X0393513Y0254162D02*
X0365615Y0254162D01*
X0365331Y0253563D02*
X0394112Y0253563D01*
X0394710Y0252965D02*
X0364732Y0252965D01*
X0364134Y0252366D02*
X0457477Y0252366D01*
X0457477Y0251768D02*
X0363535Y0251768D01*
X0362937Y0251169D02*
X0457477Y0251169D01*
X0457477Y0252965D02*
X0410008Y0252965D01*
X0410606Y0253563D02*
X0457477Y0253563D01*
X0457477Y0254162D02*
X0411205Y0254162D01*
X0411803Y0254760D02*
X0457477Y0254760D01*
X0457477Y0255359D02*
X0412402Y0255359D01*
X0412859Y0255957D02*
X0457477Y0255957D01*
X0457477Y0256556D02*
X0412859Y0256556D01*
X0412859Y0257154D02*
X0457477Y0257154D01*
X0457477Y0257753D02*
X0412859Y0257753D01*
X0412859Y0258351D02*
X0457477Y0258351D01*
X0457477Y0258950D02*
X0412859Y0258950D01*
X0412859Y0259548D02*
X0457477Y0259548D01*
X0457477Y0260147D02*
X0412859Y0260147D01*
X0412486Y0260745D02*
X0457477Y0260745D01*
X0457477Y0261344D02*
X0411887Y0261344D01*
X0411289Y0261942D02*
X0457477Y0261942D01*
X0457477Y0262541D02*
X0410690Y0262541D01*
X0410092Y0263139D02*
X0457477Y0263139D01*
X0457477Y0263738D02*
X0063776Y0263738D01*
X0063776Y0264336D02*
X0457477Y0264336D01*
X0457477Y0264935D02*
X0063776Y0264935D01*
X0063776Y0265533D02*
X0457477Y0265533D01*
X0457477Y0266132D02*
X0063776Y0266132D01*
X0063776Y0266730D02*
X0457477Y0266730D01*
X0457477Y0267329D02*
X0063776Y0267329D01*
X0063776Y0267927D02*
X0457477Y0267927D01*
X0457477Y0268526D02*
X0063776Y0268526D01*
X0063776Y0269124D02*
X0457477Y0269124D01*
X0457477Y0269723D02*
X0063776Y0269723D01*
X0063776Y0270321D02*
X0457477Y0270321D01*
X0457477Y0270920D02*
X0063776Y0270920D01*
X0063776Y0271518D02*
X0457477Y0271518D01*
X0457477Y0272117D02*
X0063776Y0272117D01*
X0063776Y0272715D02*
X0457477Y0272715D01*
X0457477Y0273314D02*
X0063776Y0273314D01*
X0063776Y0273912D02*
X0457477Y0273912D01*
X0457477Y0274511D02*
X0063776Y0274511D01*
X0063776Y0275109D02*
X0457477Y0275109D01*
X0457477Y0275708D02*
X0063776Y0275708D01*
X0063776Y0276306D02*
X0457477Y0276306D01*
X0457477Y0276905D02*
X0063776Y0276905D01*
X0063776Y0277504D02*
X0457477Y0277504D01*
X0457477Y0278102D02*
X0063776Y0278102D01*
X0063776Y0278701D02*
X0457477Y0278701D01*
X0457477Y0279299D02*
X0063776Y0279299D01*
X0063776Y0279898D02*
X0457477Y0279898D01*
X0457477Y0280496D02*
X0063776Y0280496D01*
X0063776Y0281095D02*
X0457477Y0281095D01*
X0457477Y0281693D02*
X0063776Y0281693D01*
X0063776Y0282292D02*
X0457477Y0282292D01*
X0457477Y0282890D02*
X0063776Y0282890D01*
X0063776Y0283489D02*
X0457477Y0283489D01*
X0457477Y0284087D02*
X0409874Y0284087D01*
X0410463Y0284331D02*
X0411555Y0285423D01*
X0412146Y0286849D01*
X0412146Y0288393D01*
X0411555Y0289820D01*
X0410463Y0290912D01*
X0409036Y0291502D01*
X0408626Y0291502D01*
X0400334Y0299794D01*
X0400334Y0300204D01*
X0399744Y0301631D01*
X0398652Y0302723D01*
X0397225Y0303313D01*
X0395681Y0303313D01*
X0394255Y0302723D01*
X0393163Y0301631D01*
X0392572Y0300204D01*
X0392572Y0298660D01*
X0393163Y0297234D01*
X0394255Y0296142D01*
X0395681Y0295551D01*
X0396092Y0295551D01*
X0404383Y0287260D01*
X0404383Y0286849D01*
X0404974Y0285423D01*
X0406066Y0284331D01*
X0407492Y0283740D01*
X0409036Y0283740D01*
X0410463Y0284331D01*
X0410817Y0284686D02*
X0457477Y0284686D01*
X0457477Y0285284D02*
X0411416Y0285284D01*
X0411745Y0285883D02*
X0457477Y0285883D01*
X0457477Y0286481D02*
X0411993Y0286481D01*
X0412146Y0287080D02*
X0457477Y0287080D01*
X0457477Y0287678D02*
X0412146Y0287678D01*
X0412146Y0288277D02*
X0457477Y0288277D01*
X0457477Y0288875D02*
X0411946Y0288875D01*
X0411698Y0289474D02*
X0457477Y0289474D01*
X0457477Y0290072D02*
X0411302Y0290072D01*
X0410704Y0290671D02*
X0457477Y0290671D01*
X0457477Y0291269D02*
X0409599Y0291269D01*
X0408261Y0291868D02*
X0457477Y0291868D01*
X0457477Y0292466D02*
X0407662Y0292466D01*
X0407064Y0293065D02*
X0457477Y0293065D01*
X0457477Y0293663D02*
X0406465Y0293663D01*
X0405867Y0294262D02*
X0457477Y0294262D01*
X0457477Y0294860D02*
X0405268Y0294860D01*
X0404670Y0295459D02*
X0457477Y0295459D01*
X0457477Y0296057D02*
X0404071Y0296057D01*
X0403473Y0296656D02*
X0457477Y0296656D01*
X0457477Y0297254D02*
X0402874Y0297254D01*
X0402276Y0297853D02*
X0457477Y0297853D01*
X0457477Y0298451D02*
X0401677Y0298451D01*
X0401079Y0299050D02*
X0457477Y0299050D01*
X0457477Y0299648D02*
X0400480Y0299648D01*
X0400317Y0300247D02*
X0457477Y0300247D01*
X0457477Y0300845D02*
X0400069Y0300845D01*
X0399821Y0301444D02*
X0457477Y0301444D01*
X0457477Y0302042D02*
X0399332Y0302042D01*
X0398734Y0302641D02*
X0457477Y0302641D01*
X0457477Y0303240D02*
X0397404Y0303240D01*
X0395503Y0303240D02*
X0348712Y0303240D01*
X0348563Y0303599D02*
X0347471Y0304691D01*
X0346044Y0305282D01*
X0344500Y0305282D01*
X0343074Y0304691D01*
X0341982Y0303599D01*
X0341391Y0302173D01*
X0341391Y0300629D01*
X0341982Y0299202D01*
X0343074Y0298111D01*
X0344500Y0297520D01*
X0344911Y0297520D01*
X0355171Y0287260D01*
X0355171Y0286849D01*
X0355762Y0285423D01*
X0356853Y0284331D01*
X0358280Y0283740D01*
X0359824Y0283740D01*
X0361250Y0284331D01*
X0362342Y0285423D01*
X0362933Y0286849D01*
X0362933Y0288393D01*
X0362342Y0289820D01*
X0361250Y0290912D01*
X0359824Y0291502D01*
X0359413Y0291502D01*
X0349153Y0301762D01*
X0349153Y0302173D01*
X0348563Y0303599D01*
X0348324Y0303838D02*
X0457477Y0303838D01*
X0457477Y0304437D02*
X0347725Y0304437D01*
X0346641Y0305035D02*
X0457477Y0305035D01*
X0457477Y0305634D02*
X0063776Y0305634D01*
X0063776Y0306232D02*
X0457477Y0306232D01*
X0457477Y0306831D02*
X0063776Y0306831D01*
X0063776Y0307429D02*
X0457477Y0307429D01*
X0457477Y0308028D02*
X0063776Y0308028D01*
X0063776Y0308626D02*
X0457477Y0308626D01*
X0457477Y0309225D02*
X0063776Y0309225D01*
X0063776Y0309823D02*
X0457477Y0309823D01*
X0457477Y0310422D02*
X0063776Y0310422D01*
X0063776Y0311020D02*
X0457477Y0311020D01*
X0457477Y0311619D02*
X0063776Y0311619D01*
X0063776Y0312217D02*
X0457477Y0312217D01*
X0457477Y0312816D02*
X0063776Y0312816D01*
X0063776Y0313414D02*
X0457477Y0313414D01*
X0457477Y0314013D02*
X0063776Y0314013D01*
X0063776Y0314611D02*
X0457477Y0314611D01*
X0457477Y0315210D02*
X0063776Y0315210D01*
X0063776Y0315808D02*
X0457477Y0315808D01*
X0457477Y0316407D02*
X0063776Y0316407D01*
X0063776Y0317005D02*
X0457477Y0317005D01*
X0457477Y0317604D02*
X0063776Y0317604D01*
X0063776Y0318202D02*
X0457477Y0318202D01*
X0457477Y0318801D02*
X0063776Y0318801D01*
X0063776Y0319399D02*
X0457477Y0319399D01*
X0457477Y0319998D02*
X0063776Y0319998D01*
X0063776Y0320596D02*
X0457477Y0320596D01*
X0457477Y0321195D02*
X0063776Y0321195D01*
X0063776Y0321793D02*
X0457477Y0321793D01*
X0457477Y0322392D02*
X0063776Y0322392D01*
X0063776Y0322990D02*
X0457477Y0322990D01*
X0457477Y0323589D02*
X0063776Y0323589D01*
X0063776Y0324187D02*
X0457477Y0324187D01*
X0457477Y0324786D02*
X0063776Y0324786D01*
X0063776Y0325384D02*
X0286676Y0325384D01*
X0285987Y0325670D02*
X0287414Y0325079D01*
X0288958Y0325079D01*
X0290384Y0325670D01*
X0291476Y0326761D01*
X0292067Y0328188D01*
X0292067Y0329732D01*
X0291476Y0331158D01*
X0291186Y0331449D01*
X0291186Y0333302D01*
X0291527Y0333302D01*
X0294749Y0336524D01*
X0294749Y0341081D01*
X0291527Y0344302D01*
X0287249Y0344302D01*
X0287249Y0345305D01*
X0286792Y0346407D01*
X0284193Y0349007D01*
X0284193Y0349417D01*
X0283602Y0350843D01*
X0282510Y0351935D01*
X0281084Y0352526D01*
X0279540Y0352526D01*
X0278113Y0351935D01*
X0277021Y0350843D01*
X0276431Y0349417D01*
X0276431Y0347873D01*
X0277021Y0346447D01*
X0278113Y0345355D01*
X0279540Y0344764D01*
X0279950Y0344764D01*
X0280412Y0344302D01*
X0276971Y0344302D01*
X0273749Y0341081D01*
X0273749Y0336524D01*
X0276971Y0333302D01*
X0281527Y0333302D01*
X0282532Y0334308D01*
X0282549Y0334291D01*
X0285186Y0331654D01*
X0285186Y0331449D01*
X0284895Y0331158D01*
X0284305Y0329732D01*
X0284305Y0328188D01*
X0284895Y0326761D01*
X0285987Y0325670D01*
X0285674Y0325983D02*
X0063776Y0325983D01*
X0063776Y0326581D02*
X0285075Y0326581D01*
X0284722Y0327180D02*
X0242034Y0327180D01*
X0241714Y0327047D02*
X0243140Y0327638D01*
X0244232Y0328730D01*
X0244823Y0330156D01*
X0244823Y0331700D01*
X0244772Y0331823D01*
X0247505Y0334556D01*
X0247505Y0339112D01*
X0244283Y0342334D01*
X0239726Y0342334D01*
X0238721Y0341329D01*
X0234980Y0345070D01*
X0234980Y0345480D01*
X0234389Y0346906D01*
X0233298Y0347998D01*
X0231871Y0348589D01*
X0230327Y0348589D01*
X0228901Y0347998D01*
X0227809Y0346906D01*
X0227218Y0345480D01*
X0227218Y0343936D01*
X0227809Y0342510D01*
X0228855Y0341463D01*
X0226505Y0339112D01*
X0226505Y0334556D01*
X0229726Y0331334D01*
X0234283Y0331334D01*
X0235288Y0332339D01*
X0235305Y0332322D01*
X0237060Y0330567D01*
X0237060Y0330156D01*
X0237651Y0328730D01*
X0238743Y0327638D01*
X0240170Y0327047D01*
X0241714Y0327047D01*
X0243280Y0327778D02*
X0284474Y0327778D01*
X0284305Y0328377D02*
X0243879Y0328377D01*
X0244334Y0328975D02*
X0284305Y0328975D01*
X0284305Y0329574D02*
X0244581Y0329574D01*
X0244823Y0330173D02*
X0284487Y0330173D01*
X0284735Y0330771D02*
X0244823Y0330771D01*
X0244823Y0331370D02*
X0285107Y0331370D01*
X0284872Y0331968D02*
X0244917Y0331968D01*
X0245515Y0332567D02*
X0284273Y0332567D01*
X0283675Y0333165D02*
X0246114Y0333165D01*
X0246712Y0333764D02*
X0276509Y0333764D01*
X0275911Y0334362D02*
X0247311Y0334362D01*
X0247505Y0334961D02*
X0275312Y0334961D01*
X0274714Y0335559D02*
X0247505Y0335559D01*
X0247505Y0336158D02*
X0274115Y0336158D01*
X0273749Y0336756D02*
X0247505Y0336756D01*
X0247505Y0337355D02*
X0273749Y0337355D01*
X0273749Y0337953D02*
X0247505Y0337953D01*
X0247505Y0338552D02*
X0273749Y0338552D01*
X0273749Y0339150D02*
X0247467Y0339150D01*
X0246868Y0339749D02*
X0273749Y0339749D01*
X0273749Y0340347D02*
X0246270Y0340347D01*
X0245671Y0340946D02*
X0273749Y0340946D01*
X0274212Y0341544D02*
X0245072Y0341544D01*
X0244474Y0342143D02*
X0274811Y0342143D01*
X0275409Y0342741D02*
X0237308Y0342741D01*
X0236710Y0343340D02*
X0276008Y0343340D01*
X0276606Y0343938D02*
X0236111Y0343938D01*
X0235513Y0344537D02*
X0280177Y0344537D01*
X0278643Y0345135D02*
X0234980Y0345135D01*
X0234875Y0345734D02*
X0277734Y0345734D01*
X0277136Y0346332D02*
X0234627Y0346332D01*
X0234365Y0346931D02*
X0276821Y0346931D01*
X0276573Y0347529D02*
X0233766Y0347529D01*
X0232985Y0348128D02*
X0276431Y0348128D01*
X0276431Y0348726D02*
X0063776Y0348726D01*
X0063776Y0348128D02*
X0229214Y0348128D01*
X0228432Y0347529D02*
X0063776Y0347529D01*
X0063776Y0346931D02*
X0227833Y0346931D01*
X0227571Y0346332D02*
X0063776Y0346332D01*
X0063776Y0345734D02*
X0227323Y0345734D01*
X0227218Y0345135D02*
X0063776Y0345135D01*
X0063776Y0344537D02*
X0227218Y0344537D01*
X0227218Y0343938D02*
X0063776Y0343938D01*
X0063776Y0343340D02*
X0227465Y0343340D01*
X0227713Y0342741D02*
X0063776Y0342741D01*
X0063776Y0342143D02*
X0111425Y0342143D01*
X0111616Y0342334D02*
X0108394Y0339112D01*
X0108394Y0334556D01*
X0111616Y0331334D01*
X0116173Y0331334D01*
X0118894Y0334056D01*
X0121616Y0331334D01*
X0126173Y0331334D01*
X0129394Y0334556D01*
X0129394Y0339112D01*
X0126173Y0342334D01*
X0121616Y0342334D01*
X0118894Y0339612D01*
X0116173Y0342334D01*
X0111616Y0342334D01*
X0110826Y0341544D02*
X0063776Y0341544D01*
X0063776Y0340946D02*
X0110228Y0340946D01*
X0109629Y0340347D02*
X0063776Y0340347D01*
X0063776Y0339749D02*
X0109031Y0339749D01*
X0108432Y0339150D02*
X0063776Y0339150D01*
X0063776Y0338552D02*
X0108394Y0338552D01*
X0108394Y0337953D02*
X0063776Y0337953D01*
X0063776Y0337355D02*
X0108394Y0337355D01*
X0108394Y0336756D02*
X0063776Y0336756D01*
X0063776Y0336158D02*
X0108394Y0336158D01*
X0108394Y0335559D02*
X0063776Y0335559D01*
X0063776Y0334961D02*
X0108394Y0334961D01*
X0108588Y0334362D02*
X0063776Y0334362D01*
X0063776Y0333764D02*
X0109187Y0333764D01*
X0109785Y0333165D02*
X0063776Y0333165D01*
X0063776Y0332567D02*
X0110384Y0332567D01*
X0110982Y0331968D02*
X0063776Y0331968D01*
X0063776Y0331370D02*
X0111581Y0331370D01*
X0116208Y0331370D02*
X0121581Y0331370D01*
X0120982Y0331968D02*
X0116807Y0331968D01*
X0117405Y0332567D02*
X0120384Y0332567D01*
X0119785Y0333165D02*
X0118004Y0333165D01*
X0118602Y0333764D02*
X0119187Y0333764D01*
X0119031Y0339749D02*
X0118758Y0339749D01*
X0118159Y0340347D02*
X0119629Y0340347D01*
X0120228Y0340946D02*
X0117561Y0340946D01*
X0116962Y0341544D02*
X0120826Y0341544D01*
X0121425Y0342143D02*
X0116364Y0342143D01*
X0126364Y0342143D02*
X0228176Y0342143D01*
X0228774Y0341544D02*
X0126962Y0341544D01*
X0127561Y0340946D02*
X0228338Y0340946D01*
X0227740Y0340347D02*
X0175403Y0340347D01*
X0175385Y0340365D02*
X0170829Y0340365D01*
X0168107Y0337644D01*
X0165385Y0340365D01*
X0160829Y0340365D01*
X0157607Y0337144D01*
X0157607Y0332587D01*
X0160829Y0329365D01*
X0165385Y0329365D01*
X0168107Y0332087D01*
X0170829Y0329365D01*
X0175385Y0329365D01*
X0178607Y0332587D01*
X0178607Y0337144D01*
X0175385Y0340365D01*
X0176002Y0339749D02*
X0227141Y0339749D01*
X0226543Y0339150D02*
X0176600Y0339150D01*
X0177199Y0338552D02*
X0226505Y0338552D01*
X0226505Y0337953D02*
X0177797Y0337953D01*
X0178396Y0337355D02*
X0226505Y0337355D01*
X0226505Y0336756D02*
X0178607Y0336756D01*
X0178607Y0336158D02*
X0226505Y0336158D01*
X0226505Y0335559D02*
X0178607Y0335559D01*
X0178607Y0334961D02*
X0226505Y0334961D01*
X0226698Y0334362D02*
X0178607Y0334362D01*
X0178607Y0333764D02*
X0227297Y0333764D01*
X0227895Y0333165D02*
X0178607Y0333165D01*
X0178586Y0332567D02*
X0228494Y0332567D01*
X0229092Y0331968D02*
X0177988Y0331968D01*
X0177389Y0331370D02*
X0229691Y0331370D01*
X0234318Y0331370D02*
X0236258Y0331370D01*
X0235659Y0331968D02*
X0234917Y0331968D01*
X0236856Y0330771D02*
X0176791Y0330771D01*
X0176192Y0330173D02*
X0237060Y0330173D01*
X0237302Y0329574D02*
X0175594Y0329574D01*
X0170620Y0329574D02*
X0165594Y0329574D01*
X0166192Y0330173D02*
X0170022Y0330173D01*
X0169423Y0330771D02*
X0166791Y0330771D01*
X0167389Y0331370D02*
X0168825Y0331370D01*
X0168226Y0331968D02*
X0167988Y0331968D01*
X0160620Y0329574D02*
X0063776Y0329574D01*
X0063776Y0328975D02*
X0237550Y0328975D01*
X0238004Y0328377D02*
X0063776Y0328377D01*
X0063776Y0327778D02*
X0238603Y0327778D01*
X0239849Y0327180D02*
X0063776Y0327180D01*
X0063776Y0330173D02*
X0160022Y0330173D01*
X0159423Y0330771D02*
X0063776Y0330771D01*
X0063776Y0349325D02*
X0276431Y0349325D01*
X0276640Y0349923D02*
X0063776Y0349923D01*
X0063776Y0350522D02*
X0276888Y0350522D01*
X0277298Y0351120D02*
X0063776Y0351120D01*
X0063776Y0351719D02*
X0277897Y0351719D01*
X0279036Y0352317D02*
X0063776Y0352317D01*
X0063776Y0352916D02*
X0457477Y0352916D01*
X0457477Y0353514D02*
X0063776Y0353514D01*
X0063776Y0354113D02*
X0457477Y0354113D01*
X0457477Y0354711D02*
X0063776Y0354711D01*
X0063776Y0355310D02*
X0457477Y0355310D01*
X0457477Y0355909D02*
X0063776Y0355909D01*
X0063776Y0356507D02*
X0457477Y0356507D01*
X0457477Y0357106D02*
X0063776Y0357106D01*
X0063776Y0357704D02*
X0457477Y0357704D01*
X0457477Y0358303D02*
X0063776Y0358303D01*
X0063776Y0358901D02*
X0217653Y0358901D01*
X0217090Y0359134D02*
X0218516Y0358543D01*
X0220060Y0358543D01*
X0221487Y0359134D01*
X0222578Y0360226D01*
X0223169Y0361653D01*
X0223169Y0363197D01*
X0222578Y0364623D01*
X0222288Y0364913D01*
X0222288Y0373204D01*
X0291091Y0373204D01*
X0291091Y0370819D01*
X0290801Y0370529D01*
X0290210Y0369102D01*
X0290210Y0367558D01*
X0290801Y0366132D01*
X0291893Y0365040D01*
X0293319Y0364449D01*
X0294863Y0364449D01*
X0296290Y0365040D01*
X0297381Y0366132D01*
X0297972Y0367558D01*
X0297972Y0369102D01*
X0297381Y0370529D01*
X0297091Y0370819D01*
X0297091Y0376801D01*
X0296634Y0377903D01*
X0295791Y0378747D01*
X0294688Y0379204D01*
X0218691Y0379204D01*
X0217589Y0378747D01*
X0216745Y0377903D01*
X0216288Y0376801D01*
X0216288Y0364913D01*
X0215998Y0364623D01*
X0215407Y0363197D01*
X0215407Y0361653D01*
X0215998Y0360226D01*
X0217090Y0359134D01*
X0216724Y0359500D02*
X0063776Y0359500D01*
X0063776Y0360098D02*
X0216126Y0360098D01*
X0215803Y0360697D02*
X0063776Y0360697D01*
X0063776Y0361295D02*
X0215555Y0361295D01*
X0215407Y0361894D02*
X0063776Y0361894D01*
X0063776Y0362492D02*
X0215407Y0362492D01*
X0215407Y0363091D02*
X0063776Y0363091D01*
X0063776Y0363689D02*
X0215611Y0363689D01*
X0215859Y0364288D02*
X0063776Y0364288D01*
X0063776Y0364886D02*
X0216261Y0364886D01*
X0216288Y0365485D02*
X0063776Y0365485D01*
X0063776Y0366083D02*
X0216288Y0366083D01*
X0216288Y0366682D02*
X0063776Y0366682D01*
X0063776Y0367280D02*
X0216288Y0367280D01*
X0216288Y0367879D02*
X0063776Y0367879D01*
X0063776Y0368477D02*
X0216288Y0368477D01*
X0216288Y0369076D02*
X0063776Y0369076D01*
X0063776Y0369674D02*
X0216288Y0369674D01*
X0216288Y0370273D02*
X0063776Y0370273D01*
X0063776Y0370871D02*
X0216288Y0370871D01*
X0216288Y0371470D02*
X0063776Y0371470D01*
X0063776Y0372068D02*
X0216288Y0372068D01*
X0216288Y0372667D02*
X0063776Y0372667D01*
X0063776Y0373265D02*
X0216288Y0373265D01*
X0216288Y0373864D02*
X0063776Y0373864D01*
X0063776Y0374462D02*
X0216288Y0374462D01*
X0216288Y0375061D02*
X0063776Y0375061D01*
X0063776Y0375659D02*
X0216288Y0375659D01*
X0216288Y0376258D02*
X0063776Y0376258D01*
X0063776Y0376856D02*
X0216311Y0376856D01*
X0216559Y0377455D02*
X0063776Y0377455D01*
X0063776Y0378053D02*
X0216895Y0378053D01*
X0217493Y0378652D02*
X0063776Y0378652D01*
X0063776Y0379250D02*
X0457477Y0379250D01*
X0457477Y0378652D02*
X0295886Y0378652D01*
X0296484Y0378053D02*
X0457477Y0378053D01*
X0457477Y0377455D02*
X0296820Y0377455D01*
X0297068Y0376856D02*
X0457477Y0376856D01*
X0457477Y0376258D02*
X0297091Y0376258D01*
X0297091Y0375659D02*
X0457477Y0375659D01*
X0457477Y0375061D02*
X0297091Y0375061D01*
X0297091Y0374462D02*
X0457477Y0374462D01*
X0457477Y0373864D02*
X0297091Y0373864D01*
X0297091Y0373265D02*
X0457477Y0373265D01*
X0457477Y0372667D02*
X0297091Y0372667D01*
X0297091Y0372068D02*
X0457477Y0372068D01*
X0457477Y0371470D02*
X0297091Y0371470D01*
X0297091Y0370871D02*
X0457477Y0370871D01*
X0457477Y0370273D02*
X0297487Y0370273D01*
X0297735Y0369674D02*
X0457477Y0369674D01*
X0457477Y0369076D02*
X0297972Y0369076D01*
X0297972Y0368477D02*
X0457477Y0368477D01*
X0457477Y0367879D02*
X0297972Y0367879D01*
X0297857Y0367280D02*
X0457477Y0367280D01*
X0457477Y0366682D02*
X0297609Y0366682D01*
X0297333Y0366083D02*
X0457477Y0366083D01*
X0457477Y0365485D02*
X0296735Y0365485D01*
X0295919Y0364886D02*
X0457477Y0364886D01*
X0457477Y0364288D02*
X0222717Y0364288D01*
X0222965Y0363689D02*
X0457477Y0363689D01*
X0457477Y0363091D02*
X0223169Y0363091D01*
X0223169Y0362492D02*
X0457477Y0362492D01*
X0457477Y0361894D02*
X0223169Y0361894D01*
X0223021Y0361295D02*
X0457477Y0361295D01*
X0457477Y0360697D02*
X0222773Y0360697D01*
X0222450Y0360098D02*
X0457477Y0360098D01*
X0457477Y0359500D02*
X0221852Y0359500D01*
X0220923Y0358901D02*
X0457477Y0358901D01*
X0457477Y0352317D02*
X0281587Y0352317D01*
X0282726Y0351719D02*
X0457477Y0351719D01*
X0457477Y0351120D02*
X0283325Y0351120D01*
X0283735Y0350522D02*
X0457477Y0350522D01*
X0457477Y0349923D02*
X0283983Y0349923D01*
X0284193Y0349325D02*
X0457477Y0349325D01*
X0457477Y0348726D02*
X0284473Y0348726D01*
X0285071Y0348128D02*
X0457477Y0348128D01*
X0457477Y0347529D02*
X0285670Y0347529D01*
X0286268Y0346931D02*
X0457477Y0346931D01*
X0457477Y0346332D02*
X0286823Y0346332D01*
X0287071Y0345734D02*
X0457477Y0345734D01*
X0457477Y0345135D02*
X0287249Y0345135D01*
X0287249Y0344537D02*
X0457477Y0344537D01*
X0457477Y0343938D02*
X0291891Y0343938D01*
X0292490Y0343340D02*
X0457477Y0343340D01*
X0457477Y0342741D02*
X0293088Y0342741D01*
X0293687Y0342143D02*
X0345677Y0342143D01*
X0345868Y0342334D02*
X0342646Y0339112D01*
X0342646Y0334556D01*
X0345868Y0331334D01*
X0350424Y0331334D01*
X0353146Y0334056D01*
X0355868Y0331334D01*
X0360424Y0331334D01*
X0363646Y0334556D01*
X0363646Y0339112D01*
X0360424Y0342334D01*
X0355868Y0342334D01*
X0353146Y0339612D01*
X0350424Y0342334D01*
X0345868Y0342334D01*
X0345078Y0341544D02*
X0294285Y0341544D01*
X0294749Y0340946D02*
X0344480Y0340946D01*
X0343881Y0340347D02*
X0294749Y0340347D01*
X0294749Y0339749D02*
X0343283Y0339749D01*
X0342684Y0339150D02*
X0294749Y0339150D01*
X0294749Y0338552D02*
X0342646Y0338552D01*
X0342646Y0337953D02*
X0294749Y0337953D01*
X0294749Y0337355D02*
X0342646Y0337355D01*
X0342646Y0336756D02*
X0294749Y0336756D01*
X0294382Y0336158D02*
X0342646Y0336158D01*
X0342646Y0335559D02*
X0293783Y0335559D01*
X0293185Y0334961D02*
X0342646Y0334961D01*
X0342840Y0334362D02*
X0292586Y0334362D01*
X0291988Y0333764D02*
X0343439Y0333764D01*
X0344037Y0333165D02*
X0291186Y0333165D01*
X0291186Y0332567D02*
X0344636Y0332567D01*
X0345234Y0331968D02*
X0291186Y0331968D01*
X0291265Y0331370D02*
X0345833Y0331370D01*
X0350460Y0331370D02*
X0355833Y0331370D01*
X0355234Y0331968D02*
X0351059Y0331968D01*
X0351657Y0332567D02*
X0354636Y0332567D01*
X0354037Y0333165D02*
X0352256Y0333165D01*
X0352854Y0333764D02*
X0353439Y0333764D01*
X0353283Y0339749D02*
X0353010Y0339749D01*
X0352411Y0340347D02*
X0353881Y0340347D01*
X0354480Y0340946D02*
X0351813Y0340946D01*
X0351214Y0341544D02*
X0355078Y0341544D01*
X0355677Y0342143D02*
X0350616Y0342143D01*
X0360616Y0342143D02*
X0396858Y0342143D01*
X0397049Y0342334D02*
X0393827Y0339112D01*
X0393827Y0334556D01*
X0397049Y0331334D01*
X0401606Y0331334D01*
X0404327Y0334056D01*
X0407049Y0331334D01*
X0411606Y0331334D01*
X0414827Y0334556D01*
X0414827Y0339112D01*
X0411606Y0342334D01*
X0407049Y0342334D01*
X0404327Y0339612D01*
X0401606Y0342334D01*
X0397049Y0342334D01*
X0396260Y0341544D02*
X0361214Y0341544D01*
X0361813Y0340946D02*
X0395661Y0340946D01*
X0395062Y0340347D02*
X0362411Y0340347D01*
X0363010Y0339749D02*
X0394464Y0339749D01*
X0393865Y0339150D02*
X0363608Y0339150D01*
X0363646Y0338552D02*
X0393827Y0338552D01*
X0393827Y0337953D02*
X0363646Y0337953D01*
X0363646Y0337355D02*
X0393827Y0337355D01*
X0393827Y0336756D02*
X0363646Y0336756D01*
X0363646Y0336158D02*
X0393827Y0336158D01*
X0393827Y0335559D02*
X0363646Y0335559D01*
X0363646Y0334961D02*
X0393827Y0334961D01*
X0394021Y0334362D02*
X0363453Y0334362D01*
X0362854Y0333764D02*
X0394620Y0333764D01*
X0395218Y0333165D02*
X0362256Y0333165D01*
X0361657Y0332567D02*
X0395817Y0332567D01*
X0396415Y0331968D02*
X0361059Y0331968D01*
X0360460Y0331370D02*
X0397014Y0331370D01*
X0401641Y0331370D02*
X0407014Y0331370D01*
X0406415Y0331968D02*
X0402240Y0331968D01*
X0402838Y0332567D02*
X0405817Y0332567D01*
X0405218Y0333165D02*
X0403437Y0333165D01*
X0404035Y0333764D02*
X0404620Y0333764D01*
X0404464Y0339749D02*
X0404191Y0339749D01*
X0403592Y0340347D02*
X0405062Y0340347D01*
X0405661Y0340946D02*
X0402994Y0340946D01*
X0402395Y0341544D02*
X0406260Y0341544D01*
X0406858Y0342143D02*
X0401797Y0342143D01*
X0411797Y0342143D02*
X0457477Y0342143D01*
X0457477Y0341544D02*
X0412395Y0341544D01*
X0412994Y0340946D02*
X0457477Y0340946D01*
X0457477Y0340347D02*
X0413592Y0340347D01*
X0414191Y0339749D02*
X0457477Y0339749D01*
X0457477Y0339150D02*
X0414789Y0339150D01*
X0414827Y0338552D02*
X0457477Y0338552D01*
X0457477Y0337953D02*
X0414827Y0337953D01*
X0414827Y0337355D02*
X0457477Y0337355D01*
X0457477Y0336756D02*
X0414827Y0336756D01*
X0414827Y0336158D02*
X0457477Y0336158D01*
X0457477Y0335559D02*
X0414827Y0335559D01*
X0414827Y0334961D02*
X0457477Y0334961D01*
X0457477Y0334362D02*
X0414634Y0334362D01*
X0414035Y0333764D02*
X0457477Y0333764D01*
X0457477Y0333165D02*
X0413437Y0333165D01*
X0412838Y0332567D02*
X0457477Y0332567D01*
X0457477Y0331968D02*
X0412240Y0331968D01*
X0411641Y0331370D02*
X0457477Y0331370D01*
X0457477Y0330771D02*
X0291636Y0330771D01*
X0291884Y0330173D02*
X0457477Y0330173D01*
X0457477Y0329574D02*
X0292067Y0329574D01*
X0292067Y0328975D02*
X0457477Y0328975D01*
X0457477Y0328377D02*
X0292067Y0328377D01*
X0291897Y0327778D02*
X0457477Y0327778D01*
X0457477Y0327180D02*
X0291649Y0327180D01*
X0291296Y0326581D02*
X0457477Y0326581D01*
X0457477Y0325983D02*
X0290697Y0325983D01*
X0289695Y0325384D02*
X0457477Y0325384D01*
X0408264Y0287621D02*
X0396453Y0299432D01*
X0393741Y0296656D02*
X0354260Y0296656D01*
X0353661Y0297254D02*
X0393155Y0297254D01*
X0392907Y0297853D02*
X0353063Y0297853D01*
X0352464Y0298451D02*
X0392659Y0298451D01*
X0392572Y0299050D02*
X0351866Y0299050D01*
X0351267Y0299648D02*
X0392572Y0299648D01*
X0392590Y0300247D02*
X0350669Y0300247D01*
X0350070Y0300845D02*
X0392838Y0300845D01*
X0393086Y0301444D02*
X0349472Y0301444D01*
X0349153Y0302042D02*
X0393575Y0302042D01*
X0394173Y0302641D02*
X0348960Y0302641D01*
X0345272Y0301401D02*
X0359052Y0287621D01*
X0362933Y0287678D02*
X0403965Y0287678D01*
X0404383Y0287080D02*
X0362933Y0287080D01*
X0362780Y0286481D02*
X0404536Y0286481D01*
X0404784Y0285883D02*
X0362533Y0285883D01*
X0362203Y0285284D02*
X0405113Y0285284D01*
X0405711Y0284686D02*
X0361605Y0284686D01*
X0360661Y0284087D02*
X0406655Y0284087D01*
X0403366Y0288277D02*
X0362933Y0288277D01*
X0362733Y0288875D02*
X0402768Y0288875D01*
X0402169Y0289474D02*
X0362485Y0289474D01*
X0362090Y0290072D02*
X0401571Y0290072D01*
X0400972Y0290671D02*
X0361491Y0290671D01*
X0360387Y0291269D02*
X0400374Y0291269D01*
X0399775Y0291868D02*
X0359048Y0291868D01*
X0358450Y0292466D02*
X0399177Y0292466D01*
X0398578Y0293065D02*
X0357851Y0293065D01*
X0357253Y0293663D02*
X0397980Y0293663D01*
X0397381Y0294262D02*
X0356654Y0294262D01*
X0356055Y0294860D02*
X0396783Y0294860D01*
X0396184Y0295459D02*
X0355457Y0295459D01*
X0354858Y0296057D02*
X0394460Y0296057D01*
X0394626Y0263139D02*
X0063776Y0263139D01*
X0063776Y0262541D02*
X0394028Y0262541D01*
X0400092Y0263139D02*
X0404626Y0263139D01*
X0404028Y0262541D02*
X0400690Y0262541D01*
X0401289Y0261942D02*
X0403429Y0261942D01*
X0402831Y0261344D02*
X0401887Y0261344D01*
X0401803Y0254760D02*
X0402914Y0254760D01*
X0403513Y0254162D02*
X0401205Y0254162D01*
X0400606Y0253563D02*
X0404112Y0253563D01*
X0404710Y0252965D02*
X0400008Y0252965D01*
X0394485Y0222661D02*
X0406296Y0210850D01*
X0357293Y0251169D02*
X0352937Y0251169D01*
X0353535Y0251768D02*
X0356694Y0251768D01*
X0356096Y0252366D02*
X0354134Y0252366D01*
X0354732Y0252965D02*
X0355497Y0252965D01*
X0355161Y0258950D02*
X0355069Y0258950D01*
X0354470Y0259548D02*
X0355760Y0259548D01*
X0356358Y0260147D02*
X0353872Y0260147D01*
X0353273Y0260745D02*
X0356957Y0260745D01*
X0357555Y0261344D02*
X0352675Y0261344D01*
X0357442Y0284087D02*
X0171685Y0284087D01*
X0172274Y0284331D02*
X0173366Y0285423D01*
X0173957Y0286849D01*
X0173957Y0288393D01*
X0173366Y0289820D01*
X0172274Y0290912D01*
X0170847Y0291502D01*
X0170437Y0291502D01*
X0164114Y0297825D01*
X0164114Y0298236D01*
X0163523Y0299662D01*
X0162431Y0300754D01*
X0161005Y0301345D01*
X0159461Y0301345D01*
X0158034Y0300754D01*
X0156943Y0299662D01*
X0156352Y0298236D01*
X0156352Y0296692D01*
X0156943Y0295265D01*
X0158034Y0294174D01*
X0159461Y0293583D01*
X0159871Y0293583D01*
X0166194Y0287260D01*
X0166194Y0286849D01*
X0166785Y0285423D01*
X0167877Y0284331D01*
X0169303Y0283740D01*
X0170847Y0283740D01*
X0172274Y0284331D01*
X0172628Y0284686D02*
X0356499Y0284686D01*
X0355900Y0285284D02*
X0173227Y0285284D01*
X0173556Y0285883D02*
X0355571Y0285883D01*
X0355323Y0286481D02*
X0173804Y0286481D01*
X0173957Y0287080D02*
X0355171Y0287080D01*
X0354752Y0287678D02*
X0173957Y0287678D01*
X0173957Y0288277D02*
X0354154Y0288277D01*
X0353555Y0288875D02*
X0173757Y0288875D01*
X0173509Y0289474D02*
X0352957Y0289474D01*
X0352358Y0290072D02*
X0173113Y0290072D01*
X0172515Y0290671D02*
X0351760Y0290671D01*
X0351161Y0291269D02*
X0171410Y0291269D01*
X0170072Y0291868D02*
X0350563Y0291868D01*
X0349964Y0292466D02*
X0169473Y0292466D01*
X0168875Y0293065D02*
X0349366Y0293065D01*
X0348767Y0293663D02*
X0168276Y0293663D01*
X0167678Y0294262D02*
X0348169Y0294262D01*
X0347570Y0294860D02*
X0167079Y0294860D01*
X0166481Y0295459D02*
X0346972Y0295459D01*
X0346373Y0296057D02*
X0165882Y0296057D01*
X0165284Y0296656D02*
X0345775Y0296656D01*
X0345176Y0297254D02*
X0164685Y0297254D01*
X0164114Y0297853D02*
X0343696Y0297853D01*
X0342733Y0298451D02*
X0164025Y0298451D01*
X0163777Y0299050D02*
X0342135Y0299050D01*
X0341797Y0299648D02*
X0163529Y0299648D01*
X0162939Y0300247D02*
X0341549Y0300247D01*
X0341391Y0300845D02*
X0162211Y0300845D01*
X0160233Y0297464D02*
X0170075Y0287621D01*
X0168466Y0284087D02*
X0063776Y0284087D01*
X0063776Y0284686D02*
X0167522Y0284686D01*
X0166924Y0285284D02*
X0063776Y0285284D01*
X0063776Y0285883D02*
X0166595Y0285883D01*
X0166347Y0286481D02*
X0063776Y0286481D01*
X0063776Y0287080D02*
X0166194Y0287080D01*
X0165776Y0287678D02*
X0063776Y0287678D01*
X0063776Y0288277D02*
X0165177Y0288277D01*
X0164579Y0288875D02*
X0063776Y0288875D01*
X0063776Y0289474D02*
X0163980Y0289474D01*
X0163382Y0290072D02*
X0124633Y0290072D01*
X0125030Y0290237D02*
X0126122Y0291328D01*
X0126712Y0292755D01*
X0126712Y0294299D01*
X0126122Y0295725D01*
X0125030Y0296817D01*
X0123603Y0297408D01*
X0122059Y0297408D01*
X0120633Y0296817D01*
X0120343Y0296527D01*
X0112825Y0296527D01*
X0112342Y0297694D01*
X0111250Y0298786D01*
X0109824Y0299376D01*
X0108280Y0299376D01*
X0106853Y0298786D01*
X0105762Y0297694D01*
X0105171Y0296267D01*
X0105171Y0294723D01*
X0105762Y0293297D01*
X0106853Y0292205D01*
X0108280Y0291614D01*
X0108690Y0291614D01*
X0109321Y0290984D01*
X0110424Y0290527D01*
X0120343Y0290527D01*
X0120633Y0290237D01*
X0122059Y0289646D01*
X0123603Y0289646D01*
X0125030Y0290237D01*
X0125464Y0290671D02*
X0162783Y0290671D01*
X0162185Y0291269D02*
X0126062Y0291269D01*
X0126345Y0291868D02*
X0161586Y0291868D01*
X0160988Y0292466D02*
X0126593Y0292466D01*
X0126712Y0293065D02*
X0160389Y0293065D01*
X0159267Y0293663D02*
X0126712Y0293663D01*
X0126712Y0294262D02*
X0157946Y0294262D01*
X0157348Y0294860D02*
X0126480Y0294860D01*
X0126232Y0295459D02*
X0156863Y0295459D01*
X0156615Y0296057D02*
X0125790Y0296057D01*
X0125191Y0296656D02*
X0156367Y0296656D01*
X0156352Y0297254D02*
X0123974Y0297254D01*
X0121689Y0297254D02*
X0112524Y0297254D01*
X0112772Y0296656D02*
X0120472Y0296656D01*
X0122831Y0293527D02*
X0111020Y0293527D01*
X0109052Y0295495D01*
X0105171Y0295459D02*
X0063776Y0295459D01*
X0063776Y0296057D02*
X0105171Y0296057D01*
X0105332Y0296656D02*
X0063776Y0296656D01*
X0063776Y0297254D02*
X0105580Y0297254D01*
X0105921Y0297853D02*
X0063776Y0297853D01*
X0063776Y0298451D02*
X0106519Y0298451D01*
X0107491Y0299050D02*
X0063776Y0299050D01*
X0063776Y0299648D02*
X0156937Y0299648D01*
X0156689Y0299050D02*
X0110612Y0299050D01*
X0111585Y0298451D02*
X0156441Y0298451D01*
X0156352Y0297853D02*
X0112183Y0297853D01*
X0109035Y0291269D02*
X0063776Y0291269D01*
X0063776Y0290671D02*
X0110076Y0290671D01*
X0107668Y0291868D02*
X0063776Y0291868D01*
X0063776Y0292466D02*
X0106592Y0292466D01*
X0105994Y0293065D02*
X0063776Y0293065D01*
X0063776Y0293663D02*
X0105610Y0293663D01*
X0105362Y0294262D02*
X0063776Y0294262D01*
X0063776Y0294860D02*
X0105171Y0294860D01*
X0121030Y0290072D02*
X0063776Y0290072D01*
X0063776Y0300247D02*
X0157527Y0300247D01*
X0158255Y0300845D02*
X0063776Y0300845D01*
X0063776Y0301444D02*
X0341391Y0301444D01*
X0341391Y0302042D02*
X0063776Y0302042D01*
X0063776Y0302641D02*
X0341585Y0302641D01*
X0341833Y0303240D02*
X0063776Y0303240D01*
X0063776Y0303838D02*
X0342221Y0303838D01*
X0342819Y0304437D02*
X0063776Y0304437D01*
X0063776Y0305035D02*
X0343904Y0305035D01*
X0288186Y0328960D02*
X0288186Y0332897D01*
X0284249Y0336834D01*
X0284249Y0344708D01*
X0280312Y0348645D01*
X0281988Y0333764D02*
X0283076Y0333764D01*
X0292264Y0364886D02*
X0222315Y0364886D01*
X0222288Y0365485D02*
X0291448Y0365485D01*
X0290849Y0366083D02*
X0222288Y0366083D01*
X0222288Y0366682D02*
X0290573Y0366682D01*
X0290325Y0367280D02*
X0222288Y0367280D01*
X0222288Y0367879D02*
X0290210Y0367879D01*
X0290210Y0368477D02*
X0222288Y0368477D01*
X0222288Y0369076D02*
X0290210Y0369076D01*
X0290447Y0369674D02*
X0222288Y0369674D01*
X0222288Y0370273D02*
X0290695Y0370273D01*
X0291091Y0370871D02*
X0222288Y0370871D01*
X0222288Y0371470D02*
X0291091Y0371470D01*
X0291091Y0372068D02*
X0222288Y0372068D01*
X0222288Y0372667D02*
X0291091Y0372667D01*
X0294091Y0376204D02*
X0294091Y0368330D01*
X0294091Y0376204D02*
X0219288Y0376204D01*
X0219288Y0362425D01*
X0231099Y0344708D02*
X0237005Y0338802D01*
X0237005Y0334865D01*
X0240942Y0330928D01*
X0238937Y0341544D02*
X0238505Y0341544D01*
X0237907Y0342143D02*
X0239535Y0342143D01*
X0170811Y0340347D02*
X0165403Y0340347D01*
X0166002Y0339749D02*
X0170212Y0339749D01*
X0169613Y0339150D02*
X0166600Y0339150D01*
X0167199Y0338552D02*
X0169015Y0338552D01*
X0168416Y0337953D02*
X0167797Y0337953D01*
X0160811Y0340347D02*
X0128159Y0340347D01*
X0128758Y0339749D02*
X0160212Y0339749D01*
X0159613Y0339150D02*
X0129356Y0339150D01*
X0129394Y0338552D02*
X0159015Y0338552D01*
X0158416Y0337953D02*
X0129394Y0337953D01*
X0129394Y0337355D02*
X0157818Y0337355D01*
X0157607Y0336756D02*
X0129394Y0336756D01*
X0129394Y0336158D02*
X0157607Y0336158D01*
X0157607Y0335559D02*
X0129394Y0335559D01*
X0129394Y0334961D02*
X0157607Y0334961D01*
X0157607Y0334362D02*
X0129201Y0334362D01*
X0128602Y0333764D02*
X0157607Y0333764D01*
X0157607Y0333165D02*
X0128004Y0333165D01*
X0127405Y0332567D02*
X0157628Y0332567D01*
X0158226Y0331968D02*
X0126807Y0331968D01*
X0126208Y0331370D02*
X0158825Y0331370D01*
X0077577Y0383402D02*
X0078287Y0385118D01*
X0078287Y0386975D01*
X0077577Y0388691D01*
X0076263Y0390004D01*
X0074547Y0390715D01*
X0072690Y0390715D01*
X0070974Y0390004D01*
X0069661Y0388691D01*
X0068950Y0386975D01*
X0068950Y0385118D01*
X0069661Y0383402D01*
X0070974Y0382089D01*
X0072690Y0381378D01*
X0074547Y0381378D01*
X0076263Y0382089D01*
X0077577Y0383402D01*
X0077592Y0383440D02*
X0446480Y0383440D01*
X0446706Y0383347D02*
X0448563Y0383347D01*
X0450279Y0384057D01*
X0451592Y0385371D01*
X0452303Y0387086D01*
X0452303Y0388944D01*
X0451592Y0390660D01*
X0450279Y0391973D01*
X0448563Y0392684D01*
X0446706Y0392684D01*
X0444990Y0391973D01*
X0443677Y0390660D01*
X0442966Y0388944D01*
X0442966Y0387086D01*
X0443677Y0385371D01*
X0444990Y0384057D01*
X0446706Y0383347D01*
X0445035Y0384039D02*
X0077840Y0384039D01*
X0078088Y0384637D02*
X0444410Y0384637D01*
X0443812Y0385236D02*
X0078287Y0385236D01*
X0078287Y0385834D02*
X0443485Y0385834D01*
X0443237Y0386433D02*
X0078287Y0386433D01*
X0078264Y0387031D02*
X0442989Y0387031D01*
X0442966Y0387630D02*
X0078016Y0387630D01*
X0077768Y0388228D02*
X0442966Y0388228D01*
X0442966Y0388827D02*
X0077441Y0388827D01*
X0076842Y0389425D02*
X0443165Y0389425D01*
X0443413Y0390024D02*
X0076217Y0390024D01*
X0074772Y0390622D02*
X0443661Y0390622D01*
X0444238Y0391221D02*
X0063776Y0391221D01*
X0063776Y0391819D02*
X0444836Y0391819D01*
X0446064Y0392418D02*
X0063776Y0392418D01*
X0063776Y0393016D02*
X0457477Y0393016D01*
X0457477Y0392418D02*
X0449205Y0392418D01*
X0450433Y0391819D02*
X0457477Y0391819D01*
X0457477Y0391221D02*
X0451031Y0391221D01*
X0451608Y0390622D02*
X0457477Y0390622D01*
X0457477Y0390024D02*
X0451856Y0390024D01*
X0452104Y0389425D02*
X0457477Y0389425D01*
X0457477Y0388827D02*
X0452303Y0388827D01*
X0452303Y0388228D02*
X0457477Y0388228D01*
X0457477Y0387630D02*
X0452303Y0387630D01*
X0452280Y0387031D02*
X0457477Y0387031D01*
X0457477Y0386433D02*
X0452032Y0386433D01*
X0451784Y0385834D02*
X0457477Y0385834D01*
X0457477Y0385236D02*
X0451457Y0385236D01*
X0450859Y0384637D02*
X0457477Y0384637D01*
X0457477Y0384039D02*
X0450234Y0384039D01*
X0448789Y0383440D02*
X0457477Y0383440D01*
X0457477Y0382842D02*
X0077016Y0382842D01*
X0076417Y0382243D02*
X0457477Y0382243D01*
X0457477Y0381644D02*
X0075191Y0381644D01*
X0072047Y0381644D02*
X0063776Y0381644D01*
X0063776Y0381046D02*
X0457477Y0381046D01*
X0457477Y0380447D02*
X0063776Y0380447D01*
X0063776Y0379849D02*
X0457477Y0379849D01*
X0457477Y0393615D02*
X0063776Y0393615D01*
X0063776Y0394213D02*
X0457477Y0394213D01*
X0457477Y0394812D02*
X0063776Y0394812D01*
X0063776Y0395410D02*
X0457477Y0395410D01*
X0274720Y0261344D02*
X0246533Y0261344D01*
X0246251Y0261625D02*
X0241695Y0261625D01*
X0238973Y0258903D01*
X0236251Y0261625D01*
X0231695Y0261625D01*
X0228473Y0258403D01*
X0228473Y0253847D01*
X0231695Y0250625D01*
X0236251Y0250625D01*
X0238973Y0253347D01*
X0241695Y0250625D01*
X0246251Y0250625D01*
X0249473Y0253847D01*
X0249473Y0258403D01*
X0246251Y0261625D01*
X0247131Y0260745D02*
X0274122Y0260745D01*
X0273523Y0260147D02*
X0247730Y0260147D01*
X0248328Y0259548D02*
X0272925Y0259548D01*
X0272326Y0258950D02*
X0248927Y0258950D01*
X0249473Y0258351D02*
X0271780Y0258351D01*
X0271780Y0257753D02*
X0249473Y0257753D01*
X0249473Y0257154D02*
X0271780Y0257154D01*
X0271780Y0256556D02*
X0249473Y0256556D01*
X0249473Y0255957D02*
X0271780Y0255957D01*
X0271780Y0255359D02*
X0249473Y0255359D01*
X0249473Y0254760D02*
X0270569Y0254760D01*
X0269316Y0254162D02*
X0249473Y0254162D01*
X0249189Y0253563D02*
X0268717Y0253563D01*
X0268260Y0252965D02*
X0248590Y0252965D01*
X0247992Y0252366D02*
X0268012Y0252366D01*
X0267769Y0251768D02*
X0247393Y0251768D01*
X0246795Y0251169D02*
X0267769Y0251169D01*
X0271650Y0251007D02*
X0286611Y0236047D01*
X0241151Y0251169D02*
X0236795Y0251169D01*
X0237393Y0251768D02*
X0240553Y0251768D01*
X0239954Y0252366D02*
X0237992Y0252366D01*
X0238590Y0252965D02*
X0239356Y0252965D01*
X0239019Y0258950D02*
X0238927Y0258950D01*
X0238328Y0259548D02*
X0239618Y0259548D01*
X0240216Y0260147D02*
X0237730Y0260147D01*
X0237131Y0260745D02*
X0240815Y0260745D01*
X0241413Y0261344D02*
X0236533Y0261344D01*
X0231413Y0261344D02*
X0173698Y0261344D01*
X0173417Y0261625D02*
X0168860Y0261625D01*
X0166138Y0258903D01*
X0163417Y0261625D01*
X0158860Y0261625D01*
X0155638Y0258403D01*
X0155638Y0253847D01*
X0158860Y0250625D01*
X0163417Y0250625D01*
X0166138Y0253347D01*
X0168860Y0250625D01*
X0173417Y0250625D01*
X0176638Y0253847D01*
X0176638Y0258403D01*
X0173417Y0261625D01*
X0174297Y0260745D02*
X0230815Y0260745D01*
X0230216Y0260147D02*
X0174895Y0260147D01*
X0175494Y0259548D02*
X0229618Y0259548D01*
X0229019Y0258950D02*
X0176092Y0258950D01*
X0176638Y0258351D02*
X0228473Y0258351D01*
X0228473Y0257753D02*
X0176638Y0257753D01*
X0176638Y0257154D02*
X0228473Y0257154D01*
X0228473Y0256556D02*
X0176638Y0256556D01*
X0176638Y0255957D02*
X0228473Y0255957D01*
X0228473Y0255359D02*
X0176638Y0255359D01*
X0176638Y0254760D02*
X0228473Y0254760D01*
X0228473Y0254162D02*
X0176638Y0254162D01*
X0176354Y0253563D02*
X0228757Y0253563D01*
X0229356Y0252965D02*
X0175756Y0252965D01*
X0175157Y0252366D02*
X0229954Y0252366D01*
X0230553Y0251768D02*
X0174559Y0251768D01*
X0173960Y0251169D02*
X0231151Y0251169D01*
X0231099Y0220692D02*
X0240942Y0210850D01*
X0236480Y0211069D02*
X0179115Y0211069D01*
X0180319Y0211667D02*
X0235881Y0211667D01*
X0235283Y0212266D02*
X0180917Y0212266D01*
X0181354Y0212864D02*
X0234684Y0212864D01*
X0234086Y0213463D02*
X0181602Y0213463D01*
X0181831Y0214061D02*
X0233487Y0214061D01*
X0232889Y0214660D02*
X0181831Y0214660D01*
X0181831Y0215258D02*
X0232290Y0215258D01*
X0231692Y0215857D02*
X0181707Y0215857D01*
X0181459Y0216455D02*
X0231093Y0216455D01*
X0229741Y0217054D02*
X0181171Y0217054D01*
X0180573Y0217652D02*
X0228650Y0217652D01*
X0228052Y0218251D02*
X0179728Y0218251D01*
X0176171Y0218251D02*
X0156106Y0218251D01*
X0152549Y0218251D02*
X0130350Y0218251D01*
X0130598Y0217652D02*
X0151704Y0217652D01*
X0151106Y0217054D02*
X0130649Y0217054D01*
X0130649Y0216455D02*
X0150818Y0216455D01*
X0150570Y0215857D02*
X0130597Y0215857D01*
X0130349Y0215258D02*
X0150446Y0215258D01*
X0150446Y0214660D02*
X0130101Y0214660D01*
X0129563Y0214061D02*
X0150446Y0214061D01*
X0150675Y0213463D02*
X0128962Y0213463D01*
X0126768Y0216755D02*
X0107083Y0216755D01*
X0109277Y0213463D02*
X0124575Y0213463D01*
X0124572Y0220046D02*
X0109279Y0220046D01*
X0128965Y0220046D02*
X0227218Y0220046D01*
X0227414Y0219448D02*
X0129564Y0219448D01*
X0130102Y0218849D02*
X0227662Y0218849D01*
X0177949Y0214787D02*
X0154327Y0214787D01*
X0155493Y0211069D02*
X0176784Y0211069D01*
X0175580Y0211667D02*
X0156697Y0211667D01*
X0158317Y0251169D02*
X0126716Y0251169D01*
X0127315Y0251768D02*
X0157718Y0251768D01*
X0157120Y0252366D02*
X0127913Y0252366D01*
X0128512Y0252965D02*
X0156521Y0252965D01*
X0155923Y0253563D02*
X0129110Y0253563D01*
X0129394Y0254162D02*
X0155638Y0254162D01*
X0155638Y0254760D02*
X0129394Y0254760D01*
X0129394Y0255359D02*
X0155638Y0255359D01*
X0155638Y0255957D02*
X0129394Y0255957D01*
X0129394Y0256556D02*
X0155638Y0256556D01*
X0155638Y0257154D02*
X0129394Y0257154D01*
X0129394Y0257753D02*
X0155638Y0257753D01*
X0155638Y0258351D02*
X0129394Y0258351D01*
X0128848Y0258950D02*
X0156185Y0258950D01*
X0156783Y0259548D02*
X0128250Y0259548D01*
X0127651Y0260147D02*
X0157382Y0260147D01*
X0157980Y0260745D02*
X0127053Y0260745D01*
X0126454Y0261344D02*
X0158579Y0261344D01*
X0163698Y0261344D02*
X0168579Y0261344D01*
X0167980Y0260745D02*
X0164297Y0260745D01*
X0164895Y0260147D02*
X0167382Y0260147D01*
X0166783Y0259548D02*
X0165494Y0259548D01*
X0166092Y0258950D02*
X0166185Y0258950D01*
X0166521Y0252965D02*
X0165756Y0252965D01*
X0165157Y0252366D02*
X0167120Y0252366D01*
X0167718Y0251768D02*
X0164559Y0251768D01*
X0163960Y0251169D02*
X0168317Y0251169D01*
X0121072Y0251169D02*
X0116716Y0251169D01*
X0117315Y0251768D02*
X0120474Y0251768D01*
X0119875Y0252366D02*
X0117913Y0252366D01*
X0118512Y0252965D02*
X0119277Y0252965D01*
X0118941Y0258950D02*
X0118848Y0258950D01*
X0118250Y0259548D02*
X0119539Y0259548D01*
X0120138Y0260147D02*
X0117651Y0260147D01*
X0117053Y0260745D02*
X0120736Y0260745D01*
X0121335Y0261344D02*
X0116454Y0261344D01*
X0063776Y0155407D02*
X0344246Y0155407D01*
X0343191Y0154809D02*
X0063776Y0154809D01*
X0063776Y0154210D02*
X0342593Y0154210D01*
X0342218Y0153612D02*
X0063776Y0153612D01*
X0063776Y0153013D02*
X0341970Y0153013D01*
X0341785Y0152415D02*
X0063776Y0152415D01*
X0063776Y0151816D02*
X0341785Y0151816D01*
X0341785Y0151218D02*
X0063776Y0151218D01*
X0063776Y0150619D02*
X0341952Y0150619D01*
X0342200Y0150021D02*
X0063776Y0150021D01*
X0063776Y0149422D02*
X0342550Y0149422D01*
X0343148Y0148824D02*
X0063776Y0148824D01*
X0063776Y0148225D02*
X0155897Y0148225D01*
X0154526Y0147627D02*
X0063776Y0147627D01*
X0063776Y0147028D02*
X0153927Y0147028D01*
X0153421Y0146430D02*
X0063776Y0146430D01*
X0063776Y0145831D02*
X0110243Y0145831D01*
X0110248Y0145833D02*
X0108822Y0145242D01*
X0107730Y0144151D01*
X0107139Y0142724D01*
X0107139Y0141180D01*
X0107730Y0139754D01*
X0108822Y0138662D01*
X0110248Y0138071D01*
X0110659Y0138071D01*
X0118950Y0129780D01*
X0118950Y0129369D01*
X0119541Y0127943D01*
X0120633Y0126851D01*
X0122059Y0126260D01*
X0123603Y0126260D01*
X0125030Y0126851D01*
X0126122Y0127943D01*
X0126712Y0129369D01*
X0126712Y0130913D01*
X0126122Y0132340D01*
X0125030Y0133431D01*
X0123603Y0134022D01*
X0123193Y0134022D01*
X0114901Y0142314D01*
X0114901Y0142724D01*
X0114311Y0144151D01*
X0113219Y0145242D01*
X0111792Y0145833D01*
X0110248Y0145833D01*
X0111798Y0145831D02*
X0153173Y0145831D01*
X0152925Y0145233D02*
X0113229Y0145233D01*
X0113827Y0144634D02*
X0152895Y0144634D01*
X0152895Y0144035D02*
X0114358Y0144035D01*
X0114606Y0143437D02*
X0152969Y0143437D01*
X0153217Y0142838D02*
X0114854Y0142838D01*
X0114975Y0142240D02*
X0153465Y0142240D01*
X0154034Y0141641D02*
X0115574Y0141641D01*
X0116172Y0141043D02*
X0154711Y0141043D01*
X0156477Y0140444D02*
X0116771Y0140444D01*
X0117369Y0139846D02*
X0157076Y0139846D01*
X0157674Y0139247D02*
X0117968Y0139247D01*
X0118566Y0138649D02*
X0158273Y0138649D01*
X0158872Y0138050D02*
X0119165Y0138050D01*
X0119763Y0137452D02*
X0159470Y0137452D01*
X0160069Y0136853D02*
X0120362Y0136853D01*
X0120960Y0136255D02*
X0160667Y0136255D01*
X0161266Y0135656D02*
X0121559Y0135656D01*
X0122157Y0135058D02*
X0161864Y0135058D01*
X0162463Y0134459D02*
X0122756Y0134459D01*
X0123993Y0133861D02*
X0163061Y0133861D01*
X0163660Y0133262D02*
X0125199Y0133262D01*
X0125797Y0132664D02*
X0164258Y0132664D01*
X0164857Y0132065D02*
X0126235Y0132065D01*
X0126483Y0131467D02*
X0165455Y0131467D01*
X0166054Y0130868D02*
X0126712Y0130868D01*
X0126712Y0130270D02*
X0166652Y0130270D01*
X0167251Y0129671D02*
X0126712Y0129671D01*
X0126590Y0129073D02*
X0167355Y0129073D01*
X0167603Y0128474D02*
X0126342Y0128474D01*
X0126055Y0127876D02*
X0167850Y0127876D01*
X0168399Y0127277D02*
X0125456Y0127277D01*
X0124614Y0126679D02*
X0169025Y0126679D01*
X0171176Y0129988D02*
X0156776Y0144388D01*
X0157655Y0148225D02*
X0344142Y0148225D01*
X0345666Y0151795D02*
X0357477Y0137621D01*
X0360143Y0140444D02*
X0392735Y0140444D01*
X0391874Y0141043D02*
X0359358Y0141043D01*
X0358032Y0141641D02*
X0391275Y0141641D01*
X0390980Y0142240D02*
X0357533Y0142240D01*
X0357035Y0142838D02*
X0390732Y0142838D01*
X0390604Y0143437D02*
X0356536Y0143437D01*
X0356037Y0144035D02*
X0390604Y0144035D01*
X0390604Y0144634D02*
X0355538Y0144634D01*
X0355040Y0145233D02*
X0390827Y0145233D01*
X0391075Y0145831D02*
X0354541Y0145831D01*
X0354042Y0146430D02*
X0391505Y0146430D01*
X0392104Y0147028D02*
X0353543Y0147028D01*
X0360741Y0139846D02*
X0394317Y0139846D01*
X0394915Y0139247D02*
X0361004Y0139247D01*
X0361252Y0138649D02*
X0395514Y0138649D01*
X0396112Y0138050D02*
X0361358Y0138050D01*
X0361358Y0137452D02*
X0396711Y0137452D01*
X0397309Y0136853D02*
X0361358Y0136853D01*
X0361112Y0136255D02*
X0397908Y0136255D01*
X0398507Y0135656D02*
X0360864Y0135656D01*
X0360402Y0135058D02*
X0399105Y0135058D01*
X0399704Y0134459D02*
X0359804Y0134459D01*
X0358540Y0133861D02*
X0400302Y0133861D01*
X0406296Y0132110D02*
X0394485Y0143921D01*
X0349422Y0105731D02*
X0291910Y0105731D01*
X0292508Y0105132D02*
X0348824Y0105132D01*
X0348225Y0104534D02*
X0293107Y0104534D01*
X0293705Y0103935D02*
X0347627Y0103935D01*
X0347028Y0103337D02*
X0294304Y0103337D01*
X0294749Y0102738D02*
X0346583Y0102738D01*
X0346583Y0102140D02*
X0294749Y0102140D01*
X0294749Y0101541D02*
X0346583Y0101541D01*
X0346583Y0100943D02*
X0294749Y0100943D01*
X0294749Y0100344D02*
X0346583Y0100344D01*
X0346583Y0099746D02*
X0294749Y0099746D01*
X0294749Y0099147D02*
X0346583Y0099147D01*
X0346583Y0098549D02*
X0294749Y0098549D01*
X0294363Y0097950D02*
X0346969Y0097950D01*
X0347567Y0097352D02*
X0293854Y0097352D01*
X0293854Y0096753D02*
X0348166Y0096753D01*
X0348764Y0096155D02*
X0293854Y0096155D01*
X0293854Y0095556D02*
X0349363Y0095556D01*
X0357855Y0073411D02*
X0457477Y0073411D01*
X0457477Y0072813D02*
X0358641Y0072813D01*
X0359239Y0072214D02*
X0457477Y0072214D01*
X0457477Y0071616D02*
X0359503Y0071616D01*
X0359751Y0071017D02*
X0457477Y0071017D01*
X0457477Y0070419D02*
X0359857Y0070419D01*
X0359857Y0069820D02*
X0457477Y0069820D01*
X0457477Y0069222D02*
X0359857Y0069222D01*
X0359612Y0068623D02*
X0457477Y0068623D01*
X0457477Y0068025D02*
X0359364Y0068025D01*
X0358976Y0067426D02*
X0457477Y0067426D01*
X0457477Y0066828D02*
X0358976Y0066828D01*
X0358976Y0066229D02*
X0457477Y0066229D01*
X0457477Y0065631D02*
X0358976Y0065631D01*
X0358976Y0065032D02*
X0457477Y0065032D01*
X0457477Y0064433D02*
X0358976Y0064433D01*
X0358976Y0063835D02*
X0457477Y0063835D01*
X0457477Y0063236D02*
X0358976Y0063236D01*
X0358976Y0062638D02*
X0363574Y0062638D01*
X0362975Y0062039D02*
X0359065Y0062039D01*
X0359664Y0061441D02*
X0362377Y0061441D01*
X0361778Y0060842D02*
X0360262Y0060842D01*
X0360861Y0060244D02*
X0361180Y0060244D01*
X0368467Y0062638D02*
X0457477Y0062638D01*
X0457477Y0062039D02*
X0369065Y0062039D01*
X0369664Y0061441D02*
X0457477Y0061441D01*
X0457477Y0060842D02*
X0370262Y0060842D01*
X0370861Y0060244D02*
X0457477Y0060244D01*
X0457477Y0059645D02*
X0371460Y0059645D01*
X0371520Y0059047D02*
X0457477Y0059047D01*
X0457477Y0058448D02*
X0371520Y0058448D01*
X0371520Y0057850D02*
X0457477Y0057850D01*
X0457477Y0057251D02*
X0371520Y0057251D01*
X0371520Y0056653D02*
X0457477Y0056653D01*
X0457477Y0056054D02*
X0371520Y0056054D01*
X0371520Y0055456D02*
X0457477Y0055456D01*
X0457477Y0054857D02*
X0371349Y0054857D01*
X0370751Y0054259D02*
X0386875Y0054259D01*
X0385430Y0053660D02*
X0370152Y0053660D01*
X0369554Y0053062D02*
X0384702Y0053062D01*
X0384104Y0052463D02*
X0368955Y0052463D01*
X0368357Y0051865D02*
X0383524Y0051865D01*
X0390284Y0054259D02*
X0457477Y0054259D01*
X0457477Y0053660D02*
X0391729Y0053660D01*
X0392456Y0053062D02*
X0457477Y0053062D01*
X0457477Y0052463D02*
X0393055Y0052463D01*
X0393635Y0051865D02*
X0457477Y0051865D01*
X0457477Y0051266D02*
X0393883Y0051266D01*
X0394131Y0050668D02*
X0457477Y0050668D01*
X0457477Y0050069D02*
X0394379Y0050069D01*
X0394527Y0049471D02*
X0457477Y0049471D01*
X0457477Y0048872D02*
X0394527Y0048872D01*
X0394527Y0048274D02*
X0457477Y0048274D01*
X0457477Y0047675D02*
X0394527Y0047675D01*
X0394417Y0047077D02*
X0457477Y0047077D01*
X0457477Y0046478D02*
X0394169Y0046478D01*
X0393921Y0045880D02*
X0457477Y0045880D01*
X0457477Y0045281D02*
X0393673Y0045281D01*
X0393147Y0044683D02*
X0457477Y0044683D01*
X0457477Y0044084D02*
X0393308Y0044084D01*
X0393935Y0043486D02*
X0457477Y0043486D01*
X0457477Y0042887D02*
X0394289Y0042887D01*
X0394527Y0042289D02*
X0457477Y0042289D01*
X0457477Y0041690D02*
X0394527Y0041690D01*
X0394527Y0041092D02*
X0457477Y0041092D01*
X0457477Y0040493D02*
X0394527Y0040493D01*
X0394527Y0039895D02*
X0457477Y0039895D01*
X0457477Y0039296D02*
X0394527Y0039296D01*
X0394527Y0038698D02*
X0457477Y0038698D01*
X0457477Y0038099D02*
X0394527Y0038099D01*
X0394527Y0037500D02*
X0457477Y0037500D01*
X0457477Y0036902D02*
X0432381Y0036902D01*
X0433504Y0036303D02*
X0457477Y0036303D01*
X0457477Y0035705D02*
X0434102Y0035705D01*
X0434701Y0035106D02*
X0457477Y0035106D01*
X0457477Y0034508D02*
X0435299Y0034508D01*
X0435898Y0033909D02*
X0457477Y0033909D01*
X0457477Y0033311D02*
X0436496Y0033311D01*
X0437095Y0032712D02*
X0457477Y0032712D01*
X0457477Y0032114D02*
X0437693Y0032114D01*
X0438292Y0031515D02*
X0457477Y0031515D01*
X0457477Y0030917D02*
X0438890Y0030917D01*
X0439489Y0030318D02*
X0457477Y0030318D01*
X0457477Y0029720D02*
X0440087Y0029720D01*
X0440686Y0029121D02*
X0457477Y0029121D01*
X0457477Y0028523D02*
X0441284Y0028523D01*
X0441883Y0027924D02*
X0457477Y0027924D01*
X0457477Y0027326D02*
X0442481Y0027326D01*
X0443080Y0026727D02*
X0457477Y0026727D01*
X0457477Y0026129D02*
X0443678Y0026129D01*
X0444277Y0025530D02*
X0457477Y0025530D01*
X0457477Y0024932D02*
X0444875Y0024932D01*
X0445474Y0024333D02*
X0457477Y0024333D01*
X0457477Y0023735D02*
X0446072Y0023735D01*
X0446348Y0023136D02*
X0457477Y0023136D01*
X0457477Y0022538D02*
X0446716Y0022538D01*
X0447052Y0021939D02*
X0457477Y0021939D01*
X0457477Y0021341D02*
X0447300Y0021341D01*
X0447457Y0020742D02*
X0457477Y0020742D01*
X0457477Y0020144D02*
X0447457Y0020144D01*
X0447457Y0019545D02*
X0457477Y0019545D01*
X0457477Y0018947D02*
X0447263Y0018947D01*
X0447015Y0018348D02*
X0457477Y0018348D01*
X0457477Y0017750D02*
X0446626Y0017750D01*
X0446028Y0017151D02*
X0457477Y0017151D01*
X0457477Y0016553D02*
X0444941Y0016553D01*
X0430655Y0024333D02*
X0329014Y0024333D01*
X0329613Y0024932D02*
X0430655Y0024932D01*
X0430615Y0025530D02*
X0330211Y0025530D01*
X0330810Y0026129D02*
X0430338Y0026129D01*
X0430090Y0026727D02*
X0331408Y0026727D01*
X0332007Y0027326D02*
X0429974Y0027326D01*
X0429974Y0027924D02*
X0332150Y0027924D01*
X0332150Y0028523D02*
X0429974Y0028523D01*
X0430210Y0029121D02*
X0332150Y0029121D01*
X0332150Y0029720D02*
X0430458Y0029720D01*
X0430906Y0030318D02*
X0332150Y0030318D01*
X0332150Y0030917D02*
X0430405Y0030917D01*
X0421878Y0021939D02*
X0308037Y0021939D01*
X0309365Y0021341D02*
X0420550Y0021341D01*
X0402037Y0007857D02*
X0400097Y0007857D01*
X0400180Y0008059D01*
X0400390Y0008146D01*
X0401241Y0008997D01*
X0401483Y0008411D01*
X0402037Y0007857D01*
X0401721Y0008173D02*
X0400417Y0008173D01*
X0401016Y0008772D02*
X0401334Y0008772D01*
X0392340Y0009457D02*
X0391701Y0009457D01*
X0392020Y0009777D01*
X0392340Y0009457D01*
X0352976Y0063236D02*
X0181831Y0063236D01*
X0181831Y0063835D02*
X0352976Y0063835D01*
X0352976Y0064433D02*
X0181644Y0064433D01*
X0181396Y0065032D02*
X0352976Y0065032D01*
X0352976Y0065631D02*
X0181020Y0065631D01*
X0180421Y0066229D02*
X0352976Y0066229D01*
X0352976Y0066828D02*
X0179362Y0066828D01*
X0177949Y0063212D02*
X0175981Y0061243D01*
X0166007Y0054988D02*
X0165801Y0054782D01*
X0162840Y0051821D01*
X0154653Y0051821D01*
X0154583Y0051991D01*
X0152909Y0053664D01*
X0150723Y0054569D01*
X0148357Y0054569D01*
X0146171Y0053664D01*
X0144540Y0052033D01*
X0142909Y0053664D01*
X0140723Y0054569D01*
X0139600Y0054569D01*
X0140019Y0054988D01*
X0166007Y0054988D01*
X0165876Y0054857D02*
X0139888Y0054857D01*
X0141473Y0054259D02*
X0147607Y0054259D01*
X0146167Y0053660D02*
X0142913Y0053660D01*
X0143511Y0053062D02*
X0145569Y0053062D01*
X0144970Y0052463D02*
X0144110Y0052463D01*
X0144540Y0045210D02*
X0146171Y0043579D01*
X0146869Y0043290D01*
X0143240Y0043290D01*
X0143240Y0043910D01*
X0144540Y0045210D01*
X0144013Y0044683D02*
X0145067Y0044683D01*
X0145666Y0044084D02*
X0143415Y0044084D01*
X0143240Y0043486D02*
X0146396Y0043486D01*
X0152212Y0043290D02*
X0161653Y0043290D01*
X0163785Y0045421D01*
X0154653Y0045421D01*
X0154583Y0045252D01*
X0152909Y0043579D01*
X0152212Y0043290D01*
X0152684Y0043486D02*
X0161849Y0043486D01*
X0162447Y0044084D02*
X0153415Y0044084D01*
X0154013Y0044683D02*
X0163046Y0044683D01*
X0163644Y0045281D02*
X0154595Y0045281D01*
X0154635Y0051865D02*
X0162883Y0051865D01*
X0163482Y0052463D02*
X0154110Y0052463D01*
X0153511Y0053062D02*
X0164080Y0053062D01*
X0164679Y0053660D02*
X0152913Y0053660D01*
X0151473Y0054259D02*
X0165277Y0054259D01*
X0178336Y0032114D02*
X0063776Y0032114D01*
X0063776Y0031515D02*
X0178584Y0031515D01*
X0178886Y0030917D02*
X0063776Y0030917D01*
X0063776Y0030318D02*
X0178886Y0030318D01*
X0178886Y0029720D02*
X0063776Y0029720D01*
X0063776Y0029121D02*
X0178886Y0029121D01*
X0178886Y0028523D02*
X0063776Y0028523D01*
X0063776Y0027924D02*
X0178886Y0027924D01*
X0178886Y0027326D02*
X0063776Y0027326D01*
X0063776Y0026727D02*
X0178886Y0026727D01*
X0178886Y0026129D02*
X0063776Y0026129D01*
X0063776Y0025530D02*
X0178886Y0025530D01*
X0178886Y0024932D02*
X0063776Y0024932D01*
X0063776Y0024333D02*
X0178886Y0024333D01*
X0178886Y0023735D02*
X0063776Y0023735D01*
X0063776Y0023136D02*
X0178886Y0023136D01*
X0178886Y0022538D02*
X0063776Y0022538D01*
X0063776Y0021939D02*
X0178886Y0021939D01*
X0178886Y0021341D02*
X0063776Y0021341D01*
X0063776Y0020742D02*
X0178886Y0020742D01*
X0178886Y0020144D02*
X0063776Y0020144D01*
X0075669Y0018947D02*
X0082387Y0018947D01*
X0080942Y0018348D02*
X0077114Y0018348D01*
X0077879Y0017750D02*
X0080178Y0017750D01*
X0079579Y0017151D02*
X0078477Y0017151D01*
X0085669Y0018947D02*
X0089785Y0018947D01*
X0088874Y0018348D02*
X0087114Y0018348D01*
X0087879Y0017750D02*
X0088402Y0017750D01*
X0088249Y0008997D02*
X0087397Y0008146D01*
X0086700Y0007857D01*
X0089045Y0007857D01*
X0088491Y0008411D01*
X0088249Y0008997D01*
X0088342Y0008772D02*
X0088024Y0008772D01*
X0087425Y0008173D02*
X0088729Y0008173D01*
X0081357Y0007857D02*
X0077728Y0007857D01*
X0077728Y0008477D01*
X0079028Y0009777D01*
X0080659Y0008146D01*
X0081357Y0007857D01*
X0080631Y0008173D02*
X0077728Y0008173D01*
X0078024Y0008772D02*
X0080033Y0008772D01*
X0079434Y0009370D02*
X0078622Y0009370D01*
X0099328Y0008173D02*
X0110185Y0008173D01*
X0109798Y0008772D02*
X0099715Y0008772D01*
X0099963Y0009370D02*
X0109550Y0009370D01*
X0109537Y0009969D02*
X0099976Y0009969D01*
X0099976Y0010567D02*
X0109537Y0010567D01*
X0109537Y0011166D02*
X0099976Y0011166D01*
X0099976Y0011764D02*
X0109537Y0011764D01*
X0109537Y0012363D02*
X0099976Y0012363D01*
X0099976Y0012962D02*
X0109537Y0012962D01*
X0109537Y0013560D02*
X0099976Y0013560D01*
X0099976Y0014159D02*
X0109537Y0014159D01*
X0109537Y0014757D02*
X0099976Y0014757D01*
X0099976Y0015356D02*
X0109537Y0015356D01*
X0109537Y0015954D02*
X0099976Y0015954D01*
X0099976Y0016553D02*
X0109537Y0016553D01*
X0109610Y0017151D02*
X0099903Y0017151D01*
X0099655Y0017750D02*
X0109858Y0017750D01*
X0110330Y0018348D02*
X0099183Y0018348D01*
X0098271Y0018947D02*
X0111242Y0018947D01*
X0119728Y0018947D02*
X0123844Y0018947D01*
X0122399Y0018348D02*
X0120640Y0018348D01*
X0121111Y0017750D02*
X0121634Y0017750D01*
X0127126Y0018947D02*
X0133844Y0018947D01*
X0132399Y0018348D02*
X0128571Y0018348D01*
X0129335Y0017750D02*
X0131634Y0017750D01*
X0131036Y0017151D02*
X0129934Y0017151D01*
X0130485Y0009777D02*
X0131785Y0008477D01*
X0131785Y0007857D01*
X0128156Y0007857D01*
X0128854Y0008146D01*
X0130485Y0009777D01*
X0130079Y0009370D02*
X0130891Y0009370D01*
X0131489Y0008772D02*
X0129480Y0008772D01*
X0128882Y0008173D02*
X0131785Y0008173D01*
X0139185Y0008173D02*
X0142088Y0008173D01*
X0142116Y0008146D02*
X0142813Y0007857D01*
X0139185Y0007857D01*
X0139185Y0008477D01*
X0140485Y0009777D01*
X0142116Y0008146D01*
X0141489Y0008772D02*
X0139480Y0008772D01*
X0140079Y0009370D02*
X0140891Y0009370D01*
X0141036Y0017151D02*
X0139934Y0017151D01*
X0139335Y0017750D02*
X0141634Y0017750D01*
X0142399Y0018348D02*
X0138571Y0018348D01*
X0137126Y0018947D02*
X0143844Y0018947D01*
X0147126Y0018947D02*
X0158092Y0018947D01*
X0157181Y0018348D02*
X0148571Y0018348D01*
X0149335Y0017750D02*
X0156709Y0017750D01*
X0156461Y0017151D02*
X0149934Y0017151D01*
X0150529Y0016553D02*
X0156387Y0016553D01*
X0156387Y0015954D02*
X0150777Y0015954D01*
X0151025Y0015356D02*
X0156387Y0015356D01*
X0156387Y0014757D02*
X0151273Y0014757D01*
X0151433Y0014159D02*
X0156387Y0014159D01*
X0156387Y0013560D02*
X0151433Y0013560D01*
X0151433Y0012962D02*
X0156387Y0012962D01*
X0156387Y0012363D02*
X0151433Y0012363D01*
X0151333Y0011764D02*
X0156387Y0011764D01*
X0156387Y0011166D02*
X0151085Y0011166D01*
X0150837Y0010567D02*
X0156387Y0010567D01*
X0156387Y0009969D02*
X0150589Y0009969D01*
X0150079Y0009370D02*
X0156401Y0009370D01*
X0156649Y0008772D02*
X0149480Y0008772D01*
X0148882Y0008173D02*
X0157036Y0008173D01*
X0167318Y0007857D02*
X0167872Y0008411D01*
X0168115Y0008997D01*
X0168966Y0008146D01*
X0169664Y0007857D01*
X0167318Y0007857D01*
X0167635Y0008173D02*
X0168938Y0008173D01*
X0168340Y0008772D02*
X0168022Y0008772D01*
X0167962Y0017750D02*
X0168485Y0017750D01*
X0169249Y0018348D02*
X0167490Y0018348D01*
X0166578Y0018947D02*
X0170694Y0018947D01*
X0197237Y0022538D02*
X0199859Y0022538D01*
X0198737Y0021939D02*
X0197836Y0021939D01*
X0198105Y0021341D02*
X0198139Y0021341D01*
X0201572Y0029747D02*
X0221257Y0008094D01*
X0256690Y0008094D01*
X0258658Y0010062D01*
X0256069Y0012962D02*
X0220886Y0012962D01*
X0220342Y0013560D02*
X0256961Y0013560D01*
X0255470Y0012363D02*
X0221430Y0012363D01*
X0221974Y0011764D02*
X0255162Y0011764D01*
X0254914Y0011166D02*
X0222518Y0011166D01*
X0260356Y0013560D02*
X0261850Y0013560D01*
X0261252Y0012962D02*
X0261248Y0012962D01*
X0319014Y0024333D02*
X0324286Y0024333D01*
X0323688Y0024932D02*
X0319613Y0024932D01*
X0320211Y0025530D02*
X0323089Y0025530D01*
X0322491Y0026129D02*
X0320810Y0026129D01*
X0321408Y0026727D02*
X0321892Y0026727D01*
X0239210Y0088972D02*
X0172870Y0088972D01*
X0172870Y0089571D02*
X0239210Y0089571D01*
X0239210Y0090169D02*
X0172870Y0090169D01*
X0172870Y0090768D02*
X0239210Y0090768D01*
X0239210Y0091366D02*
X0172870Y0091366D01*
X0172870Y0091965D02*
X0239210Y0091965D01*
X0239210Y0092564D02*
X0172870Y0092564D01*
X0172870Y0093162D02*
X0229709Y0093162D01*
X0229111Y0093761D02*
X0172870Y0093761D01*
X0172870Y0094359D02*
X0228512Y0094359D01*
X0227914Y0094958D02*
X0173261Y0094958D01*
X0173859Y0095556D02*
X0227315Y0095556D01*
X0226717Y0096155D02*
X0174458Y0096155D01*
X0174670Y0096753D02*
X0226505Y0096753D01*
X0226505Y0097352D02*
X0174670Y0097352D01*
X0174670Y0097950D02*
X0226505Y0097950D01*
X0226505Y0098549D02*
X0174670Y0098549D01*
X0174670Y0099147D02*
X0226505Y0099147D01*
X0226505Y0099746D02*
X0174670Y0099746D01*
X0174670Y0100344D02*
X0226505Y0100344D01*
X0226524Y0100943D02*
X0174650Y0100943D01*
X0174052Y0101541D02*
X0227123Y0101541D01*
X0227721Y0102140D02*
X0173453Y0102140D01*
X0172855Y0102738D02*
X0228320Y0102738D01*
X0228918Y0103337D02*
X0172256Y0103337D01*
X0171658Y0103935D02*
X0229517Y0103935D01*
X0234493Y0103935D02*
X0239517Y0103935D01*
X0238918Y0103337D02*
X0235091Y0103337D01*
X0235690Y0102738D02*
X0238320Y0102738D01*
X0237721Y0102140D02*
X0236288Y0102140D01*
X0236887Y0101541D02*
X0237123Y0101541D01*
X0237315Y0095556D02*
X0236694Y0095556D01*
X0236095Y0094958D02*
X0237914Y0094958D01*
X0238512Y0094359D02*
X0235497Y0094359D01*
X0234898Y0093761D02*
X0239111Y0093761D01*
X0239210Y0093162D02*
X0234300Y0093162D01*
X0238490Y0129073D02*
X0174998Y0129073D01*
X0175057Y0129671D02*
X0237891Y0129671D01*
X0237503Y0130270D02*
X0175057Y0130270D01*
X0175013Y0130868D02*
X0237255Y0130868D01*
X0237060Y0131467D02*
X0174765Y0131467D01*
X0174517Y0132065D02*
X0236743Y0132065D01*
X0236145Y0132664D02*
X0173989Y0132664D01*
X0173391Y0133262D02*
X0235546Y0133262D01*
X0234948Y0133861D02*
X0171969Y0133861D01*
X0170948Y0134459D02*
X0234349Y0134459D01*
X0233751Y0135058D02*
X0170349Y0135058D01*
X0169751Y0135656D02*
X0233152Y0135656D01*
X0232554Y0136255D02*
X0169152Y0136255D01*
X0168554Y0136853D02*
X0231955Y0136853D01*
X0231357Y0137452D02*
X0167955Y0137452D01*
X0167357Y0138050D02*
X0230758Y0138050D01*
X0228932Y0138649D02*
X0166758Y0138649D01*
X0166160Y0139247D02*
X0228315Y0139247D01*
X0227771Y0139846D02*
X0165561Y0139846D01*
X0164963Y0140444D02*
X0227523Y0140444D01*
X0227275Y0141043D02*
X0164364Y0141043D01*
X0163766Y0141641D02*
X0227218Y0141641D01*
X0227218Y0142240D02*
X0163167Y0142240D01*
X0162569Y0142838D02*
X0227265Y0142838D01*
X0227513Y0143437D02*
X0161970Y0143437D01*
X0161372Y0144035D02*
X0227761Y0144035D01*
X0228292Y0144634D02*
X0160773Y0144634D01*
X0160627Y0145233D02*
X0228891Y0145233D01*
X0231099Y0141952D02*
X0240942Y0132110D01*
X0276375Y0143921D02*
X0288186Y0132110D01*
X0286588Y0105731D02*
X0281910Y0105731D01*
X0282508Y0105132D02*
X0285989Y0105132D01*
X0285391Y0104534D02*
X0283107Y0104534D01*
X0283705Y0103935D02*
X0284792Y0103935D01*
X0173954Y0127277D02*
X0457477Y0127277D01*
X0457477Y0126679D02*
X0173328Y0126679D01*
X0166682Y0103935D02*
X0161658Y0103935D01*
X0162256Y0103337D02*
X0166084Y0103337D01*
X0165485Y0102738D02*
X0162855Y0102738D01*
X0163453Y0102140D02*
X0164886Y0102140D01*
X0164288Y0101541D02*
X0164052Y0101541D01*
X0163859Y0095556D02*
X0164481Y0095556D01*
X0165079Y0094958D02*
X0163261Y0094958D01*
X0162662Y0094359D02*
X0165470Y0094359D01*
X0165470Y0093761D02*
X0162064Y0093761D01*
X0161465Y0093162D02*
X0165470Y0093162D01*
X0165470Y0092564D02*
X0127594Y0092564D01*
X0127594Y0093162D02*
X0156875Y0093162D01*
X0156276Y0093761D02*
X0127594Y0093761D01*
X0127594Y0094359D02*
X0155678Y0094359D01*
X0155079Y0094958D02*
X0127985Y0094958D01*
X0128584Y0095556D02*
X0154481Y0095556D01*
X0153882Y0096155D02*
X0129182Y0096155D01*
X0129394Y0096753D02*
X0153670Y0096753D01*
X0153670Y0097352D02*
X0129394Y0097352D01*
X0129394Y0097950D02*
X0153670Y0097950D01*
X0153670Y0098549D02*
X0129394Y0098549D01*
X0129394Y0099147D02*
X0153670Y0099147D01*
X0153670Y0099746D02*
X0129394Y0099746D01*
X0129394Y0100344D02*
X0153670Y0100344D01*
X0153689Y0100943D02*
X0129375Y0100943D01*
X0128776Y0101541D02*
X0154288Y0101541D01*
X0154886Y0102140D02*
X0128178Y0102140D01*
X0127579Y0102738D02*
X0155485Y0102738D01*
X0156084Y0103337D02*
X0126981Y0103337D01*
X0126382Y0103935D02*
X0156682Y0103935D01*
X0165470Y0091965D02*
X0127594Y0091965D01*
X0127594Y0091366D02*
X0165470Y0091366D01*
X0165470Y0090768D02*
X0127594Y0090768D01*
X0127594Y0090169D02*
X0165470Y0090169D01*
X0165470Y0089571D02*
X0127594Y0089571D01*
X0127594Y0088972D02*
X0165470Y0088972D01*
X0123240Y0080593D02*
X0457477Y0080593D01*
X0457477Y0079995D02*
X0123240Y0079995D01*
X0123240Y0079396D02*
X0457477Y0079396D01*
X0457477Y0078798D02*
X0123240Y0078798D01*
X0123240Y0078199D02*
X0457477Y0078199D01*
X0457477Y0077601D02*
X0123240Y0077601D01*
X0123240Y0077002D02*
X0457477Y0077002D01*
X0457477Y0076404D02*
X0123240Y0076404D01*
X0123240Y0075805D02*
X0457477Y0075805D01*
X0457477Y0075207D02*
X0123240Y0075207D01*
X0123240Y0074608D02*
X0457477Y0074608D01*
X0457477Y0074010D02*
X0123240Y0074010D01*
X0116926Y0086834D02*
X0118894Y0088802D01*
X0116926Y0086834D02*
X0095272Y0086834D01*
X0093304Y0088802D01*
X0063776Y0106329D02*
X0457477Y0106329D01*
X0457477Y0106928D02*
X0063776Y0106928D01*
X0063776Y0107526D02*
X0457477Y0107526D01*
X0457477Y0108125D02*
X0063776Y0108125D01*
X0063776Y0108723D02*
X0457477Y0108723D01*
X0457477Y0109322D02*
X0063776Y0109322D01*
X0063776Y0109920D02*
X0457477Y0109920D01*
X0457477Y0110519D02*
X0063776Y0110519D01*
X0063776Y0111117D02*
X0457477Y0111117D01*
X0457477Y0111716D02*
X0063776Y0111716D01*
X0063776Y0112314D02*
X0457477Y0112314D01*
X0457477Y0112913D02*
X0063776Y0112913D01*
X0063776Y0113511D02*
X0457477Y0113511D01*
X0457477Y0114110D02*
X0063776Y0114110D01*
X0063776Y0114708D02*
X0457477Y0114708D01*
X0457477Y0115307D02*
X0063776Y0115307D01*
X0063776Y0115905D02*
X0457477Y0115905D01*
X0457477Y0116504D02*
X0063776Y0116504D01*
X0063776Y0117102D02*
X0457477Y0117102D01*
X0457477Y0117701D02*
X0063776Y0117701D01*
X0063776Y0118300D02*
X0457477Y0118300D01*
X0457477Y0118898D02*
X0063776Y0118898D01*
X0063776Y0119497D02*
X0457477Y0119497D01*
X0457477Y0120095D02*
X0063776Y0120095D01*
X0063776Y0120694D02*
X0457477Y0120694D01*
X0457477Y0121292D02*
X0063776Y0121292D01*
X0063776Y0121891D02*
X0457477Y0121891D01*
X0457477Y0122489D02*
X0063776Y0122489D01*
X0063776Y0123088D02*
X0457477Y0123088D01*
X0457477Y0123686D02*
X0063776Y0123686D01*
X0063776Y0124285D02*
X0457477Y0124285D01*
X0457477Y0124883D02*
X0063776Y0124883D01*
X0063776Y0125482D02*
X0457477Y0125482D01*
X0457477Y0126080D02*
X0063776Y0126080D01*
X0063776Y0126679D02*
X0121049Y0126679D01*
X0120207Y0127277D02*
X0063776Y0127277D01*
X0063776Y0127876D02*
X0119608Y0127876D01*
X0119321Y0128474D02*
X0063776Y0128474D01*
X0063776Y0129073D02*
X0119073Y0129073D01*
X0118950Y0129671D02*
X0063776Y0129671D01*
X0063776Y0130270D02*
X0118460Y0130270D01*
X0117862Y0130868D02*
X0063776Y0130868D01*
X0063776Y0131467D02*
X0117263Y0131467D01*
X0116665Y0132065D02*
X0063776Y0132065D01*
X0063776Y0132664D02*
X0116066Y0132664D01*
X0115467Y0133262D02*
X0063776Y0133262D01*
X0063776Y0133861D02*
X0114869Y0133861D01*
X0114270Y0134459D02*
X0063776Y0134459D01*
X0063776Y0135058D02*
X0113672Y0135058D01*
X0113073Y0135656D02*
X0063776Y0135656D01*
X0063776Y0136255D02*
X0112475Y0136255D01*
X0111876Y0136853D02*
X0063776Y0136853D01*
X0063776Y0137452D02*
X0111278Y0137452D01*
X0110679Y0138050D02*
X0063776Y0138050D01*
X0063776Y0138649D02*
X0108853Y0138649D01*
X0108236Y0139247D02*
X0063776Y0139247D01*
X0063776Y0139846D02*
X0107692Y0139846D01*
X0107444Y0140444D02*
X0063776Y0140444D01*
X0063776Y0141043D02*
X0107196Y0141043D01*
X0107139Y0141641D02*
X0063776Y0141641D01*
X0063776Y0142240D02*
X0107139Y0142240D01*
X0107187Y0142838D02*
X0063776Y0142838D01*
X0063776Y0143437D02*
X0107435Y0143437D01*
X0107682Y0144035D02*
X0063776Y0144035D01*
X0063776Y0144634D02*
X0108214Y0144634D01*
X0108812Y0145233D02*
X0063776Y0145233D01*
X0111020Y0141952D02*
X0122831Y0130141D01*
X0134540Y0045210D02*
X0135769Y0043981D01*
X0135078Y0043290D01*
X0132212Y0043290D01*
X0132909Y0043579D01*
X0134540Y0045210D01*
X0134013Y0044683D02*
X0135067Y0044683D01*
X0135666Y0044084D02*
X0133415Y0044084D01*
X0132684Y0043486D02*
X0135274Y0043486D01*
X0126869Y0043290D02*
X0124523Y0043290D01*
X0125077Y0043844D01*
X0125320Y0044430D01*
X0126171Y0043579D01*
X0126869Y0043290D01*
X0126396Y0043486D02*
X0124719Y0043486D01*
X0125176Y0044084D02*
X0125666Y0044084D01*
X0086547Y0043486D02*
X0081509Y0043486D01*
X0082108Y0042887D02*
X0085949Y0042887D01*
X0085350Y0042289D02*
X0082706Y0042289D01*
X0083305Y0041690D02*
X0084752Y0041690D01*
X0084153Y0041092D02*
X0083903Y0041092D01*
X0121265Y0008997D02*
X0122116Y0008146D01*
X0122813Y0007857D01*
X0120468Y0007857D01*
X0121022Y0008411D01*
X0121265Y0008997D01*
X0121171Y0008772D02*
X0121489Y0008772D01*
X0122088Y0008173D02*
X0120784Y0008173D01*
X0070820Y0382243D02*
X0063776Y0382243D01*
X0063776Y0382842D02*
X0070222Y0382842D01*
X0069645Y0383440D02*
X0063776Y0383440D01*
X0063776Y0384039D02*
X0069397Y0384039D01*
X0069149Y0384637D02*
X0063776Y0384637D01*
X0063776Y0385236D02*
X0068950Y0385236D01*
X0068950Y0385834D02*
X0063776Y0385834D01*
X0063776Y0386433D02*
X0068950Y0386433D01*
X0068973Y0387031D02*
X0063776Y0387031D01*
X0063776Y0387630D02*
X0069221Y0387630D01*
X0069469Y0388228D02*
X0063776Y0388228D01*
X0063776Y0388827D02*
X0069797Y0388827D01*
X0070395Y0389425D02*
X0063776Y0389425D01*
X0063776Y0390024D02*
X0071021Y0390024D01*
X0072466Y0390622D02*
X0063776Y0390622D01*
D15*
X0109052Y0295495D03*
X0122831Y0293527D03*
X0160233Y0297464D03*
X0170075Y0287621D03*
X0231099Y0344708D03*
X0240942Y0330928D03*
X0219288Y0362425D03*
X0280312Y0348645D03*
X0288186Y0328960D03*
X0294091Y0368330D03*
X0345272Y0301401D03*
X0359052Y0287621D03*
X0396453Y0299432D03*
X0408264Y0287621D03*
X0394485Y0222661D03*
X0406296Y0210850D03*
X0359052Y0208881D03*
X0347241Y0220692D03*
X0286611Y0236047D03*
X0271650Y0251007D03*
X0231099Y0220692D03*
X0240942Y0210850D03*
X0177949Y0214787D03*
X0154327Y0214787D03*
X0126768Y0216755D03*
X0107083Y0216755D03*
X0156776Y0144388D03*
X0171176Y0129988D03*
X0122831Y0130141D03*
X0111020Y0141952D03*
X0118894Y0088802D03*
X0093304Y0088802D03*
X0085430Y0073054D03*
X0175981Y0061243D03*
X0177949Y0063212D03*
X0193698Y0047464D03*
X0205509Y0045495D03*
X0205509Y0055338D03*
X0208976Y0059188D03*
X0209446Y0035653D03*
X0201572Y0029747D03*
X0181886Y0033684D03*
X0187792Y0008094D03*
X0258658Y0010062D03*
X0266532Y0013999D03*
X0272438Y0031716D03*
X0274406Y0039590D03*
X0270776Y0040588D03*
X0264564Y0047464D03*
X0280312Y0039590D03*
X0288186Y0033684D03*
X0291776Y0033988D03*
X0285176Y0024988D03*
X0290154Y0019905D03*
X0296060Y0013999D03*
X0307083Y0018133D03*
X0290154Y0053369D03*
X0355976Y0069988D03*
X0422831Y0018133D03*
X0433855Y0027779D03*
X0443576Y0020188D03*
X0433855Y0006125D03*
X0406296Y0132110D03*
X0394485Y0143921D03*
X0357477Y0137621D03*
X0345666Y0151795D03*
X0288186Y0132110D03*
X0276375Y0143921D03*
X0240942Y0132110D03*
X0231099Y0141952D03*
D16*
X0259058Y0052969D02*
X0168514Y0052969D01*
X0164165Y0048621D01*
X0149540Y0048621D01*
X0259058Y0052969D02*
X0264564Y0047464D01*
X0274406Y0039590D02*
X0276375Y0037621D01*
X0276375Y0008094D01*
X0278212Y0006257D01*
X0394485Y0006257D01*
X0397020Y0008792D01*
X0397020Y0013188D01*
X0387020Y0013188D02*
X0385800Y0013188D01*
X0380705Y0008094D01*
X0282280Y0008094D01*
X0280312Y0010062D01*
X0280312Y0039590D01*
X0433855Y0027779D02*
X0433855Y0006125D01*
D17*
X0422831Y0018133D02*
X0307083Y0018133D01*
D18*
X0272438Y0031716D02*
X0272438Y0004157D01*
X0192335Y0004157D01*
X0192335Y0017125D01*
X0192335Y0004157D02*
X0162335Y0004157D01*
X0162335Y0013188D01*
X0162335Y0004157D02*
X0135485Y0004157D01*
X0135485Y0013188D01*
X0135485Y0004157D02*
X0115485Y0004157D01*
X0115485Y0013188D01*
X0115485Y0004157D02*
X0074028Y0004157D01*
X0074028Y0013188D01*
X0119540Y0042881D02*
X0119540Y0048621D01*
X0119540Y0084220D01*
X0118894Y0084865D01*
X0077556Y0084865D01*
X0077556Y0058188D01*
X0079028Y0058188D01*
X0119540Y0042881D02*
X0122831Y0039590D01*
X0136611Y0039590D01*
X0163186Y0039590D01*
X0172217Y0048621D01*
X0139540Y0048621D02*
X0139540Y0042519D01*
X0136611Y0039590D01*
X0123894Y0084865D02*
X0118894Y0084865D01*
X0123894Y0084865D02*
X0169170Y0084865D01*
X0242910Y0084865D01*
X0290154Y0084865D01*
X0362989Y0084865D01*
X0406296Y0084865D01*
X0406296Y0100614D01*
X0405390Y0100614D01*
X0404327Y0100614D01*
X0362989Y0100614D02*
X0362989Y0084865D01*
X0362989Y0100614D02*
X0362083Y0100614D01*
X0290154Y0100614D02*
X0290154Y0084865D01*
X0290154Y0100614D02*
X0289249Y0100614D01*
X0242910Y0098645D02*
X0242910Y0084865D01*
X0242910Y0098645D02*
X0242005Y0098645D01*
X0169170Y0098645D02*
X0169170Y0084865D01*
X0123894Y0084865D02*
X0123894Y0098645D01*
X0272438Y0004157D02*
X0406296Y0004157D01*
X0406296Y0013188D01*
X0407020Y0013188D01*
M02*
