%
M48
M72
T01C0.01378
T02C0.03200
T03C0.03937
T04C0.04331
%
T01
X85430Y73054
X93304Y88802
X118894Y88802
X122831Y130141
X111020Y141952
X156776Y144388
X171176Y129988
X231099Y141952
X240942Y132110
X276375Y143921
X288186Y132110
X345666Y151795
X357477Y137621
X394485Y143921
X406296Y132110
X355976Y69988
X307083Y18133
X296060Y13999
X290154Y19905
X285176Y24988
X288186Y33684
X291776Y33988
X280312Y39590
X274406Y39590
X270776Y40588
X264564Y47464
X272438Y31716
X266532Y13999
X258658Y10062
X209446Y35653
X201572Y29747
X205509Y45495
X205509Y55338
X208976Y59188
X193698Y47464
X181886Y33684
X187792Y8094
X175981Y61243
X177949Y63212
X290154Y53369
X422831Y18133
X433855Y27779
X443576Y20188
X433855Y6125
X359052Y208881
X347241Y220692
X394485Y222661
X406296Y210850
X408264Y287621
X396453Y299432
X359052Y287621
X345272Y301401
X288186Y328960
X280312Y348645
X294091Y368330
X240942Y330928
X231099Y344708
X219288Y362425
X160233Y297464
X170075Y287621
X122831Y293527
X109052Y295495
X107083Y216755
X126768Y216755
X154327Y214787
X177949Y214787
X231099Y220692
X240942Y210850
X286611Y236047
X271650Y251007
T02
X277280Y256125
X287280Y256125
X243973Y256125
X233973Y256125
X171138Y256125
X161138Y256125
X123894Y256125
X113894Y256125
X113894Y179354
X123894Y179354
X161138Y179354
X171138Y179354
X233973Y175417
X243973Y175417
X279249Y179354
X289249Y179354
X348146Y179354
X358146Y179354
X397359Y179354
X407359Y179354
X407359Y258094
X397359Y258094
X360115Y256125
X350115Y256125
X348146Y336834
X358146Y336834
X399327Y336834
X409327Y336834
X289249Y338802
X279249Y338802
X242005Y336834
X232005Y336834
X173107Y334865
X163107Y334865
X123894Y336834
X113894Y336834
X279249Y100614
X289249Y100614
X242005Y98645
X232005Y98645
X169170Y98645
X159170Y98645
X123894Y98645
X113894Y98645
X89028Y58188
X79028Y58188
X79028Y38188
X89028Y38188
X237453Y38759
X237453Y19759
X316650Y29747
X326650Y29747
X356020Y57306
X366020Y57306
X362083Y100614
X352083Y100614
X395390Y100614
X405390Y100614
T03
X447635Y388015
X73619Y386047
T04
X74028Y13188
X84028Y13188
X94028Y13188
X115485Y13188
X125485Y13188
X135485Y13188
X145485Y13188
X162335Y13188
X172335Y13188
X192335Y17125
X202335Y17125
X182217Y48621
X172217Y48621
X149540Y48621
X139540Y48621
X129540Y48621
X119540Y48621
X388579Y48527
X388579Y38527
X387020Y13188
X397020Y13188
X407020Y13188
M30
