G75*
%MOIN*%
%OFA0B0*%
%FSLAX25Y25*%
%IPPOS*%
%LPD*%
%AMOC8*
5,1,8,0,0,1.08239X$1,22.5*
%
%ADD10C,0.00600*%
%ADD11C,0.00500*%
%ADD12C,0.01600*%
%ADD13C,0.02000*%
%ADD14C,0.01200*%
D10*
X0068328Y0020520D02*
X0068328Y0026925D01*
X0071531Y0026925D01*
X0072599Y0025858D01*
X0072599Y0023723D01*
X0071531Y0022655D01*
X0068328Y0022655D01*
X0074774Y0021587D02*
X0074774Y0025858D01*
X0075841Y0026925D01*
X0077976Y0026925D01*
X0079044Y0025858D01*
X0079044Y0021587D01*
X0077976Y0020520D01*
X0075841Y0020520D01*
X0074774Y0021587D01*
X0081219Y0020520D02*
X0081219Y0026925D01*
X0085490Y0026925D02*
X0085490Y0020520D01*
X0083354Y0022655D01*
X0081219Y0020520D01*
X0087665Y0020520D02*
X0091935Y0020520D01*
X0094110Y0020520D02*
X0094110Y0026925D01*
X0097313Y0026925D01*
X0098381Y0025858D01*
X0098381Y0023723D01*
X0097313Y0022655D01*
X0094110Y0022655D01*
X0096245Y0022655D02*
X0098381Y0020520D01*
X0091935Y0026925D02*
X0087665Y0026925D01*
X0087665Y0020520D01*
X0087665Y0023723D02*
X0089800Y0023723D01*
X0090528Y0033688D02*
X0077528Y0033688D01*
X0077441Y0033690D01*
X0077354Y0033696D01*
X0077267Y0033705D01*
X0077181Y0033718D01*
X0077095Y0033735D01*
X0077010Y0033756D01*
X0076927Y0033781D01*
X0076844Y0033809D01*
X0076763Y0033840D01*
X0076683Y0033875D01*
X0076605Y0033914D01*
X0076528Y0033956D01*
X0076453Y0034001D01*
X0076381Y0034050D01*
X0076310Y0034101D01*
X0076242Y0034156D01*
X0076177Y0034213D01*
X0076114Y0034274D01*
X0076053Y0034337D01*
X0075996Y0034402D01*
X0075941Y0034470D01*
X0075890Y0034541D01*
X0075841Y0034613D01*
X0075796Y0034688D01*
X0075754Y0034765D01*
X0075715Y0034843D01*
X0075680Y0034923D01*
X0075649Y0035004D01*
X0075621Y0035087D01*
X0075596Y0035170D01*
X0075575Y0035255D01*
X0075558Y0035341D01*
X0075545Y0035427D01*
X0075536Y0035514D01*
X0075530Y0035601D01*
X0075528Y0035688D01*
X0075528Y0040688D01*
X0075530Y0040775D01*
X0075536Y0040862D01*
X0075545Y0040949D01*
X0075558Y0041035D01*
X0075575Y0041121D01*
X0075596Y0041206D01*
X0075621Y0041289D01*
X0075649Y0041372D01*
X0075680Y0041453D01*
X0075715Y0041533D01*
X0075754Y0041611D01*
X0075796Y0041688D01*
X0075841Y0041763D01*
X0075890Y0041835D01*
X0075941Y0041906D01*
X0075996Y0041974D01*
X0076053Y0042039D01*
X0076114Y0042102D01*
X0076177Y0042163D01*
X0076242Y0042220D01*
X0076310Y0042275D01*
X0076381Y0042326D01*
X0076453Y0042375D01*
X0076528Y0042420D01*
X0076605Y0042462D01*
X0076683Y0042501D01*
X0076763Y0042536D01*
X0076844Y0042567D01*
X0076927Y0042595D01*
X0077010Y0042620D01*
X0077095Y0042641D01*
X0077181Y0042658D01*
X0077267Y0042671D01*
X0077354Y0042680D01*
X0077441Y0042686D01*
X0077528Y0042688D01*
X0090528Y0042688D01*
X0090615Y0042686D01*
X0090702Y0042680D01*
X0090789Y0042671D01*
X0090875Y0042658D01*
X0090961Y0042641D01*
X0091046Y0042620D01*
X0091129Y0042595D01*
X0091212Y0042567D01*
X0091293Y0042536D01*
X0091373Y0042501D01*
X0091451Y0042462D01*
X0091528Y0042420D01*
X0091603Y0042375D01*
X0091675Y0042326D01*
X0091746Y0042275D01*
X0091814Y0042220D01*
X0091879Y0042163D01*
X0091942Y0042102D01*
X0092003Y0042039D01*
X0092060Y0041974D01*
X0092115Y0041906D01*
X0092166Y0041835D01*
X0092215Y0041763D01*
X0092260Y0041688D01*
X0092302Y0041611D01*
X0092341Y0041533D01*
X0092376Y0041453D01*
X0092407Y0041372D01*
X0092435Y0041289D01*
X0092460Y0041206D01*
X0092481Y0041121D01*
X0092498Y0041035D01*
X0092511Y0040949D01*
X0092520Y0040862D01*
X0092526Y0040775D01*
X0092528Y0040688D01*
X0092528Y0035688D01*
X0092526Y0035601D01*
X0092520Y0035514D01*
X0092511Y0035427D01*
X0092498Y0035341D01*
X0092481Y0035255D01*
X0092460Y0035170D01*
X0092435Y0035087D01*
X0092407Y0035004D01*
X0092376Y0034923D01*
X0092341Y0034843D01*
X0092302Y0034765D01*
X0092260Y0034688D01*
X0092215Y0034613D01*
X0092166Y0034541D01*
X0092115Y0034470D01*
X0092060Y0034402D01*
X0092003Y0034337D01*
X0091942Y0034274D01*
X0091879Y0034213D01*
X0091814Y0034156D01*
X0091746Y0034101D01*
X0091675Y0034050D01*
X0091603Y0034001D01*
X0091528Y0033956D01*
X0091451Y0033914D01*
X0091373Y0033875D01*
X0091293Y0033840D01*
X0091212Y0033809D01*
X0091129Y0033781D01*
X0091046Y0033756D01*
X0090961Y0033735D01*
X0090875Y0033718D01*
X0090789Y0033705D01*
X0090702Y0033696D01*
X0090615Y0033690D01*
X0090528Y0033688D01*
X0109785Y0028894D02*
X0109785Y0023556D01*
X0110852Y0022488D01*
X0112988Y0022488D01*
X0114055Y0023556D01*
X0114055Y0028894D01*
X0116230Y0028894D02*
X0119433Y0028894D01*
X0120501Y0027826D01*
X0120501Y0025691D01*
X0119433Y0024623D01*
X0116230Y0024623D01*
X0116230Y0022488D02*
X0116230Y0028894D01*
X0129121Y0028894D02*
X0129121Y0022488D01*
X0132324Y0022488D01*
X0133392Y0023556D01*
X0133392Y0027826D01*
X0132324Y0028894D01*
X0129121Y0028894D01*
X0135567Y0027826D02*
X0135567Y0023556D01*
X0136634Y0022488D01*
X0138770Y0022488D01*
X0139837Y0023556D01*
X0139837Y0027826D01*
X0138770Y0028894D01*
X0136634Y0028894D01*
X0135567Y0027826D01*
X0142012Y0028894D02*
X0142012Y0022488D01*
X0144148Y0024623D01*
X0146283Y0022488D01*
X0146283Y0028894D01*
X0148458Y0028894D02*
X0152728Y0022488D01*
X0152728Y0028894D01*
X0148458Y0028894D02*
X0148458Y0022488D01*
X0158486Y0021474D02*
X0161688Y0021474D01*
X0162756Y0022541D01*
X0162756Y0024677D01*
X0161688Y0025744D01*
X0158486Y0025744D01*
X0158486Y0019339D01*
X0160621Y0021474D02*
X0162756Y0019339D01*
X0164931Y0020406D02*
X0165999Y0019339D01*
X0168134Y0019339D01*
X0169202Y0020406D01*
X0169202Y0021474D01*
X0168134Y0022541D01*
X0165999Y0022541D01*
X0164931Y0023609D01*
X0164931Y0024677D01*
X0165999Y0025744D01*
X0168134Y0025744D01*
X0169202Y0024677D01*
X0171377Y0025744D02*
X0175647Y0025744D01*
X0173512Y0025744D02*
X0173512Y0019339D01*
X0191635Y0023556D02*
X0192703Y0022488D01*
X0194838Y0022488D01*
X0195906Y0023556D01*
X0195906Y0024623D01*
X0194838Y0025691D01*
X0192703Y0025691D01*
X0191635Y0026759D01*
X0191635Y0027826D01*
X0192703Y0028894D01*
X0194838Y0028894D01*
X0195906Y0027826D01*
X0198081Y0028894D02*
X0201284Y0028894D01*
X0202351Y0027826D01*
X0202351Y0025691D01*
X0201284Y0024623D01*
X0198081Y0024623D01*
X0198081Y0022488D02*
X0198081Y0028894D01*
X0187989Y0054772D02*
X0187989Y0061177D01*
X0185854Y0061177D02*
X0190124Y0061177D01*
X0183678Y0061177D02*
X0183678Y0055839D01*
X0182611Y0054772D01*
X0180476Y0054772D01*
X0179408Y0055839D01*
X0179408Y0061177D01*
X0177233Y0061177D02*
X0177233Y0054772D01*
X0177233Y0057975D02*
X0172963Y0057975D01*
X0170788Y0056907D02*
X0170788Y0055839D01*
X0169720Y0054772D01*
X0167585Y0054772D01*
X0166517Y0055839D01*
X0167585Y0057975D02*
X0169720Y0057975D01*
X0170788Y0056907D01*
X0172963Y0054772D02*
X0172963Y0061177D01*
X0170788Y0060110D02*
X0169720Y0061177D01*
X0167585Y0061177D01*
X0166517Y0060110D01*
X0166517Y0059042D01*
X0167585Y0057975D01*
X0145596Y0061177D02*
X0141326Y0061177D01*
X0141326Y0054772D01*
X0145596Y0054772D01*
X0143461Y0057975D02*
X0141326Y0057975D01*
X0139151Y0060110D02*
X0138083Y0061177D01*
X0134881Y0061177D01*
X0134881Y0054772D01*
X0138083Y0054772D01*
X0139151Y0055839D01*
X0139151Y0060110D01*
X0132705Y0060110D02*
X0132705Y0055839D01*
X0131638Y0054772D01*
X0129503Y0054772D01*
X0128435Y0055839D01*
X0128435Y0060110D01*
X0129503Y0061177D01*
X0131638Y0061177D01*
X0132705Y0060110D01*
X0126260Y0061177D02*
X0126260Y0054772D01*
X0121990Y0054772D02*
X0121990Y0061177D01*
X0124125Y0059042D01*
X0126260Y0061177D01*
X0092528Y0060688D02*
X0092528Y0055688D01*
X0092526Y0055601D01*
X0092520Y0055514D01*
X0092511Y0055427D01*
X0092498Y0055341D01*
X0092481Y0055255D01*
X0092460Y0055170D01*
X0092435Y0055087D01*
X0092407Y0055004D01*
X0092376Y0054923D01*
X0092341Y0054843D01*
X0092302Y0054765D01*
X0092260Y0054688D01*
X0092215Y0054613D01*
X0092166Y0054541D01*
X0092115Y0054470D01*
X0092060Y0054402D01*
X0092003Y0054337D01*
X0091942Y0054274D01*
X0091879Y0054213D01*
X0091814Y0054156D01*
X0091746Y0054101D01*
X0091675Y0054050D01*
X0091603Y0054001D01*
X0091528Y0053956D01*
X0091451Y0053914D01*
X0091373Y0053875D01*
X0091293Y0053840D01*
X0091212Y0053809D01*
X0091129Y0053781D01*
X0091046Y0053756D01*
X0090961Y0053735D01*
X0090875Y0053718D01*
X0090789Y0053705D01*
X0090702Y0053696D01*
X0090615Y0053690D01*
X0090528Y0053688D01*
X0077528Y0053688D01*
X0077441Y0053690D01*
X0077354Y0053696D01*
X0077267Y0053705D01*
X0077181Y0053718D01*
X0077095Y0053735D01*
X0077010Y0053756D01*
X0076927Y0053781D01*
X0076844Y0053809D01*
X0076763Y0053840D01*
X0076683Y0053875D01*
X0076605Y0053914D01*
X0076528Y0053956D01*
X0076453Y0054001D01*
X0076381Y0054050D01*
X0076310Y0054101D01*
X0076242Y0054156D01*
X0076177Y0054213D01*
X0076114Y0054274D01*
X0076053Y0054337D01*
X0075996Y0054402D01*
X0075941Y0054470D01*
X0075890Y0054541D01*
X0075841Y0054613D01*
X0075796Y0054688D01*
X0075754Y0054765D01*
X0075715Y0054843D01*
X0075680Y0054923D01*
X0075649Y0055004D01*
X0075621Y0055087D01*
X0075596Y0055170D01*
X0075575Y0055255D01*
X0075558Y0055341D01*
X0075545Y0055427D01*
X0075536Y0055514D01*
X0075530Y0055601D01*
X0075528Y0055688D01*
X0075528Y0060688D01*
X0075530Y0060775D01*
X0075536Y0060862D01*
X0075545Y0060949D01*
X0075558Y0061035D01*
X0075575Y0061121D01*
X0075596Y0061206D01*
X0075621Y0061289D01*
X0075649Y0061372D01*
X0075680Y0061453D01*
X0075715Y0061533D01*
X0075754Y0061611D01*
X0075796Y0061688D01*
X0075841Y0061763D01*
X0075890Y0061835D01*
X0075941Y0061906D01*
X0075996Y0061974D01*
X0076053Y0062039D01*
X0076114Y0062102D01*
X0076177Y0062163D01*
X0076242Y0062220D01*
X0076310Y0062275D01*
X0076381Y0062326D01*
X0076453Y0062375D01*
X0076528Y0062420D01*
X0076605Y0062462D01*
X0076683Y0062501D01*
X0076763Y0062536D01*
X0076844Y0062567D01*
X0076927Y0062595D01*
X0077010Y0062620D01*
X0077095Y0062641D01*
X0077181Y0062658D01*
X0077267Y0062671D01*
X0077354Y0062680D01*
X0077441Y0062686D01*
X0077528Y0062688D01*
X0090528Y0062688D01*
X0090615Y0062686D01*
X0090702Y0062680D01*
X0090789Y0062671D01*
X0090875Y0062658D01*
X0090961Y0062641D01*
X0091046Y0062620D01*
X0091129Y0062595D01*
X0091212Y0062567D01*
X0091293Y0062536D01*
X0091373Y0062501D01*
X0091451Y0062462D01*
X0091528Y0062420D01*
X0091603Y0062375D01*
X0091675Y0062326D01*
X0091746Y0062275D01*
X0091814Y0062220D01*
X0091879Y0062163D01*
X0091942Y0062102D01*
X0092003Y0062039D01*
X0092060Y0061974D01*
X0092115Y0061906D01*
X0092166Y0061835D01*
X0092215Y0061763D01*
X0092260Y0061688D01*
X0092302Y0061611D01*
X0092341Y0061533D01*
X0092376Y0061453D01*
X0092407Y0061372D01*
X0092435Y0061289D01*
X0092460Y0061206D01*
X0092481Y0061121D01*
X0092498Y0061035D01*
X0092511Y0060949D01*
X0092520Y0060862D01*
X0092526Y0060775D01*
X0092528Y0060688D01*
X0112394Y0094145D02*
X0125394Y0094145D01*
X0125481Y0094147D01*
X0125568Y0094153D01*
X0125655Y0094162D01*
X0125741Y0094175D01*
X0125827Y0094192D01*
X0125912Y0094213D01*
X0125995Y0094238D01*
X0126078Y0094266D01*
X0126159Y0094297D01*
X0126239Y0094332D01*
X0126317Y0094371D01*
X0126394Y0094413D01*
X0126469Y0094458D01*
X0126541Y0094507D01*
X0126612Y0094558D01*
X0126680Y0094613D01*
X0126745Y0094670D01*
X0126808Y0094731D01*
X0126869Y0094794D01*
X0126926Y0094859D01*
X0126981Y0094927D01*
X0127032Y0094998D01*
X0127081Y0095070D01*
X0127126Y0095145D01*
X0127168Y0095222D01*
X0127207Y0095300D01*
X0127242Y0095380D01*
X0127273Y0095461D01*
X0127301Y0095544D01*
X0127326Y0095627D01*
X0127347Y0095712D01*
X0127364Y0095798D01*
X0127377Y0095884D01*
X0127386Y0095971D01*
X0127392Y0096058D01*
X0127394Y0096145D01*
X0127394Y0101145D01*
X0127392Y0101232D01*
X0127386Y0101319D01*
X0127377Y0101406D01*
X0127364Y0101492D01*
X0127347Y0101578D01*
X0127326Y0101663D01*
X0127301Y0101746D01*
X0127273Y0101829D01*
X0127242Y0101910D01*
X0127207Y0101990D01*
X0127168Y0102068D01*
X0127126Y0102145D01*
X0127081Y0102220D01*
X0127032Y0102292D01*
X0126981Y0102363D01*
X0126926Y0102431D01*
X0126869Y0102496D01*
X0126808Y0102559D01*
X0126745Y0102620D01*
X0126680Y0102677D01*
X0126612Y0102732D01*
X0126541Y0102783D01*
X0126469Y0102832D01*
X0126394Y0102877D01*
X0126317Y0102919D01*
X0126239Y0102958D01*
X0126159Y0102993D01*
X0126078Y0103024D01*
X0125995Y0103052D01*
X0125912Y0103077D01*
X0125827Y0103098D01*
X0125741Y0103115D01*
X0125655Y0103128D01*
X0125568Y0103137D01*
X0125481Y0103143D01*
X0125394Y0103145D01*
X0112394Y0103145D01*
X0112307Y0103143D01*
X0112220Y0103137D01*
X0112133Y0103128D01*
X0112047Y0103115D01*
X0111961Y0103098D01*
X0111876Y0103077D01*
X0111793Y0103052D01*
X0111710Y0103024D01*
X0111629Y0102993D01*
X0111549Y0102958D01*
X0111471Y0102919D01*
X0111394Y0102877D01*
X0111319Y0102832D01*
X0111247Y0102783D01*
X0111176Y0102732D01*
X0111108Y0102677D01*
X0111043Y0102620D01*
X0110980Y0102559D01*
X0110919Y0102496D01*
X0110862Y0102431D01*
X0110807Y0102363D01*
X0110756Y0102292D01*
X0110707Y0102220D01*
X0110662Y0102145D01*
X0110620Y0102068D01*
X0110581Y0101990D01*
X0110546Y0101910D01*
X0110515Y0101829D01*
X0110487Y0101746D01*
X0110462Y0101663D01*
X0110441Y0101578D01*
X0110424Y0101492D01*
X0110411Y0101406D01*
X0110402Y0101319D01*
X0110396Y0101232D01*
X0110394Y0101145D01*
X0110394Y0096145D01*
X0110396Y0096058D01*
X0110402Y0095971D01*
X0110411Y0095884D01*
X0110424Y0095798D01*
X0110441Y0095712D01*
X0110462Y0095627D01*
X0110487Y0095544D01*
X0110515Y0095461D01*
X0110546Y0095380D01*
X0110581Y0095300D01*
X0110620Y0095222D01*
X0110662Y0095145D01*
X0110707Y0095070D01*
X0110756Y0094998D01*
X0110807Y0094927D01*
X0110862Y0094859D01*
X0110919Y0094794D01*
X0110980Y0094731D01*
X0111043Y0094670D01*
X0111108Y0094613D01*
X0111176Y0094558D01*
X0111247Y0094507D01*
X0111319Y0094458D01*
X0111394Y0094413D01*
X0111471Y0094371D01*
X0111549Y0094332D01*
X0111629Y0094297D01*
X0111710Y0094266D01*
X0111793Y0094238D01*
X0111876Y0094213D01*
X0111961Y0094192D01*
X0112047Y0094175D01*
X0112133Y0094162D01*
X0112220Y0094153D01*
X0112307Y0094147D01*
X0112394Y0094145D01*
X0155670Y0096145D02*
X0155670Y0101145D01*
X0155672Y0101232D01*
X0155678Y0101319D01*
X0155687Y0101406D01*
X0155700Y0101492D01*
X0155717Y0101578D01*
X0155738Y0101663D01*
X0155763Y0101746D01*
X0155791Y0101829D01*
X0155822Y0101910D01*
X0155857Y0101990D01*
X0155896Y0102068D01*
X0155938Y0102145D01*
X0155983Y0102220D01*
X0156032Y0102292D01*
X0156083Y0102363D01*
X0156138Y0102431D01*
X0156195Y0102496D01*
X0156256Y0102559D01*
X0156319Y0102620D01*
X0156384Y0102677D01*
X0156452Y0102732D01*
X0156523Y0102783D01*
X0156595Y0102832D01*
X0156670Y0102877D01*
X0156747Y0102919D01*
X0156825Y0102958D01*
X0156905Y0102993D01*
X0156986Y0103024D01*
X0157069Y0103052D01*
X0157152Y0103077D01*
X0157237Y0103098D01*
X0157323Y0103115D01*
X0157409Y0103128D01*
X0157496Y0103137D01*
X0157583Y0103143D01*
X0157670Y0103145D01*
X0170670Y0103145D01*
X0170757Y0103143D01*
X0170844Y0103137D01*
X0170931Y0103128D01*
X0171017Y0103115D01*
X0171103Y0103098D01*
X0171188Y0103077D01*
X0171271Y0103052D01*
X0171354Y0103024D01*
X0171435Y0102993D01*
X0171515Y0102958D01*
X0171593Y0102919D01*
X0171670Y0102877D01*
X0171745Y0102832D01*
X0171817Y0102783D01*
X0171888Y0102732D01*
X0171956Y0102677D01*
X0172021Y0102620D01*
X0172084Y0102559D01*
X0172145Y0102496D01*
X0172202Y0102431D01*
X0172257Y0102363D01*
X0172308Y0102292D01*
X0172357Y0102220D01*
X0172402Y0102145D01*
X0172444Y0102068D01*
X0172483Y0101990D01*
X0172518Y0101910D01*
X0172549Y0101829D01*
X0172577Y0101746D01*
X0172602Y0101663D01*
X0172623Y0101578D01*
X0172640Y0101492D01*
X0172653Y0101406D01*
X0172662Y0101319D01*
X0172668Y0101232D01*
X0172670Y0101145D01*
X0172670Y0096145D01*
X0172668Y0096058D01*
X0172662Y0095971D01*
X0172653Y0095884D01*
X0172640Y0095798D01*
X0172623Y0095712D01*
X0172602Y0095627D01*
X0172577Y0095544D01*
X0172549Y0095461D01*
X0172518Y0095380D01*
X0172483Y0095300D01*
X0172444Y0095222D01*
X0172402Y0095145D01*
X0172357Y0095070D01*
X0172308Y0094998D01*
X0172257Y0094927D01*
X0172202Y0094859D01*
X0172145Y0094794D01*
X0172084Y0094731D01*
X0172021Y0094670D01*
X0171956Y0094613D01*
X0171888Y0094558D01*
X0171817Y0094507D01*
X0171745Y0094458D01*
X0171670Y0094413D01*
X0171593Y0094371D01*
X0171515Y0094332D01*
X0171435Y0094297D01*
X0171354Y0094266D01*
X0171271Y0094238D01*
X0171188Y0094213D01*
X0171103Y0094192D01*
X0171017Y0094175D01*
X0170931Y0094162D01*
X0170844Y0094153D01*
X0170757Y0094147D01*
X0170670Y0094145D01*
X0157670Y0094145D01*
X0157583Y0094147D01*
X0157496Y0094153D01*
X0157409Y0094162D01*
X0157323Y0094175D01*
X0157237Y0094192D01*
X0157152Y0094213D01*
X0157069Y0094238D01*
X0156986Y0094266D01*
X0156905Y0094297D01*
X0156825Y0094332D01*
X0156747Y0094371D01*
X0156670Y0094413D01*
X0156595Y0094458D01*
X0156523Y0094507D01*
X0156452Y0094558D01*
X0156384Y0094613D01*
X0156319Y0094670D01*
X0156256Y0094731D01*
X0156195Y0094794D01*
X0156138Y0094859D01*
X0156083Y0094927D01*
X0156032Y0094998D01*
X0155983Y0095070D01*
X0155938Y0095145D01*
X0155896Y0095222D01*
X0155857Y0095300D01*
X0155822Y0095380D01*
X0155791Y0095461D01*
X0155763Y0095544D01*
X0155738Y0095627D01*
X0155717Y0095712D01*
X0155700Y0095798D01*
X0155687Y0095884D01*
X0155678Y0095971D01*
X0155672Y0096058D01*
X0155670Y0096145D01*
X0228505Y0096145D02*
X0228505Y0101145D01*
X0228507Y0101232D01*
X0228513Y0101319D01*
X0228522Y0101406D01*
X0228535Y0101492D01*
X0228552Y0101578D01*
X0228573Y0101663D01*
X0228598Y0101746D01*
X0228626Y0101829D01*
X0228657Y0101910D01*
X0228692Y0101990D01*
X0228731Y0102068D01*
X0228773Y0102145D01*
X0228818Y0102220D01*
X0228867Y0102292D01*
X0228918Y0102363D01*
X0228973Y0102431D01*
X0229030Y0102496D01*
X0229091Y0102559D01*
X0229154Y0102620D01*
X0229219Y0102677D01*
X0229287Y0102732D01*
X0229358Y0102783D01*
X0229430Y0102832D01*
X0229505Y0102877D01*
X0229582Y0102919D01*
X0229660Y0102958D01*
X0229740Y0102993D01*
X0229821Y0103024D01*
X0229904Y0103052D01*
X0229987Y0103077D01*
X0230072Y0103098D01*
X0230158Y0103115D01*
X0230244Y0103128D01*
X0230331Y0103137D01*
X0230418Y0103143D01*
X0230505Y0103145D01*
X0243505Y0103145D01*
X0243592Y0103143D01*
X0243679Y0103137D01*
X0243766Y0103128D01*
X0243852Y0103115D01*
X0243938Y0103098D01*
X0244023Y0103077D01*
X0244106Y0103052D01*
X0244189Y0103024D01*
X0244270Y0102993D01*
X0244350Y0102958D01*
X0244428Y0102919D01*
X0244505Y0102877D01*
X0244580Y0102832D01*
X0244652Y0102783D01*
X0244723Y0102732D01*
X0244791Y0102677D01*
X0244856Y0102620D01*
X0244919Y0102559D01*
X0244980Y0102496D01*
X0245037Y0102431D01*
X0245092Y0102363D01*
X0245143Y0102292D01*
X0245192Y0102220D01*
X0245237Y0102145D01*
X0245279Y0102068D01*
X0245318Y0101990D01*
X0245353Y0101910D01*
X0245384Y0101829D01*
X0245412Y0101746D01*
X0245437Y0101663D01*
X0245458Y0101578D01*
X0245475Y0101492D01*
X0245488Y0101406D01*
X0245497Y0101319D01*
X0245503Y0101232D01*
X0245505Y0101145D01*
X0245505Y0096145D01*
X0245503Y0096058D01*
X0245497Y0095971D01*
X0245488Y0095884D01*
X0245475Y0095798D01*
X0245458Y0095712D01*
X0245437Y0095627D01*
X0245412Y0095544D01*
X0245384Y0095461D01*
X0245353Y0095380D01*
X0245318Y0095300D01*
X0245279Y0095222D01*
X0245237Y0095145D01*
X0245192Y0095070D01*
X0245143Y0094998D01*
X0245092Y0094927D01*
X0245037Y0094859D01*
X0244980Y0094794D01*
X0244919Y0094731D01*
X0244856Y0094670D01*
X0244791Y0094613D01*
X0244723Y0094558D01*
X0244652Y0094507D01*
X0244580Y0094458D01*
X0244505Y0094413D01*
X0244428Y0094371D01*
X0244350Y0094332D01*
X0244270Y0094297D01*
X0244189Y0094266D01*
X0244106Y0094238D01*
X0244023Y0094213D01*
X0243938Y0094192D01*
X0243852Y0094175D01*
X0243766Y0094162D01*
X0243679Y0094153D01*
X0243592Y0094147D01*
X0243505Y0094145D01*
X0230505Y0094145D01*
X0230418Y0094147D01*
X0230331Y0094153D01*
X0230244Y0094162D01*
X0230158Y0094175D01*
X0230072Y0094192D01*
X0229987Y0094213D01*
X0229904Y0094238D01*
X0229821Y0094266D01*
X0229740Y0094297D01*
X0229660Y0094332D01*
X0229582Y0094371D01*
X0229505Y0094413D01*
X0229430Y0094458D01*
X0229358Y0094507D01*
X0229287Y0094558D01*
X0229219Y0094613D01*
X0229154Y0094670D01*
X0229091Y0094731D01*
X0229030Y0094794D01*
X0228973Y0094859D01*
X0228918Y0094927D01*
X0228867Y0094998D01*
X0228818Y0095070D01*
X0228773Y0095145D01*
X0228731Y0095222D01*
X0228692Y0095300D01*
X0228657Y0095380D01*
X0228626Y0095461D01*
X0228598Y0095544D01*
X0228573Y0095627D01*
X0228552Y0095712D01*
X0228535Y0095798D01*
X0228522Y0095884D01*
X0228513Y0095971D01*
X0228507Y0096058D01*
X0228505Y0096145D01*
X0275749Y0098114D02*
X0275749Y0103114D01*
X0275751Y0103201D01*
X0275757Y0103288D01*
X0275766Y0103375D01*
X0275779Y0103461D01*
X0275796Y0103547D01*
X0275817Y0103632D01*
X0275842Y0103715D01*
X0275870Y0103798D01*
X0275901Y0103879D01*
X0275936Y0103959D01*
X0275975Y0104037D01*
X0276017Y0104114D01*
X0276062Y0104189D01*
X0276111Y0104261D01*
X0276162Y0104332D01*
X0276217Y0104400D01*
X0276274Y0104465D01*
X0276335Y0104528D01*
X0276398Y0104589D01*
X0276463Y0104646D01*
X0276531Y0104701D01*
X0276602Y0104752D01*
X0276674Y0104801D01*
X0276749Y0104846D01*
X0276826Y0104888D01*
X0276904Y0104927D01*
X0276984Y0104962D01*
X0277065Y0104993D01*
X0277148Y0105021D01*
X0277231Y0105046D01*
X0277316Y0105067D01*
X0277402Y0105084D01*
X0277488Y0105097D01*
X0277575Y0105106D01*
X0277662Y0105112D01*
X0277749Y0105114D01*
X0290749Y0105114D01*
X0290836Y0105112D01*
X0290923Y0105106D01*
X0291010Y0105097D01*
X0291096Y0105084D01*
X0291182Y0105067D01*
X0291267Y0105046D01*
X0291350Y0105021D01*
X0291433Y0104993D01*
X0291514Y0104962D01*
X0291594Y0104927D01*
X0291672Y0104888D01*
X0291749Y0104846D01*
X0291824Y0104801D01*
X0291896Y0104752D01*
X0291967Y0104701D01*
X0292035Y0104646D01*
X0292100Y0104589D01*
X0292163Y0104528D01*
X0292224Y0104465D01*
X0292281Y0104400D01*
X0292336Y0104332D01*
X0292387Y0104261D01*
X0292436Y0104189D01*
X0292481Y0104114D01*
X0292523Y0104037D01*
X0292562Y0103959D01*
X0292597Y0103879D01*
X0292628Y0103798D01*
X0292656Y0103715D01*
X0292681Y0103632D01*
X0292702Y0103547D01*
X0292719Y0103461D01*
X0292732Y0103375D01*
X0292741Y0103288D01*
X0292747Y0103201D01*
X0292749Y0103114D01*
X0292749Y0098114D01*
X0292747Y0098027D01*
X0292741Y0097940D01*
X0292732Y0097853D01*
X0292719Y0097767D01*
X0292702Y0097681D01*
X0292681Y0097596D01*
X0292656Y0097513D01*
X0292628Y0097430D01*
X0292597Y0097349D01*
X0292562Y0097269D01*
X0292523Y0097191D01*
X0292481Y0097114D01*
X0292436Y0097039D01*
X0292387Y0096967D01*
X0292336Y0096896D01*
X0292281Y0096828D01*
X0292224Y0096763D01*
X0292163Y0096700D01*
X0292100Y0096639D01*
X0292035Y0096582D01*
X0291967Y0096527D01*
X0291896Y0096476D01*
X0291824Y0096427D01*
X0291749Y0096382D01*
X0291672Y0096340D01*
X0291594Y0096301D01*
X0291514Y0096266D01*
X0291433Y0096235D01*
X0291350Y0096207D01*
X0291267Y0096182D01*
X0291182Y0096161D01*
X0291096Y0096144D01*
X0291010Y0096131D01*
X0290923Y0096122D01*
X0290836Y0096116D01*
X0290749Y0096114D01*
X0277749Y0096114D01*
X0277662Y0096116D01*
X0277575Y0096122D01*
X0277488Y0096131D01*
X0277402Y0096144D01*
X0277316Y0096161D01*
X0277231Y0096182D01*
X0277148Y0096207D01*
X0277065Y0096235D01*
X0276984Y0096266D01*
X0276904Y0096301D01*
X0276826Y0096340D01*
X0276749Y0096382D01*
X0276674Y0096427D01*
X0276602Y0096476D01*
X0276531Y0096527D01*
X0276463Y0096582D01*
X0276398Y0096639D01*
X0276335Y0096700D01*
X0276274Y0096763D01*
X0276217Y0096828D01*
X0276162Y0096896D01*
X0276111Y0096967D01*
X0276062Y0097039D01*
X0276017Y0097114D01*
X0275975Y0097191D01*
X0275936Y0097269D01*
X0275901Y0097349D01*
X0275870Y0097430D01*
X0275842Y0097513D01*
X0275817Y0097596D01*
X0275796Y0097681D01*
X0275779Y0097767D01*
X0275766Y0097853D01*
X0275757Y0097940D01*
X0275751Y0098027D01*
X0275749Y0098114D01*
X0268438Y0042519D02*
X0295209Y0042519D01*
X0295209Y0015747D01*
X0268438Y0015747D01*
X0268438Y0042519D01*
X0269609Y0039933D02*
X0269611Y0040008D01*
X0269617Y0040082D01*
X0269627Y0040156D01*
X0269640Y0040229D01*
X0269658Y0040302D01*
X0269679Y0040373D01*
X0269704Y0040444D01*
X0269733Y0040513D01*
X0269766Y0040580D01*
X0269802Y0040645D01*
X0269841Y0040709D01*
X0269883Y0040770D01*
X0269929Y0040829D01*
X0269978Y0040886D01*
X0270030Y0040939D01*
X0270084Y0040990D01*
X0270141Y0041039D01*
X0270201Y0041083D01*
X0270263Y0041125D01*
X0270327Y0041164D01*
X0270393Y0041199D01*
X0270460Y0041230D01*
X0270530Y0041258D01*
X0270600Y0041282D01*
X0270672Y0041303D01*
X0270745Y0041319D01*
X0270818Y0041332D01*
X0270893Y0041341D01*
X0270967Y0041346D01*
X0271042Y0041347D01*
X0271116Y0041344D01*
X0271191Y0041337D01*
X0271264Y0041326D01*
X0271338Y0041312D01*
X0271410Y0041293D01*
X0271481Y0041271D01*
X0271551Y0041245D01*
X0271620Y0041215D01*
X0271686Y0041182D01*
X0271751Y0041145D01*
X0271814Y0041105D01*
X0271875Y0041061D01*
X0271933Y0041015D01*
X0271989Y0040965D01*
X0272042Y0040913D01*
X0272093Y0040858D01*
X0272140Y0040800D01*
X0272184Y0040740D01*
X0272225Y0040677D01*
X0272263Y0040613D01*
X0272297Y0040547D01*
X0272328Y0040478D01*
X0272355Y0040409D01*
X0272378Y0040338D01*
X0272397Y0040266D01*
X0272413Y0040193D01*
X0272425Y0040119D01*
X0272433Y0040045D01*
X0272437Y0039970D01*
X0272437Y0039896D01*
X0272433Y0039821D01*
X0272425Y0039747D01*
X0272413Y0039673D01*
X0272397Y0039600D01*
X0272378Y0039528D01*
X0272355Y0039457D01*
X0272328Y0039388D01*
X0272297Y0039319D01*
X0272263Y0039253D01*
X0272225Y0039189D01*
X0272184Y0039126D01*
X0272140Y0039066D01*
X0272093Y0039008D01*
X0272042Y0038953D01*
X0271989Y0038901D01*
X0271933Y0038851D01*
X0271875Y0038805D01*
X0271814Y0038761D01*
X0271751Y0038721D01*
X0271686Y0038684D01*
X0271620Y0038651D01*
X0271551Y0038621D01*
X0271481Y0038595D01*
X0271410Y0038573D01*
X0271338Y0038554D01*
X0271264Y0038540D01*
X0271191Y0038529D01*
X0271116Y0038522D01*
X0271042Y0038519D01*
X0270967Y0038520D01*
X0270893Y0038525D01*
X0270818Y0038534D01*
X0270745Y0038547D01*
X0270672Y0038563D01*
X0270600Y0038584D01*
X0270530Y0038608D01*
X0270460Y0038636D01*
X0270393Y0038667D01*
X0270327Y0038702D01*
X0270263Y0038741D01*
X0270201Y0038783D01*
X0270141Y0038827D01*
X0270084Y0038876D01*
X0270030Y0038927D01*
X0269978Y0038980D01*
X0269929Y0039037D01*
X0269883Y0039096D01*
X0269841Y0039157D01*
X0269802Y0039221D01*
X0269766Y0039286D01*
X0269733Y0039353D01*
X0269704Y0039422D01*
X0269679Y0039493D01*
X0269658Y0039564D01*
X0269640Y0039637D01*
X0269627Y0039710D01*
X0269617Y0039784D01*
X0269611Y0039858D01*
X0269609Y0039933D01*
X0243953Y0041259D02*
X0243953Y0017259D01*
X0243951Y0017099D01*
X0243945Y0016940D01*
X0243935Y0016781D01*
X0243922Y0016622D01*
X0243904Y0016463D01*
X0243883Y0016305D01*
X0243857Y0016148D01*
X0243828Y0015991D01*
X0243795Y0015835D01*
X0243758Y0015680D01*
X0243718Y0015525D01*
X0243673Y0015372D01*
X0243625Y0015220D01*
X0243573Y0015069D01*
X0243517Y0014920D01*
X0243458Y0014772D01*
X0243395Y0014625D01*
X0243329Y0014480D01*
X0243259Y0014337D01*
X0243185Y0014195D01*
X0243109Y0014055D01*
X0243028Y0013917D01*
X0242945Y0013782D01*
X0242858Y0013648D01*
X0242767Y0013516D01*
X0242674Y0013387D01*
X0242577Y0013260D01*
X0242478Y0013135D01*
X0242375Y0013013D01*
X0242269Y0012894D01*
X0242161Y0012777D01*
X0242049Y0012663D01*
X0241935Y0012551D01*
X0241818Y0012443D01*
X0241699Y0012337D01*
X0241577Y0012234D01*
X0241452Y0012135D01*
X0241325Y0012038D01*
X0241196Y0011945D01*
X0241064Y0011854D01*
X0240930Y0011767D01*
X0240795Y0011684D01*
X0240657Y0011603D01*
X0240517Y0011527D01*
X0240375Y0011453D01*
X0240232Y0011383D01*
X0240087Y0011317D01*
X0239940Y0011254D01*
X0239792Y0011195D01*
X0239643Y0011139D01*
X0239492Y0011087D01*
X0239340Y0011039D01*
X0239187Y0010994D01*
X0239032Y0010954D01*
X0238877Y0010917D01*
X0238721Y0010884D01*
X0238564Y0010855D01*
X0238407Y0010829D01*
X0238249Y0010808D01*
X0238090Y0010790D01*
X0237931Y0010777D01*
X0237772Y0010767D01*
X0237613Y0010761D01*
X0237453Y0010759D01*
X0237293Y0010761D01*
X0237134Y0010767D01*
X0236975Y0010777D01*
X0236816Y0010790D01*
X0236657Y0010808D01*
X0236499Y0010829D01*
X0236342Y0010855D01*
X0236185Y0010884D01*
X0236029Y0010917D01*
X0235874Y0010954D01*
X0235719Y0010994D01*
X0235566Y0011039D01*
X0235414Y0011087D01*
X0235263Y0011139D01*
X0235114Y0011195D01*
X0234966Y0011254D01*
X0234819Y0011317D01*
X0234674Y0011383D01*
X0234531Y0011453D01*
X0234389Y0011527D01*
X0234249Y0011603D01*
X0234111Y0011684D01*
X0233976Y0011767D01*
X0233842Y0011854D01*
X0233710Y0011945D01*
X0233581Y0012038D01*
X0233454Y0012135D01*
X0233329Y0012234D01*
X0233207Y0012337D01*
X0233088Y0012443D01*
X0232971Y0012551D01*
X0232857Y0012663D01*
X0232745Y0012777D01*
X0232637Y0012894D01*
X0232531Y0013013D01*
X0232428Y0013135D01*
X0232329Y0013260D01*
X0232232Y0013387D01*
X0232139Y0013516D01*
X0232048Y0013648D01*
X0231961Y0013782D01*
X0231878Y0013917D01*
X0231797Y0014055D01*
X0231721Y0014195D01*
X0231647Y0014337D01*
X0231577Y0014480D01*
X0231511Y0014625D01*
X0231448Y0014772D01*
X0231389Y0014920D01*
X0231333Y0015069D01*
X0231281Y0015220D01*
X0231233Y0015372D01*
X0231188Y0015525D01*
X0231148Y0015680D01*
X0231111Y0015835D01*
X0231078Y0015991D01*
X0231049Y0016148D01*
X0231023Y0016305D01*
X0231002Y0016463D01*
X0230984Y0016622D01*
X0230971Y0016781D01*
X0230961Y0016940D01*
X0230955Y0017099D01*
X0230953Y0017259D01*
X0230953Y0041259D01*
X0230955Y0041419D01*
X0230961Y0041578D01*
X0230971Y0041737D01*
X0230984Y0041896D01*
X0231002Y0042055D01*
X0231023Y0042213D01*
X0231049Y0042370D01*
X0231078Y0042527D01*
X0231111Y0042683D01*
X0231148Y0042838D01*
X0231188Y0042993D01*
X0231233Y0043146D01*
X0231281Y0043298D01*
X0231333Y0043449D01*
X0231389Y0043598D01*
X0231448Y0043746D01*
X0231511Y0043893D01*
X0231577Y0044038D01*
X0231647Y0044181D01*
X0231721Y0044323D01*
X0231797Y0044463D01*
X0231878Y0044601D01*
X0231961Y0044736D01*
X0232048Y0044870D01*
X0232139Y0045002D01*
X0232232Y0045131D01*
X0232329Y0045258D01*
X0232428Y0045383D01*
X0232531Y0045505D01*
X0232637Y0045624D01*
X0232745Y0045741D01*
X0232857Y0045855D01*
X0232971Y0045967D01*
X0233088Y0046075D01*
X0233207Y0046181D01*
X0233329Y0046284D01*
X0233454Y0046383D01*
X0233581Y0046480D01*
X0233710Y0046573D01*
X0233842Y0046664D01*
X0233976Y0046751D01*
X0234111Y0046834D01*
X0234249Y0046915D01*
X0234389Y0046991D01*
X0234531Y0047065D01*
X0234674Y0047135D01*
X0234819Y0047201D01*
X0234966Y0047264D01*
X0235114Y0047323D01*
X0235263Y0047379D01*
X0235414Y0047431D01*
X0235566Y0047479D01*
X0235719Y0047524D01*
X0235874Y0047564D01*
X0236029Y0047601D01*
X0236185Y0047634D01*
X0236342Y0047663D01*
X0236499Y0047689D01*
X0236657Y0047710D01*
X0236816Y0047728D01*
X0236975Y0047741D01*
X0237134Y0047751D01*
X0237293Y0047757D01*
X0237453Y0047759D01*
X0237613Y0047757D01*
X0237772Y0047751D01*
X0237931Y0047741D01*
X0238090Y0047728D01*
X0238249Y0047710D01*
X0238407Y0047689D01*
X0238564Y0047663D01*
X0238721Y0047634D01*
X0238877Y0047601D01*
X0239032Y0047564D01*
X0239187Y0047524D01*
X0239340Y0047479D01*
X0239492Y0047431D01*
X0239643Y0047379D01*
X0239792Y0047323D01*
X0239940Y0047264D01*
X0240087Y0047201D01*
X0240232Y0047135D01*
X0240375Y0047065D01*
X0240517Y0046991D01*
X0240657Y0046915D01*
X0240795Y0046834D01*
X0240930Y0046751D01*
X0241064Y0046664D01*
X0241196Y0046573D01*
X0241325Y0046480D01*
X0241452Y0046383D01*
X0241577Y0046284D01*
X0241699Y0046181D01*
X0241818Y0046075D01*
X0241935Y0045967D01*
X0242049Y0045855D01*
X0242161Y0045741D01*
X0242269Y0045624D01*
X0242375Y0045505D01*
X0242478Y0045383D01*
X0242577Y0045258D01*
X0242674Y0045131D01*
X0242767Y0045002D01*
X0242858Y0044870D01*
X0242945Y0044736D01*
X0243028Y0044601D01*
X0243109Y0044463D01*
X0243185Y0044323D01*
X0243259Y0044181D01*
X0243329Y0044038D01*
X0243395Y0043893D01*
X0243458Y0043746D01*
X0243517Y0043598D01*
X0243573Y0043449D01*
X0243625Y0043298D01*
X0243673Y0043146D01*
X0243718Y0042993D01*
X0243758Y0042838D01*
X0243795Y0042683D01*
X0243828Y0042527D01*
X0243857Y0042370D01*
X0243883Y0042213D01*
X0243904Y0042055D01*
X0243922Y0041896D01*
X0243935Y0041737D01*
X0243945Y0041578D01*
X0243951Y0041419D01*
X0243953Y0041259D01*
X0237453Y0034259D02*
X0237453Y0031759D01*
X0240453Y0031759D01*
X0240453Y0030259D02*
X0240453Y0028259D01*
X0234453Y0028259D01*
X0234453Y0030259D01*
X0240453Y0030259D01*
X0237453Y0031759D02*
X0234453Y0031759D01*
X0234453Y0026759D02*
X0237453Y0026759D01*
X0237453Y0024259D01*
X0237453Y0026759D02*
X0240453Y0026759D01*
X0313150Y0027247D02*
X0313150Y0032247D01*
X0313152Y0032334D01*
X0313158Y0032421D01*
X0313167Y0032508D01*
X0313180Y0032594D01*
X0313197Y0032680D01*
X0313218Y0032765D01*
X0313243Y0032848D01*
X0313271Y0032931D01*
X0313302Y0033012D01*
X0313337Y0033092D01*
X0313376Y0033170D01*
X0313418Y0033247D01*
X0313463Y0033322D01*
X0313512Y0033394D01*
X0313563Y0033465D01*
X0313618Y0033533D01*
X0313675Y0033598D01*
X0313736Y0033661D01*
X0313799Y0033722D01*
X0313864Y0033779D01*
X0313932Y0033834D01*
X0314003Y0033885D01*
X0314075Y0033934D01*
X0314150Y0033979D01*
X0314227Y0034021D01*
X0314305Y0034060D01*
X0314385Y0034095D01*
X0314466Y0034126D01*
X0314549Y0034154D01*
X0314632Y0034179D01*
X0314717Y0034200D01*
X0314803Y0034217D01*
X0314889Y0034230D01*
X0314976Y0034239D01*
X0315063Y0034245D01*
X0315150Y0034247D01*
X0328150Y0034247D01*
X0328237Y0034245D01*
X0328324Y0034239D01*
X0328411Y0034230D01*
X0328497Y0034217D01*
X0328583Y0034200D01*
X0328668Y0034179D01*
X0328751Y0034154D01*
X0328834Y0034126D01*
X0328915Y0034095D01*
X0328995Y0034060D01*
X0329073Y0034021D01*
X0329150Y0033979D01*
X0329225Y0033934D01*
X0329297Y0033885D01*
X0329368Y0033834D01*
X0329436Y0033779D01*
X0329501Y0033722D01*
X0329564Y0033661D01*
X0329625Y0033598D01*
X0329682Y0033533D01*
X0329737Y0033465D01*
X0329788Y0033394D01*
X0329837Y0033322D01*
X0329882Y0033247D01*
X0329924Y0033170D01*
X0329963Y0033092D01*
X0329998Y0033012D01*
X0330029Y0032931D01*
X0330057Y0032848D01*
X0330082Y0032765D01*
X0330103Y0032680D01*
X0330120Y0032594D01*
X0330133Y0032508D01*
X0330142Y0032421D01*
X0330148Y0032334D01*
X0330150Y0032247D01*
X0330150Y0027247D01*
X0330148Y0027160D01*
X0330142Y0027073D01*
X0330133Y0026986D01*
X0330120Y0026900D01*
X0330103Y0026814D01*
X0330082Y0026729D01*
X0330057Y0026646D01*
X0330029Y0026563D01*
X0329998Y0026482D01*
X0329963Y0026402D01*
X0329924Y0026324D01*
X0329882Y0026247D01*
X0329837Y0026172D01*
X0329788Y0026100D01*
X0329737Y0026029D01*
X0329682Y0025961D01*
X0329625Y0025896D01*
X0329564Y0025833D01*
X0329501Y0025772D01*
X0329436Y0025715D01*
X0329368Y0025660D01*
X0329297Y0025609D01*
X0329225Y0025560D01*
X0329150Y0025515D01*
X0329073Y0025473D01*
X0328995Y0025434D01*
X0328915Y0025399D01*
X0328834Y0025368D01*
X0328751Y0025340D01*
X0328668Y0025315D01*
X0328583Y0025294D01*
X0328497Y0025277D01*
X0328411Y0025264D01*
X0328324Y0025255D01*
X0328237Y0025249D01*
X0328150Y0025247D01*
X0315150Y0025247D01*
X0315063Y0025249D01*
X0314976Y0025255D01*
X0314889Y0025264D01*
X0314803Y0025277D01*
X0314717Y0025294D01*
X0314632Y0025315D01*
X0314549Y0025340D01*
X0314466Y0025368D01*
X0314385Y0025399D01*
X0314305Y0025434D01*
X0314227Y0025473D01*
X0314150Y0025515D01*
X0314075Y0025560D01*
X0314003Y0025609D01*
X0313932Y0025660D01*
X0313864Y0025715D01*
X0313799Y0025772D01*
X0313736Y0025833D01*
X0313675Y0025896D01*
X0313618Y0025961D01*
X0313563Y0026029D01*
X0313512Y0026100D01*
X0313463Y0026172D01*
X0313418Y0026247D01*
X0313376Y0026324D01*
X0313337Y0026402D01*
X0313302Y0026482D01*
X0313271Y0026563D01*
X0313243Y0026646D01*
X0313218Y0026729D01*
X0313197Y0026814D01*
X0313180Y0026900D01*
X0313167Y0026986D01*
X0313158Y0027073D01*
X0313152Y0027160D01*
X0313150Y0027247D01*
X0352520Y0057169D02*
X0352520Y0062169D01*
X0352522Y0062256D01*
X0352528Y0062343D01*
X0352537Y0062430D01*
X0352550Y0062516D01*
X0352567Y0062602D01*
X0352588Y0062687D01*
X0352613Y0062770D01*
X0352641Y0062853D01*
X0352672Y0062934D01*
X0352707Y0063014D01*
X0352746Y0063092D01*
X0352788Y0063169D01*
X0352833Y0063244D01*
X0352882Y0063316D01*
X0352933Y0063387D01*
X0352988Y0063455D01*
X0353045Y0063520D01*
X0353106Y0063583D01*
X0353169Y0063644D01*
X0353234Y0063701D01*
X0353302Y0063756D01*
X0353373Y0063807D01*
X0353445Y0063856D01*
X0353520Y0063901D01*
X0353597Y0063943D01*
X0353675Y0063982D01*
X0353755Y0064017D01*
X0353836Y0064048D01*
X0353919Y0064076D01*
X0354002Y0064101D01*
X0354087Y0064122D01*
X0354173Y0064139D01*
X0354259Y0064152D01*
X0354346Y0064161D01*
X0354433Y0064167D01*
X0354520Y0064169D01*
X0367520Y0064169D01*
X0367607Y0064167D01*
X0367694Y0064161D01*
X0367781Y0064152D01*
X0367867Y0064139D01*
X0367953Y0064122D01*
X0368038Y0064101D01*
X0368121Y0064076D01*
X0368204Y0064048D01*
X0368285Y0064017D01*
X0368365Y0063982D01*
X0368443Y0063943D01*
X0368520Y0063901D01*
X0368595Y0063856D01*
X0368667Y0063807D01*
X0368738Y0063756D01*
X0368806Y0063701D01*
X0368871Y0063644D01*
X0368934Y0063583D01*
X0368995Y0063520D01*
X0369052Y0063455D01*
X0369107Y0063387D01*
X0369158Y0063316D01*
X0369207Y0063244D01*
X0369252Y0063169D01*
X0369294Y0063092D01*
X0369333Y0063014D01*
X0369368Y0062934D01*
X0369399Y0062853D01*
X0369427Y0062770D01*
X0369452Y0062687D01*
X0369473Y0062602D01*
X0369490Y0062516D01*
X0369503Y0062430D01*
X0369512Y0062343D01*
X0369518Y0062256D01*
X0369520Y0062169D01*
X0369520Y0057169D01*
X0369518Y0057082D01*
X0369512Y0056995D01*
X0369503Y0056908D01*
X0369490Y0056822D01*
X0369473Y0056736D01*
X0369452Y0056651D01*
X0369427Y0056568D01*
X0369399Y0056485D01*
X0369368Y0056404D01*
X0369333Y0056324D01*
X0369294Y0056246D01*
X0369252Y0056169D01*
X0369207Y0056094D01*
X0369158Y0056022D01*
X0369107Y0055951D01*
X0369052Y0055883D01*
X0368995Y0055818D01*
X0368934Y0055755D01*
X0368871Y0055694D01*
X0368806Y0055637D01*
X0368738Y0055582D01*
X0368667Y0055531D01*
X0368595Y0055482D01*
X0368520Y0055437D01*
X0368443Y0055395D01*
X0368365Y0055356D01*
X0368285Y0055321D01*
X0368204Y0055290D01*
X0368121Y0055262D01*
X0368038Y0055237D01*
X0367953Y0055216D01*
X0367867Y0055199D01*
X0367781Y0055186D01*
X0367694Y0055177D01*
X0367607Y0055171D01*
X0367520Y0055169D01*
X0354520Y0055169D01*
X0354433Y0055171D01*
X0354346Y0055177D01*
X0354259Y0055186D01*
X0354173Y0055199D01*
X0354087Y0055216D01*
X0354002Y0055237D01*
X0353919Y0055262D01*
X0353836Y0055290D01*
X0353755Y0055321D01*
X0353675Y0055356D01*
X0353597Y0055395D01*
X0353520Y0055437D01*
X0353445Y0055482D01*
X0353373Y0055531D01*
X0353302Y0055582D01*
X0353234Y0055637D01*
X0353169Y0055694D01*
X0353106Y0055755D01*
X0353045Y0055818D01*
X0352988Y0055883D01*
X0352933Y0055951D01*
X0352882Y0056022D01*
X0352833Y0056094D01*
X0352788Y0056169D01*
X0352746Y0056246D01*
X0352707Y0056324D01*
X0352672Y0056404D01*
X0352641Y0056485D01*
X0352613Y0056568D01*
X0352588Y0056651D01*
X0352567Y0056736D01*
X0352550Y0056822D01*
X0352537Y0056908D01*
X0352528Y0056995D01*
X0352522Y0057082D01*
X0352520Y0057169D01*
X0382388Y0026532D02*
X0381320Y0025464D01*
X0381320Y0024396D01*
X0382388Y0023329D01*
X0384523Y0023329D01*
X0385591Y0022261D01*
X0385591Y0021194D01*
X0384523Y0020126D01*
X0382388Y0020126D01*
X0381320Y0021194D01*
X0382388Y0026532D02*
X0384523Y0026532D01*
X0385591Y0025464D01*
X0387766Y0026532D02*
X0387766Y0020126D01*
X0392036Y0020126D01*
X0394211Y0020126D02*
X0394211Y0026532D01*
X0397414Y0026532D01*
X0398482Y0025464D01*
X0398482Y0023329D01*
X0397414Y0022261D01*
X0394211Y0022261D01*
X0396346Y0022261D02*
X0398482Y0020126D01*
X0400657Y0020126D02*
X0402792Y0020126D01*
X0401724Y0020126D02*
X0401724Y0026532D01*
X0400657Y0026532D02*
X0402792Y0026532D01*
X0404954Y0024396D02*
X0404954Y0020126D01*
X0404954Y0023329D02*
X0409224Y0023329D01*
X0409224Y0024396D02*
X0409224Y0020126D01*
X0411399Y0020126D02*
X0415670Y0020126D01*
X0411399Y0020126D02*
X0411399Y0026532D01*
X0409224Y0024396D02*
X0407089Y0026532D01*
X0404954Y0024396D01*
X0392036Y0026532D02*
X0387766Y0026532D01*
X0387766Y0023329D02*
X0389901Y0023329D01*
X0436950Y0045284D02*
X0439085Y0045284D01*
X0438018Y0045284D02*
X0438018Y0051689D01*
X0439085Y0051689D02*
X0436950Y0051689D01*
X0441247Y0050621D02*
X0441247Y0049554D01*
X0442315Y0048486D01*
X0444450Y0048486D01*
X0445518Y0047419D01*
X0445518Y0046351D01*
X0444450Y0045284D01*
X0442315Y0045284D01*
X0441247Y0046351D01*
X0441247Y0050621D02*
X0442315Y0051689D01*
X0444450Y0051689D01*
X0445518Y0050621D01*
X0447693Y0051689D02*
X0447693Y0045284D01*
X0447693Y0047419D02*
X0450895Y0047419D01*
X0451963Y0048486D01*
X0451963Y0050621D01*
X0450895Y0051689D01*
X0447693Y0051689D01*
X0406890Y0096114D02*
X0393890Y0096114D01*
X0393803Y0096116D01*
X0393716Y0096122D01*
X0393629Y0096131D01*
X0393543Y0096144D01*
X0393457Y0096161D01*
X0393372Y0096182D01*
X0393289Y0096207D01*
X0393206Y0096235D01*
X0393125Y0096266D01*
X0393045Y0096301D01*
X0392967Y0096340D01*
X0392890Y0096382D01*
X0392815Y0096427D01*
X0392743Y0096476D01*
X0392672Y0096527D01*
X0392604Y0096582D01*
X0392539Y0096639D01*
X0392476Y0096700D01*
X0392415Y0096763D01*
X0392358Y0096828D01*
X0392303Y0096896D01*
X0392252Y0096967D01*
X0392203Y0097039D01*
X0392158Y0097114D01*
X0392116Y0097191D01*
X0392077Y0097269D01*
X0392042Y0097349D01*
X0392011Y0097430D01*
X0391983Y0097513D01*
X0391958Y0097596D01*
X0391937Y0097681D01*
X0391920Y0097767D01*
X0391907Y0097853D01*
X0391898Y0097940D01*
X0391892Y0098027D01*
X0391890Y0098114D01*
X0391890Y0103114D01*
X0391892Y0103201D01*
X0391898Y0103288D01*
X0391907Y0103375D01*
X0391920Y0103461D01*
X0391937Y0103547D01*
X0391958Y0103632D01*
X0391983Y0103715D01*
X0392011Y0103798D01*
X0392042Y0103879D01*
X0392077Y0103959D01*
X0392116Y0104037D01*
X0392158Y0104114D01*
X0392203Y0104189D01*
X0392252Y0104261D01*
X0392303Y0104332D01*
X0392358Y0104400D01*
X0392415Y0104465D01*
X0392476Y0104528D01*
X0392539Y0104589D01*
X0392604Y0104646D01*
X0392672Y0104701D01*
X0392743Y0104752D01*
X0392815Y0104801D01*
X0392890Y0104846D01*
X0392967Y0104888D01*
X0393045Y0104927D01*
X0393125Y0104962D01*
X0393206Y0104993D01*
X0393289Y0105021D01*
X0393372Y0105046D01*
X0393457Y0105067D01*
X0393543Y0105084D01*
X0393629Y0105097D01*
X0393716Y0105106D01*
X0393803Y0105112D01*
X0393890Y0105114D01*
X0406890Y0105114D01*
X0406977Y0105112D01*
X0407064Y0105106D01*
X0407151Y0105097D01*
X0407237Y0105084D01*
X0407323Y0105067D01*
X0407408Y0105046D01*
X0407491Y0105021D01*
X0407574Y0104993D01*
X0407655Y0104962D01*
X0407735Y0104927D01*
X0407813Y0104888D01*
X0407890Y0104846D01*
X0407965Y0104801D01*
X0408037Y0104752D01*
X0408108Y0104701D01*
X0408176Y0104646D01*
X0408241Y0104589D01*
X0408304Y0104528D01*
X0408365Y0104465D01*
X0408422Y0104400D01*
X0408477Y0104332D01*
X0408528Y0104261D01*
X0408577Y0104189D01*
X0408622Y0104114D01*
X0408664Y0104037D01*
X0408703Y0103959D01*
X0408738Y0103879D01*
X0408769Y0103798D01*
X0408797Y0103715D01*
X0408822Y0103632D01*
X0408843Y0103547D01*
X0408860Y0103461D01*
X0408873Y0103375D01*
X0408882Y0103288D01*
X0408888Y0103201D01*
X0408890Y0103114D01*
X0408890Y0098114D01*
X0408888Y0098027D01*
X0408882Y0097940D01*
X0408873Y0097853D01*
X0408860Y0097767D01*
X0408843Y0097681D01*
X0408822Y0097596D01*
X0408797Y0097513D01*
X0408769Y0097430D01*
X0408738Y0097349D01*
X0408703Y0097269D01*
X0408664Y0097191D01*
X0408622Y0097114D01*
X0408577Y0097039D01*
X0408528Y0096967D01*
X0408477Y0096896D01*
X0408422Y0096828D01*
X0408365Y0096763D01*
X0408304Y0096700D01*
X0408241Y0096639D01*
X0408176Y0096582D01*
X0408108Y0096527D01*
X0408037Y0096476D01*
X0407965Y0096427D01*
X0407890Y0096382D01*
X0407813Y0096340D01*
X0407735Y0096301D01*
X0407655Y0096266D01*
X0407574Y0096235D01*
X0407491Y0096207D01*
X0407408Y0096182D01*
X0407323Y0096161D01*
X0407237Y0096144D01*
X0407151Y0096131D01*
X0407064Y0096122D01*
X0406977Y0096116D01*
X0406890Y0096114D01*
X0365583Y0098114D02*
X0365583Y0103114D01*
X0365581Y0103201D01*
X0365575Y0103288D01*
X0365566Y0103375D01*
X0365553Y0103461D01*
X0365536Y0103547D01*
X0365515Y0103632D01*
X0365490Y0103715D01*
X0365462Y0103798D01*
X0365431Y0103879D01*
X0365396Y0103959D01*
X0365357Y0104037D01*
X0365315Y0104114D01*
X0365270Y0104189D01*
X0365221Y0104261D01*
X0365170Y0104332D01*
X0365115Y0104400D01*
X0365058Y0104465D01*
X0364997Y0104528D01*
X0364934Y0104589D01*
X0364869Y0104646D01*
X0364801Y0104701D01*
X0364730Y0104752D01*
X0364658Y0104801D01*
X0364583Y0104846D01*
X0364506Y0104888D01*
X0364428Y0104927D01*
X0364348Y0104962D01*
X0364267Y0104993D01*
X0364184Y0105021D01*
X0364101Y0105046D01*
X0364016Y0105067D01*
X0363930Y0105084D01*
X0363844Y0105097D01*
X0363757Y0105106D01*
X0363670Y0105112D01*
X0363583Y0105114D01*
X0350583Y0105114D01*
X0350496Y0105112D01*
X0350409Y0105106D01*
X0350322Y0105097D01*
X0350236Y0105084D01*
X0350150Y0105067D01*
X0350065Y0105046D01*
X0349982Y0105021D01*
X0349899Y0104993D01*
X0349818Y0104962D01*
X0349738Y0104927D01*
X0349660Y0104888D01*
X0349583Y0104846D01*
X0349508Y0104801D01*
X0349436Y0104752D01*
X0349365Y0104701D01*
X0349297Y0104646D01*
X0349232Y0104589D01*
X0349169Y0104528D01*
X0349108Y0104465D01*
X0349051Y0104400D01*
X0348996Y0104332D01*
X0348945Y0104261D01*
X0348896Y0104189D01*
X0348851Y0104114D01*
X0348809Y0104037D01*
X0348770Y0103959D01*
X0348735Y0103879D01*
X0348704Y0103798D01*
X0348676Y0103715D01*
X0348651Y0103632D01*
X0348630Y0103547D01*
X0348613Y0103461D01*
X0348600Y0103375D01*
X0348591Y0103288D01*
X0348585Y0103201D01*
X0348583Y0103114D01*
X0348583Y0098114D01*
X0348585Y0098027D01*
X0348591Y0097940D01*
X0348600Y0097853D01*
X0348613Y0097767D01*
X0348630Y0097681D01*
X0348651Y0097596D01*
X0348676Y0097513D01*
X0348704Y0097430D01*
X0348735Y0097349D01*
X0348770Y0097269D01*
X0348809Y0097191D01*
X0348851Y0097114D01*
X0348896Y0097039D01*
X0348945Y0096967D01*
X0348996Y0096896D01*
X0349051Y0096828D01*
X0349108Y0096763D01*
X0349169Y0096700D01*
X0349232Y0096639D01*
X0349297Y0096582D01*
X0349365Y0096527D01*
X0349436Y0096476D01*
X0349508Y0096427D01*
X0349583Y0096382D01*
X0349660Y0096340D01*
X0349738Y0096301D01*
X0349818Y0096266D01*
X0349899Y0096235D01*
X0349982Y0096207D01*
X0350065Y0096182D01*
X0350150Y0096161D01*
X0350236Y0096144D01*
X0350322Y0096131D01*
X0350409Y0096122D01*
X0350496Y0096116D01*
X0350583Y0096114D01*
X0363583Y0096114D01*
X0363670Y0096116D01*
X0363757Y0096122D01*
X0363844Y0096131D01*
X0363930Y0096144D01*
X0364016Y0096161D01*
X0364101Y0096182D01*
X0364184Y0096207D01*
X0364267Y0096235D01*
X0364348Y0096266D01*
X0364428Y0096301D01*
X0364506Y0096340D01*
X0364583Y0096382D01*
X0364658Y0096427D01*
X0364730Y0096476D01*
X0364801Y0096527D01*
X0364869Y0096582D01*
X0364934Y0096639D01*
X0364997Y0096700D01*
X0365058Y0096763D01*
X0365115Y0096828D01*
X0365170Y0096896D01*
X0365221Y0096967D01*
X0365270Y0097039D01*
X0365315Y0097114D01*
X0365357Y0097191D01*
X0365396Y0097269D01*
X0365431Y0097349D01*
X0365462Y0097430D01*
X0365490Y0097513D01*
X0365515Y0097596D01*
X0365536Y0097681D01*
X0365553Y0097767D01*
X0365566Y0097853D01*
X0365575Y0097940D01*
X0365581Y0098027D01*
X0365583Y0098114D01*
X0359646Y0174854D02*
X0346646Y0174854D01*
X0346559Y0174856D01*
X0346472Y0174862D01*
X0346385Y0174871D01*
X0346299Y0174884D01*
X0346213Y0174901D01*
X0346128Y0174922D01*
X0346045Y0174947D01*
X0345962Y0174975D01*
X0345881Y0175006D01*
X0345801Y0175041D01*
X0345723Y0175080D01*
X0345646Y0175122D01*
X0345571Y0175167D01*
X0345499Y0175216D01*
X0345428Y0175267D01*
X0345360Y0175322D01*
X0345295Y0175379D01*
X0345232Y0175440D01*
X0345171Y0175503D01*
X0345114Y0175568D01*
X0345059Y0175636D01*
X0345008Y0175707D01*
X0344959Y0175779D01*
X0344914Y0175854D01*
X0344872Y0175931D01*
X0344833Y0176009D01*
X0344798Y0176089D01*
X0344767Y0176170D01*
X0344739Y0176253D01*
X0344714Y0176336D01*
X0344693Y0176421D01*
X0344676Y0176507D01*
X0344663Y0176593D01*
X0344654Y0176680D01*
X0344648Y0176767D01*
X0344646Y0176854D01*
X0344646Y0181854D01*
X0344648Y0181941D01*
X0344654Y0182028D01*
X0344663Y0182115D01*
X0344676Y0182201D01*
X0344693Y0182287D01*
X0344714Y0182372D01*
X0344739Y0182455D01*
X0344767Y0182538D01*
X0344798Y0182619D01*
X0344833Y0182699D01*
X0344872Y0182777D01*
X0344914Y0182854D01*
X0344959Y0182929D01*
X0345008Y0183001D01*
X0345059Y0183072D01*
X0345114Y0183140D01*
X0345171Y0183205D01*
X0345232Y0183268D01*
X0345295Y0183329D01*
X0345360Y0183386D01*
X0345428Y0183441D01*
X0345499Y0183492D01*
X0345571Y0183541D01*
X0345646Y0183586D01*
X0345723Y0183628D01*
X0345801Y0183667D01*
X0345881Y0183702D01*
X0345962Y0183733D01*
X0346045Y0183761D01*
X0346128Y0183786D01*
X0346213Y0183807D01*
X0346299Y0183824D01*
X0346385Y0183837D01*
X0346472Y0183846D01*
X0346559Y0183852D01*
X0346646Y0183854D01*
X0359646Y0183854D01*
X0359733Y0183852D01*
X0359820Y0183846D01*
X0359907Y0183837D01*
X0359993Y0183824D01*
X0360079Y0183807D01*
X0360164Y0183786D01*
X0360247Y0183761D01*
X0360330Y0183733D01*
X0360411Y0183702D01*
X0360491Y0183667D01*
X0360569Y0183628D01*
X0360646Y0183586D01*
X0360721Y0183541D01*
X0360793Y0183492D01*
X0360864Y0183441D01*
X0360932Y0183386D01*
X0360997Y0183329D01*
X0361060Y0183268D01*
X0361121Y0183205D01*
X0361178Y0183140D01*
X0361233Y0183072D01*
X0361284Y0183001D01*
X0361333Y0182929D01*
X0361378Y0182854D01*
X0361420Y0182777D01*
X0361459Y0182699D01*
X0361494Y0182619D01*
X0361525Y0182538D01*
X0361553Y0182455D01*
X0361578Y0182372D01*
X0361599Y0182287D01*
X0361616Y0182201D01*
X0361629Y0182115D01*
X0361638Y0182028D01*
X0361644Y0181941D01*
X0361646Y0181854D01*
X0361646Y0176854D01*
X0361644Y0176767D01*
X0361638Y0176680D01*
X0361629Y0176593D01*
X0361616Y0176507D01*
X0361599Y0176421D01*
X0361578Y0176336D01*
X0361553Y0176253D01*
X0361525Y0176170D01*
X0361494Y0176089D01*
X0361459Y0176009D01*
X0361420Y0175931D01*
X0361378Y0175854D01*
X0361333Y0175779D01*
X0361284Y0175707D01*
X0361233Y0175636D01*
X0361178Y0175568D01*
X0361121Y0175503D01*
X0361060Y0175440D01*
X0360997Y0175379D01*
X0360932Y0175322D01*
X0360864Y0175267D01*
X0360793Y0175216D01*
X0360721Y0175167D01*
X0360646Y0175122D01*
X0360569Y0175080D01*
X0360491Y0175041D01*
X0360411Y0175006D01*
X0360330Y0174975D01*
X0360247Y0174947D01*
X0360164Y0174922D01*
X0360079Y0174901D01*
X0359993Y0174884D01*
X0359907Y0174871D01*
X0359820Y0174862D01*
X0359733Y0174856D01*
X0359646Y0174854D01*
X0393859Y0176854D02*
X0393859Y0181854D01*
X0393861Y0181941D01*
X0393867Y0182028D01*
X0393876Y0182115D01*
X0393889Y0182201D01*
X0393906Y0182287D01*
X0393927Y0182372D01*
X0393952Y0182455D01*
X0393980Y0182538D01*
X0394011Y0182619D01*
X0394046Y0182699D01*
X0394085Y0182777D01*
X0394127Y0182854D01*
X0394172Y0182929D01*
X0394221Y0183001D01*
X0394272Y0183072D01*
X0394327Y0183140D01*
X0394384Y0183205D01*
X0394445Y0183268D01*
X0394508Y0183329D01*
X0394573Y0183386D01*
X0394641Y0183441D01*
X0394712Y0183492D01*
X0394784Y0183541D01*
X0394859Y0183586D01*
X0394936Y0183628D01*
X0395014Y0183667D01*
X0395094Y0183702D01*
X0395175Y0183733D01*
X0395258Y0183761D01*
X0395341Y0183786D01*
X0395426Y0183807D01*
X0395512Y0183824D01*
X0395598Y0183837D01*
X0395685Y0183846D01*
X0395772Y0183852D01*
X0395859Y0183854D01*
X0408859Y0183854D01*
X0408946Y0183852D01*
X0409033Y0183846D01*
X0409120Y0183837D01*
X0409206Y0183824D01*
X0409292Y0183807D01*
X0409377Y0183786D01*
X0409460Y0183761D01*
X0409543Y0183733D01*
X0409624Y0183702D01*
X0409704Y0183667D01*
X0409782Y0183628D01*
X0409859Y0183586D01*
X0409934Y0183541D01*
X0410006Y0183492D01*
X0410077Y0183441D01*
X0410145Y0183386D01*
X0410210Y0183329D01*
X0410273Y0183268D01*
X0410334Y0183205D01*
X0410391Y0183140D01*
X0410446Y0183072D01*
X0410497Y0183001D01*
X0410546Y0182929D01*
X0410591Y0182854D01*
X0410633Y0182777D01*
X0410672Y0182699D01*
X0410707Y0182619D01*
X0410738Y0182538D01*
X0410766Y0182455D01*
X0410791Y0182372D01*
X0410812Y0182287D01*
X0410829Y0182201D01*
X0410842Y0182115D01*
X0410851Y0182028D01*
X0410857Y0181941D01*
X0410859Y0181854D01*
X0410859Y0176854D01*
X0410857Y0176767D01*
X0410851Y0176680D01*
X0410842Y0176593D01*
X0410829Y0176507D01*
X0410812Y0176421D01*
X0410791Y0176336D01*
X0410766Y0176253D01*
X0410738Y0176170D01*
X0410707Y0176089D01*
X0410672Y0176009D01*
X0410633Y0175931D01*
X0410591Y0175854D01*
X0410546Y0175779D01*
X0410497Y0175707D01*
X0410446Y0175636D01*
X0410391Y0175568D01*
X0410334Y0175503D01*
X0410273Y0175440D01*
X0410210Y0175379D01*
X0410145Y0175322D01*
X0410077Y0175267D01*
X0410006Y0175216D01*
X0409934Y0175167D01*
X0409859Y0175122D01*
X0409782Y0175080D01*
X0409704Y0175041D01*
X0409624Y0175006D01*
X0409543Y0174975D01*
X0409460Y0174947D01*
X0409377Y0174922D01*
X0409292Y0174901D01*
X0409206Y0174884D01*
X0409120Y0174871D01*
X0409033Y0174862D01*
X0408946Y0174856D01*
X0408859Y0174854D01*
X0395859Y0174854D01*
X0395772Y0174856D01*
X0395685Y0174862D01*
X0395598Y0174871D01*
X0395512Y0174884D01*
X0395426Y0174901D01*
X0395341Y0174922D01*
X0395258Y0174947D01*
X0395175Y0174975D01*
X0395094Y0175006D01*
X0395014Y0175041D01*
X0394936Y0175080D01*
X0394859Y0175122D01*
X0394784Y0175167D01*
X0394712Y0175216D01*
X0394641Y0175267D01*
X0394573Y0175322D01*
X0394508Y0175379D01*
X0394445Y0175440D01*
X0394384Y0175503D01*
X0394327Y0175568D01*
X0394272Y0175636D01*
X0394221Y0175707D01*
X0394172Y0175779D01*
X0394127Y0175854D01*
X0394085Y0175931D01*
X0394046Y0176009D01*
X0394011Y0176089D01*
X0393980Y0176170D01*
X0393952Y0176253D01*
X0393927Y0176336D01*
X0393906Y0176421D01*
X0393889Y0176507D01*
X0393876Y0176593D01*
X0393867Y0176680D01*
X0393861Y0176767D01*
X0393859Y0176854D01*
X0395859Y0253594D02*
X0408859Y0253594D01*
X0408946Y0253596D01*
X0409033Y0253602D01*
X0409120Y0253611D01*
X0409206Y0253624D01*
X0409292Y0253641D01*
X0409377Y0253662D01*
X0409460Y0253687D01*
X0409543Y0253715D01*
X0409624Y0253746D01*
X0409704Y0253781D01*
X0409782Y0253820D01*
X0409859Y0253862D01*
X0409934Y0253907D01*
X0410006Y0253956D01*
X0410077Y0254007D01*
X0410145Y0254062D01*
X0410210Y0254119D01*
X0410273Y0254180D01*
X0410334Y0254243D01*
X0410391Y0254308D01*
X0410446Y0254376D01*
X0410497Y0254447D01*
X0410546Y0254519D01*
X0410591Y0254594D01*
X0410633Y0254671D01*
X0410672Y0254749D01*
X0410707Y0254829D01*
X0410738Y0254910D01*
X0410766Y0254993D01*
X0410791Y0255076D01*
X0410812Y0255161D01*
X0410829Y0255247D01*
X0410842Y0255333D01*
X0410851Y0255420D01*
X0410857Y0255507D01*
X0410859Y0255594D01*
X0410859Y0260594D01*
X0410857Y0260681D01*
X0410851Y0260768D01*
X0410842Y0260855D01*
X0410829Y0260941D01*
X0410812Y0261027D01*
X0410791Y0261112D01*
X0410766Y0261195D01*
X0410738Y0261278D01*
X0410707Y0261359D01*
X0410672Y0261439D01*
X0410633Y0261517D01*
X0410591Y0261594D01*
X0410546Y0261669D01*
X0410497Y0261741D01*
X0410446Y0261812D01*
X0410391Y0261880D01*
X0410334Y0261945D01*
X0410273Y0262008D01*
X0410210Y0262069D01*
X0410145Y0262126D01*
X0410077Y0262181D01*
X0410006Y0262232D01*
X0409934Y0262281D01*
X0409859Y0262326D01*
X0409782Y0262368D01*
X0409704Y0262407D01*
X0409624Y0262442D01*
X0409543Y0262473D01*
X0409460Y0262501D01*
X0409377Y0262526D01*
X0409292Y0262547D01*
X0409206Y0262564D01*
X0409120Y0262577D01*
X0409033Y0262586D01*
X0408946Y0262592D01*
X0408859Y0262594D01*
X0395859Y0262594D01*
X0395772Y0262592D01*
X0395685Y0262586D01*
X0395598Y0262577D01*
X0395512Y0262564D01*
X0395426Y0262547D01*
X0395341Y0262526D01*
X0395258Y0262501D01*
X0395175Y0262473D01*
X0395094Y0262442D01*
X0395014Y0262407D01*
X0394936Y0262368D01*
X0394859Y0262326D01*
X0394784Y0262281D01*
X0394712Y0262232D01*
X0394641Y0262181D01*
X0394573Y0262126D01*
X0394508Y0262069D01*
X0394445Y0262008D01*
X0394384Y0261945D01*
X0394327Y0261880D01*
X0394272Y0261812D01*
X0394221Y0261741D01*
X0394172Y0261669D01*
X0394127Y0261594D01*
X0394085Y0261517D01*
X0394046Y0261439D01*
X0394011Y0261359D01*
X0393980Y0261278D01*
X0393952Y0261195D01*
X0393927Y0261112D01*
X0393906Y0261027D01*
X0393889Y0260941D01*
X0393876Y0260855D01*
X0393867Y0260768D01*
X0393861Y0260681D01*
X0393859Y0260594D01*
X0393859Y0255594D01*
X0393861Y0255507D01*
X0393867Y0255420D01*
X0393876Y0255333D01*
X0393889Y0255247D01*
X0393906Y0255161D01*
X0393927Y0255076D01*
X0393952Y0254993D01*
X0393980Y0254910D01*
X0394011Y0254829D01*
X0394046Y0254749D01*
X0394085Y0254671D01*
X0394127Y0254594D01*
X0394172Y0254519D01*
X0394221Y0254447D01*
X0394272Y0254376D01*
X0394327Y0254308D01*
X0394384Y0254243D01*
X0394445Y0254180D01*
X0394508Y0254119D01*
X0394573Y0254062D01*
X0394641Y0254007D01*
X0394712Y0253956D01*
X0394784Y0253907D01*
X0394859Y0253862D01*
X0394936Y0253820D01*
X0395014Y0253781D01*
X0395094Y0253746D01*
X0395175Y0253715D01*
X0395258Y0253687D01*
X0395341Y0253662D01*
X0395426Y0253641D01*
X0395512Y0253624D01*
X0395598Y0253611D01*
X0395685Y0253602D01*
X0395772Y0253596D01*
X0395859Y0253594D01*
X0363615Y0253625D02*
X0363615Y0258625D01*
X0363613Y0258712D01*
X0363607Y0258799D01*
X0363598Y0258886D01*
X0363585Y0258972D01*
X0363568Y0259058D01*
X0363547Y0259143D01*
X0363522Y0259226D01*
X0363494Y0259309D01*
X0363463Y0259390D01*
X0363428Y0259470D01*
X0363389Y0259548D01*
X0363347Y0259625D01*
X0363302Y0259700D01*
X0363253Y0259772D01*
X0363202Y0259843D01*
X0363147Y0259911D01*
X0363090Y0259976D01*
X0363029Y0260039D01*
X0362966Y0260100D01*
X0362901Y0260157D01*
X0362833Y0260212D01*
X0362762Y0260263D01*
X0362690Y0260312D01*
X0362615Y0260357D01*
X0362538Y0260399D01*
X0362460Y0260438D01*
X0362380Y0260473D01*
X0362299Y0260504D01*
X0362216Y0260532D01*
X0362133Y0260557D01*
X0362048Y0260578D01*
X0361962Y0260595D01*
X0361876Y0260608D01*
X0361789Y0260617D01*
X0361702Y0260623D01*
X0361615Y0260625D01*
X0348615Y0260625D01*
X0348528Y0260623D01*
X0348441Y0260617D01*
X0348354Y0260608D01*
X0348268Y0260595D01*
X0348182Y0260578D01*
X0348097Y0260557D01*
X0348014Y0260532D01*
X0347931Y0260504D01*
X0347850Y0260473D01*
X0347770Y0260438D01*
X0347692Y0260399D01*
X0347615Y0260357D01*
X0347540Y0260312D01*
X0347468Y0260263D01*
X0347397Y0260212D01*
X0347329Y0260157D01*
X0347264Y0260100D01*
X0347201Y0260039D01*
X0347140Y0259976D01*
X0347083Y0259911D01*
X0347028Y0259843D01*
X0346977Y0259772D01*
X0346928Y0259700D01*
X0346883Y0259625D01*
X0346841Y0259548D01*
X0346802Y0259470D01*
X0346767Y0259390D01*
X0346736Y0259309D01*
X0346708Y0259226D01*
X0346683Y0259143D01*
X0346662Y0259058D01*
X0346645Y0258972D01*
X0346632Y0258886D01*
X0346623Y0258799D01*
X0346617Y0258712D01*
X0346615Y0258625D01*
X0346615Y0253625D01*
X0346617Y0253538D01*
X0346623Y0253451D01*
X0346632Y0253364D01*
X0346645Y0253278D01*
X0346662Y0253192D01*
X0346683Y0253107D01*
X0346708Y0253024D01*
X0346736Y0252941D01*
X0346767Y0252860D01*
X0346802Y0252780D01*
X0346841Y0252702D01*
X0346883Y0252625D01*
X0346928Y0252550D01*
X0346977Y0252478D01*
X0347028Y0252407D01*
X0347083Y0252339D01*
X0347140Y0252274D01*
X0347201Y0252211D01*
X0347264Y0252150D01*
X0347329Y0252093D01*
X0347397Y0252038D01*
X0347468Y0251987D01*
X0347540Y0251938D01*
X0347615Y0251893D01*
X0347692Y0251851D01*
X0347770Y0251812D01*
X0347850Y0251777D01*
X0347931Y0251746D01*
X0348014Y0251718D01*
X0348097Y0251693D01*
X0348182Y0251672D01*
X0348268Y0251655D01*
X0348354Y0251642D01*
X0348441Y0251633D01*
X0348528Y0251627D01*
X0348615Y0251625D01*
X0361615Y0251625D01*
X0361702Y0251627D01*
X0361789Y0251633D01*
X0361876Y0251642D01*
X0361962Y0251655D01*
X0362048Y0251672D01*
X0362133Y0251693D01*
X0362216Y0251718D01*
X0362299Y0251746D01*
X0362380Y0251777D01*
X0362460Y0251812D01*
X0362538Y0251851D01*
X0362615Y0251893D01*
X0362690Y0251938D01*
X0362762Y0251987D01*
X0362833Y0252038D01*
X0362901Y0252093D01*
X0362966Y0252150D01*
X0363029Y0252211D01*
X0363090Y0252274D01*
X0363147Y0252339D01*
X0363202Y0252407D01*
X0363253Y0252478D01*
X0363302Y0252550D01*
X0363347Y0252625D01*
X0363389Y0252702D01*
X0363428Y0252780D01*
X0363463Y0252860D01*
X0363494Y0252941D01*
X0363522Y0253024D01*
X0363547Y0253107D01*
X0363568Y0253192D01*
X0363585Y0253278D01*
X0363598Y0253364D01*
X0363607Y0253451D01*
X0363613Y0253538D01*
X0363615Y0253625D01*
X0290780Y0253625D02*
X0290780Y0258625D01*
X0290778Y0258712D01*
X0290772Y0258799D01*
X0290763Y0258886D01*
X0290750Y0258972D01*
X0290733Y0259058D01*
X0290712Y0259143D01*
X0290687Y0259226D01*
X0290659Y0259309D01*
X0290628Y0259390D01*
X0290593Y0259470D01*
X0290554Y0259548D01*
X0290512Y0259625D01*
X0290467Y0259700D01*
X0290418Y0259772D01*
X0290367Y0259843D01*
X0290312Y0259911D01*
X0290255Y0259976D01*
X0290194Y0260039D01*
X0290131Y0260100D01*
X0290066Y0260157D01*
X0289998Y0260212D01*
X0289927Y0260263D01*
X0289855Y0260312D01*
X0289780Y0260357D01*
X0289703Y0260399D01*
X0289625Y0260438D01*
X0289545Y0260473D01*
X0289464Y0260504D01*
X0289381Y0260532D01*
X0289298Y0260557D01*
X0289213Y0260578D01*
X0289127Y0260595D01*
X0289041Y0260608D01*
X0288954Y0260617D01*
X0288867Y0260623D01*
X0288780Y0260625D01*
X0275780Y0260625D01*
X0275693Y0260623D01*
X0275606Y0260617D01*
X0275519Y0260608D01*
X0275433Y0260595D01*
X0275347Y0260578D01*
X0275262Y0260557D01*
X0275179Y0260532D01*
X0275096Y0260504D01*
X0275015Y0260473D01*
X0274935Y0260438D01*
X0274857Y0260399D01*
X0274780Y0260357D01*
X0274705Y0260312D01*
X0274633Y0260263D01*
X0274562Y0260212D01*
X0274494Y0260157D01*
X0274429Y0260100D01*
X0274366Y0260039D01*
X0274305Y0259976D01*
X0274248Y0259911D01*
X0274193Y0259843D01*
X0274142Y0259772D01*
X0274093Y0259700D01*
X0274048Y0259625D01*
X0274006Y0259548D01*
X0273967Y0259470D01*
X0273932Y0259390D01*
X0273901Y0259309D01*
X0273873Y0259226D01*
X0273848Y0259143D01*
X0273827Y0259058D01*
X0273810Y0258972D01*
X0273797Y0258886D01*
X0273788Y0258799D01*
X0273782Y0258712D01*
X0273780Y0258625D01*
X0273780Y0253625D01*
X0273782Y0253538D01*
X0273788Y0253451D01*
X0273797Y0253364D01*
X0273810Y0253278D01*
X0273827Y0253192D01*
X0273848Y0253107D01*
X0273873Y0253024D01*
X0273901Y0252941D01*
X0273932Y0252860D01*
X0273967Y0252780D01*
X0274006Y0252702D01*
X0274048Y0252625D01*
X0274093Y0252550D01*
X0274142Y0252478D01*
X0274193Y0252407D01*
X0274248Y0252339D01*
X0274305Y0252274D01*
X0274366Y0252211D01*
X0274429Y0252150D01*
X0274494Y0252093D01*
X0274562Y0252038D01*
X0274633Y0251987D01*
X0274705Y0251938D01*
X0274780Y0251893D01*
X0274857Y0251851D01*
X0274935Y0251812D01*
X0275015Y0251777D01*
X0275096Y0251746D01*
X0275179Y0251718D01*
X0275262Y0251693D01*
X0275347Y0251672D01*
X0275433Y0251655D01*
X0275519Y0251642D01*
X0275606Y0251633D01*
X0275693Y0251627D01*
X0275780Y0251625D01*
X0288780Y0251625D01*
X0288867Y0251627D01*
X0288954Y0251633D01*
X0289041Y0251642D01*
X0289127Y0251655D01*
X0289213Y0251672D01*
X0289298Y0251693D01*
X0289381Y0251718D01*
X0289464Y0251746D01*
X0289545Y0251777D01*
X0289625Y0251812D01*
X0289703Y0251851D01*
X0289780Y0251893D01*
X0289855Y0251938D01*
X0289927Y0251987D01*
X0289998Y0252038D01*
X0290066Y0252093D01*
X0290131Y0252150D01*
X0290194Y0252211D01*
X0290255Y0252274D01*
X0290312Y0252339D01*
X0290367Y0252407D01*
X0290418Y0252478D01*
X0290467Y0252550D01*
X0290512Y0252625D01*
X0290554Y0252702D01*
X0290593Y0252780D01*
X0290628Y0252860D01*
X0290659Y0252941D01*
X0290687Y0253024D01*
X0290712Y0253107D01*
X0290733Y0253192D01*
X0290750Y0253278D01*
X0290763Y0253364D01*
X0290772Y0253451D01*
X0290778Y0253538D01*
X0290780Y0253625D01*
X0247473Y0253625D02*
X0247473Y0258625D01*
X0247471Y0258712D01*
X0247465Y0258799D01*
X0247456Y0258886D01*
X0247443Y0258972D01*
X0247426Y0259058D01*
X0247405Y0259143D01*
X0247380Y0259226D01*
X0247352Y0259309D01*
X0247321Y0259390D01*
X0247286Y0259470D01*
X0247247Y0259548D01*
X0247205Y0259625D01*
X0247160Y0259700D01*
X0247111Y0259772D01*
X0247060Y0259843D01*
X0247005Y0259911D01*
X0246948Y0259976D01*
X0246887Y0260039D01*
X0246824Y0260100D01*
X0246759Y0260157D01*
X0246691Y0260212D01*
X0246620Y0260263D01*
X0246548Y0260312D01*
X0246473Y0260357D01*
X0246396Y0260399D01*
X0246318Y0260438D01*
X0246238Y0260473D01*
X0246157Y0260504D01*
X0246074Y0260532D01*
X0245991Y0260557D01*
X0245906Y0260578D01*
X0245820Y0260595D01*
X0245734Y0260608D01*
X0245647Y0260617D01*
X0245560Y0260623D01*
X0245473Y0260625D01*
X0232473Y0260625D01*
X0232386Y0260623D01*
X0232299Y0260617D01*
X0232212Y0260608D01*
X0232126Y0260595D01*
X0232040Y0260578D01*
X0231955Y0260557D01*
X0231872Y0260532D01*
X0231789Y0260504D01*
X0231708Y0260473D01*
X0231628Y0260438D01*
X0231550Y0260399D01*
X0231473Y0260357D01*
X0231398Y0260312D01*
X0231326Y0260263D01*
X0231255Y0260212D01*
X0231187Y0260157D01*
X0231122Y0260100D01*
X0231059Y0260039D01*
X0230998Y0259976D01*
X0230941Y0259911D01*
X0230886Y0259843D01*
X0230835Y0259772D01*
X0230786Y0259700D01*
X0230741Y0259625D01*
X0230699Y0259548D01*
X0230660Y0259470D01*
X0230625Y0259390D01*
X0230594Y0259309D01*
X0230566Y0259226D01*
X0230541Y0259143D01*
X0230520Y0259058D01*
X0230503Y0258972D01*
X0230490Y0258886D01*
X0230481Y0258799D01*
X0230475Y0258712D01*
X0230473Y0258625D01*
X0230473Y0253625D01*
X0230475Y0253538D01*
X0230481Y0253451D01*
X0230490Y0253364D01*
X0230503Y0253278D01*
X0230520Y0253192D01*
X0230541Y0253107D01*
X0230566Y0253024D01*
X0230594Y0252941D01*
X0230625Y0252860D01*
X0230660Y0252780D01*
X0230699Y0252702D01*
X0230741Y0252625D01*
X0230786Y0252550D01*
X0230835Y0252478D01*
X0230886Y0252407D01*
X0230941Y0252339D01*
X0230998Y0252274D01*
X0231059Y0252211D01*
X0231122Y0252150D01*
X0231187Y0252093D01*
X0231255Y0252038D01*
X0231326Y0251987D01*
X0231398Y0251938D01*
X0231473Y0251893D01*
X0231550Y0251851D01*
X0231628Y0251812D01*
X0231708Y0251777D01*
X0231789Y0251746D01*
X0231872Y0251718D01*
X0231955Y0251693D01*
X0232040Y0251672D01*
X0232126Y0251655D01*
X0232212Y0251642D01*
X0232299Y0251633D01*
X0232386Y0251627D01*
X0232473Y0251625D01*
X0245473Y0251625D01*
X0245560Y0251627D01*
X0245647Y0251633D01*
X0245734Y0251642D01*
X0245820Y0251655D01*
X0245906Y0251672D01*
X0245991Y0251693D01*
X0246074Y0251718D01*
X0246157Y0251746D01*
X0246238Y0251777D01*
X0246318Y0251812D01*
X0246396Y0251851D01*
X0246473Y0251893D01*
X0246548Y0251938D01*
X0246620Y0251987D01*
X0246691Y0252038D01*
X0246759Y0252093D01*
X0246824Y0252150D01*
X0246887Y0252211D01*
X0246948Y0252274D01*
X0247005Y0252339D01*
X0247060Y0252407D01*
X0247111Y0252478D01*
X0247160Y0252550D01*
X0247205Y0252625D01*
X0247247Y0252702D01*
X0247286Y0252780D01*
X0247321Y0252860D01*
X0247352Y0252941D01*
X0247380Y0253024D01*
X0247405Y0253107D01*
X0247426Y0253192D01*
X0247443Y0253278D01*
X0247456Y0253364D01*
X0247465Y0253451D01*
X0247471Y0253538D01*
X0247473Y0253625D01*
X0174638Y0253625D02*
X0174638Y0258625D01*
X0174636Y0258712D01*
X0174630Y0258799D01*
X0174621Y0258886D01*
X0174608Y0258972D01*
X0174591Y0259058D01*
X0174570Y0259143D01*
X0174545Y0259226D01*
X0174517Y0259309D01*
X0174486Y0259390D01*
X0174451Y0259470D01*
X0174412Y0259548D01*
X0174370Y0259625D01*
X0174325Y0259700D01*
X0174276Y0259772D01*
X0174225Y0259843D01*
X0174170Y0259911D01*
X0174113Y0259976D01*
X0174052Y0260039D01*
X0173989Y0260100D01*
X0173924Y0260157D01*
X0173856Y0260212D01*
X0173785Y0260263D01*
X0173713Y0260312D01*
X0173638Y0260357D01*
X0173561Y0260399D01*
X0173483Y0260438D01*
X0173403Y0260473D01*
X0173322Y0260504D01*
X0173239Y0260532D01*
X0173156Y0260557D01*
X0173071Y0260578D01*
X0172985Y0260595D01*
X0172899Y0260608D01*
X0172812Y0260617D01*
X0172725Y0260623D01*
X0172638Y0260625D01*
X0159638Y0260625D01*
X0159551Y0260623D01*
X0159464Y0260617D01*
X0159377Y0260608D01*
X0159291Y0260595D01*
X0159205Y0260578D01*
X0159120Y0260557D01*
X0159037Y0260532D01*
X0158954Y0260504D01*
X0158873Y0260473D01*
X0158793Y0260438D01*
X0158715Y0260399D01*
X0158638Y0260357D01*
X0158563Y0260312D01*
X0158491Y0260263D01*
X0158420Y0260212D01*
X0158352Y0260157D01*
X0158287Y0260100D01*
X0158224Y0260039D01*
X0158163Y0259976D01*
X0158106Y0259911D01*
X0158051Y0259843D01*
X0158000Y0259772D01*
X0157951Y0259700D01*
X0157906Y0259625D01*
X0157864Y0259548D01*
X0157825Y0259470D01*
X0157790Y0259390D01*
X0157759Y0259309D01*
X0157731Y0259226D01*
X0157706Y0259143D01*
X0157685Y0259058D01*
X0157668Y0258972D01*
X0157655Y0258886D01*
X0157646Y0258799D01*
X0157640Y0258712D01*
X0157638Y0258625D01*
X0157638Y0253625D01*
X0157640Y0253538D01*
X0157646Y0253451D01*
X0157655Y0253364D01*
X0157668Y0253278D01*
X0157685Y0253192D01*
X0157706Y0253107D01*
X0157731Y0253024D01*
X0157759Y0252941D01*
X0157790Y0252860D01*
X0157825Y0252780D01*
X0157864Y0252702D01*
X0157906Y0252625D01*
X0157951Y0252550D01*
X0158000Y0252478D01*
X0158051Y0252407D01*
X0158106Y0252339D01*
X0158163Y0252274D01*
X0158224Y0252211D01*
X0158287Y0252150D01*
X0158352Y0252093D01*
X0158420Y0252038D01*
X0158491Y0251987D01*
X0158563Y0251938D01*
X0158638Y0251893D01*
X0158715Y0251851D01*
X0158793Y0251812D01*
X0158873Y0251777D01*
X0158954Y0251746D01*
X0159037Y0251718D01*
X0159120Y0251693D01*
X0159205Y0251672D01*
X0159291Y0251655D01*
X0159377Y0251642D01*
X0159464Y0251633D01*
X0159551Y0251627D01*
X0159638Y0251625D01*
X0172638Y0251625D01*
X0172725Y0251627D01*
X0172812Y0251633D01*
X0172899Y0251642D01*
X0172985Y0251655D01*
X0173071Y0251672D01*
X0173156Y0251693D01*
X0173239Y0251718D01*
X0173322Y0251746D01*
X0173403Y0251777D01*
X0173483Y0251812D01*
X0173561Y0251851D01*
X0173638Y0251893D01*
X0173713Y0251938D01*
X0173785Y0251987D01*
X0173856Y0252038D01*
X0173924Y0252093D01*
X0173989Y0252150D01*
X0174052Y0252211D01*
X0174113Y0252274D01*
X0174170Y0252339D01*
X0174225Y0252407D01*
X0174276Y0252478D01*
X0174325Y0252550D01*
X0174370Y0252625D01*
X0174412Y0252702D01*
X0174451Y0252780D01*
X0174486Y0252860D01*
X0174517Y0252941D01*
X0174545Y0253024D01*
X0174570Y0253107D01*
X0174591Y0253192D01*
X0174608Y0253278D01*
X0174621Y0253364D01*
X0174630Y0253451D01*
X0174636Y0253538D01*
X0174638Y0253625D01*
X0127394Y0253625D02*
X0127394Y0258625D01*
X0127392Y0258712D01*
X0127386Y0258799D01*
X0127377Y0258886D01*
X0127364Y0258972D01*
X0127347Y0259058D01*
X0127326Y0259143D01*
X0127301Y0259226D01*
X0127273Y0259309D01*
X0127242Y0259390D01*
X0127207Y0259470D01*
X0127168Y0259548D01*
X0127126Y0259625D01*
X0127081Y0259700D01*
X0127032Y0259772D01*
X0126981Y0259843D01*
X0126926Y0259911D01*
X0126869Y0259976D01*
X0126808Y0260039D01*
X0126745Y0260100D01*
X0126680Y0260157D01*
X0126612Y0260212D01*
X0126541Y0260263D01*
X0126469Y0260312D01*
X0126394Y0260357D01*
X0126317Y0260399D01*
X0126239Y0260438D01*
X0126159Y0260473D01*
X0126078Y0260504D01*
X0125995Y0260532D01*
X0125912Y0260557D01*
X0125827Y0260578D01*
X0125741Y0260595D01*
X0125655Y0260608D01*
X0125568Y0260617D01*
X0125481Y0260623D01*
X0125394Y0260625D01*
X0112394Y0260625D01*
X0112307Y0260623D01*
X0112220Y0260617D01*
X0112133Y0260608D01*
X0112047Y0260595D01*
X0111961Y0260578D01*
X0111876Y0260557D01*
X0111793Y0260532D01*
X0111710Y0260504D01*
X0111629Y0260473D01*
X0111549Y0260438D01*
X0111471Y0260399D01*
X0111394Y0260357D01*
X0111319Y0260312D01*
X0111247Y0260263D01*
X0111176Y0260212D01*
X0111108Y0260157D01*
X0111043Y0260100D01*
X0110980Y0260039D01*
X0110919Y0259976D01*
X0110862Y0259911D01*
X0110807Y0259843D01*
X0110756Y0259772D01*
X0110707Y0259700D01*
X0110662Y0259625D01*
X0110620Y0259548D01*
X0110581Y0259470D01*
X0110546Y0259390D01*
X0110515Y0259309D01*
X0110487Y0259226D01*
X0110462Y0259143D01*
X0110441Y0259058D01*
X0110424Y0258972D01*
X0110411Y0258886D01*
X0110402Y0258799D01*
X0110396Y0258712D01*
X0110394Y0258625D01*
X0110394Y0253625D01*
X0110396Y0253538D01*
X0110402Y0253451D01*
X0110411Y0253364D01*
X0110424Y0253278D01*
X0110441Y0253192D01*
X0110462Y0253107D01*
X0110487Y0253024D01*
X0110515Y0252941D01*
X0110546Y0252860D01*
X0110581Y0252780D01*
X0110620Y0252702D01*
X0110662Y0252625D01*
X0110707Y0252550D01*
X0110756Y0252478D01*
X0110807Y0252407D01*
X0110862Y0252339D01*
X0110919Y0252274D01*
X0110980Y0252211D01*
X0111043Y0252150D01*
X0111108Y0252093D01*
X0111176Y0252038D01*
X0111247Y0251987D01*
X0111319Y0251938D01*
X0111394Y0251893D01*
X0111471Y0251851D01*
X0111549Y0251812D01*
X0111629Y0251777D01*
X0111710Y0251746D01*
X0111793Y0251718D01*
X0111876Y0251693D01*
X0111961Y0251672D01*
X0112047Y0251655D01*
X0112133Y0251642D01*
X0112220Y0251633D01*
X0112307Y0251627D01*
X0112394Y0251625D01*
X0125394Y0251625D01*
X0125481Y0251627D01*
X0125568Y0251633D01*
X0125655Y0251642D01*
X0125741Y0251655D01*
X0125827Y0251672D01*
X0125912Y0251693D01*
X0125995Y0251718D01*
X0126078Y0251746D01*
X0126159Y0251777D01*
X0126239Y0251812D01*
X0126317Y0251851D01*
X0126394Y0251893D01*
X0126469Y0251938D01*
X0126541Y0251987D01*
X0126612Y0252038D01*
X0126680Y0252093D01*
X0126745Y0252150D01*
X0126808Y0252211D01*
X0126869Y0252274D01*
X0126926Y0252339D01*
X0126981Y0252407D01*
X0127032Y0252478D01*
X0127081Y0252550D01*
X0127126Y0252625D01*
X0127168Y0252702D01*
X0127207Y0252780D01*
X0127242Y0252860D01*
X0127273Y0252941D01*
X0127301Y0253024D01*
X0127326Y0253107D01*
X0127347Y0253192D01*
X0127364Y0253278D01*
X0127377Y0253364D01*
X0127386Y0253451D01*
X0127392Y0253538D01*
X0127394Y0253625D01*
X0125394Y0183854D02*
X0112394Y0183854D01*
X0112307Y0183852D01*
X0112220Y0183846D01*
X0112133Y0183837D01*
X0112047Y0183824D01*
X0111961Y0183807D01*
X0111876Y0183786D01*
X0111793Y0183761D01*
X0111710Y0183733D01*
X0111629Y0183702D01*
X0111549Y0183667D01*
X0111471Y0183628D01*
X0111394Y0183586D01*
X0111319Y0183541D01*
X0111247Y0183492D01*
X0111176Y0183441D01*
X0111108Y0183386D01*
X0111043Y0183329D01*
X0110980Y0183268D01*
X0110919Y0183205D01*
X0110862Y0183140D01*
X0110807Y0183072D01*
X0110756Y0183001D01*
X0110707Y0182929D01*
X0110662Y0182854D01*
X0110620Y0182777D01*
X0110581Y0182699D01*
X0110546Y0182619D01*
X0110515Y0182538D01*
X0110487Y0182455D01*
X0110462Y0182372D01*
X0110441Y0182287D01*
X0110424Y0182201D01*
X0110411Y0182115D01*
X0110402Y0182028D01*
X0110396Y0181941D01*
X0110394Y0181854D01*
X0110394Y0176854D01*
X0110396Y0176767D01*
X0110402Y0176680D01*
X0110411Y0176593D01*
X0110424Y0176507D01*
X0110441Y0176421D01*
X0110462Y0176336D01*
X0110487Y0176253D01*
X0110515Y0176170D01*
X0110546Y0176089D01*
X0110581Y0176009D01*
X0110620Y0175931D01*
X0110662Y0175854D01*
X0110707Y0175779D01*
X0110756Y0175707D01*
X0110807Y0175636D01*
X0110862Y0175568D01*
X0110919Y0175503D01*
X0110980Y0175440D01*
X0111043Y0175379D01*
X0111108Y0175322D01*
X0111176Y0175267D01*
X0111247Y0175216D01*
X0111319Y0175167D01*
X0111394Y0175122D01*
X0111471Y0175080D01*
X0111549Y0175041D01*
X0111629Y0175006D01*
X0111710Y0174975D01*
X0111793Y0174947D01*
X0111876Y0174922D01*
X0111961Y0174901D01*
X0112047Y0174884D01*
X0112133Y0174871D01*
X0112220Y0174862D01*
X0112307Y0174856D01*
X0112394Y0174854D01*
X0125394Y0174854D01*
X0125481Y0174856D01*
X0125568Y0174862D01*
X0125655Y0174871D01*
X0125741Y0174884D01*
X0125827Y0174901D01*
X0125912Y0174922D01*
X0125995Y0174947D01*
X0126078Y0174975D01*
X0126159Y0175006D01*
X0126239Y0175041D01*
X0126317Y0175080D01*
X0126394Y0175122D01*
X0126469Y0175167D01*
X0126541Y0175216D01*
X0126612Y0175267D01*
X0126680Y0175322D01*
X0126745Y0175379D01*
X0126808Y0175440D01*
X0126869Y0175503D01*
X0126926Y0175568D01*
X0126981Y0175636D01*
X0127032Y0175707D01*
X0127081Y0175779D01*
X0127126Y0175854D01*
X0127168Y0175931D01*
X0127207Y0176009D01*
X0127242Y0176089D01*
X0127273Y0176170D01*
X0127301Y0176253D01*
X0127326Y0176336D01*
X0127347Y0176421D01*
X0127364Y0176507D01*
X0127377Y0176593D01*
X0127386Y0176680D01*
X0127392Y0176767D01*
X0127394Y0176854D01*
X0127394Y0181854D01*
X0127392Y0181941D01*
X0127386Y0182028D01*
X0127377Y0182115D01*
X0127364Y0182201D01*
X0127347Y0182287D01*
X0127326Y0182372D01*
X0127301Y0182455D01*
X0127273Y0182538D01*
X0127242Y0182619D01*
X0127207Y0182699D01*
X0127168Y0182777D01*
X0127126Y0182854D01*
X0127081Y0182929D01*
X0127032Y0183001D01*
X0126981Y0183072D01*
X0126926Y0183140D01*
X0126869Y0183205D01*
X0126808Y0183268D01*
X0126745Y0183329D01*
X0126680Y0183386D01*
X0126612Y0183441D01*
X0126541Y0183492D01*
X0126469Y0183541D01*
X0126394Y0183586D01*
X0126317Y0183628D01*
X0126239Y0183667D01*
X0126159Y0183702D01*
X0126078Y0183733D01*
X0125995Y0183761D01*
X0125912Y0183786D01*
X0125827Y0183807D01*
X0125741Y0183824D01*
X0125655Y0183837D01*
X0125568Y0183846D01*
X0125481Y0183852D01*
X0125394Y0183854D01*
X0157638Y0181854D02*
X0157638Y0176854D01*
X0157640Y0176767D01*
X0157646Y0176680D01*
X0157655Y0176593D01*
X0157668Y0176507D01*
X0157685Y0176421D01*
X0157706Y0176336D01*
X0157731Y0176253D01*
X0157759Y0176170D01*
X0157790Y0176089D01*
X0157825Y0176009D01*
X0157864Y0175931D01*
X0157906Y0175854D01*
X0157951Y0175779D01*
X0158000Y0175707D01*
X0158051Y0175636D01*
X0158106Y0175568D01*
X0158163Y0175503D01*
X0158224Y0175440D01*
X0158287Y0175379D01*
X0158352Y0175322D01*
X0158420Y0175267D01*
X0158491Y0175216D01*
X0158563Y0175167D01*
X0158638Y0175122D01*
X0158715Y0175080D01*
X0158793Y0175041D01*
X0158873Y0175006D01*
X0158954Y0174975D01*
X0159037Y0174947D01*
X0159120Y0174922D01*
X0159205Y0174901D01*
X0159291Y0174884D01*
X0159377Y0174871D01*
X0159464Y0174862D01*
X0159551Y0174856D01*
X0159638Y0174854D01*
X0172638Y0174854D01*
X0172725Y0174856D01*
X0172812Y0174862D01*
X0172899Y0174871D01*
X0172985Y0174884D01*
X0173071Y0174901D01*
X0173156Y0174922D01*
X0173239Y0174947D01*
X0173322Y0174975D01*
X0173403Y0175006D01*
X0173483Y0175041D01*
X0173561Y0175080D01*
X0173638Y0175122D01*
X0173713Y0175167D01*
X0173785Y0175216D01*
X0173856Y0175267D01*
X0173924Y0175322D01*
X0173989Y0175379D01*
X0174052Y0175440D01*
X0174113Y0175503D01*
X0174170Y0175568D01*
X0174225Y0175636D01*
X0174276Y0175707D01*
X0174325Y0175779D01*
X0174370Y0175854D01*
X0174412Y0175931D01*
X0174451Y0176009D01*
X0174486Y0176089D01*
X0174517Y0176170D01*
X0174545Y0176253D01*
X0174570Y0176336D01*
X0174591Y0176421D01*
X0174608Y0176507D01*
X0174621Y0176593D01*
X0174630Y0176680D01*
X0174636Y0176767D01*
X0174638Y0176854D01*
X0174638Y0181854D01*
X0174636Y0181941D01*
X0174630Y0182028D01*
X0174621Y0182115D01*
X0174608Y0182201D01*
X0174591Y0182287D01*
X0174570Y0182372D01*
X0174545Y0182455D01*
X0174517Y0182538D01*
X0174486Y0182619D01*
X0174451Y0182699D01*
X0174412Y0182777D01*
X0174370Y0182854D01*
X0174325Y0182929D01*
X0174276Y0183001D01*
X0174225Y0183072D01*
X0174170Y0183140D01*
X0174113Y0183205D01*
X0174052Y0183268D01*
X0173989Y0183329D01*
X0173924Y0183386D01*
X0173856Y0183441D01*
X0173785Y0183492D01*
X0173713Y0183541D01*
X0173638Y0183586D01*
X0173561Y0183628D01*
X0173483Y0183667D01*
X0173403Y0183702D01*
X0173322Y0183733D01*
X0173239Y0183761D01*
X0173156Y0183786D01*
X0173071Y0183807D01*
X0172985Y0183824D01*
X0172899Y0183837D01*
X0172812Y0183846D01*
X0172725Y0183852D01*
X0172638Y0183854D01*
X0159638Y0183854D01*
X0159551Y0183852D01*
X0159464Y0183846D01*
X0159377Y0183837D01*
X0159291Y0183824D01*
X0159205Y0183807D01*
X0159120Y0183786D01*
X0159037Y0183761D01*
X0158954Y0183733D01*
X0158873Y0183702D01*
X0158793Y0183667D01*
X0158715Y0183628D01*
X0158638Y0183586D01*
X0158563Y0183541D01*
X0158491Y0183492D01*
X0158420Y0183441D01*
X0158352Y0183386D01*
X0158287Y0183329D01*
X0158224Y0183268D01*
X0158163Y0183205D01*
X0158106Y0183140D01*
X0158051Y0183072D01*
X0158000Y0183001D01*
X0157951Y0182929D01*
X0157906Y0182854D01*
X0157864Y0182777D01*
X0157825Y0182699D01*
X0157790Y0182619D01*
X0157759Y0182538D01*
X0157731Y0182455D01*
X0157706Y0182372D01*
X0157685Y0182287D01*
X0157668Y0182201D01*
X0157655Y0182115D01*
X0157646Y0182028D01*
X0157640Y0181941D01*
X0157638Y0181854D01*
X0230473Y0177917D02*
X0230473Y0172917D01*
X0230475Y0172830D01*
X0230481Y0172743D01*
X0230490Y0172656D01*
X0230503Y0172570D01*
X0230520Y0172484D01*
X0230541Y0172399D01*
X0230566Y0172316D01*
X0230594Y0172233D01*
X0230625Y0172152D01*
X0230660Y0172072D01*
X0230699Y0171994D01*
X0230741Y0171917D01*
X0230786Y0171842D01*
X0230835Y0171770D01*
X0230886Y0171699D01*
X0230941Y0171631D01*
X0230998Y0171566D01*
X0231059Y0171503D01*
X0231122Y0171442D01*
X0231187Y0171385D01*
X0231255Y0171330D01*
X0231326Y0171279D01*
X0231398Y0171230D01*
X0231473Y0171185D01*
X0231550Y0171143D01*
X0231628Y0171104D01*
X0231708Y0171069D01*
X0231789Y0171038D01*
X0231872Y0171010D01*
X0231955Y0170985D01*
X0232040Y0170964D01*
X0232126Y0170947D01*
X0232212Y0170934D01*
X0232299Y0170925D01*
X0232386Y0170919D01*
X0232473Y0170917D01*
X0245473Y0170917D01*
X0245560Y0170919D01*
X0245647Y0170925D01*
X0245734Y0170934D01*
X0245820Y0170947D01*
X0245906Y0170964D01*
X0245991Y0170985D01*
X0246074Y0171010D01*
X0246157Y0171038D01*
X0246238Y0171069D01*
X0246318Y0171104D01*
X0246396Y0171143D01*
X0246473Y0171185D01*
X0246548Y0171230D01*
X0246620Y0171279D01*
X0246691Y0171330D01*
X0246759Y0171385D01*
X0246824Y0171442D01*
X0246887Y0171503D01*
X0246948Y0171566D01*
X0247005Y0171631D01*
X0247060Y0171699D01*
X0247111Y0171770D01*
X0247160Y0171842D01*
X0247205Y0171917D01*
X0247247Y0171994D01*
X0247286Y0172072D01*
X0247321Y0172152D01*
X0247352Y0172233D01*
X0247380Y0172316D01*
X0247405Y0172399D01*
X0247426Y0172484D01*
X0247443Y0172570D01*
X0247456Y0172656D01*
X0247465Y0172743D01*
X0247471Y0172830D01*
X0247473Y0172917D01*
X0247473Y0177917D01*
X0247471Y0178004D01*
X0247465Y0178091D01*
X0247456Y0178178D01*
X0247443Y0178264D01*
X0247426Y0178350D01*
X0247405Y0178435D01*
X0247380Y0178518D01*
X0247352Y0178601D01*
X0247321Y0178682D01*
X0247286Y0178762D01*
X0247247Y0178840D01*
X0247205Y0178917D01*
X0247160Y0178992D01*
X0247111Y0179064D01*
X0247060Y0179135D01*
X0247005Y0179203D01*
X0246948Y0179268D01*
X0246887Y0179331D01*
X0246824Y0179392D01*
X0246759Y0179449D01*
X0246691Y0179504D01*
X0246620Y0179555D01*
X0246548Y0179604D01*
X0246473Y0179649D01*
X0246396Y0179691D01*
X0246318Y0179730D01*
X0246238Y0179765D01*
X0246157Y0179796D01*
X0246074Y0179824D01*
X0245991Y0179849D01*
X0245906Y0179870D01*
X0245820Y0179887D01*
X0245734Y0179900D01*
X0245647Y0179909D01*
X0245560Y0179915D01*
X0245473Y0179917D01*
X0232473Y0179917D01*
X0232386Y0179915D01*
X0232299Y0179909D01*
X0232212Y0179900D01*
X0232126Y0179887D01*
X0232040Y0179870D01*
X0231955Y0179849D01*
X0231872Y0179824D01*
X0231789Y0179796D01*
X0231708Y0179765D01*
X0231628Y0179730D01*
X0231550Y0179691D01*
X0231473Y0179649D01*
X0231398Y0179604D01*
X0231326Y0179555D01*
X0231255Y0179504D01*
X0231187Y0179449D01*
X0231122Y0179392D01*
X0231059Y0179331D01*
X0230998Y0179268D01*
X0230941Y0179203D01*
X0230886Y0179135D01*
X0230835Y0179064D01*
X0230786Y0178992D01*
X0230741Y0178917D01*
X0230699Y0178840D01*
X0230660Y0178762D01*
X0230625Y0178682D01*
X0230594Y0178601D01*
X0230566Y0178518D01*
X0230541Y0178435D01*
X0230520Y0178350D01*
X0230503Y0178264D01*
X0230490Y0178178D01*
X0230481Y0178091D01*
X0230475Y0178004D01*
X0230473Y0177917D01*
X0275749Y0176854D02*
X0275749Y0181854D01*
X0275751Y0181941D01*
X0275757Y0182028D01*
X0275766Y0182115D01*
X0275779Y0182201D01*
X0275796Y0182287D01*
X0275817Y0182372D01*
X0275842Y0182455D01*
X0275870Y0182538D01*
X0275901Y0182619D01*
X0275936Y0182699D01*
X0275975Y0182777D01*
X0276017Y0182854D01*
X0276062Y0182929D01*
X0276111Y0183001D01*
X0276162Y0183072D01*
X0276217Y0183140D01*
X0276274Y0183205D01*
X0276335Y0183268D01*
X0276398Y0183329D01*
X0276463Y0183386D01*
X0276531Y0183441D01*
X0276602Y0183492D01*
X0276674Y0183541D01*
X0276749Y0183586D01*
X0276826Y0183628D01*
X0276904Y0183667D01*
X0276984Y0183702D01*
X0277065Y0183733D01*
X0277148Y0183761D01*
X0277231Y0183786D01*
X0277316Y0183807D01*
X0277402Y0183824D01*
X0277488Y0183837D01*
X0277575Y0183846D01*
X0277662Y0183852D01*
X0277749Y0183854D01*
X0290749Y0183854D01*
X0290836Y0183852D01*
X0290923Y0183846D01*
X0291010Y0183837D01*
X0291096Y0183824D01*
X0291182Y0183807D01*
X0291267Y0183786D01*
X0291350Y0183761D01*
X0291433Y0183733D01*
X0291514Y0183702D01*
X0291594Y0183667D01*
X0291672Y0183628D01*
X0291749Y0183586D01*
X0291824Y0183541D01*
X0291896Y0183492D01*
X0291967Y0183441D01*
X0292035Y0183386D01*
X0292100Y0183329D01*
X0292163Y0183268D01*
X0292224Y0183205D01*
X0292281Y0183140D01*
X0292336Y0183072D01*
X0292387Y0183001D01*
X0292436Y0182929D01*
X0292481Y0182854D01*
X0292523Y0182777D01*
X0292562Y0182699D01*
X0292597Y0182619D01*
X0292628Y0182538D01*
X0292656Y0182455D01*
X0292681Y0182372D01*
X0292702Y0182287D01*
X0292719Y0182201D01*
X0292732Y0182115D01*
X0292741Y0182028D01*
X0292747Y0181941D01*
X0292749Y0181854D01*
X0292749Y0176854D01*
X0292747Y0176767D01*
X0292741Y0176680D01*
X0292732Y0176593D01*
X0292719Y0176507D01*
X0292702Y0176421D01*
X0292681Y0176336D01*
X0292656Y0176253D01*
X0292628Y0176170D01*
X0292597Y0176089D01*
X0292562Y0176009D01*
X0292523Y0175931D01*
X0292481Y0175854D01*
X0292436Y0175779D01*
X0292387Y0175707D01*
X0292336Y0175636D01*
X0292281Y0175568D01*
X0292224Y0175503D01*
X0292163Y0175440D01*
X0292100Y0175379D01*
X0292035Y0175322D01*
X0291967Y0175267D01*
X0291896Y0175216D01*
X0291824Y0175167D01*
X0291749Y0175122D01*
X0291672Y0175080D01*
X0291594Y0175041D01*
X0291514Y0175006D01*
X0291433Y0174975D01*
X0291350Y0174947D01*
X0291267Y0174922D01*
X0291182Y0174901D01*
X0291096Y0174884D01*
X0291010Y0174871D01*
X0290923Y0174862D01*
X0290836Y0174856D01*
X0290749Y0174854D01*
X0277749Y0174854D01*
X0277662Y0174856D01*
X0277575Y0174862D01*
X0277488Y0174871D01*
X0277402Y0174884D01*
X0277316Y0174901D01*
X0277231Y0174922D01*
X0277148Y0174947D01*
X0277065Y0174975D01*
X0276984Y0175006D01*
X0276904Y0175041D01*
X0276826Y0175080D01*
X0276749Y0175122D01*
X0276674Y0175167D01*
X0276602Y0175216D01*
X0276531Y0175267D01*
X0276463Y0175322D01*
X0276398Y0175379D01*
X0276335Y0175440D01*
X0276274Y0175503D01*
X0276217Y0175568D01*
X0276162Y0175636D01*
X0276111Y0175707D01*
X0276062Y0175779D01*
X0276017Y0175854D01*
X0275975Y0175931D01*
X0275936Y0176009D01*
X0275901Y0176089D01*
X0275870Y0176170D01*
X0275842Y0176253D01*
X0275817Y0176336D01*
X0275796Y0176421D01*
X0275779Y0176507D01*
X0275766Y0176593D01*
X0275757Y0176680D01*
X0275751Y0176767D01*
X0275749Y0176854D01*
X0243505Y0332334D02*
X0230505Y0332334D01*
X0230418Y0332336D01*
X0230331Y0332342D01*
X0230244Y0332351D01*
X0230158Y0332364D01*
X0230072Y0332381D01*
X0229987Y0332402D01*
X0229904Y0332427D01*
X0229821Y0332455D01*
X0229740Y0332486D01*
X0229660Y0332521D01*
X0229582Y0332560D01*
X0229505Y0332602D01*
X0229430Y0332647D01*
X0229358Y0332696D01*
X0229287Y0332747D01*
X0229219Y0332802D01*
X0229154Y0332859D01*
X0229091Y0332920D01*
X0229030Y0332983D01*
X0228973Y0333048D01*
X0228918Y0333116D01*
X0228867Y0333187D01*
X0228818Y0333259D01*
X0228773Y0333334D01*
X0228731Y0333411D01*
X0228692Y0333489D01*
X0228657Y0333569D01*
X0228626Y0333650D01*
X0228598Y0333733D01*
X0228573Y0333816D01*
X0228552Y0333901D01*
X0228535Y0333987D01*
X0228522Y0334073D01*
X0228513Y0334160D01*
X0228507Y0334247D01*
X0228505Y0334334D01*
X0228505Y0339334D01*
X0228507Y0339421D01*
X0228513Y0339508D01*
X0228522Y0339595D01*
X0228535Y0339681D01*
X0228552Y0339767D01*
X0228573Y0339852D01*
X0228598Y0339935D01*
X0228626Y0340018D01*
X0228657Y0340099D01*
X0228692Y0340179D01*
X0228731Y0340257D01*
X0228773Y0340334D01*
X0228818Y0340409D01*
X0228867Y0340481D01*
X0228918Y0340552D01*
X0228973Y0340620D01*
X0229030Y0340685D01*
X0229091Y0340748D01*
X0229154Y0340809D01*
X0229219Y0340866D01*
X0229287Y0340921D01*
X0229358Y0340972D01*
X0229430Y0341021D01*
X0229505Y0341066D01*
X0229582Y0341108D01*
X0229660Y0341147D01*
X0229740Y0341182D01*
X0229821Y0341213D01*
X0229904Y0341241D01*
X0229987Y0341266D01*
X0230072Y0341287D01*
X0230158Y0341304D01*
X0230244Y0341317D01*
X0230331Y0341326D01*
X0230418Y0341332D01*
X0230505Y0341334D01*
X0243505Y0341334D01*
X0243592Y0341332D01*
X0243679Y0341326D01*
X0243766Y0341317D01*
X0243852Y0341304D01*
X0243938Y0341287D01*
X0244023Y0341266D01*
X0244106Y0341241D01*
X0244189Y0341213D01*
X0244270Y0341182D01*
X0244350Y0341147D01*
X0244428Y0341108D01*
X0244505Y0341066D01*
X0244580Y0341021D01*
X0244652Y0340972D01*
X0244723Y0340921D01*
X0244791Y0340866D01*
X0244856Y0340809D01*
X0244919Y0340748D01*
X0244980Y0340685D01*
X0245037Y0340620D01*
X0245092Y0340552D01*
X0245143Y0340481D01*
X0245192Y0340409D01*
X0245237Y0340334D01*
X0245279Y0340257D01*
X0245318Y0340179D01*
X0245353Y0340099D01*
X0245384Y0340018D01*
X0245412Y0339935D01*
X0245437Y0339852D01*
X0245458Y0339767D01*
X0245475Y0339681D01*
X0245488Y0339595D01*
X0245497Y0339508D01*
X0245503Y0339421D01*
X0245505Y0339334D01*
X0245505Y0334334D01*
X0245503Y0334247D01*
X0245497Y0334160D01*
X0245488Y0334073D01*
X0245475Y0333987D01*
X0245458Y0333901D01*
X0245437Y0333816D01*
X0245412Y0333733D01*
X0245384Y0333650D01*
X0245353Y0333569D01*
X0245318Y0333489D01*
X0245279Y0333411D01*
X0245237Y0333334D01*
X0245192Y0333259D01*
X0245143Y0333187D01*
X0245092Y0333116D01*
X0245037Y0333048D01*
X0244980Y0332983D01*
X0244919Y0332920D01*
X0244856Y0332859D01*
X0244791Y0332802D01*
X0244723Y0332747D01*
X0244652Y0332696D01*
X0244580Y0332647D01*
X0244505Y0332602D01*
X0244428Y0332560D01*
X0244350Y0332521D01*
X0244270Y0332486D01*
X0244189Y0332455D01*
X0244106Y0332427D01*
X0244023Y0332402D01*
X0243938Y0332381D01*
X0243852Y0332364D01*
X0243766Y0332351D01*
X0243679Y0332342D01*
X0243592Y0332336D01*
X0243505Y0332334D01*
X0275749Y0336302D02*
X0275749Y0341302D01*
X0275751Y0341389D01*
X0275757Y0341476D01*
X0275766Y0341563D01*
X0275779Y0341649D01*
X0275796Y0341735D01*
X0275817Y0341820D01*
X0275842Y0341903D01*
X0275870Y0341986D01*
X0275901Y0342067D01*
X0275936Y0342147D01*
X0275975Y0342225D01*
X0276017Y0342302D01*
X0276062Y0342377D01*
X0276111Y0342449D01*
X0276162Y0342520D01*
X0276217Y0342588D01*
X0276274Y0342653D01*
X0276335Y0342716D01*
X0276398Y0342777D01*
X0276463Y0342834D01*
X0276531Y0342889D01*
X0276602Y0342940D01*
X0276674Y0342989D01*
X0276749Y0343034D01*
X0276826Y0343076D01*
X0276904Y0343115D01*
X0276984Y0343150D01*
X0277065Y0343181D01*
X0277148Y0343209D01*
X0277231Y0343234D01*
X0277316Y0343255D01*
X0277402Y0343272D01*
X0277488Y0343285D01*
X0277575Y0343294D01*
X0277662Y0343300D01*
X0277749Y0343302D01*
X0290749Y0343302D01*
X0290836Y0343300D01*
X0290923Y0343294D01*
X0291010Y0343285D01*
X0291096Y0343272D01*
X0291182Y0343255D01*
X0291267Y0343234D01*
X0291350Y0343209D01*
X0291433Y0343181D01*
X0291514Y0343150D01*
X0291594Y0343115D01*
X0291672Y0343076D01*
X0291749Y0343034D01*
X0291824Y0342989D01*
X0291896Y0342940D01*
X0291967Y0342889D01*
X0292035Y0342834D01*
X0292100Y0342777D01*
X0292163Y0342716D01*
X0292224Y0342653D01*
X0292281Y0342588D01*
X0292336Y0342520D01*
X0292387Y0342449D01*
X0292436Y0342377D01*
X0292481Y0342302D01*
X0292523Y0342225D01*
X0292562Y0342147D01*
X0292597Y0342067D01*
X0292628Y0341986D01*
X0292656Y0341903D01*
X0292681Y0341820D01*
X0292702Y0341735D01*
X0292719Y0341649D01*
X0292732Y0341563D01*
X0292741Y0341476D01*
X0292747Y0341389D01*
X0292749Y0341302D01*
X0292749Y0336302D01*
X0292747Y0336215D01*
X0292741Y0336128D01*
X0292732Y0336041D01*
X0292719Y0335955D01*
X0292702Y0335869D01*
X0292681Y0335784D01*
X0292656Y0335701D01*
X0292628Y0335618D01*
X0292597Y0335537D01*
X0292562Y0335457D01*
X0292523Y0335379D01*
X0292481Y0335302D01*
X0292436Y0335227D01*
X0292387Y0335155D01*
X0292336Y0335084D01*
X0292281Y0335016D01*
X0292224Y0334951D01*
X0292163Y0334888D01*
X0292100Y0334827D01*
X0292035Y0334770D01*
X0291967Y0334715D01*
X0291896Y0334664D01*
X0291824Y0334615D01*
X0291749Y0334570D01*
X0291672Y0334528D01*
X0291594Y0334489D01*
X0291514Y0334454D01*
X0291433Y0334423D01*
X0291350Y0334395D01*
X0291267Y0334370D01*
X0291182Y0334349D01*
X0291096Y0334332D01*
X0291010Y0334319D01*
X0290923Y0334310D01*
X0290836Y0334304D01*
X0290749Y0334302D01*
X0277749Y0334302D01*
X0277662Y0334304D01*
X0277575Y0334310D01*
X0277488Y0334319D01*
X0277402Y0334332D01*
X0277316Y0334349D01*
X0277231Y0334370D01*
X0277148Y0334395D01*
X0277065Y0334423D01*
X0276984Y0334454D01*
X0276904Y0334489D01*
X0276826Y0334528D01*
X0276749Y0334570D01*
X0276674Y0334615D01*
X0276602Y0334664D01*
X0276531Y0334715D01*
X0276463Y0334770D01*
X0276398Y0334827D01*
X0276335Y0334888D01*
X0276274Y0334951D01*
X0276217Y0335016D01*
X0276162Y0335084D01*
X0276111Y0335155D01*
X0276062Y0335227D01*
X0276017Y0335302D01*
X0275975Y0335379D01*
X0275936Y0335457D01*
X0275901Y0335537D01*
X0275870Y0335618D01*
X0275842Y0335701D01*
X0275817Y0335784D01*
X0275796Y0335869D01*
X0275779Y0335955D01*
X0275766Y0336041D01*
X0275757Y0336128D01*
X0275751Y0336215D01*
X0275749Y0336302D01*
X0344646Y0334334D02*
X0344646Y0339334D01*
X0344648Y0339421D01*
X0344654Y0339508D01*
X0344663Y0339595D01*
X0344676Y0339681D01*
X0344693Y0339767D01*
X0344714Y0339852D01*
X0344739Y0339935D01*
X0344767Y0340018D01*
X0344798Y0340099D01*
X0344833Y0340179D01*
X0344872Y0340257D01*
X0344914Y0340334D01*
X0344959Y0340409D01*
X0345008Y0340481D01*
X0345059Y0340552D01*
X0345114Y0340620D01*
X0345171Y0340685D01*
X0345232Y0340748D01*
X0345295Y0340809D01*
X0345360Y0340866D01*
X0345428Y0340921D01*
X0345499Y0340972D01*
X0345571Y0341021D01*
X0345646Y0341066D01*
X0345723Y0341108D01*
X0345801Y0341147D01*
X0345881Y0341182D01*
X0345962Y0341213D01*
X0346045Y0341241D01*
X0346128Y0341266D01*
X0346213Y0341287D01*
X0346299Y0341304D01*
X0346385Y0341317D01*
X0346472Y0341326D01*
X0346559Y0341332D01*
X0346646Y0341334D01*
X0359646Y0341334D01*
X0359733Y0341332D01*
X0359820Y0341326D01*
X0359907Y0341317D01*
X0359993Y0341304D01*
X0360079Y0341287D01*
X0360164Y0341266D01*
X0360247Y0341241D01*
X0360330Y0341213D01*
X0360411Y0341182D01*
X0360491Y0341147D01*
X0360569Y0341108D01*
X0360646Y0341066D01*
X0360721Y0341021D01*
X0360793Y0340972D01*
X0360864Y0340921D01*
X0360932Y0340866D01*
X0360997Y0340809D01*
X0361060Y0340748D01*
X0361121Y0340685D01*
X0361178Y0340620D01*
X0361233Y0340552D01*
X0361284Y0340481D01*
X0361333Y0340409D01*
X0361378Y0340334D01*
X0361420Y0340257D01*
X0361459Y0340179D01*
X0361494Y0340099D01*
X0361525Y0340018D01*
X0361553Y0339935D01*
X0361578Y0339852D01*
X0361599Y0339767D01*
X0361616Y0339681D01*
X0361629Y0339595D01*
X0361638Y0339508D01*
X0361644Y0339421D01*
X0361646Y0339334D01*
X0361646Y0334334D01*
X0361644Y0334247D01*
X0361638Y0334160D01*
X0361629Y0334073D01*
X0361616Y0333987D01*
X0361599Y0333901D01*
X0361578Y0333816D01*
X0361553Y0333733D01*
X0361525Y0333650D01*
X0361494Y0333569D01*
X0361459Y0333489D01*
X0361420Y0333411D01*
X0361378Y0333334D01*
X0361333Y0333259D01*
X0361284Y0333187D01*
X0361233Y0333116D01*
X0361178Y0333048D01*
X0361121Y0332983D01*
X0361060Y0332920D01*
X0360997Y0332859D01*
X0360932Y0332802D01*
X0360864Y0332747D01*
X0360793Y0332696D01*
X0360721Y0332647D01*
X0360646Y0332602D01*
X0360569Y0332560D01*
X0360491Y0332521D01*
X0360411Y0332486D01*
X0360330Y0332455D01*
X0360247Y0332427D01*
X0360164Y0332402D01*
X0360079Y0332381D01*
X0359993Y0332364D01*
X0359907Y0332351D01*
X0359820Y0332342D01*
X0359733Y0332336D01*
X0359646Y0332334D01*
X0346646Y0332334D01*
X0346559Y0332336D01*
X0346472Y0332342D01*
X0346385Y0332351D01*
X0346299Y0332364D01*
X0346213Y0332381D01*
X0346128Y0332402D01*
X0346045Y0332427D01*
X0345962Y0332455D01*
X0345881Y0332486D01*
X0345801Y0332521D01*
X0345723Y0332560D01*
X0345646Y0332602D01*
X0345571Y0332647D01*
X0345499Y0332696D01*
X0345428Y0332747D01*
X0345360Y0332802D01*
X0345295Y0332859D01*
X0345232Y0332920D01*
X0345171Y0332983D01*
X0345114Y0333048D01*
X0345059Y0333116D01*
X0345008Y0333187D01*
X0344959Y0333259D01*
X0344914Y0333334D01*
X0344872Y0333411D01*
X0344833Y0333489D01*
X0344798Y0333569D01*
X0344767Y0333650D01*
X0344739Y0333733D01*
X0344714Y0333816D01*
X0344693Y0333901D01*
X0344676Y0333987D01*
X0344663Y0334073D01*
X0344654Y0334160D01*
X0344648Y0334247D01*
X0344646Y0334334D01*
X0395827Y0334334D02*
X0395827Y0339334D01*
X0395829Y0339421D01*
X0395835Y0339508D01*
X0395844Y0339595D01*
X0395857Y0339681D01*
X0395874Y0339767D01*
X0395895Y0339852D01*
X0395920Y0339935D01*
X0395948Y0340018D01*
X0395979Y0340099D01*
X0396014Y0340179D01*
X0396053Y0340257D01*
X0396095Y0340334D01*
X0396140Y0340409D01*
X0396189Y0340481D01*
X0396240Y0340552D01*
X0396295Y0340620D01*
X0396352Y0340685D01*
X0396413Y0340748D01*
X0396476Y0340809D01*
X0396541Y0340866D01*
X0396609Y0340921D01*
X0396680Y0340972D01*
X0396752Y0341021D01*
X0396827Y0341066D01*
X0396904Y0341108D01*
X0396982Y0341147D01*
X0397062Y0341182D01*
X0397143Y0341213D01*
X0397226Y0341241D01*
X0397309Y0341266D01*
X0397394Y0341287D01*
X0397480Y0341304D01*
X0397566Y0341317D01*
X0397653Y0341326D01*
X0397740Y0341332D01*
X0397827Y0341334D01*
X0410827Y0341334D01*
X0410914Y0341332D01*
X0411001Y0341326D01*
X0411088Y0341317D01*
X0411174Y0341304D01*
X0411260Y0341287D01*
X0411345Y0341266D01*
X0411428Y0341241D01*
X0411511Y0341213D01*
X0411592Y0341182D01*
X0411672Y0341147D01*
X0411750Y0341108D01*
X0411827Y0341066D01*
X0411902Y0341021D01*
X0411974Y0340972D01*
X0412045Y0340921D01*
X0412113Y0340866D01*
X0412178Y0340809D01*
X0412241Y0340748D01*
X0412302Y0340685D01*
X0412359Y0340620D01*
X0412414Y0340552D01*
X0412465Y0340481D01*
X0412514Y0340409D01*
X0412559Y0340334D01*
X0412601Y0340257D01*
X0412640Y0340179D01*
X0412675Y0340099D01*
X0412706Y0340018D01*
X0412734Y0339935D01*
X0412759Y0339852D01*
X0412780Y0339767D01*
X0412797Y0339681D01*
X0412810Y0339595D01*
X0412819Y0339508D01*
X0412825Y0339421D01*
X0412827Y0339334D01*
X0412827Y0334334D01*
X0412825Y0334247D01*
X0412819Y0334160D01*
X0412810Y0334073D01*
X0412797Y0333987D01*
X0412780Y0333901D01*
X0412759Y0333816D01*
X0412734Y0333733D01*
X0412706Y0333650D01*
X0412675Y0333569D01*
X0412640Y0333489D01*
X0412601Y0333411D01*
X0412559Y0333334D01*
X0412514Y0333259D01*
X0412465Y0333187D01*
X0412414Y0333116D01*
X0412359Y0333048D01*
X0412302Y0332983D01*
X0412241Y0332920D01*
X0412178Y0332859D01*
X0412113Y0332802D01*
X0412045Y0332747D01*
X0411974Y0332696D01*
X0411902Y0332647D01*
X0411827Y0332602D01*
X0411750Y0332560D01*
X0411672Y0332521D01*
X0411592Y0332486D01*
X0411511Y0332455D01*
X0411428Y0332427D01*
X0411345Y0332402D01*
X0411260Y0332381D01*
X0411174Y0332364D01*
X0411088Y0332351D01*
X0411001Y0332342D01*
X0410914Y0332336D01*
X0410827Y0332334D01*
X0397827Y0332334D01*
X0397740Y0332336D01*
X0397653Y0332342D01*
X0397566Y0332351D01*
X0397480Y0332364D01*
X0397394Y0332381D01*
X0397309Y0332402D01*
X0397226Y0332427D01*
X0397143Y0332455D01*
X0397062Y0332486D01*
X0396982Y0332521D01*
X0396904Y0332560D01*
X0396827Y0332602D01*
X0396752Y0332647D01*
X0396680Y0332696D01*
X0396609Y0332747D01*
X0396541Y0332802D01*
X0396476Y0332859D01*
X0396413Y0332920D01*
X0396352Y0332983D01*
X0396295Y0333048D01*
X0396240Y0333116D01*
X0396189Y0333187D01*
X0396140Y0333259D01*
X0396095Y0333334D01*
X0396053Y0333411D01*
X0396014Y0333489D01*
X0395979Y0333569D01*
X0395948Y0333650D01*
X0395920Y0333733D01*
X0395895Y0333816D01*
X0395874Y0333901D01*
X0395857Y0333987D01*
X0395844Y0334073D01*
X0395835Y0334160D01*
X0395829Y0334247D01*
X0395827Y0334334D01*
X0176607Y0332365D02*
X0176607Y0337365D01*
X0176605Y0337452D01*
X0176599Y0337539D01*
X0176590Y0337626D01*
X0176577Y0337712D01*
X0176560Y0337798D01*
X0176539Y0337883D01*
X0176514Y0337966D01*
X0176486Y0338049D01*
X0176455Y0338130D01*
X0176420Y0338210D01*
X0176381Y0338288D01*
X0176339Y0338365D01*
X0176294Y0338440D01*
X0176245Y0338512D01*
X0176194Y0338583D01*
X0176139Y0338651D01*
X0176082Y0338716D01*
X0176021Y0338779D01*
X0175958Y0338840D01*
X0175893Y0338897D01*
X0175825Y0338952D01*
X0175754Y0339003D01*
X0175682Y0339052D01*
X0175607Y0339097D01*
X0175530Y0339139D01*
X0175452Y0339178D01*
X0175372Y0339213D01*
X0175291Y0339244D01*
X0175208Y0339272D01*
X0175125Y0339297D01*
X0175040Y0339318D01*
X0174954Y0339335D01*
X0174868Y0339348D01*
X0174781Y0339357D01*
X0174694Y0339363D01*
X0174607Y0339365D01*
X0161607Y0339365D01*
X0161520Y0339363D01*
X0161433Y0339357D01*
X0161346Y0339348D01*
X0161260Y0339335D01*
X0161174Y0339318D01*
X0161089Y0339297D01*
X0161006Y0339272D01*
X0160923Y0339244D01*
X0160842Y0339213D01*
X0160762Y0339178D01*
X0160684Y0339139D01*
X0160607Y0339097D01*
X0160532Y0339052D01*
X0160460Y0339003D01*
X0160389Y0338952D01*
X0160321Y0338897D01*
X0160256Y0338840D01*
X0160193Y0338779D01*
X0160132Y0338716D01*
X0160075Y0338651D01*
X0160020Y0338583D01*
X0159969Y0338512D01*
X0159920Y0338440D01*
X0159875Y0338365D01*
X0159833Y0338288D01*
X0159794Y0338210D01*
X0159759Y0338130D01*
X0159728Y0338049D01*
X0159700Y0337966D01*
X0159675Y0337883D01*
X0159654Y0337798D01*
X0159637Y0337712D01*
X0159624Y0337626D01*
X0159615Y0337539D01*
X0159609Y0337452D01*
X0159607Y0337365D01*
X0159607Y0332365D01*
X0159609Y0332278D01*
X0159615Y0332191D01*
X0159624Y0332104D01*
X0159637Y0332018D01*
X0159654Y0331932D01*
X0159675Y0331847D01*
X0159700Y0331764D01*
X0159728Y0331681D01*
X0159759Y0331600D01*
X0159794Y0331520D01*
X0159833Y0331442D01*
X0159875Y0331365D01*
X0159920Y0331290D01*
X0159969Y0331218D01*
X0160020Y0331147D01*
X0160075Y0331079D01*
X0160132Y0331014D01*
X0160193Y0330951D01*
X0160256Y0330890D01*
X0160321Y0330833D01*
X0160389Y0330778D01*
X0160460Y0330727D01*
X0160532Y0330678D01*
X0160607Y0330633D01*
X0160684Y0330591D01*
X0160762Y0330552D01*
X0160842Y0330517D01*
X0160923Y0330486D01*
X0161006Y0330458D01*
X0161089Y0330433D01*
X0161174Y0330412D01*
X0161260Y0330395D01*
X0161346Y0330382D01*
X0161433Y0330373D01*
X0161520Y0330367D01*
X0161607Y0330365D01*
X0174607Y0330365D01*
X0174694Y0330367D01*
X0174781Y0330373D01*
X0174868Y0330382D01*
X0174954Y0330395D01*
X0175040Y0330412D01*
X0175125Y0330433D01*
X0175208Y0330458D01*
X0175291Y0330486D01*
X0175372Y0330517D01*
X0175452Y0330552D01*
X0175530Y0330591D01*
X0175607Y0330633D01*
X0175682Y0330678D01*
X0175754Y0330727D01*
X0175825Y0330778D01*
X0175893Y0330833D01*
X0175958Y0330890D01*
X0176021Y0330951D01*
X0176082Y0331014D01*
X0176139Y0331079D01*
X0176194Y0331147D01*
X0176245Y0331218D01*
X0176294Y0331290D01*
X0176339Y0331365D01*
X0176381Y0331442D01*
X0176420Y0331520D01*
X0176455Y0331600D01*
X0176486Y0331681D01*
X0176514Y0331764D01*
X0176539Y0331847D01*
X0176560Y0331932D01*
X0176577Y0332018D01*
X0176590Y0332104D01*
X0176599Y0332191D01*
X0176605Y0332278D01*
X0176607Y0332365D01*
X0127394Y0334334D02*
X0127394Y0339334D01*
X0127392Y0339421D01*
X0127386Y0339508D01*
X0127377Y0339595D01*
X0127364Y0339681D01*
X0127347Y0339767D01*
X0127326Y0339852D01*
X0127301Y0339935D01*
X0127273Y0340018D01*
X0127242Y0340099D01*
X0127207Y0340179D01*
X0127168Y0340257D01*
X0127126Y0340334D01*
X0127081Y0340409D01*
X0127032Y0340481D01*
X0126981Y0340552D01*
X0126926Y0340620D01*
X0126869Y0340685D01*
X0126808Y0340748D01*
X0126745Y0340809D01*
X0126680Y0340866D01*
X0126612Y0340921D01*
X0126541Y0340972D01*
X0126469Y0341021D01*
X0126394Y0341066D01*
X0126317Y0341108D01*
X0126239Y0341147D01*
X0126159Y0341182D01*
X0126078Y0341213D01*
X0125995Y0341241D01*
X0125912Y0341266D01*
X0125827Y0341287D01*
X0125741Y0341304D01*
X0125655Y0341317D01*
X0125568Y0341326D01*
X0125481Y0341332D01*
X0125394Y0341334D01*
X0112394Y0341334D01*
X0112307Y0341332D01*
X0112220Y0341326D01*
X0112133Y0341317D01*
X0112047Y0341304D01*
X0111961Y0341287D01*
X0111876Y0341266D01*
X0111793Y0341241D01*
X0111710Y0341213D01*
X0111629Y0341182D01*
X0111549Y0341147D01*
X0111471Y0341108D01*
X0111394Y0341066D01*
X0111319Y0341021D01*
X0111247Y0340972D01*
X0111176Y0340921D01*
X0111108Y0340866D01*
X0111043Y0340809D01*
X0110980Y0340748D01*
X0110919Y0340685D01*
X0110862Y0340620D01*
X0110807Y0340552D01*
X0110756Y0340481D01*
X0110707Y0340409D01*
X0110662Y0340334D01*
X0110620Y0340257D01*
X0110581Y0340179D01*
X0110546Y0340099D01*
X0110515Y0340018D01*
X0110487Y0339935D01*
X0110462Y0339852D01*
X0110441Y0339767D01*
X0110424Y0339681D01*
X0110411Y0339595D01*
X0110402Y0339508D01*
X0110396Y0339421D01*
X0110394Y0339334D01*
X0110394Y0334334D01*
X0110396Y0334247D01*
X0110402Y0334160D01*
X0110411Y0334073D01*
X0110424Y0333987D01*
X0110441Y0333901D01*
X0110462Y0333816D01*
X0110487Y0333733D01*
X0110515Y0333650D01*
X0110546Y0333569D01*
X0110581Y0333489D01*
X0110620Y0333411D01*
X0110662Y0333334D01*
X0110707Y0333259D01*
X0110756Y0333187D01*
X0110807Y0333116D01*
X0110862Y0333048D01*
X0110919Y0332983D01*
X0110980Y0332920D01*
X0111043Y0332859D01*
X0111108Y0332802D01*
X0111176Y0332747D01*
X0111247Y0332696D01*
X0111319Y0332647D01*
X0111394Y0332602D01*
X0111471Y0332560D01*
X0111549Y0332521D01*
X0111629Y0332486D01*
X0111710Y0332455D01*
X0111793Y0332427D01*
X0111876Y0332402D01*
X0111961Y0332381D01*
X0112047Y0332364D01*
X0112133Y0332351D01*
X0112220Y0332342D01*
X0112307Y0332336D01*
X0112394Y0332334D01*
X0125394Y0332334D01*
X0125481Y0332336D01*
X0125568Y0332342D01*
X0125655Y0332351D01*
X0125741Y0332364D01*
X0125827Y0332381D01*
X0125912Y0332402D01*
X0125995Y0332427D01*
X0126078Y0332455D01*
X0126159Y0332486D01*
X0126239Y0332521D01*
X0126317Y0332560D01*
X0126394Y0332602D01*
X0126469Y0332647D01*
X0126541Y0332696D01*
X0126612Y0332747D01*
X0126680Y0332802D01*
X0126745Y0332859D01*
X0126808Y0332920D01*
X0126869Y0332983D01*
X0126926Y0333048D01*
X0126981Y0333116D01*
X0127032Y0333187D01*
X0127081Y0333259D01*
X0127126Y0333334D01*
X0127168Y0333411D01*
X0127207Y0333489D01*
X0127242Y0333569D01*
X0127273Y0333650D01*
X0127301Y0333733D01*
X0127326Y0333816D01*
X0127347Y0333901D01*
X0127364Y0333987D01*
X0127377Y0334073D01*
X0127386Y0334160D01*
X0127392Y0334247D01*
X0127394Y0334334D01*
D11*
X0099028Y0008188D02*
X0069028Y0008188D01*
X0069028Y0018188D01*
X0099028Y0018188D01*
X0099028Y0008188D01*
X0110485Y0008188D02*
X0110485Y0018188D01*
X0150485Y0018188D01*
X0150485Y0008188D01*
X0110485Y0008188D01*
X0114540Y0043621D02*
X0114540Y0053621D01*
X0154540Y0053621D01*
X0154540Y0043621D01*
X0114540Y0043621D01*
X0157335Y0018188D02*
X0157335Y0008188D01*
X0177335Y0008188D01*
X0177335Y0018188D01*
X0157335Y0018188D01*
X0167217Y0043621D02*
X0167217Y0053621D01*
X0187217Y0053621D01*
X0187217Y0043621D01*
X0167217Y0043621D01*
X0187335Y0022125D02*
X0187335Y0012125D01*
X0207335Y0012125D01*
X0207335Y0022125D01*
X0187335Y0022125D01*
X0382020Y0018188D02*
X0382020Y0008188D01*
X0412020Y0008188D01*
X0412020Y0018188D01*
X0382020Y0018188D01*
X0383579Y0033527D02*
X0393579Y0033527D01*
X0393579Y0053527D01*
X0383579Y0053527D01*
X0383579Y0033527D01*
X0424107Y0035196D02*
X0424107Y0015196D01*
X0425800Y0015196D01*
X0431902Y0015196D02*
X0436312Y0015196D01*
X0441902Y0015196D02*
X0446351Y0015196D01*
X0451981Y0015196D02*
X0454107Y0015196D01*
X0454107Y0035196D01*
X0451981Y0035196D01*
X0446312Y0035196D02*
X0441902Y0035196D01*
X0436233Y0035196D02*
X0431863Y0035196D01*
X0425879Y0035196D02*
X0424107Y0035196D01*
D12*
X0423607Y0010196D02*
X0423609Y0010240D01*
X0423615Y0010284D01*
X0423625Y0010327D01*
X0423638Y0010369D01*
X0423655Y0010410D01*
X0423676Y0010449D01*
X0423700Y0010486D01*
X0423727Y0010521D01*
X0423757Y0010553D01*
X0423790Y0010583D01*
X0423826Y0010609D01*
X0423863Y0010633D01*
X0423903Y0010652D01*
X0423944Y0010669D01*
X0423987Y0010681D01*
X0424030Y0010690D01*
X0424074Y0010695D01*
X0424118Y0010696D01*
X0424162Y0010693D01*
X0424206Y0010686D01*
X0424249Y0010675D01*
X0424291Y0010661D01*
X0424331Y0010643D01*
X0424370Y0010621D01*
X0424406Y0010597D01*
X0424440Y0010569D01*
X0424472Y0010538D01*
X0424501Y0010504D01*
X0424527Y0010468D01*
X0424549Y0010430D01*
X0424568Y0010390D01*
X0424583Y0010348D01*
X0424595Y0010306D01*
X0424603Y0010262D01*
X0424607Y0010218D01*
X0424607Y0010174D01*
X0424603Y0010130D01*
X0424595Y0010086D01*
X0424583Y0010044D01*
X0424568Y0010002D01*
X0424549Y0009962D01*
X0424527Y0009924D01*
X0424501Y0009888D01*
X0424472Y0009854D01*
X0424440Y0009823D01*
X0424406Y0009795D01*
X0424370Y0009771D01*
X0424331Y0009749D01*
X0424291Y0009731D01*
X0424249Y0009717D01*
X0424206Y0009706D01*
X0424162Y0009699D01*
X0424118Y0009696D01*
X0424074Y0009697D01*
X0424030Y0009702D01*
X0423987Y0009711D01*
X0423944Y0009723D01*
X0423903Y0009740D01*
X0423863Y0009759D01*
X0423826Y0009783D01*
X0423790Y0009809D01*
X0423757Y0009839D01*
X0423727Y0009871D01*
X0423700Y0009906D01*
X0423676Y0009943D01*
X0423655Y0009982D01*
X0423638Y0010023D01*
X0423625Y0010065D01*
X0423615Y0010108D01*
X0423609Y0010152D01*
X0423607Y0010196D01*
X0245953Y0017259D02*
X0245953Y0041259D01*
X0245950Y0041466D01*
X0245943Y0041673D01*
X0245930Y0041879D01*
X0245913Y0042086D01*
X0245890Y0042291D01*
X0245862Y0042497D01*
X0245830Y0042701D01*
X0245792Y0042905D01*
X0245750Y0043107D01*
X0245702Y0043309D01*
X0245650Y0043509D01*
X0245593Y0043708D01*
X0245531Y0043905D01*
X0245464Y0044101D01*
X0245392Y0044295D01*
X0245316Y0044488D01*
X0245235Y0044678D01*
X0245149Y0044867D01*
X0245059Y0045053D01*
X0244965Y0045237D01*
X0244865Y0045419D01*
X0244762Y0045598D01*
X0244654Y0045775D01*
X0244542Y0045949D01*
X0244426Y0046120D01*
X0244305Y0046289D01*
X0244181Y0046454D01*
X0244052Y0046616D01*
X0243920Y0046775D01*
X0243784Y0046931D01*
X0243644Y0047084D01*
X0243500Y0047233D01*
X0243353Y0047378D01*
X0243202Y0047520D01*
X0243048Y0047658D01*
X0242890Y0047793D01*
X0242730Y0047923D01*
X0242566Y0048049D01*
X0242399Y0048172D01*
X0242229Y0048290D01*
X0242056Y0048405D01*
X0241881Y0048515D01*
X0241703Y0048620D01*
X0241522Y0048722D01*
X0241340Y0048818D01*
X0241154Y0048911D01*
X0240967Y0048999D01*
X0240777Y0049082D01*
X0240586Y0049161D01*
X0240393Y0049235D01*
X0240197Y0049304D01*
X0240001Y0049368D01*
X0239803Y0049428D01*
X0239603Y0049483D01*
X0239402Y0049533D01*
X0239200Y0049578D01*
X0238997Y0049618D01*
X0238793Y0049653D01*
X0238588Y0049683D01*
X0238383Y0049708D01*
X0238177Y0049728D01*
X0237970Y0049743D01*
X0237763Y0049753D01*
X0237556Y0049758D01*
X0237350Y0049758D01*
X0237143Y0049753D01*
X0236936Y0049743D01*
X0236729Y0049728D01*
X0236523Y0049708D01*
X0236318Y0049683D01*
X0236113Y0049653D01*
X0235909Y0049618D01*
X0235706Y0049578D01*
X0235504Y0049533D01*
X0235303Y0049483D01*
X0235103Y0049428D01*
X0234905Y0049368D01*
X0234709Y0049304D01*
X0234513Y0049235D01*
X0234320Y0049161D01*
X0234129Y0049082D01*
X0233939Y0048999D01*
X0233752Y0048911D01*
X0233566Y0048818D01*
X0233384Y0048722D01*
X0233203Y0048620D01*
X0233025Y0048515D01*
X0232850Y0048405D01*
X0232677Y0048290D01*
X0232507Y0048172D01*
X0232340Y0048049D01*
X0232176Y0047923D01*
X0232016Y0047793D01*
X0231858Y0047658D01*
X0231704Y0047520D01*
X0231553Y0047378D01*
X0231406Y0047233D01*
X0231262Y0047084D01*
X0231122Y0046931D01*
X0230986Y0046775D01*
X0230854Y0046616D01*
X0230725Y0046454D01*
X0230601Y0046289D01*
X0230480Y0046120D01*
X0230364Y0045949D01*
X0230252Y0045775D01*
X0230144Y0045598D01*
X0230041Y0045419D01*
X0229941Y0045237D01*
X0229847Y0045053D01*
X0229757Y0044867D01*
X0229671Y0044678D01*
X0229590Y0044488D01*
X0229514Y0044295D01*
X0229442Y0044101D01*
X0229375Y0043905D01*
X0229313Y0043708D01*
X0229256Y0043509D01*
X0229204Y0043309D01*
X0229156Y0043107D01*
X0229114Y0042905D01*
X0229076Y0042701D01*
X0229044Y0042497D01*
X0229016Y0042291D01*
X0228993Y0042086D01*
X0228976Y0041879D01*
X0228963Y0041673D01*
X0228956Y0041466D01*
X0228953Y0041259D01*
X0228953Y0017259D01*
X0228956Y0017052D01*
X0228963Y0016845D01*
X0228976Y0016639D01*
X0228993Y0016432D01*
X0229016Y0016227D01*
X0229044Y0016021D01*
X0229076Y0015817D01*
X0229114Y0015613D01*
X0229156Y0015411D01*
X0229204Y0015209D01*
X0229256Y0015009D01*
X0229313Y0014810D01*
X0229375Y0014613D01*
X0229442Y0014417D01*
X0229514Y0014223D01*
X0229590Y0014030D01*
X0229671Y0013840D01*
X0229757Y0013651D01*
X0229847Y0013465D01*
X0229941Y0013281D01*
X0230041Y0013099D01*
X0230144Y0012920D01*
X0230252Y0012743D01*
X0230364Y0012569D01*
X0230480Y0012398D01*
X0230601Y0012229D01*
X0230725Y0012064D01*
X0230854Y0011902D01*
X0230986Y0011743D01*
X0231122Y0011587D01*
X0231262Y0011434D01*
X0231406Y0011285D01*
X0231553Y0011140D01*
X0231704Y0010998D01*
X0231858Y0010860D01*
X0232016Y0010725D01*
X0232176Y0010595D01*
X0232340Y0010469D01*
X0232507Y0010346D01*
X0232677Y0010228D01*
X0232850Y0010113D01*
X0233025Y0010003D01*
X0233203Y0009898D01*
X0233384Y0009796D01*
X0233566Y0009700D01*
X0233752Y0009607D01*
X0233939Y0009519D01*
X0234129Y0009436D01*
X0234320Y0009357D01*
X0234513Y0009283D01*
X0234709Y0009214D01*
X0234905Y0009150D01*
X0235103Y0009090D01*
X0235303Y0009035D01*
X0235504Y0008985D01*
X0235706Y0008940D01*
X0235909Y0008900D01*
X0236113Y0008865D01*
X0236318Y0008835D01*
X0236523Y0008810D01*
X0236729Y0008790D01*
X0236936Y0008775D01*
X0237143Y0008765D01*
X0237350Y0008760D01*
X0237556Y0008760D01*
X0237763Y0008765D01*
X0237970Y0008775D01*
X0238177Y0008790D01*
X0238383Y0008810D01*
X0238588Y0008835D01*
X0238793Y0008865D01*
X0238997Y0008900D01*
X0239200Y0008940D01*
X0239402Y0008985D01*
X0239603Y0009035D01*
X0239803Y0009090D01*
X0240001Y0009150D01*
X0240197Y0009214D01*
X0240393Y0009283D01*
X0240586Y0009357D01*
X0240777Y0009436D01*
X0240967Y0009519D01*
X0241154Y0009607D01*
X0241340Y0009700D01*
X0241522Y0009796D01*
X0241703Y0009898D01*
X0241881Y0010003D01*
X0242056Y0010113D01*
X0242229Y0010228D01*
X0242399Y0010346D01*
X0242566Y0010469D01*
X0242730Y0010595D01*
X0242890Y0010725D01*
X0243048Y0010860D01*
X0243202Y0010998D01*
X0243353Y0011140D01*
X0243500Y0011285D01*
X0243644Y0011434D01*
X0243784Y0011587D01*
X0243920Y0011743D01*
X0244052Y0011902D01*
X0244181Y0012064D01*
X0244305Y0012229D01*
X0244426Y0012398D01*
X0244542Y0012569D01*
X0244654Y0012743D01*
X0244762Y0012920D01*
X0244865Y0013099D01*
X0244965Y0013281D01*
X0245059Y0013465D01*
X0245149Y0013651D01*
X0245235Y0013840D01*
X0245316Y0014030D01*
X0245392Y0014223D01*
X0245464Y0014417D01*
X0245531Y0014613D01*
X0245593Y0014810D01*
X0245650Y0015009D01*
X0245702Y0015209D01*
X0245750Y0015411D01*
X0245792Y0015613D01*
X0245830Y0015817D01*
X0245862Y0016021D01*
X0245890Y0016227D01*
X0245913Y0016432D01*
X0245930Y0016639D01*
X0245943Y0016845D01*
X0245950Y0017052D01*
X0245953Y0017259D01*
D13*
X0264107Y0043897D03*
D14*
X0320450Y0032747D02*
X0320450Y0026747D01*
X0322950Y0026747D02*
X0322950Y0032747D01*
X0359820Y0056669D02*
X0359820Y0062669D01*
X0362320Y0062669D02*
X0362320Y0056669D01*
X0358383Y0097614D02*
X0358383Y0103614D01*
X0355883Y0103614D02*
X0355883Y0097614D01*
X0399190Y0097614D02*
X0399190Y0103614D01*
X0401690Y0103614D02*
X0401690Y0097614D01*
X0401159Y0176354D02*
X0401159Y0182354D01*
X0403659Y0182354D02*
X0403659Y0176354D01*
X0354446Y0176354D02*
X0354446Y0182354D01*
X0351946Y0182354D02*
X0351946Y0176354D01*
X0285549Y0176354D02*
X0285549Y0182354D01*
X0283049Y0182354D02*
X0283049Y0176354D01*
X0240273Y0178417D02*
X0240273Y0172417D01*
X0237773Y0172417D02*
X0237773Y0178417D01*
X0167438Y0176354D02*
X0167438Y0182354D01*
X0164938Y0182354D02*
X0164938Y0176354D01*
X0120194Y0176354D02*
X0120194Y0182354D01*
X0117694Y0182354D02*
X0117694Y0176354D01*
X0117694Y0101645D02*
X0117694Y0095645D01*
X0120194Y0095645D02*
X0120194Y0101645D01*
X0162970Y0101645D02*
X0162970Y0095645D01*
X0165470Y0095645D02*
X0165470Y0101645D01*
X0235805Y0101645D02*
X0235805Y0095645D01*
X0238305Y0095645D02*
X0238305Y0101645D01*
X0283049Y0103614D02*
X0283049Y0097614D01*
X0285549Y0097614D02*
X0285549Y0103614D01*
X0283580Y0253125D02*
X0283580Y0259125D01*
X0281080Y0259125D02*
X0281080Y0253125D01*
X0240273Y0253125D02*
X0240273Y0259125D01*
X0237773Y0259125D02*
X0237773Y0253125D01*
X0167438Y0253125D02*
X0167438Y0259125D01*
X0164938Y0259125D02*
X0164938Y0253125D01*
X0120194Y0253125D02*
X0120194Y0259125D01*
X0117694Y0259125D02*
X0117694Y0253125D01*
X0166907Y0331865D02*
X0166907Y0337865D01*
X0169407Y0337865D02*
X0169407Y0331865D01*
X0120194Y0333834D02*
X0120194Y0339834D01*
X0117694Y0339834D02*
X0117694Y0333834D01*
X0235805Y0333834D02*
X0235805Y0339834D01*
X0238305Y0339834D02*
X0238305Y0333834D01*
X0283049Y0335802D02*
X0283049Y0341802D01*
X0285549Y0341802D02*
X0285549Y0335802D01*
X0351946Y0333834D02*
X0351946Y0339834D01*
X0354446Y0339834D02*
X0354446Y0333834D01*
X0403127Y0333834D02*
X0403127Y0339834D01*
X0405627Y0339834D02*
X0405627Y0333834D01*
X0403659Y0261094D02*
X0403659Y0255094D01*
X0401159Y0255094D02*
X0401159Y0261094D01*
X0356415Y0259125D02*
X0356415Y0253125D01*
X0353915Y0253125D02*
X0353915Y0259125D01*
X0085228Y0061188D02*
X0085228Y0055188D01*
X0082728Y0055188D02*
X0082728Y0061188D01*
X0082828Y0041188D02*
X0082828Y0035188D01*
X0085328Y0035188D02*
X0085328Y0041188D01*
M02*
