%
M48
M72
T01C0.03200
T02C0.04331
%
T01
X32300Y38188
X42300Y38188
X42300Y58188
X32300Y58188
X147800Y93188
X166800Y93188
X252300Y82688
X252300Y63688
T02
X27300Y13188
X37300Y13188
X47300Y13188
X72300Y13188
X82300Y13188
X102300Y13188
X112300Y13188
X137300Y13188
X147300Y13188
X167300Y13188
X177300Y13188
X187300Y13188
X197300Y13188
X222300Y13188
X232300Y13188
X242300Y13188
X252300Y13188
X277300Y13188
X287300Y13188
X297300Y13188
M30
