G75*
%MOIN*%
%OFA0B0*%
%FSLAX25Y25*%
%IPPOS*%
%LPD*%
%AMOC8*
5,1,8,0,0,1.08239X$1,22.5*
%
%ADD10R,0.06706X0.04737*%
%ADD11R,0.04737X0.13005*%
%ADD12R,0.07296X0.07296*%
%ADD13C,0.07296*%
%ADD14R,0.06706X0.02965*%
%ADD15R,0.02965X0.06706*%
%ADD16R,0.09461X0.03162*%
%ADD17C,0.06000*%
%ADD18R,0.04737X0.05131*%
%ADD19R,0.05131X0.04737*%
%ADD20OC8,0.06400*%
D10*
X0012654Y0131889D03*
X0012654Y0144488D03*
X0031946Y0144488D03*
X0031946Y0131889D03*
X0062654Y0131889D03*
X0062654Y0144488D03*
X0081946Y0144488D03*
X0081946Y0131889D03*
X0122654Y0131889D03*
X0122654Y0144488D03*
X0141946Y0144488D03*
X0141946Y0131889D03*
X0177654Y0131889D03*
X0177654Y0144488D03*
X0196946Y0144488D03*
X0196946Y0131889D03*
X0227654Y0131889D03*
X0227654Y0144488D03*
X0246946Y0144488D03*
X0246946Y0131889D03*
X0287654Y0131889D03*
X0287654Y0144488D03*
X0306946Y0144488D03*
X0306946Y0131889D03*
X0306946Y0206889D03*
X0306946Y0219488D03*
X0287654Y0219488D03*
X0287654Y0206889D03*
X0246946Y0206889D03*
X0246946Y0219488D03*
X0227654Y0219488D03*
X0227654Y0206889D03*
X0196946Y0206889D03*
X0196946Y0219488D03*
X0177654Y0219488D03*
X0177654Y0206889D03*
X0141946Y0206889D03*
X0141946Y0219488D03*
X0122654Y0219488D03*
X0122654Y0206889D03*
X0081946Y0206889D03*
X0081946Y0219488D03*
X0062654Y0219488D03*
X0062654Y0206889D03*
X0031946Y0206889D03*
X0031946Y0219488D03*
X0012654Y0219488D03*
X0012654Y0206889D03*
X0012654Y0271889D03*
X0012654Y0284488D03*
X0031946Y0284488D03*
X0031946Y0271889D03*
X0062654Y0271889D03*
X0062654Y0284488D03*
X0081946Y0284488D03*
X0081946Y0271889D03*
X0122654Y0271889D03*
X0122654Y0284488D03*
X0141946Y0284488D03*
X0141946Y0271889D03*
X0177654Y0271889D03*
X0177654Y0284488D03*
X0196946Y0284488D03*
X0196946Y0271889D03*
X0227654Y0271889D03*
X0227654Y0284488D03*
X0246946Y0284488D03*
X0246946Y0271889D03*
X0287654Y0271889D03*
X0287654Y0284488D03*
X0306946Y0284488D03*
X0306946Y0271889D03*
X0306946Y0331889D03*
X0306946Y0344488D03*
X0287654Y0344488D03*
X0287654Y0331889D03*
X0246946Y0331889D03*
X0246946Y0344488D03*
X0227654Y0344488D03*
X0227654Y0331889D03*
X0196946Y0331889D03*
X0196946Y0344488D03*
X0177654Y0344488D03*
X0177654Y0331889D03*
X0141946Y0331889D03*
X0141946Y0344488D03*
X0122654Y0344488D03*
X0122654Y0331889D03*
X0076946Y0331889D03*
X0076946Y0344488D03*
X0057654Y0344488D03*
X0057654Y0331889D03*
X0031946Y0331889D03*
X0031946Y0344488D03*
X0012654Y0344488D03*
X0012654Y0331889D03*
D11*
X0012300Y0098818D03*
X0022300Y0098818D03*
X0032300Y0098818D03*
X0032300Y0077558D03*
X0022300Y0077558D03*
X0012300Y0077558D03*
D12*
X0027300Y0013188D03*
X0072300Y0013188D03*
X0102300Y0013188D03*
X0137300Y0013188D03*
X0167300Y0013188D03*
X0222300Y0013188D03*
X0297300Y0013188D03*
D13*
X0287300Y0013188D03*
X0277300Y0013188D03*
X0252300Y0013188D03*
X0242300Y0013188D03*
X0232300Y0013188D03*
X0197300Y0013188D03*
X0187300Y0013188D03*
X0177300Y0013188D03*
X0147300Y0013188D03*
X0112300Y0013188D03*
X0082300Y0013188D03*
X0047300Y0013188D03*
X0037300Y0013188D03*
D14*
X0080371Y0077165D03*
X0080371Y0080314D03*
X0080371Y0083464D03*
X0080371Y0086614D03*
X0080371Y0089763D03*
X0080371Y0092913D03*
X0080371Y0096062D03*
X0080371Y0099212D03*
X0114229Y0099212D03*
X0114229Y0096062D03*
X0114229Y0092913D03*
X0114229Y0089763D03*
X0114229Y0086614D03*
X0114229Y0083464D03*
X0114229Y0080314D03*
X0114229Y0077165D03*
D15*
X0108324Y0071259D03*
X0105174Y0071259D03*
X0102024Y0071259D03*
X0098875Y0071259D03*
X0095725Y0071259D03*
X0092576Y0071259D03*
X0089426Y0071259D03*
X0086276Y0071259D03*
X0086276Y0105117D03*
X0089426Y0105117D03*
X0092576Y0105117D03*
X0095725Y0105117D03*
X0098875Y0105117D03*
X0102024Y0105117D03*
X0105174Y0105117D03*
X0108324Y0105117D03*
D16*
X0207064Y0085688D03*
X0207064Y0080688D03*
X0207064Y0075688D03*
X0207064Y0070688D03*
X0227536Y0070688D03*
X0227536Y0075688D03*
X0227536Y0080688D03*
X0227536Y0085688D03*
D17*
X0252300Y0082688D03*
X0252300Y0063688D03*
X0166800Y0093188D03*
X0147800Y0093188D03*
D18*
X0178954Y0038188D03*
X0185646Y0038188D03*
X0198954Y0038188D03*
X0205646Y0038188D03*
X0228954Y0038188D03*
X0235646Y0038188D03*
X0248954Y0038188D03*
X0255646Y0038188D03*
X0253954Y0103188D03*
X0245646Y0103188D03*
X0238954Y0103188D03*
X0230646Y0103188D03*
X0223954Y0103188D03*
X0215646Y0103188D03*
X0208954Y0103188D03*
X0260646Y0103188D03*
X0085646Y0038188D03*
X0078954Y0038188D03*
X0054416Y0118188D03*
X0047723Y0118188D03*
D19*
X0143954Y0113188D03*
X0150646Y0113188D03*
X0168954Y0113188D03*
X0175646Y0113188D03*
X0152300Y0041535D03*
X0152300Y0034842D03*
D20*
X0042300Y0038188D03*
X0032300Y0038188D03*
X0032300Y0058188D03*
X0042300Y0058188D03*
M02*
