G75*
%MOIN*%
%OFA0B0*%
%FSLAX25Y25*%
%IPPOS*%
%LPD*%
%AMOC8*
5,1,8,0,0,1.08239X$1,22.5*
%
%ADD10C,0.00600*%
%ADD11C,0.00500*%
%ADD12C,0.01600*%
%ADD13C,0.02000*%
%ADD14C,0.01200*%
D10*
X0021600Y0022488D02*
X0021600Y0028894D01*
X0024803Y0028894D01*
X0025870Y0027826D01*
X0025870Y0025691D01*
X0024803Y0024623D01*
X0021600Y0024623D01*
X0028045Y0023556D02*
X0029113Y0022488D01*
X0031248Y0022488D01*
X0032316Y0023556D01*
X0032316Y0027826D01*
X0031248Y0028894D01*
X0029113Y0028894D01*
X0028045Y0027826D01*
X0028045Y0023556D01*
X0034491Y0022488D02*
X0034491Y0028894D01*
X0030800Y0033688D02*
X0043800Y0033688D01*
X0043887Y0033690D01*
X0043974Y0033696D01*
X0044061Y0033705D01*
X0044147Y0033718D01*
X0044233Y0033735D01*
X0044318Y0033756D01*
X0044401Y0033781D01*
X0044484Y0033809D01*
X0044565Y0033840D01*
X0044645Y0033875D01*
X0044723Y0033914D01*
X0044800Y0033956D01*
X0044875Y0034001D01*
X0044947Y0034050D01*
X0045018Y0034101D01*
X0045086Y0034156D01*
X0045151Y0034213D01*
X0045214Y0034274D01*
X0045275Y0034337D01*
X0045332Y0034402D01*
X0045387Y0034470D01*
X0045438Y0034541D01*
X0045487Y0034613D01*
X0045532Y0034688D01*
X0045574Y0034765D01*
X0045613Y0034843D01*
X0045648Y0034923D01*
X0045679Y0035004D01*
X0045707Y0035087D01*
X0045732Y0035170D01*
X0045753Y0035255D01*
X0045770Y0035341D01*
X0045783Y0035427D01*
X0045792Y0035514D01*
X0045798Y0035601D01*
X0045800Y0035688D01*
X0045800Y0040688D01*
X0045798Y0040775D01*
X0045792Y0040862D01*
X0045783Y0040949D01*
X0045770Y0041035D01*
X0045753Y0041121D01*
X0045732Y0041206D01*
X0045707Y0041289D01*
X0045679Y0041372D01*
X0045648Y0041453D01*
X0045613Y0041533D01*
X0045574Y0041611D01*
X0045532Y0041688D01*
X0045487Y0041763D01*
X0045438Y0041835D01*
X0045387Y0041906D01*
X0045332Y0041974D01*
X0045275Y0042039D01*
X0045214Y0042102D01*
X0045151Y0042163D01*
X0045086Y0042220D01*
X0045018Y0042275D01*
X0044947Y0042326D01*
X0044875Y0042375D01*
X0044800Y0042420D01*
X0044723Y0042462D01*
X0044645Y0042501D01*
X0044565Y0042536D01*
X0044484Y0042567D01*
X0044401Y0042595D01*
X0044318Y0042620D01*
X0044233Y0042641D01*
X0044147Y0042658D01*
X0044061Y0042671D01*
X0043974Y0042680D01*
X0043887Y0042686D01*
X0043800Y0042688D01*
X0030800Y0042688D01*
X0030713Y0042686D01*
X0030626Y0042680D01*
X0030539Y0042671D01*
X0030453Y0042658D01*
X0030367Y0042641D01*
X0030282Y0042620D01*
X0030199Y0042595D01*
X0030116Y0042567D01*
X0030035Y0042536D01*
X0029955Y0042501D01*
X0029877Y0042462D01*
X0029800Y0042420D01*
X0029725Y0042375D01*
X0029653Y0042326D01*
X0029582Y0042275D01*
X0029514Y0042220D01*
X0029449Y0042163D01*
X0029386Y0042102D01*
X0029325Y0042039D01*
X0029268Y0041974D01*
X0029213Y0041906D01*
X0029162Y0041835D01*
X0029113Y0041763D01*
X0029068Y0041688D01*
X0029026Y0041611D01*
X0028987Y0041533D01*
X0028952Y0041453D01*
X0028921Y0041372D01*
X0028893Y0041289D01*
X0028868Y0041206D01*
X0028847Y0041121D01*
X0028830Y0041035D01*
X0028817Y0040949D01*
X0028808Y0040862D01*
X0028802Y0040775D01*
X0028800Y0040688D01*
X0028800Y0035688D01*
X0028802Y0035601D01*
X0028808Y0035514D01*
X0028817Y0035427D01*
X0028830Y0035341D01*
X0028847Y0035255D01*
X0028868Y0035170D01*
X0028893Y0035087D01*
X0028921Y0035004D01*
X0028952Y0034923D01*
X0028987Y0034843D01*
X0029026Y0034765D01*
X0029068Y0034688D01*
X0029113Y0034613D01*
X0029162Y0034541D01*
X0029213Y0034470D01*
X0029268Y0034402D01*
X0029325Y0034337D01*
X0029386Y0034274D01*
X0029449Y0034213D01*
X0029514Y0034156D01*
X0029582Y0034101D01*
X0029653Y0034050D01*
X0029725Y0034001D01*
X0029800Y0033956D01*
X0029877Y0033914D01*
X0029955Y0033875D01*
X0030035Y0033840D01*
X0030116Y0033809D01*
X0030199Y0033781D01*
X0030282Y0033756D01*
X0030367Y0033735D01*
X0030453Y0033718D01*
X0030539Y0033705D01*
X0030626Y0033696D01*
X0030713Y0033690D01*
X0030800Y0033688D01*
X0038761Y0028894D02*
X0038761Y0022488D01*
X0036626Y0024623D01*
X0034491Y0022488D01*
X0040936Y0022488D02*
X0040936Y0028894D01*
X0045207Y0028894D01*
X0047382Y0028894D02*
X0050585Y0028894D01*
X0051652Y0027826D01*
X0051652Y0025691D01*
X0050585Y0024623D01*
X0047382Y0024623D01*
X0047382Y0022488D02*
X0047382Y0028894D01*
X0043072Y0025691D02*
X0040936Y0025691D01*
X0040936Y0022488D02*
X0045207Y0022488D01*
X0049517Y0024623D02*
X0051652Y0022488D01*
X0071600Y0022488D02*
X0071600Y0028894D01*
X0074803Y0028894D01*
X0075870Y0027826D01*
X0075870Y0025691D01*
X0074803Y0024623D01*
X0071600Y0024623D01*
X0073735Y0024623D02*
X0075870Y0022488D01*
X0078045Y0023556D02*
X0079113Y0022488D01*
X0081248Y0022488D01*
X0082316Y0023556D01*
X0082316Y0024623D01*
X0081248Y0025691D01*
X0079113Y0025691D01*
X0078045Y0026759D01*
X0078045Y0027826D01*
X0079113Y0028894D01*
X0081248Y0028894D01*
X0082316Y0027826D01*
X0084491Y0028894D02*
X0088761Y0028894D01*
X0086626Y0028894D02*
X0086626Y0022488D01*
X0101600Y0023556D02*
X0102668Y0022488D01*
X0104803Y0022488D01*
X0105870Y0023556D01*
X0105870Y0024623D01*
X0104803Y0025691D01*
X0102668Y0025691D01*
X0101600Y0026759D01*
X0101600Y0027826D01*
X0102668Y0028894D01*
X0104803Y0028894D01*
X0105870Y0027826D01*
X0108045Y0028894D02*
X0108045Y0022488D01*
X0108045Y0024623D02*
X0111248Y0024623D01*
X0112316Y0025691D01*
X0112316Y0027826D01*
X0111248Y0028894D01*
X0108045Y0028894D01*
X0131600Y0027826D02*
X0131600Y0026759D01*
X0132668Y0025691D01*
X0134803Y0025691D01*
X0135870Y0024623D01*
X0135870Y0023556D01*
X0134803Y0022488D01*
X0132668Y0022488D01*
X0131600Y0023556D01*
X0131600Y0027826D02*
X0132668Y0028894D01*
X0134803Y0028894D01*
X0135870Y0027826D01*
X0138045Y0028894D02*
X0138045Y0022488D01*
X0138045Y0025691D02*
X0142316Y0025691D01*
X0144491Y0023556D02*
X0145559Y0022488D01*
X0147694Y0022488D01*
X0148761Y0023556D01*
X0148761Y0028894D01*
X0150936Y0028894D02*
X0155207Y0028894D01*
X0153072Y0028894D02*
X0153072Y0022488D01*
X0144491Y0023556D02*
X0144491Y0028894D01*
X0142316Y0028894D02*
X0142316Y0022488D01*
X0166600Y0022488D02*
X0166600Y0028894D01*
X0168735Y0026759D01*
X0170870Y0028894D01*
X0170870Y0022488D01*
X0173045Y0023556D02*
X0173045Y0027826D01*
X0174113Y0028894D01*
X0176248Y0028894D01*
X0177316Y0027826D01*
X0177316Y0023556D01*
X0176248Y0022488D01*
X0174113Y0022488D01*
X0173045Y0023556D01*
X0179491Y0022488D02*
X0179491Y0028894D01*
X0182694Y0028894D01*
X0183761Y0027826D01*
X0183761Y0023556D01*
X0182694Y0022488D01*
X0179491Y0022488D01*
X0185936Y0022488D02*
X0185936Y0028894D01*
X0190207Y0028894D01*
X0188072Y0025691D02*
X0185936Y0025691D01*
X0185936Y0022488D02*
X0190207Y0022488D01*
X0216600Y0023556D02*
X0217668Y0022488D01*
X0219803Y0022488D01*
X0220870Y0023556D01*
X0220870Y0028894D01*
X0223045Y0028894D02*
X0226248Y0028894D01*
X0227316Y0027826D01*
X0227316Y0025691D01*
X0226248Y0024623D01*
X0223045Y0024623D01*
X0223045Y0022488D02*
X0223045Y0028894D01*
X0216600Y0028894D02*
X0216600Y0023556D01*
X0235936Y0022488D02*
X0239139Y0022488D01*
X0240207Y0023556D01*
X0240207Y0027826D01*
X0239139Y0028894D01*
X0235936Y0028894D01*
X0235936Y0022488D01*
X0242382Y0023556D02*
X0243450Y0022488D01*
X0245585Y0022488D01*
X0246652Y0023556D01*
X0246652Y0027826D01*
X0245585Y0028894D01*
X0243450Y0028894D01*
X0242382Y0027826D01*
X0242382Y0023556D01*
X0248827Y0022488D02*
X0248827Y0028894D01*
X0253098Y0028894D02*
X0253098Y0022488D01*
X0250963Y0024623D01*
X0248827Y0022488D01*
X0255273Y0022488D02*
X0255273Y0028894D01*
X0259543Y0022488D01*
X0259543Y0028894D01*
X0271600Y0027826D02*
X0271600Y0026759D01*
X0272668Y0025691D01*
X0274803Y0025691D01*
X0275870Y0024623D01*
X0275870Y0023556D01*
X0274803Y0022488D01*
X0272668Y0022488D01*
X0271600Y0023556D01*
X0271600Y0027826D02*
X0272668Y0028894D01*
X0274803Y0028894D01*
X0275870Y0027826D01*
X0278045Y0028894D02*
X0278045Y0022488D01*
X0282316Y0022488D01*
X0284491Y0022488D02*
X0284491Y0028894D01*
X0287694Y0028894D01*
X0288761Y0027826D01*
X0288761Y0025691D01*
X0287694Y0024623D01*
X0284491Y0024623D01*
X0286626Y0024623D02*
X0288761Y0022488D01*
X0290936Y0022488D02*
X0293072Y0022488D01*
X0292004Y0022488D02*
X0292004Y0028894D01*
X0290936Y0028894D02*
X0293072Y0028894D01*
X0295233Y0026759D02*
X0297369Y0028894D01*
X0299504Y0026759D01*
X0299504Y0022488D01*
X0301679Y0022488D02*
X0305949Y0022488D01*
X0301679Y0022488D02*
X0301679Y0028894D01*
X0299504Y0025691D02*
X0295233Y0025691D01*
X0295233Y0026759D02*
X0295233Y0022488D01*
X0282316Y0028894D02*
X0278045Y0028894D01*
X0278045Y0025691D02*
X0280181Y0025691D01*
X0258800Y0061188D02*
X0258800Y0085188D01*
X0258798Y0085348D01*
X0258792Y0085507D01*
X0258782Y0085666D01*
X0258769Y0085825D01*
X0258751Y0085984D01*
X0258730Y0086142D01*
X0258704Y0086299D01*
X0258675Y0086456D01*
X0258642Y0086612D01*
X0258605Y0086767D01*
X0258565Y0086922D01*
X0258520Y0087075D01*
X0258472Y0087227D01*
X0258420Y0087378D01*
X0258364Y0087527D01*
X0258305Y0087675D01*
X0258242Y0087822D01*
X0258176Y0087967D01*
X0258106Y0088110D01*
X0258032Y0088252D01*
X0257956Y0088392D01*
X0257875Y0088530D01*
X0257792Y0088665D01*
X0257705Y0088799D01*
X0257614Y0088931D01*
X0257521Y0089060D01*
X0257424Y0089187D01*
X0257325Y0089312D01*
X0257222Y0089434D01*
X0257116Y0089553D01*
X0257008Y0089670D01*
X0256896Y0089784D01*
X0256782Y0089896D01*
X0256665Y0090004D01*
X0256546Y0090110D01*
X0256424Y0090213D01*
X0256299Y0090312D01*
X0256172Y0090409D01*
X0256043Y0090502D01*
X0255911Y0090593D01*
X0255777Y0090680D01*
X0255642Y0090763D01*
X0255504Y0090844D01*
X0255364Y0090920D01*
X0255222Y0090994D01*
X0255079Y0091064D01*
X0254934Y0091130D01*
X0254787Y0091193D01*
X0254639Y0091252D01*
X0254490Y0091308D01*
X0254339Y0091360D01*
X0254187Y0091408D01*
X0254034Y0091453D01*
X0253879Y0091493D01*
X0253724Y0091530D01*
X0253568Y0091563D01*
X0253411Y0091592D01*
X0253254Y0091618D01*
X0253096Y0091639D01*
X0252937Y0091657D01*
X0252778Y0091670D01*
X0252619Y0091680D01*
X0252460Y0091686D01*
X0252300Y0091688D01*
X0252140Y0091686D01*
X0251981Y0091680D01*
X0251822Y0091670D01*
X0251663Y0091657D01*
X0251504Y0091639D01*
X0251346Y0091618D01*
X0251189Y0091592D01*
X0251032Y0091563D01*
X0250876Y0091530D01*
X0250721Y0091493D01*
X0250566Y0091453D01*
X0250413Y0091408D01*
X0250261Y0091360D01*
X0250110Y0091308D01*
X0249961Y0091252D01*
X0249813Y0091193D01*
X0249666Y0091130D01*
X0249521Y0091064D01*
X0249378Y0090994D01*
X0249236Y0090920D01*
X0249096Y0090844D01*
X0248958Y0090763D01*
X0248823Y0090680D01*
X0248689Y0090593D01*
X0248557Y0090502D01*
X0248428Y0090409D01*
X0248301Y0090312D01*
X0248176Y0090213D01*
X0248054Y0090110D01*
X0247935Y0090004D01*
X0247818Y0089896D01*
X0247704Y0089784D01*
X0247592Y0089670D01*
X0247484Y0089553D01*
X0247378Y0089434D01*
X0247275Y0089312D01*
X0247176Y0089187D01*
X0247079Y0089060D01*
X0246986Y0088931D01*
X0246895Y0088799D01*
X0246808Y0088665D01*
X0246725Y0088530D01*
X0246644Y0088392D01*
X0246568Y0088252D01*
X0246494Y0088110D01*
X0246424Y0087967D01*
X0246358Y0087822D01*
X0246295Y0087675D01*
X0246236Y0087527D01*
X0246180Y0087378D01*
X0246128Y0087227D01*
X0246080Y0087075D01*
X0246035Y0086922D01*
X0245995Y0086767D01*
X0245958Y0086612D01*
X0245925Y0086456D01*
X0245896Y0086299D01*
X0245870Y0086142D01*
X0245849Y0085984D01*
X0245831Y0085825D01*
X0245818Y0085666D01*
X0245808Y0085507D01*
X0245802Y0085348D01*
X0245800Y0085188D01*
X0245800Y0061188D01*
X0245802Y0061028D01*
X0245808Y0060869D01*
X0245818Y0060710D01*
X0245831Y0060551D01*
X0245849Y0060392D01*
X0245870Y0060234D01*
X0245896Y0060077D01*
X0245925Y0059920D01*
X0245958Y0059764D01*
X0245995Y0059609D01*
X0246035Y0059454D01*
X0246080Y0059301D01*
X0246128Y0059149D01*
X0246180Y0058998D01*
X0246236Y0058849D01*
X0246295Y0058701D01*
X0246358Y0058554D01*
X0246424Y0058409D01*
X0246494Y0058266D01*
X0246568Y0058124D01*
X0246644Y0057984D01*
X0246725Y0057846D01*
X0246808Y0057711D01*
X0246895Y0057577D01*
X0246986Y0057445D01*
X0247079Y0057316D01*
X0247176Y0057189D01*
X0247275Y0057064D01*
X0247378Y0056942D01*
X0247484Y0056823D01*
X0247592Y0056706D01*
X0247704Y0056592D01*
X0247818Y0056480D01*
X0247935Y0056372D01*
X0248054Y0056266D01*
X0248176Y0056163D01*
X0248301Y0056064D01*
X0248428Y0055967D01*
X0248557Y0055874D01*
X0248689Y0055783D01*
X0248823Y0055696D01*
X0248958Y0055613D01*
X0249096Y0055532D01*
X0249236Y0055456D01*
X0249378Y0055382D01*
X0249521Y0055312D01*
X0249666Y0055246D01*
X0249813Y0055183D01*
X0249961Y0055124D01*
X0250110Y0055068D01*
X0250261Y0055016D01*
X0250413Y0054968D01*
X0250566Y0054923D01*
X0250721Y0054883D01*
X0250876Y0054846D01*
X0251032Y0054813D01*
X0251189Y0054784D01*
X0251346Y0054758D01*
X0251504Y0054737D01*
X0251663Y0054719D01*
X0251822Y0054706D01*
X0251981Y0054696D01*
X0252140Y0054690D01*
X0252300Y0054688D01*
X0252460Y0054690D01*
X0252619Y0054696D01*
X0252778Y0054706D01*
X0252937Y0054719D01*
X0253096Y0054737D01*
X0253254Y0054758D01*
X0253411Y0054784D01*
X0253568Y0054813D01*
X0253724Y0054846D01*
X0253879Y0054883D01*
X0254034Y0054923D01*
X0254187Y0054968D01*
X0254339Y0055016D01*
X0254490Y0055068D01*
X0254639Y0055124D01*
X0254787Y0055183D01*
X0254934Y0055246D01*
X0255079Y0055312D01*
X0255222Y0055382D01*
X0255364Y0055456D01*
X0255504Y0055532D01*
X0255642Y0055613D01*
X0255777Y0055696D01*
X0255911Y0055783D01*
X0256043Y0055874D01*
X0256172Y0055967D01*
X0256299Y0056064D01*
X0256424Y0056163D01*
X0256546Y0056266D01*
X0256665Y0056372D01*
X0256782Y0056480D01*
X0256896Y0056592D01*
X0257008Y0056706D01*
X0257116Y0056823D01*
X0257222Y0056942D01*
X0257325Y0057064D01*
X0257424Y0057189D01*
X0257521Y0057316D01*
X0257614Y0057445D01*
X0257705Y0057577D01*
X0257792Y0057711D01*
X0257875Y0057846D01*
X0257956Y0057984D01*
X0258032Y0058124D01*
X0258106Y0058266D01*
X0258176Y0058409D01*
X0258242Y0058554D01*
X0258305Y0058701D01*
X0258364Y0058849D01*
X0258420Y0058998D01*
X0258472Y0059149D01*
X0258520Y0059301D01*
X0258565Y0059454D01*
X0258605Y0059609D01*
X0258642Y0059764D01*
X0258675Y0059920D01*
X0258704Y0060077D01*
X0258730Y0060234D01*
X0258751Y0060392D01*
X0258769Y0060551D01*
X0258782Y0060710D01*
X0258792Y0060869D01*
X0258798Y0061028D01*
X0258800Y0061188D01*
X0252300Y0068188D02*
X0252300Y0070688D01*
X0249300Y0070688D01*
X0249300Y0072188D02*
X0249300Y0074188D01*
X0255300Y0074188D01*
X0255300Y0072188D01*
X0249300Y0072188D01*
X0252300Y0070688D02*
X0255300Y0070688D01*
X0255300Y0075688D02*
X0252300Y0075688D01*
X0252300Y0078188D01*
X0252300Y0075688D02*
X0249300Y0075688D01*
X0169300Y0086688D02*
X0145300Y0086688D01*
X0145140Y0086690D01*
X0144981Y0086696D01*
X0144822Y0086706D01*
X0144663Y0086719D01*
X0144504Y0086737D01*
X0144346Y0086758D01*
X0144189Y0086784D01*
X0144032Y0086813D01*
X0143876Y0086846D01*
X0143721Y0086883D01*
X0143566Y0086923D01*
X0143413Y0086968D01*
X0143261Y0087016D01*
X0143110Y0087068D01*
X0142961Y0087124D01*
X0142813Y0087183D01*
X0142666Y0087246D01*
X0142521Y0087312D01*
X0142378Y0087382D01*
X0142236Y0087456D01*
X0142096Y0087532D01*
X0141958Y0087613D01*
X0141823Y0087696D01*
X0141689Y0087783D01*
X0141557Y0087874D01*
X0141428Y0087967D01*
X0141301Y0088064D01*
X0141176Y0088163D01*
X0141054Y0088266D01*
X0140935Y0088372D01*
X0140818Y0088480D01*
X0140704Y0088592D01*
X0140592Y0088706D01*
X0140484Y0088823D01*
X0140378Y0088942D01*
X0140275Y0089064D01*
X0140176Y0089189D01*
X0140079Y0089316D01*
X0139986Y0089445D01*
X0139895Y0089577D01*
X0139808Y0089711D01*
X0139725Y0089846D01*
X0139644Y0089984D01*
X0139568Y0090124D01*
X0139494Y0090266D01*
X0139424Y0090409D01*
X0139358Y0090554D01*
X0139295Y0090701D01*
X0139236Y0090849D01*
X0139180Y0090998D01*
X0139128Y0091149D01*
X0139080Y0091301D01*
X0139035Y0091454D01*
X0138995Y0091609D01*
X0138958Y0091764D01*
X0138925Y0091920D01*
X0138896Y0092077D01*
X0138870Y0092234D01*
X0138849Y0092392D01*
X0138831Y0092551D01*
X0138818Y0092710D01*
X0138808Y0092869D01*
X0138802Y0093028D01*
X0138800Y0093188D01*
X0138802Y0093348D01*
X0138808Y0093507D01*
X0138818Y0093666D01*
X0138831Y0093825D01*
X0138849Y0093984D01*
X0138870Y0094142D01*
X0138896Y0094299D01*
X0138925Y0094456D01*
X0138958Y0094612D01*
X0138995Y0094767D01*
X0139035Y0094922D01*
X0139080Y0095075D01*
X0139128Y0095227D01*
X0139180Y0095378D01*
X0139236Y0095527D01*
X0139295Y0095675D01*
X0139358Y0095822D01*
X0139424Y0095967D01*
X0139494Y0096110D01*
X0139568Y0096252D01*
X0139644Y0096392D01*
X0139725Y0096530D01*
X0139808Y0096665D01*
X0139895Y0096799D01*
X0139986Y0096931D01*
X0140079Y0097060D01*
X0140176Y0097187D01*
X0140275Y0097312D01*
X0140378Y0097434D01*
X0140484Y0097553D01*
X0140592Y0097670D01*
X0140704Y0097784D01*
X0140818Y0097896D01*
X0140935Y0098004D01*
X0141054Y0098110D01*
X0141176Y0098213D01*
X0141301Y0098312D01*
X0141428Y0098409D01*
X0141557Y0098502D01*
X0141689Y0098593D01*
X0141823Y0098680D01*
X0141958Y0098763D01*
X0142096Y0098844D01*
X0142236Y0098920D01*
X0142378Y0098994D01*
X0142521Y0099064D01*
X0142666Y0099130D01*
X0142813Y0099193D01*
X0142961Y0099252D01*
X0143110Y0099308D01*
X0143261Y0099360D01*
X0143413Y0099408D01*
X0143566Y0099453D01*
X0143721Y0099493D01*
X0143876Y0099530D01*
X0144032Y0099563D01*
X0144189Y0099592D01*
X0144346Y0099618D01*
X0144504Y0099639D01*
X0144663Y0099657D01*
X0144822Y0099670D01*
X0144981Y0099680D01*
X0145140Y0099686D01*
X0145300Y0099688D01*
X0169300Y0099688D01*
X0169460Y0099686D01*
X0169619Y0099680D01*
X0169778Y0099670D01*
X0169937Y0099657D01*
X0170096Y0099639D01*
X0170254Y0099618D01*
X0170411Y0099592D01*
X0170568Y0099563D01*
X0170724Y0099530D01*
X0170879Y0099493D01*
X0171034Y0099453D01*
X0171187Y0099408D01*
X0171339Y0099360D01*
X0171490Y0099308D01*
X0171639Y0099252D01*
X0171787Y0099193D01*
X0171934Y0099130D01*
X0172079Y0099064D01*
X0172222Y0098994D01*
X0172364Y0098920D01*
X0172504Y0098844D01*
X0172642Y0098763D01*
X0172777Y0098680D01*
X0172911Y0098593D01*
X0173043Y0098502D01*
X0173172Y0098409D01*
X0173299Y0098312D01*
X0173424Y0098213D01*
X0173546Y0098110D01*
X0173665Y0098004D01*
X0173782Y0097896D01*
X0173896Y0097784D01*
X0174008Y0097670D01*
X0174116Y0097553D01*
X0174222Y0097434D01*
X0174325Y0097312D01*
X0174424Y0097187D01*
X0174521Y0097060D01*
X0174614Y0096931D01*
X0174705Y0096799D01*
X0174792Y0096665D01*
X0174875Y0096530D01*
X0174956Y0096392D01*
X0175032Y0096252D01*
X0175106Y0096110D01*
X0175176Y0095967D01*
X0175242Y0095822D01*
X0175305Y0095675D01*
X0175364Y0095527D01*
X0175420Y0095378D01*
X0175472Y0095227D01*
X0175520Y0095075D01*
X0175565Y0094922D01*
X0175605Y0094767D01*
X0175642Y0094612D01*
X0175675Y0094456D01*
X0175704Y0094299D01*
X0175730Y0094142D01*
X0175751Y0093984D01*
X0175769Y0093825D01*
X0175782Y0093666D01*
X0175792Y0093507D01*
X0175798Y0093348D01*
X0175800Y0093188D01*
X0175798Y0093028D01*
X0175792Y0092869D01*
X0175782Y0092710D01*
X0175769Y0092551D01*
X0175751Y0092392D01*
X0175730Y0092234D01*
X0175704Y0092077D01*
X0175675Y0091920D01*
X0175642Y0091764D01*
X0175605Y0091609D01*
X0175565Y0091454D01*
X0175520Y0091301D01*
X0175472Y0091149D01*
X0175420Y0090998D01*
X0175364Y0090849D01*
X0175305Y0090701D01*
X0175242Y0090554D01*
X0175176Y0090409D01*
X0175106Y0090266D01*
X0175032Y0090124D01*
X0174956Y0089984D01*
X0174875Y0089846D01*
X0174792Y0089711D01*
X0174705Y0089577D01*
X0174614Y0089445D01*
X0174521Y0089316D01*
X0174424Y0089189D01*
X0174325Y0089064D01*
X0174222Y0088942D01*
X0174116Y0088823D01*
X0174008Y0088706D01*
X0173896Y0088592D01*
X0173782Y0088480D01*
X0173665Y0088372D01*
X0173546Y0088266D01*
X0173424Y0088163D01*
X0173299Y0088064D01*
X0173172Y0087967D01*
X0173043Y0087874D01*
X0172911Y0087783D01*
X0172777Y0087696D01*
X0172642Y0087613D01*
X0172504Y0087532D01*
X0172364Y0087456D01*
X0172222Y0087382D01*
X0172079Y0087312D01*
X0171934Y0087246D01*
X0171787Y0087183D01*
X0171639Y0087124D01*
X0171490Y0087068D01*
X0171339Y0087016D01*
X0171187Y0086968D01*
X0171034Y0086923D01*
X0170879Y0086883D01*
X0170724Y0086846D01*
X0170568Y0086813D01*
X0170411Y0086784D01*
X0170254Y0086758D01*
X0170096Y0086737D01*
X0169937Y0086719D01*
X0169778Y0086706D01*
X0169619Y0086696D01*
X0169460Y0086690D01*
X0169300Y0086688D01*
X0162300Y0093188D02*
X0159800Y0093188D01*
X0159800Y0096188D01*
X0158300Y0096188D02*
X0158300Y0090188D01*
X0156300Y0090188D01*
X0156300Y0096188D01*
X0158300Y0096188D01*
X0159800Y0093188D02*
X0159800Y0090188D01*
X0154800Y0090188D02*
X0154800Y0093188D01*
X0152300Y0093188D01*
X0154800Y0093188D02*
X0154800Y0096188D01*
X0110686Y0101574D02*
X0110686Y0074802D01*
X0083914Y0074802D01*
X0083914Y0101574D01*
X0110686Y0101574D01*
X0085086Y0098988D02*
X0085088Y0099063D01*
X0085094Y0099137D01*
X0085104Y0099211D01*
X0085117Y0099284D01*
X0085135Y0099357D01*
X0085156Y0099428D01*
X0085181Y0099499D01*
X0085210Y0099568D01*
X0085243Y0099635D01*
X0085279Y0099700D01*
X0085318Y0099764D01*
X0085360Y0099825D01*
X0085406Y0099884D01*
X0085455Y0099941D01*
X0085507Y0099994D01*
X0085561Y0100045D01*
X0085618Y0100094D01*
X0085678Y0100138D01*
X0085740Y0100180D01*
X0085804Y0100219D01*
X0085870Y0100254D01*
X0085937Y0100285D01*
X0086007Y0100313D01*
X0086077Y0100337D01*
X0086149Y0100358D01*
X0086222Y0100374D01*
X0086295Y0100387D01*
X0086370Y0100396D01*
X0086444Y0100401D01*
X0086519Y0100402D01*
X0086593Y0100399D01*
X0086668Y0100392D01*
X0086741Y0100381D01*
X0086815Y0100367D01*
X0086887Y0100348D01*
X0086958Y0100326D01*
X0087028Y0100300D01*
X0087097Y0100270D01*
X0087163Y0100237D01*
X0087228Y0100200D01*
X0087291Y0100160D01*
X0087352Y0100116D01*
X0087410Y0100070D01*
X0087466Y0100020D01*
X0087519Y0099968D01*
X0087570Y0099913D01*
X0087617Y0099855D01*
X0087661Y0099795D01*
X0087702Y0099732D01*
X0087740Y0099668D01*
X0087774Y0099602D01*
X0087805Y0099533D01*
X0087832Y0099464D01*
X0087855Y0099393D01*
X0087874Y0099321D01*
X0087890Y0099248D01*
X0087902Y0099174D01*
X0087910Y0099100D01*
X0087914Y0099025D01*
X0087914Y0098951D01*
X0087910Y0098876D01*
X0087902Y0098802D01*
X0087890Y0098728D01*
X0087874Y0098655D01*
X0087855Y0098583D01*
X0087832Y0098512D01*
X0087805Y0098443D01*
X0087774Y0098374D01*
X0087740Y0098308D01*
X0087702Y0098244D01*
X0087661Y0098181D01*
X0087617Y0098121D01*
X0087570Y0098063D01*
X0087519Y0098008D01*
X0087466Y0097956D01*
X0087410Y0097906D01*
X0087352Y0097860D01*
X0087291Y0097816D01*
X0087228Y0097776D01*
X0087163Y0097739D01*
X0087097Y0097706D01*
X0087028Y0097676D01*
X0086958Y0097650D01*
X0086887Y0097628D01*
X0086815Y0097609D01*
X0086741Y0097595D01*
X0086668Y0097584D01*
X0086593Y0097577D01*
X0086519Y0097574D01*
X0086444Y0097575D01*
X0086370Y0097580D01*
X0086295Y0097589D01*
X0086222Y0097602D01*
X0086149Y0097618D01*
X0086077Y0097639D01*
X0086007Y0097663D01*
X0085937Y0097691D01*
X0085870Y0097722D01*
X0085804Y0097757D01*
X0085740Y0097796D01*
X0085678Y0097838D01*
X0085618Y0097882D01*
X0085561Y0097931D01*
X0085507Y0097982D01*
X0085455Y0098035D01*
X0085406Y0098092D01*
X0085360Y0098151D01*
X0085318Y0098212D01*
X0085279Y0098276D01*
X0085243Y0098341D01*
X0085210Y0098408D01*
X0085181Y0098477D01*
X0085156Y0098548D01*
X0085135Y0098619D01*
X0085117Y0098692D01*
X0085104Y0098765D01*
X0085094Y0098839D01*
X0085088Y0098913D01*
X0085086Y0098988D01*
X0045800Y0060688D02*
X0045800Y0055688D01*
X0045798Y0055601D01*
X0045792Y0055514D01*
X0045783Y0055427D01*
X0045770Y0055341D01*
X0045753Y0055255D01*
X0045732Y0055170D01*
X0045707Y0055087D01*
X0045679Y0055004D01*
X0045648Y0054923D01*
X0045613Y0054843D01*
X0045574Y0054765D01*
X0045532Y0054688D01*
X0045487Y0054613D01*
X0045438Y0054541D01*
X0045387Y0054470D01*
X0045332Y0054402D01*
X0045275Y0054337D01*
X0045214Y0054274D01*
X0045151Y0054213D01*
X0045086Y0054156D01*
X0045018Y0054101D01*
X0044947Y0054050D01*
X0044875Y0054001D01*
X0044800Y0053956D01*
X0044723Y0053914D01*
X0044645Y0053875D01*
X0044565Y0053840D01*
X0044484Y0053809D01*
X0044401Y0053781D01*
X0044318Y0053756D01*
X0044233Y0053735D01*
X0044147Y0053718D01*
X0044061Y0053705D01*
X0043974Y0053696D01*
X0043887Y0053690D01*
X0043800Y0053688D01*
X0030800Y0053688D01*
X0030713Y0053690D01*
X0030626Y0053696D01*
X0030539Y0053705D01*
X0030453Y0053718D01*
X0030367Y0053735D01*
X0030282Y0053756D01*
X0030199Y0053781D01*
X0030116Y0053809D01*
X0030035Y0053840D01*
X0029955Y0053875D01*
X0029877Y0053914D01*
X0029800Y0053956D01*
X0029725Y0054001D01*
X0029653Y0054050D01*
X0029582Y0054101D01*
X0029514Y0054156D01*
X0029449Y0054213D01*
X0029386Y0054274D01*
X0029325Y0054337D01*
X0029268Y0054402D01*
X0029213Y0054470D01*
X0029162Y0054541D01*
X0029113Y0054613D01*
X0029068Y0054688D01*
X0029026Y0054765D01*
X0028987Y0054843D01*
X0028952Y0054923D01*
X0028921Y0055004D01*
X0028893Y0055087D01*
X0028868Y0055170D01*
X0028847Y0055255D01*
X0028830Y0055341D01*
X0028817Y0055427D01*
X0028808Y0055514D01*
X0028802Y0055601D01*
X0028800Y0055688D01*
X0028800Y0060688D01*
X0028802Y0060775D01*
X0028808Y0060862D01*
X0028817Y0060949D01*
X0028830Y0061035D01*
X0028847Y0061121D01*
X0028868Y0061206D01*
X0028893Y0061289D01*
X0028921Y0061372D01*
X0028952Y0061453D01*
X0028987Y0061533D01*
X0029026Y0061611D01*
X0029068Y0061688D01*
X0029113Y0061763D01*
X0029162Y0061835D01*
X0029213Y0061906D01*
X0029268Y0061974D01*
X0029325Y0062039D01*
X0029386Y0062102D01*
X0029449Y0062163D01*
X0029514Y0062220D01*
X0029582Y0062275D01*
X0029653Y0062326D01*
X0029725Y0062375D01*
X0029800Y0062420D01*
X0029877Y0062462D01*
X0029955Y0062501D01*
X0030035Y0062536D01*
X0030116Y0062567D01*
X0030199Y0062595D01*
X0030282Y0062620D01*
X0030367Y0062641D01*
X0030453Y0062658D01*
X0030539Y0062671D01*
X0030626Y0062680D01*
X0030713Y0062686D01*
X0030800Y0062688D01*
X0043800Y0062688D01*
X0043887Y0062686D01*
X0043974Y0062680D01*
X0044061Y0062671D01*
X0044147Y0062658D01*
X0044233Y0062641D01*
X0044318Y0062620D01*
X0044401Y0062595D01*
X0044484Y0062567D01*
X0044565Y0062536D01*
X0044645Y0062501D01*
X0044723Y0062462D01*
X0044800Y0062420D01*
X0044875Y0062375D01*
X0044947Y0062326D01*
X0045018Y0062275D01*
X0045086Y0062220D01*
X0045151Y0062163D01*
X0045214Y0062102D01*
X0045275Y0062039D01*
X0045332Y0061974D01*
X0045387Y0061906D01*
X0045438Y0061835D01*
X0045487Y0061763D01*
X0045532Y0061688D01*
X0045574Y0061611D01*
X0045613Y0061533D01*
X0045648Y0061453D01*
X0045679Y0061372D01*
X0045707Y0061289D01*
X0045732Y0061206D01*
X0045753Y0061121D01*
X0045770Y0061035D01*
X0045783Y0060949D01*
X0045792Y0060862D01*
X0045798Y0060775D01*
X0045800Y0060688D01*
D11*
X0037300Y0078188D02*
X0035174Y0078188D01*
X0037300Y0078188D02*
X0037300Y0098188D01*
X0035174Y0098188D01*
X0029505Y0098188D02*
X0025095Y0098188D01*
X0019426Y0098188D02*
X0015056Y0098188D01*
X0009072Y0098188D02*
X0007300Y0098188D01*
X0007300Y0078188D01*
X0008993Y0078188D01*
X0015095Y0078188D02*
X0019505Y0078188D01*
X0025095Y0078188D02*
X0029544Y0078188D01*
X0022300Y0018188D02*
X0022300Y0008188D01*
X0052300Y0008188D01*
X0052300Y0018188D01*
X0022300Y0018188D01*
X0067300Y0018188D02*
X0067300Y0008188D01*
X0087300Y0008188D01*
X0087300Y0018188D01*
X0067300Y0018188D01*
X0097300Y0018188D02*
X0097300Y0008188D01*
X0117300Y0008188D01*
X0117300Y0018188D01*
X0097300Y0018188D01*
X0132300Y0018188D02*
X0132300Y0008188D01*
X0152300Y0008188D01*
X0152300Y0018188D01*
X0132300Y0018188D01*
X0162300Y0018188D02*
X0162300Y0008188D01*
X0202300Y0008188D01*
X0202300Y0018188D01*
X0162300Y0018188D01*
X0217300Y0018188D02*
X0217300Y0008188D01*
X0257300Y0008188D01*
X0257300Y0018188D01*
X0217300Y0018188D01*
X0226800Y0066188D02*
X0226802Y0066232D01*
X0226808Y0066276D01*
X0226818Y0066319D01*
X0226831Y0066361D01*
X0226848Y0066402D01*
X0226869Y0066441D01*
X0226893Y0066478D01*
X0226920Y0066513D01*
X0226950Y0066545D01*
X0226983Y0066575D01*
X0227019Y0066601D01*
X0227056Y0066625D01*
X0227096Y0066644D01*
X0227137Y0066661D01*
X0227180Y0066673D01*
X0227223Y0066682D01*
X0227267Y0066687D01*
X0227311Y0066688D01*
X0227355Y0066685D01*
X0227399Y0066678D01*
X0227442Y0066667D01*
X0227484Y0066653D01*
X0227524Y0066635D01*
X0227563Y0066613D01*
X0227599Y0066589D01*
X0227633Y0066561D01*
X0227665Y0066530D01*
X0227694Y0066496D01*
X0227720Y0066460D01*
X0227742Y0066422D01*
X0227761Y0066382D01*
X0227776Y0066340D01*
X0227788Y0066298D01*
X0227796Y0066254D01*
X0227800Y0066210D01*
X0227800Y0066166D01*
X0227796Y0066122D01*
X0227788Y0066078D01*
X0227776Y0066036D01*
X0227761Y0065994D01*
X0227742Y0065954D01*
X0227720Y0065916D01*
X0227694Y0065880D01*
X0227665Y0065846D01*
X0227633Y0065815D01*
X0227599Y0065787D01*
X0227563Y0065763D01*
X0227524Y0065741D01*
X0227484Y0065723D01*
X0227442Y0065709D01*
X0227399Y0065698D01*
X0227355Y0065691D01*
X0227311Y0065688D01*
X0227267Y0065689D01*
X0227223Y0065694D01*
X0227180Y0065703D01*
X0227137Y0065715D01*
X0227096Y0065732D01*
X0227056Y0065751D01*
X0227019Y0065775D01*
X0226983Y0065801D01*
X0226950Y0065831D01*
X0226920Y0065863D01*
X0226893Y0065898D01*
X0226869Y0065935D01*
X0226848Y0065974D01*
X0226831Y0066015D01*
X0226818Y0066057D01*
X0226808Y0066100D01*
X0226802Y0066144D01*
X0226800Y0066188D01*
X0272300Y0018188D02*
X0272300Y0008188D01*
X0302300Y0008188D01*
X0302300Y0018188D01*
X0272300Y0018188D01*
D12*
X0260800Y0061188D02*
X0260800Y0085188D01*
X0260797Y0085395D01*
X0260790Y0085602D01*
X0260777Y0085808D01*
X0260760Y0086015D01*
X0260737Y0086220D01*
X0260709Y0086426D01*
X0260677Y0086630D01*
X0260639Y0086834D01*
X0260597Y0087036D01*
X0260549Y0087238D01*
X0260497Y0087438D01*
X0260440Y0087637D01*
X0260378Y0087834D01*
X0260311Y0088030D01*
X0260239Y0088224D01*
X0260163Y0088417D01*
X0260082Y0088607D01*
X0259996Y0088796D01*
X0259906Y0088982D01*
X0259812Y0089166D01*
X0259712Y0089348D01*
X0259609Y0089527D01*
X0259501Y0089704D01*
X0259389Y0089878D01*
X0259273Y0090049D01*
X0259152Y0090218D01*
X0259028Y0090383D01*
X0258899Y0090545D01*
X0258767Y0090704D01*
X0258631Y0090860D01*
X0258491Y0091013D01*
X0258347Y0091162D01*
X0258200Y0091307D01*
X0258049Y0091449D01*
X0257895Y0091587D01*
X0257737Y0091722D01*
X0257577Y0091852D01*
X0257413Y0091978D01*
X0257246Y0092101D01*
X0257076Y0092219D01*
X0256903Y0092334D01*
X0256728Y0092444D01*
X0256550Y0092549D01*
X0256369Y0092651D01*
X0256187Y0092747D01*
X0256001Y0092840D01*
X0255814Y0092928D01*
X0255624Y0093011D01*
X0255433Y0093090D01*
X0255240Y0093164D01*
X0255044Y0093233D01*
X0254848Y0093297D01*
X0254650Y0093357D01*
X0254450Y0093412D01*
X0254249Y0093462D01*
X0254047Y0093507D01*
X0253844Y0093547D01*
X0253640Y0093582D01*
X0253435Y0093612D01*
X0253230Y0093637D01*
X0253024Y0093657D01*
X0252817Y0093672D01*
X0252610Y0093682D01*
X0252403Y0093687D01*
X0252197Y0093687D01*
X0251990Y0093682D01*
X0251783Y0093672D01*
X0251576Y0093657D01*
X0251370Y0093637D01*
X0251165Y0093612D01*
X0250960Y0093582D01*
X0250756Y0093547D01*
X0250553Y0093507D01*
X0250351Y0093462D01*
X0250150Y0093412D01*
X0249950Y0093357D01*
X0249752Y0093297D01*
X0249556Y0093233D01*
X0249360Y0093164D01*
X0249167Y0093090D01*
X0248976Y0093011D01*
X0248786Y0092928D01*
X0248599Y0092840D01*
X0248413Y0092747D01*
X0248231Y0092651D01*
X0248050Y0092549D01*
X0247872Y0092444D01*
X0247697Y0092334D01*
X0247524Y0092219D01*
X0247354Y0092101D01*
X0247187Y0091978D01*
X0247023Y0091852D01*
X0246863Y0091722D01*
X0246705Y0091587D01*
X0246551Y0091449D01*
X0246400Y0091307D01*
X0246253Y0091162D01*
X0246109Y0091013D01*
X0245969Y0090860D01*
X0245833Y0090704D01*
X0245701Y0090545D01*
X0245572Y0090383D01*
X0245448Y0090218D01*
X0245327Y0090049D01*
X0245211Y0089878D01*
X0245099Y0089704D01*
X0244991Y0089527D01*
X0244888Y0089348D01*
X0244788Y0089166D01*
X0244694Y0088982D01*
X0244604Y0088796D01*
X0244518Y0088607D01*
X0244437Y0088417D01*
X0244361Y0088224D01*
X0244289Y0088030D01*
X0244222Y0087834D01*
X0244160Y0087637D01*
X0244103Y0087438D01*
X0244051Y0087238D01*
X0244003Y0087036D01*
X0243961Y0086834D01*
X0243923Y0086630D01*
X0243891Y0086426D01*
X0243863Y0086220D01*
X0243840Y0086015D01*
X0243823Y0085808D01*
X0243810Y0085602D01*
X0243803Y0085395D01*
X0243800Y0085188D01*
X0243800Y0061188D01*
X0243803Y0060981D01*
X0243810Y0060774D01*
X0243823Y0060568D01*
X0243840Y0060361D01*
X0243863Y0060156D01*
X0243891Y0059950D01*
X0243923Y0059746D01*
X0243961Y0059542D01*
X0244003Y0059340D01*
X0244051Y0059138D01*
X0244103Y0058938D01*
X0244160Y0058739D01*
X0244222Y0058542D01*
X0244289Y0058346D01*
X0244361Y0058152D01*
X0244437Y0057959D01*
X0244518Y0057769D01*
X0244604Y0057580D01*
X0244694Y0057394D01*
X0244788Y0057210D01*
X0244888Y0057028D01*
X0244991Y0056849D01*
X0245099Y0056672D01*
X0245211Y0056498D01*
X0245327Y0056327D01*
X0245448Y0056158D01*
X0245572Y0055993D01*
X0245701Y0055831D01*
X0245833Y0055672D01*
X0245969Y0055516D01*
X0246109Y0055363D01*
X0246253Y0055214D01*
X0246400Y0055069D01*
X0246551Y0054927D01*
X0246705Y0054789D01*
X0246863Y0054654D01*
X0247023Y0054524D01*
X0247187Y0054398D01*
X0247354Y0054275D01*
X0247524Y0054157D01*
X0247697Y0054042D01*
X0247872Y0053932D01*
X0248050Y0053827D01*
X0248231Y0053725D01*
X0248413Y0053629D01*
X0248599Y0053536D01*
X0248786Y0053448D01*
X0248976Y0053365D01*
X0249167Y0053286D01*
X0249360Y0053212D01*
X0249556Y0053143D01*
X0249752Y0053079D01*
X0249950Y0053019D01*
X0250150Y0052964D01*
X0250351Y0052914D01*
X0250553Y0052869D01*
X0250756Y0052829D01*
X0250960Y0052794D01*
X0251165Y0052764D01*
X0251370Y0052739D01*
X0251576Y0052719D01*
X0251783Y0052704D01*
X0251990Y0052694D01*
X0252197Y0052689D01*
X0252403Y0052689D01*
X0252610Y0052694D01*
X0252817Y0052704D01*
X0253024Y0052719D01*
X0253230Y0052739D01*
X0253435Y0052764D01*
X0253640Y0052794D01*
X0253844Y0052829D01*
X0254047Y0052869D01*
X0254249Y0052914D01*
X0254450Y0052964D01*
X0254650Y0053019D01*
X0254848Y0053079D01*
X0255044Y0053143D01*
X0255240Y0053212D01*
X0255433Y0053286D01*
X0255624Y0053365D01*
X0255814Y0053448D01*
X0256001Y0053536D01*
X0256187Y0053629D01*
X0256369Y0053725D01*
X0256550Y0053827D01*
X0256728Y0053932D01*
X0256903Y0054042D01*
X0257076Y0054157D01*
X0257246Y0054275D01*
X0257413Y0054398D01*
X0257577Y0054524D01*
X0257737Y0054654D01*
X0257895Y0054789D01*
X0258049Y0054927D01*
X0258200Y0055069D01*
X0258347Y0055214D01*
X0258491Y0055363D01*
X0258631Y0055516D01*
X0258767Y0055672D01*
X0258899Y0055831D01*
X0259028Y0055993D01*
X0259152Y0056158D01*
X0259273Y0056327D01*
X0259389Y0056498D01*
X0259501Y0056672D01*
X0259609Y0056849D01*
X0259712Y0057028D01*
X0259812Y0057210D01*
X0259906Y0057394D01*
X0259996Y0057580D01*
X0260082Y0057769D01*
X0260163Y0057959D01*
X0260239Y0058152D01*
X0260311Y0058346D01*
X0260378Y0058542D01*
X0260440Y0058739D01*
X0260497Y0058938D01*
X0260549Y0059138D01*
X0260597Y0059340D01*
X0260639Y0059542D01*
X0260677Y0059746D01*
X0260709Y0059950D01*
X0260737Y0060156D01*
X0260760Y0060361D01*
X0260777Y0060568D01*
X0260790Y0060774D01*
X0260797Y0060981D01*
X0260800Y0061188D01*
X0169300Y0084688D02*
X0145300Y0084688D01*
X0145093Y0084691D01*
X0144886Y0084698D01*
X0144680Y0084711D01*
X0144473Y0084728D01*
X0144268Y0084751D01*
X0144062Y0084779D01*
X0143858Y0084811D01*
X0143654Y0084849D01*
X0143452Y0084891D01*
X0143250Y0084939D01*
X0143050Y0084991D01*
X0142851Y0085048D01*
X0142654Y0085110D01*
X0142458Y0085177D01*
X0142264Y0085249D01*
X0142071Y0085325D01*
X0141881Y0085406D01*
X0141692Y0085492D01*
X0141506Y0085582D01*
X0141322Y0085676D01*
X0141140Y0085776D01*
X0140961Y0085879D01*
X0140784Y0085987D01*
X0140610Y0086099D01*
X0140439Y0086215D01*
X0140270Y0086336D01*
X0140105Y0086460D01*
X0139943Y0086589D01*
X0139784Y0086721D01*
X0139628Y0086857D01*
X0139475Y0086997D01*
X0139326Y0087141D01*
X0139181Y0087288D01*
X0139039Y0087439D01*
X0138901Y0087593D01*
X0138766Y0087751D01*
X0138636Y0087911D01*
X0138510Y0088075D01*
X0138387Y0088242D01*
X0138269Y0088412D01*
X0138154Y0088585D01*
X0138044Y0088760D01*
X0137939Y0088938D01*
X0137837Y0089119D01*
X0137741Y0089301D01*
X0137648Y0089487D01*
X0137560Y0089674D01*
X0137477Y0089864D01*
X0137398Y0090055D01*
X0137324Y0090248D01*
X0137255Y0090444D01*
X0137191Y0090640D01*
X0137131Y0090838D01*
X0137076Y0091038D01*
X0137026Y0091239D01*
X0136981Y0091441D01*
X0136941Y0091644D01*
X0136906Y0091848D01*
X0136876Y0092053D01*
X0136851Y0092258D01*
X0136831Y0092464D01*
X0136816Y0092671D01*
X0136806Y0092878D01*
X0136801Y0093085D01*
X0136801Y0093291D01*
X0136806Y0093498D01*
X0136816Y0093705D01*
X0136831Y0093912D01*
X0136851Y0094118D01*
X0136876Y0094323D01*
X0136906Y0094528D01*
X0136941Y0094732D01*
X0136981Y0094935D01*
X0137026Y0095137D01*
X0137076Y0095338D01*
X0137131Y0095538D01*
X0137191Y0095736D01*
X0137255Y0095932D01*
X0137324Y0096128D01*
X0137398Y0096321D01*
X0137477Y0096512D01*
X0137560Y0096702D01*
X0137648Y0096889D01*
X0137741Y0097075D01*
X0137837Y0097257D01*
X0137939Y0097438D01*
X0138044Y0097616D01*
X0138154Y0097791D01*
X0138269Y0097964D01*
X0138387Y0098134D01*
X0138510Y0098301D01*
X0138636Y0098465D01*
X0138766Y0098625D01*
X0138901Y0098783D01*
X0139039Y0098937D01*
X0139181Y0099088D01*
X0139326Y0099235D01*
X0139475Y0099379D01*
X0139628Y0099519D01*
X0139784Y0099655D01*
X0139943Y0099787D01*
X0140105Y0099916D01*
X0140270Y0100040D01*
X0140439Y0100161D01*
X0140610Y0100277D01*
X0140784Y0100389D01*
X0140961Y0100497D01*
X0141140Y0100600D01*
X0141322Y0100700D01*
X0141506Y0100794D01*
X0141692Y0100884D01*
X0141881Y0100970D01*
X0142071Y0101051D01*
X0142264Y0101127D01*
X0142458Y0101199D01*
X0142654Y0101266D01*
X0142851Y0101328D01*
X0143050Y0101385D01*
X0143250Y0101437D01*
X0143452Y0101485D01*
X0143654Y0101527D01*
X0143858Y0101565D01*
X0144062Y0101597D01*
X0144268Y0101625D01*
X0144473Y0101648D01*
X0144680Y0101665D01*
X0144886Y0101678D01*
X0145093Y0101685D01*
X0145300Y0101688D01*
X0169300Y0101688D01*
X0169507Y0101685D01*
X0169714Y0101678D01*
X0169920Y0101665D01*
X0170127Y0101648D01*
X0170332Y0101625D01*
X0170538Y0101597D01*
X0170742Y0101565D01*
X0170946Y0101527D01*
X0171148Y0101485D01*
X0171350Y0101437D01*
X0171550Y0101385D01*
X0171749Y0101328D01*
X0171946Y0101266D01*
X0172142Y0101199D01*
X0172336Y0101127D01*
X0172529Y0101051D01*
X0172719Y0100970D01*
X0172908Y0100884D01*
X0173094Y0100794D01*
X0173278Y0100700D01*
X0173460Y0100600D01*
X0173639Y0100497D01*
X0173816Y0100389D01*
X0173990Y0100277D01*
X0174161Y0100161D01*
X0174330Y0100040D01*
X0174495Y0099916D01*
X0174657Y0099787D01*
X0174816Y0099655D01*
X0174972Y0099519D01*
X0175125Y0099379D01*
X0175274Y0099235D01*
X0175419Y0099088D01*
X0175561Y0098937D01*
X0175699Y0098783D01*
X0175834Y0098625D01*
X0175964Y0098465D01*
X0176090Y0098301D01*
X0176213Y0098134D01*
X0176331Y0097964D01*
X0176446Y0097791D01*
X0176556Y0097616D01*
X0176661Y0097438D01*
X0176763Y0097257D01*
X0176859Y0097075D01*
X0176952Y0096889D01*
X0177040Y0096702D01*
X0177123Y0096512D01*
X0177202Y0096321D01*
X0177276Y0096128D01*
X0177345Y0095932D01*
X0177409Y0095736D01*
X0177469Y0095538D01*
X0177524Y0095338D01*
X0177574Y0095137D01*
X0177619Y0094935D01*
X0177659Y0094732D01*
X0177694Y0094528D01*
X0177724Y0094323D01*
X0177749Y0094118D01*
X0177769Y0093912D01*
X0177784Y0093705D01*
X0177794Y0093498D01*
X0177799Y0093291D01*
X0177799Y0093085D01*
X0177794Y0092878D01*
X0177784Y0092671D01*
X0177769Y0092464D01*
X0177749Y0092258D01*
X0177724Y0092053D01*
X0177694Y0091848D01*
X0177659Y0091644D01*
X0177619Y0091441D01*
X0177574Y0091239D01*
X0177524Y0091038D01*
X0177469Y0090838D01*
X0177409Y0090640D01*
X0177345Y0090444D01*
X0177276Y0090248D01*
X0177202Y0090055D01*
X0177123Y0089864D01*
X0177040Y0089674D01*
X0176952Y0089487D01*
X0176859Y0089301D01*
X0176763Y0089119D01*
X0176661Y0088938D01*
X0176556Y0088760D01*
X0176446Y0088585D01*
X0176331Y0088412D01*
X0176213Y0088242D01*
X0176090Y0088075D01*
X0175964Y0087911D01*
X0175834Y0087751D01*
X0175699Y0087593D01*
X0175561Y0087439D01*
X0175419Y0087288D01*
X0175274Y0087141D01*
X0175125Y0086997D01*
X0174972Y0086857D01*
X0174816Y0086721D01*
X0174657Y0086589D01*
X0174495Y0086460D01*
X0174330Y0086336D01*
X0174161Y0086215D01*
X0173990Y0086099D01*
X0173816Y0085987D01*
X0173639Y0085879D01*
X0173460Y0085776D01*
X0173278Y0085676D01*
X0173094Y0085582D01*
X0172908Y0085492D01*
X0172719Y0085406D01*
X0172529Y0085325D01*
X0172336Y0085249D01*
X0172142Y0085177D01*
X0171946Y0085110D01*
X0171749Y0085048D01*
X0171550Y0084991D01*
X0171350Y0084939D01*
X0171148Y0084891D01*
X0170946Y0084849D01*
X0170742Y0084811D01*
X0170538Y0084779D01*
X0170332Y0084751D01*
X0170127Y0084728D01*
X0169920Y0084711D01*
X0169714Y0084698D01*
X0169507Y0084691D01*
X0169300Y0084688D01*
X0006800Y0073188D02*
X0006802Y0073232D01*
X0006808Y0073276D01*
X0006818Y0073319D01*
X0006831Y0073361D01*
X0006848Y0073402D01*
X0006869Y0073441D01*
X0006893Y0073478D01*
X0006920Y0073513D01*
X0006950Y0073545D01*
X0006983Y0073575D01*
X0007019Y0073601D01*
X0007056Y0073625D01*
X0007096Y0073644D01*
X0007137Y0073661D01*
X0007180Y0073673D01*
X0007223Y0073682D01*
X0007267Y0073687D01*
X0007311Y0073688D01*
X0007355Y0073685D01*
X0007399Y0073678D01*
X0007442Y0073667D01*
X0007484Y0073653D01*
X0007524Y0073635D01*
X0007563Y0073613D01*
X0007599Y0073589D01*
X0007633Y0073561D01*
X0007665Y0073530D01*
X0007694Y0073496D01*
X0007720Y0073460D01*
X0007742Y0073422D01*
X0007761Y0073382D01*
X0007776Y0073340D01*
X0007788Y0073298D01*
X0007796Y0073254D01*
X0007800Y0073210D01*
X0007800Y0073166D01*
X0007796Y0073122D01*
X0007788Y0073078D01*
X0007776Y0073036D01*
X0007761Y0072994D01*
X0007742Y0072954D01*
X0007720Y0072916D01*
X0007694Y0072880D01*
X0007665Y0072846D01*
X0007633Y0072815D01*
X0007599Y0072787D01*
X0007563Y0072763D01*
X0007524Y0072741D01*
X0007484Y0072723D01*
X0007442Y0072709D01*
X0007399Y0072698D01*
X0007355Y0072691D01*
X0007311Y0072688D01*
X0007267Y0072689D01*
X0007223Y0072694D01*
X0007180Y0072703D01*
X0007137Y0072715D01*
X0007096Y0072732D01*
X0007056Y0072751D01*
X0007019Y0072775D01*
X0006983Y0072801D01*
X0006950Y0072831D01*
X0006920Y0072863D01*
X0006893Y0072898D01*
X0006869Y0072935D01*
X0006848Y0072974D01*
X0006831Y0073015D01*
X0006818Y0073057D01*
X0006808Y0073100D01*
X0006802Y0073144D01*
X0006800Y0073188D01*
D13*
X0079583Y0102952D03*
D14*
X0038500Y0061188D02*
X0038500Y0055188D01*
X0036000Y0055188D02*
X0036000Y0061188D01*
X0036100Y0041188D02*
X0036100Y0035188D01*
X0038600Y0035188D02*
X0038600Y0041188D01*
M02*
